<svg xmlns="http://www.w3.org/2000/svg" viewBox="0 0 172 172"><defs><style>.cls-1{fill:#fff;}</style></defs><title>efectores01</title><g id="img"><path class="cls-1" d="M3.07,172H168.93a3.07,3.07,0,0,0,3.07-3.07V52.21a3.07,3.07,0,0,0-3.07-3.07H122.86V3.07A3.07,3.07,0,0,0,119.79,0H52.21a3.07,3.07,0,0,0-3.07,3.07V49.14H3.07A3.07,3.07,0,0,0,0,52.21V168.93A3.07,3.07,0,0,0,3.07,172Zm73.71-6.14V141.29H95.21v24.57ZM165.86,55.29V165.86h-43V55.29ZM55.29,6.14h61.43V165.86H101.36V141.29h6.14v-6.14h-43v6.14h6.14v24.57H55.29V6.14ZM6.14,55.29h43V165.86h-43Z"/><path class="cls-1" d="M39.93,61.43H15.36a3.07,3.07,0,0,0-3.07,3.07V76.79a3.07,3.07,0,0,0,3.07,3.07H39.93A3.07,3.07,0,0,0,43,76.79V64.5A3.07,3.07,0,0,0,39.93,61.43Zm-21.5,6.14h6.14v6.14H18.43Zm18.43,6.14H30.71V67.57h6.14Z"/><path class="cls-1" d="M39.93,86H15.36a3.07,3.07,0,0,0-3.07,3.07v12.29a3.07,3.07,0,0,0,3.07,3.07H39.93A3.07,3.07,0,0,0,43,101.36V89.07A3.07,3.07,0,0,0,39.93,86Zm-21.5,6.14h6.14v6.14H18.43Zm18.43,6.14H30.71V92.14h6.14Z"/><path class="cls-1" d="M39.93,110.57H15.36a3.07,3.07,0,0,0-3.07,3.07v12.29A3.07,3.07,0,0,0,15.36,129H39.93A3.07,3.07,0,0,0,43,125.93V113.64A3.07,3.07,0,0,0,39.93,110.57Zm-21.5,6.14h6.14v6.14H18.43Zm18.43,6.14H30.71v-6.14h6.14Z"/><path class="cls-1" d="M132.07,79.86h24.57a3.07,3.07,0,0,0,3.07-3.07V64.5a3.07,3.07,0,0,0-3.07-3.07H132.07A3.07,3.07,0,0,0,129,64.5V76.79A3.07,3.07,0,0,0,132.07,79.86Zm21.5-6.14h-6.14V67.57h6.14Zm-18.43-6.14h6.14v6.14h-6.14Z"/><path class="cls-1" d="M132.07,104.43h24.57a3.07,3.07,0,0,0,3.07-3.07V89.07A3.07,3.07,0,0,0,156.64,86H132.07A3.07,3.07,0,0,0,129,89.07v12.29A3.07,3.07,0,0,0,132.07,104.43Zm21.5-6.14h-6.14V92.14h6.14Zm-18.43-6.14h6.14v6.14h-6.14Z"/><path class="cls-1" d="M132.07,129h24.57a3.07,3.07,0,0,0,3.07-3.07V113.64a3.07,3.07,0,0,0-3.07-3.07H132.07a3.07,3.07,0,0,0-3.07,3.07v12.29A3.07,3.07,0,0,0,132.07,129Zm21.5-6.14h-6.14v-6.14h6.14Zm-18.43-6.14h6.14v6.14h-6.14Z"/><path class="cls-1" d="M67.57,43h9.21v9.21a3.07,3.07,0,0,0,3.07,3.07H92.14a3.07,3.07,0,0,0,3.07-3.07V43h9.21a3.07,3.07,0,0,0,3.07-3.07V27.64a3.07,3.07,0,0,0-3.07-3.07H95.21V15.36a3.07,3.07,0,0,0-3.07-3.07H79.86a3.07,3.07,0,0,0-3.07,3.07v9.21H67.57a3.07,3.07,0,0,0-3.07,3.07V39.93A3.07,3.07,0,0,0,67.57,43Zm3.07-12.29h9.21a3.07,3.07,0,0,0,3.07-3.07V18.43h6.14v9.21a3.07,3.07,0,0,0,3.07,3.07h9.21v6.14H92.14a3.07,3.07,0,0,0-3.07,3.07v9.21H82.93V39.93a3.07,3.07,0,0,0-3.07-3.07H70.64Z"/><path class="cls-1" d="M67.57,79.86H79.86a3.07,3.07,0,0,0,3.07-3.07V64.5a3.07,3.07,0,0,0-3.07-3.07H67.57A3.07,3.07,0,0,0,64.5,64.5V76.79A3.07,3.07,0,0,0,67.57,79.86Zm3.07-12.29h6.14v6.14H70.64Z"/><path class="cls-1" d="M104.43,61.43H92.14a3.07,3.07,0,0,0-3.07,3.07V76.79a3.07,3.07,0,0,0,3.07,3.07h12.29a3.07,3.07,0,0,0,3.07-3.07V64.5A3.07,3.07,0,0,0,104.43,61.43Zm-3.07,12.29H95.21V67.57h6.14Z"/><path class="cls-1" d="M67.57,104.43H79.86a3.07,3.07,0,0,0,3.07-3.07V89.07A3.07,3.07,0,0,0,79.86,86H67.57a3.07,3.07,0,0,0-3.07,3.07v12.29A3.07,3.07,0,0,0,67.57,104.43Zm3.07-12.29h6.14v6.14H70.64Z"/><path class="cls-1" d="M104.43,86H92.14a3.07,3.07,0,0,0-3.07,3.07v12.29a3.07,3.07,0,0,0,3.07,3.07h12.29a3.07,3.07,0,0,0,3.07-3.07V89.07A3.07,3.07,0,0,0,104.43,86Zm-3.07,12.29H95.21V92.14h6.14Z"/><path class="cls-1" d="M67.57,129H79.86a3.07,3.07,0,0,0,3.07-3.07V113.64a3.07,3.07,0,0,0-3.07-3.07H67.57a3.07,3.07,0,0,0-3.07,3.07v12.29A3.07,3.07,0,0,0,67.57,129Zm3.07-12.29h6.14v6.14H70.64Z"/><path class="cls-1" d="M104.43,110.57H92.14a3.07,3.07,0,0,0-3.07,3.07v12.29A3.07,3.07,0,0,0,92.14,129h12.29a3.07,3.07,0,0,0,3.07-3.07V113.64A3.07,3.07,0,0,0,104.43,110.57Zm-3.07,12.29H95.21v-6.14h6.14Z"/><rect class="cls-1" x="12.29" y="135.14" width="6.14" height="6.14"/><rect class="cls-1" x="24.57" y="135.14" width="6.14" height="6.14"/><rect class="cls-1" x="36.86" y="135.14" width="6.14" height="6.14"/><rect class="cls-1" x="129" y="135.14" width="6.14" height="6.14"/><rect class="cls-1" x="141.29" y="135.14" width="6.14" height="6.14"/><rect class="cls-1" x="153.57" y="135.14" width="6.14" height="6.14"/></g></svg>