<svg xmlns="http://www.w3.org/2000/svg" viewBox="0 0 601 377"><defs><style>.cls-1,.cls-3{fill:none;}.cls-2{fill:#fff;}.cls-3{stroke:#fff;stroke-linecap:round;stroke-linejoin:round;stroke-width:9px;}</style></defs><title>efectores00</title><g id="texto"><rect class="cls-1" x="266.29" y="174.38" width="11.53" height="11.53"/><rect class="cls-1" x="266.29" y="220.5" width="11.53" height="11.53"/><path class="cls-1" d="M277.82,266.63V285q16.79-3.31,34.59-6.33v-12Z"/><rect class="cls-1" x="266.29" y="128.26" width="11.53" height="11.53"/><rect class="cls-1" x="312.41" y="220.5" width="11.53" height="11.53"/><rect class="cls-1" x="312.41" y="128.26" width="11.53" height="11.53"/><rect class="cls-1" x="312.41" y="174.38" width="11.53" height="11.53"/><path class="cls-1" d="M145.22,105.2V312.75h21.52q27.59-8.54,59.19-16.33V105.2Zm23.06,161.42H156.75V255.09h11.53Zm23.06,0H179.81V255.09h11.53Zm23.06,0H202.87V255.09H214.4Zm0-28.83a5.77,5.77,0,0,1-5.77,5.77H162.52a5.77,5.77,0,0,1-5.77-5.77V214.74a5.77,5.77,0,0,1,5.77-5.77h46.12a5.77,5.77,0,0,1,5.77,5.77Zm0-46.12a5.77,5.77,0,0,1-5.77,5.77H162.52a5.77,5.77,0,0,1-5.77-5.77V168.62a5.77,5.77,0,0,1,5.77-5.77h46.12a5.77,5.77,0,0,1,5.77,5.77Zm-5.77-40.36H162.52a5.77,5.77,0,0,1-5.77-5.77V122.5a5.77,5.77,0,0,1,5.77-5.77h46.12a5.77,5.77,0,0,1,5.77,5.77v23.06A5.77,5.77,0,0,1,208.64,151.32Z"/><rect class="cls-1" x="168.28" y="174.38" width="11.53" height="11.53"/><rect class="cls-1" x="191.34" y="220.5" width="11.53" height="11.53"/><rect class="cls-1" x="168.28" y="220.5" width="11.53" height="11.53"/><path class="cls-1" d="M352.77,13H237.46v280.7q14-3.27,28.83-6.34v-20.7H254.76V255.09h80.71v11.53H323.94v10.15q14.1-2.26,28.83-4.31V13ZM289.35,237.8a5.77,5.77,0,0,1-5.77,5.77H260.52a5.77,5.77,0,0,1-5.77-5.77V214.74a5.77,5.77,0,0,1,5.77-5.77h23.06a5.77,5.77,0,0,1,5.77,5.77Zm0-46.12a5.77,5.77,0,0,1-5.77,5.77H260.52a5.77,5.77,0,0,1-5.77-5.77V168.62a5.77,5.77,0,0,1,5.77-5.77h23.06a5.77,5.77,0,0,1,5.77,5.77Zm0-46.12a5.77,5.77,0,0,1-5.77,5.77H260.52a5.77,5.77,0,0,1-5.77-5.77V122.5a5.77,5.77,0,0,1,5.77-5.77h23.06a5.77,5.77,0,0,1,5.77,5.77Zm46.12,92.24a5.77,5.77,0,0,1-5.77,5.77H306.64a5.77,5.77,0,0,1-5.77-5.77V214.74a5.77,5.77,0,0,1,5.77-5.77h23.06a5.77,5.77,0,0,1,5.77,5.77Zm0-46.12a5.77,5.77,0,0,1-5.77,5.77H306.64a5.77,5.77,0,0,1-5.77-5.77V168.62a5.77,5.77,0,0,1,5.77-5.77h23.06a5.77,5.77,0,0,1,5.77,5.77Zm0-46.12a5.77,5.77,0,0,1-5.77,5.77H306.64a5.77,5.77,0,0,1-5.77-5.77V122.5a5.77,5.77,0,0,1,5.77-5.77h23.06a5.77,5.77,0,0,1,5.77,5.77Zm0-69.18a5.77,5.77,0,0,1-5.77,5.77h-17.3v17.3a5.77,5.77,0,0,1-5.77,5.77H283.58a5.77,5.77,0,0,1-5.77-5.77V82.14h-17.3a5.77,5.77,0,0,1-5.77-5.77V53.31a5.77,5.77,0,0,1,5.77-5.77h17.3V30.25a5.77,5.77,0,0,1,5.77-5.77h23.06a5.77,5.77,0,0,1,5.77,5.77v17.3h17.3a5.77,5.77,0,0,1,5.77,5.77Z"/><rect class="cls-1" x="191.34" y="128.26" width="11.53" height="11.53"/><rect class="cls-1" x="168.28" y="128.26" width="11.53" height="11.53"/><rect class="cls-1" x="191.34" y="174.38" width="11.53" height="11.53"/><path class="cls-1" d="M300.88,53.31V36H289.35v17.3a5.77,5.77,0,0,1-5.77,5.77h-17.3V70.61h17.3a5.77,5.77,0,0,1,5.77,5.77v17.3h11.53V76.37a5.77,5.77,0,0,1,5.77-5.77h17.3V59.08h-17.3A5.77,5.77,0,0,1,300.88,53.31Z"/><rect class="cls-1" x="410.42" y="220.5" width="11.53" height="11.53"/><rect class="cls-1" x="387.36" y="220.5" width="11.53" height="11.53"/><rect class="cls-1" x="410.42" y="128.26" width="11.53" height="11.53"/><rect class="cls-1" x="387.36" y="174.38" width="11.53" height="11.53"/><path class="cls-1" d="M364.3,105.2V270.9q17.49-2.3,35.86-4.28h-1.27V255.09h11.53v10.46q5.72-.58,11.53-1.13v-9.33h11.53v8.28q5.73-.5,11.53-1V105.2Zm23.06,161.42H375.83V255.09h11.53Zm46.12-28.83a5.77,5.77,0,0,1-5.77,5.77H381.59a5.77,5.77,0,0,1-5.77-5.77V214.74a5.77,5.77,0,0,1,5.77-5.77h46.12a5.77,5.77,0,0,1,5.77,5.77Zm0-46.12a5.77,5.77,0,0,1-5.77,5.77H381.59a5.77,5.77,0,0,1-5.77-5.77V168.62a5.77,5.77,0,0,1,5.77-5.77h46.12a5.77,5.77,0,0,1,5.77,5.77Zm-5.77-40.36H381.59a5.77,5.77,0,0,1-5.77-5.77V122.5a5.77,5.77,0,0,1,5.77-5.77h46.12a5.77,5.77,0,0,1,5.77,5.77v23.06A5.77,5.77,0,0,1,427.71,151.32Z"/><rect class="cls-1" x="387.36" y="128.26" width="11.53" height="11.53"/><rect class="cls-1" x="410.42" y="174.38" width="11.53" height="11.53"/><path class="cls-2" d="M145.22,312.75V105.2h80.71V296.42q5.7-1.39,11.53-2.75V13h115.3v259.5q5.72-.8,11.53-1.56V105.2H445V262.41q5.73-.46,11.53-.89V99.43a5.77,5.77,0,0,0-5.77-5.77H364.3V7.19a5.77,5.77,0,0,0-5.77-5.77H231.7a5.77,5.77,0,0,0-5.77,5.77V93.67H139.45a5.77,5.77,0,0,0-5.77,5.77V318.51a5.75,5.75,0,0,0,2.08,4.43q14.82-5.19,31-10.2Z"/><path class="cls-2" d="M335.47,266.63V255.09H254.76v11.53h11.53v20.7q5.71-1.18,11.53-2.33V266.63h34.59v12c3.8-.64,7.66-1.27,11.53-1.89V266.63Z"/><path class="cls-2" d="M208.64,116.73H162.52a5.77,5.77,0,0,0-5.77,5.77v23.06a5.77,5.77,0,0,0,5.77,5.77h46.12a5.77,5.77,0,0,0,5.77-5.77V122.5A5.77,5.77,0,0,0,208.64,116.73Zm-28.83,23.06H168.28V128.26h11.53Zm23.06,0H191.34V128.26h11.53Z"/><path class="cls-2" d="M208.64,162.85H162.52a5.77,5.77,0,0,0-5.77,5.77v23.06a5.77,5.77,0,0,0,5.77,5.77h46.12a5.77,5.77,0,0,0,5.77-5.77V168.62A5.77,5.77,0,0,0,208.64,162.85Zm-28.83,23.06H168.28V174.38h11.53Zm23.06,0H191.34V174.38h11.53Z"/><path class="cls-2" d="M208.64,209H162.52a5.77,5.77,0,0,0-5.77,5.77V237.8a5.77,5.77,0,0,0,5.77,5.77h46.12a5.77,5.77,0,0,0,5.77-5.77V214.74A5.77,5.77,0,0,0,208.64,209ZM179.81,232H168.28V220.5h11.53Zm23.06,0H191.34V220.5h11.53Z"/><path class="cls-2" d="M427.71,116.73H381.59a5.77,5.77,0,0,0-5.77,5.77v23.06a5.77,5.77,0,0,0,5.77,5.77h46.12a5.77,5.77,0,0,0,5.77-5.77V122.5A5.77,5.77,0,0,0,427.71,116.73Zm-28.83,23.06H387.36V128.26h11.53Zm23.06,0H410.42V128.26h11.53Z"/><path class="cls-2" d="M427.71,162.85H381.59a5.77,5.77,0,0,0-5.77,5.77v23.06a5.77,5.77,0,0,0,5.77,5.77h46.12a5.77,5.77,0,0,0,5.77-5.77V168.62A5.77,5.77,0,0,0,427.71,162.85Zm-28.83,23.06H387.36V174.38h11.53Zm23.06,0H410.42V174.38h11.53Z"/><path class="cls-2" d="M427.71,209H381.59a5.77,5.77,0,0,0-5.77,5.77V237.8a5.77,5.77,0,0,0,5.77,5.77h46.12a5.77,5.77,0,0,0,5.77-5.77V214.74A5.77,5.77,0,0,0,427.71,209ZM398.89,232H387.36V220.5h11.53Zm23.06,0H410.42V220.5h11.53Z"/><path class="cls-2" d="M329.71,47.55h-17.3V30.25a5.77,5.77,0,0,0-5.77-5.77H283.58a5.77,5.77,0,0,0-5.77,5.77v17.3h-17.3a5.77,5.77,0,0,0-5.77,5.77V76.37a5.77,5.77,0,0,0,5.77,5.77h17.3v17.3a5.77,5.77,0,0,0,5.77,5.77h23.06a5.77,5.77,0,0,0,5.77-5.77V82.14h17.3a5.77,5.77,0,0,0,5.77-5.77V53.31A5.77,5.77,0,0,0,329.71,47.55Zm-5.77,23.06h-17.3a5.77,5.77,0,0,0-5.77,5.77v17.3H289.35V76.37a5.77,5.77,0,0,0-5.77-5.77h-17.3V59.08h17.3a5.77,5.77,0,0,0,5.77-5.77V36h11.53v17.3a5.77,5.77,0,0,0,5.77,5.77h17.3Z"/><path class="cls-2" d="M283.58,116.73H260.52a5.77,5.77,0,0,0-5.77,5.77v23.06a5.77,5.77,0,0,0,5.77,5.77h23.06a5.77,5.77,0,0,0,5.77-5.77V122.5A5.77,5.77,0,0,0,283.58,116.73Zm-5.77,23.06H266.29V128.26h11.53Z"/><path class="cls-2" d="M329.71,116.73H306.64a5.77,5.77,0,0,0-5.77,5.77v23.06a5.77,5.77,0,0,0,5.77,5.77h23.06a5.77,5.77,0,0,0,5.77-5.77V122.5A5.77,5.77,0,0,0,329.71,116.73Zm-5.77,23.06H312.41V128.26h11.53Z"/><path class="cls-2" d="M283.58,162.85H260.52a5.77,5.77,0,0,0-5.77,5.77v23.06a5.77,5.77,0,0,0,5.77,5.77h23.06a5.77,5.77,0,0,0,5.77-5.77V168.62A5.77,5.77,0,0,0,283.58,162.85Zm-5.77,23.06H266.29V174.38h11.53Z"/><path class="cls-2" d="M329.71,162.85H306.64a5.77,5.77,0,0,0-5.77,5.77v23.06a5.77,5.77,0,0,0,5.77,5.77h23.06a5.77,5.77,0,0,0,5.77-5.77V168.62A5.77,5.77,0,0,0,329.71,162.85Zm-5.77,23.06H312.41V174.38h11.53Z"/><path class="cls-2" d="M283.58,209H260.52a5.77,5.77,0,0,0-5.77,5.77V237.8a5.77,5.77,0,0,0,5.77,5.77h23.06a5.77,5.77,0,0,0,5.77-5.77V214.74A5.77,5.77,0,0,0,283.58,209ZM277.82,232H266.29V220.5h11.53Z"/><path class="cls-2" d="M329.71,209H306.64a5.77,5.77,0,0,0-5.77,5.77V237.8a5.77,5.77,0,0,0,5.77,5.77h23.06a5.77,5.77,0,0,0,5.77-5.77V214.74A5.77,5.77,0,0,0,329.71,209ZM323.94,232H312.41V220.5h11.53Z"/><rect class="cls-2" x="156.75" y="255.09" width="11.53" height="11.53"/><rect class="cls-2" x="179.81" y="255.09" width="11.53" height="11.53"/><rect class="cls-2" x="202.87" y="255.09" width="11.53" height="11.53"/><rect class="cls-2" x="375.83" y="255.09" width="11.53" height="11.53"/><path class="cls-2" d="M398.89,255.09v11.53h1.27q5.1-.55,10.26-1.07V255.09Z"/><path class="cls-2" d="M421.95,255.09v9.33q5.73-.54,11.53-1v-8.28Z"/><path class="cls-3" d="M605,256.25c-53.35,0-102.75,1.88-148.46,5.26q-5.81.43-11.53.89t-11.53,1q-5.81.51-11.53,1t-11.53,1.13q-5.17.52-10.26,1.07-18.37,2-35.86,4.28-5.82.76-11.53,1.56-14.73,2.05-28.83,4.31c-3.87.62-7.73,1.25-11.53,1.89q-17.81,3-34.59,6.33-5.83,1.15-11.53,2.33-14.81,3.07-28.83,6.34-5.83,1.36-11.53,2.75-31.64,7.74-59.19,16.33-16.16,5-31,10.2A1043.42,1043.42,0,0,0,7.67,377.35"/></g></svg>