<svg xmlns="http://www.w3.org/2000/svg" viewBox="0 0 71.67 22.54"><defs><style>.cls-1,.cls-2{fill:#fff;}.cls-1{fill-rule:evenodd;}</style></defs><title>logo_05</title><g id="texto"><path class="cls-1" d="M40.07,7.83a3.33,3.33,0,0,0-1.29.26c-.13,0-.43.16-.47.13s0,0,0-.13c.55-.17.87-.75,1.51-.82C39.88,7.49,40,7.58,40.07,7.83Z"/><path class="cls-1" d="M64.69,16.39a2.09,2.09,0,0,0-.81.16c-.08,0-.27.1-.3.08s0,0,0-.08c.35-.11.55-.47.95-.51C64.57,16.18,64.66,16.23,64.69,16.39Z"/><path class="cls-2" d="M32.1,5.58s-.09.28-.21.72q-.53.16-1,.24a4.77,4.77,0,0,1-.93.09,3.59,3.59,0,0,1-1.21-.21,3.32,3.32,0,0,1-1.08-.63,3.06,3.06,0,0,1-.76-1,3.23,3.23,0,0,1-.28-1.38,3,3,0,0,1,.52-1.79A3.12,3.12,0,0,1,28.53.5,4.22,4.22,0,0,1,30.2.16,3.64,3.64,0,0,1,31.5.4a1.61,1.61,0,0,0,.44.09l.1,0h.08a.09.09,0,0,1,.06,0l-.07.28a7.17,7.17,0,0,0-.18.93.16.16,0,0,1-.12-.06.29.29,0,0,1,0-.15.89.89,0,0,0-.08-.42A1.44,1.44,0,0,0,31,.64,2.68,2.68,0,0,0,30,.42a2.33,2.33,0,0,0-2.16,1.37,3.55,3.55,0,0,0-.33,1.58,3.27,3.27,0,0,0,.29,1.43,2.7,2.7,0,0,0,.72,1,3,3,0,0,0,.89.51,2.44,2.44,0,0,0,.78.16,1.94,1.94,0,0,0,.87-.17,1.63,1.63,0,0,0,.54-.41A3.83,3.83,0,0,0,32,5.24q.07-.14.13-.14t.09.09A2.42,2.42,0,0,1,32.1,5.58Z"/><path class="cls-2" d="M33.78,3.42a3,3,0,0,1,.47-1.63A3.44,3.44,0,0,1,35.49.6,3.31,3.31,0,0,1,37.14.16a3.11,3.11,0,0,1,1.17.23,3.39,3.39,0,0,1,1,.65,3.1,3.1,0,0,1,.73,1,3.2,3.2,0,0,1,.27,1.32,3.26,3.26,0,0,1-1.64,2.83A3.41,3.41,0,0,1,37,6.68a3,3,0,0,1-1.34-.29,3.1,3.1,0,0,1-1-.79A3.49,3.49,0,0,1,34,4.54,3.24,3.24,0,0,1,33.78,3.42ZM34.5,3a3.41,3.41,0,0,0,.4,1.61A3.28,3.28,0,0,0,36,5.87a2.49,2.49,0,0,0,1.42.45,2.2,2.2,0,0,0,1.06-.27,2.12,2.12,0,0,0,.83-.85,2.83,2.83,0,0,0,.33-1.42,3.75,3.75,0,0,0-.22-1.27,3.38,3.38,0,0,0-.6-1.06A2.79,2.79,0,0,0,37.9.75,2.37,2.37,0,0,0,36.84.5a2.29,2.29,0,0,0-1.15.3,2.26,2.26,0,0,0-.86.89A2.74,2.74,0,0,0,34.5,3Z"/><path class="cls-2" d="M42.11.47V.3h1.12L44.3.3V.49a2.59,2.59,0,0,0-.5.08.37.37,0,0,0-.24.22,2.15,2.15,0,0,0-.06.54q0,.43,0,1.1t0,1.37q0,.61,0,1.22a8.11,8.11,0,0,0,0,.81.62.62,0,0,0,.1.33.62.62,0,0,0,.27.09,7,7,0,0,0,.82,0,5,5,0,0,0,1.16-.11,3,3,0,0,0,.7-.24,1,1,0,0,0,.43-.65l.16,0q0,.2-.13.6a5.28,5.28,0,0,1-.24.72,6.08,6.08,0,0,0-.67,0H42V6.41a1.69,1.69,0,0,0,.42-.13.43.43,0,0,0,.2-.24,1.75,1.75,0,0,0,.08-.5q0-.34,0-1V2.43q0-.72,0-1.1A2.15,2.15,0,0,0,42.7.77a.36.36,0,0,0-.18-.24A1.17,1.17,0,0,0,42.11.47Z"/><path class="cls-2" d="M52.07,5.13h.11q-.06.51-.13.84a4.61,4.61,0,0,1-.18.63l-.33,0H49.7l-.76,0-.65,0V6.46l.23-.08a.38.38,0,0,0,.16-.09.29.29,0,0,0,.06-.12,1.94,1.94,0,0,0,0-.26q0-.18,0-.67t0-1.09q0-.6,0-.75l0-1.55q0-.72,0-1a.57.57,0,0,0-.12-.34.8.8,0,0,0-.33-.15.88.88,0,0,1,0-.13H50.7l1.19,0q0,.42-.07.84t-.12.42-.09-.07s0-.08,0-.18,0-.16,0-.18a.43.43,0,0,0-.32-.45,2.64,2.64,0,0,0-.76-.1,6.82,6.82,0,0,0-1.12.1q-.07.81-.07,1.36,0,.36,0,.83t0,.44h.54A9.45,9.45,0,0,0,51,3.2a.67.67,0,0,0,.22-.06A.34.34,0,0,0,51.3,3a3.44,3.44,0,0,0,.11-.43h.11q0,.51,0,.9t0,.91h-.13a1.6,1.6,0,0,0-.1-.62.45.45,0,0,0-.34-.22,5.67,5.67,0,0,0-.91,0,3.45,3.45,0,0,0-.66,0v.69a13.7,13.7,0,0,0,.07,2l.16.05.17,0,.23,0,.38,0a2.87,2.87,0,0,0,.9-.11,1,1,0,0,0,.5-.36A2.3,2.3,0,0,0,52.07,5.13Z"/><path class="cls-2" d="M59.64,3.47v.18l-.24.09a.26.26,0,0,0-.09.13.6.6,0,0,0,0,.17q0,.11,0,.32t0,.8q0,.43,0,.62a.69.69,0,0,0,.06.25.63.63,0,0,0,.14.15l0,.11-.68.13L58,6.55l-.58.06h-.52a4.06,4.06,0,0,1-1.57-.28A3,3,0,0,1,53.6,4.56a3.32,3.32,0,0,1-.2-1.13A3,3,0,0,1,54.53,1a3.68,3.68,0,0,1,1.2-.63A4.53,4.53,0,0,1,57.1.2a3.75,3.75,0,0,1,.51,0L58,.31l.24.06a.94.94,0,0,0,.27.09,1.23,1.23,0,0,1,.3-.22s.07.06.07.18A5.59,5.59,0,0,0,59,1a5.44,5.44,0,0,1,.07.63s0,.07-.06.07h-.06l0-.1a2,2,0,0,0-.67-.79A2.21,2.21,0,0,0,56.88.47a2.56,2.56,0,0,0-1.43.41,2.69,2.69,0,0,0-1,1.07,3,3,0,0,0-.33,1.37,3.07,3.07,0,0,0,.19,1,3.35,3.35,0,0,0,.57,1,2.83,2.83,0,0,0,.93.75,2.63,2.63,0,0,0,1.2.28A2.52,2.52,0,0,0,58,6.21a1.28,1.28,0,0,0,.5-.3.42.42,0,0,0,.07-.21q0-.15,0-.75a5,5,0,0,0,0-.83.4.4,0,0,0-.22-.31,1.71,1.71,0,0,0-.62-.08l-.31,0,0-.21,1.25,0Q59.23,3.51,59.64,3.47Z"/><path class="cls-2" d="M60.87.46V.25l.69,0,.67,0,.51,0,.84,0V.48a2.41,2.41,0,0,0-.58,0,.38.38,0,0,0-.23.18,8.63,8.63,0,0,0-.16,2.34q0,1.4,0,1.77t0,.8a2,2,0,0,0,.05.48.35.35,0,0,0,.24.21,2.07,2.07,0,0,0,.63.08l0,.18H60.82V6.39a2.08,2.08,0,0,0,.71-.12.49.49,0,0,0,.25-.3,3.73,3.73,0,0,0,.12-1q0-.73,0-1.54t0-2.11A1.92,1.92,0,0,0,61.8.78a.42.42,0,0,0-.27-.24A2.12,2.12,0,0,0,60.87.46Z"/><path class="cls-2" d="M65.09,3.42a3,3,0,0,1,.47-1.63A3.44,3.44,0,0,1,66.81.6,3.31,3.31,0,0,1,68.46.16a3.11,3.11,0,0,1,1.17.23,3.39,3.39,0,0,1,1,.65,3.1,3.1,0,0,1,.73,1,3.2,3.2,0,0,1,.27,1.32A3.26,3.26,0,0,1,70,6.23a3.41,3.41,0,0,1-1.74.45,3,3,0,0,1-1.34-.29,3.1,3.1,0,0,1-1-.79,3.49,3.49,0,0,1-.63-1.06A3.24,3.24,0,0,1,65.09,3.42ZM65.82,3a3.41,3.41,0,0,0,.4,1.61,3.28,3.28,0,0,0,1.07,1.21,2.49,2.49,0,0,0,1.42.45,2.2,2.2,0,0,0,1.06-.27,2.12,2.12,0,0,0,.83-.85,2.83,2.83,0,0,0,.33-1.42,3.75,3.75,0,0,0-.22-1.27,3.38,3.38,0,0,0-.6-1.06,2.79,2.79,0,0,0-.89-.71A2.37,2.37,0,0,0,68.15.5,2.29,2.29,0,0,0,67,.8a2.26,2.26,0,0,0-.86.89A2.74,2.74,0,0,0,65.82,3Z"/><path class="cls-2" d="M40.34,13.74h.11q-.06.51-.13.84a4.61,4.61,0,0,1-.18.63l-.33,0H38l-.76,0-.65,0v-.17l.23-.08A.38.38,0,0,0,37,14.9a.29.29,0,0,0,.06-.12,1.94,1.94,0,0,0,0-.26q0-.18,0-.67t0-1.09q0-.6,0-.75l0-1.55q0-.72,0-1A.57.57,0,0,0,37,9.16.8.8,0,0,0,36.62,9a.88.88,0,0,1,0-.13H39l1.19,0q0,.42-.07.84t-.12.42T39.88,10s0-.08,0-.18,0-.16,0-.18a.43.43,0,0,0-.32-.45,2.64,2.64,0,0,0-.76-.1,6.82,6.82,0,0,0-1.12.1q-.07.81-.07,1.36,0,.36,0,.83t0,.44h.54a9.45,9.45,0,0,0,1.06,0,.67.67,0,0,0,.22-.06.34.34,0,0,0,.11-.17,3.44,3.44,0,0,0,.11-.43h.11q0,.51,0,.9t0,.91h-.13a1.6,1.6,0,0,0-.1-.62.45.45,0,0,0-.34-.22,5.67,5.67,0,0,0-.91,0,3.45,3.45,0,0,0-.66,0v.69a13.7,13.7,0,0,0,.07,2l.16.05.17,0,.23,0,.38,0a2.87,2.87,0,0,0,.9-.11,1,1,0,0,0,.5-.36A2.3,2.3,0,0,0,40.34,13.74Z"/><path class="cls-2" d="M42,9.14V9a18.84,18.84,0,0,0,2.19-.11,5.23,5.23,0,0,1,.69,0A4.43,4.43,0,0,1,46.29,9a3.76,3.76,0,0,1,1.18.63,2.94,2.94,0,0,1,.81,1A2.89,2.89,0,0,1,48.57,12a3,3,0,0,1-.45,1.62,3.14,3.14,0,0,1-1.3,1.15,4.26,4.26,0,0,1-1.92.42H42V15q.52,0,.63-.23a11.57,11.57,0,0,0,.12-2.42q0-1.43,0-2.13a2.41,2.41,0,0,0-.14-.87Q42.44,9.13,42,9.14ZM47.73,12a2.82,2.82,0,0,0-.44-1.59,2.85,2.85,0,0,0-1.12-1,3.15,3.15,0,0,0-2.66-.09,16.17,16.17,0,0,0-.07,1.62q0,1.35,0,2.33s0,.15,0,.36v.66q0,.33,0,.38l.75.22a3,3,0,0,0,.66.06,2.89,2.89,0,0,0,1.65-.44,2.51,2.51,0,0,0,.93-1.11A3.58,3.58,0,0,0,47.73,12Z"/><path class="cls-2" d="M50,9.07V8.86l.69,0,.67,0,.51,0,.84,0v.23a2.41,2.41,0,0,0-.58,0,.38.38,0,0,0-.23.18,8.63,8.63,0,0,0-.16,2.34q0,1.4,0,1.77t0,.8a2,2,0,0,0,.05.48.35.35,0,0,0,.24.21,2.07,2.07,0,0,0,.63.08l0,.18H50V15a2.08,2.08,0,0,0,.71-.12.49.49,0,0,0,.25-.3,3.73,3.73,0,0,0,.12-1q0-.73,0-1.54t0-2.11A1.92,1.92,0,0,0,51,9.39a.42.42,0,0,0-.27-.24A2.12,2.12,0,0,0,50,9.07Z"/><path class="cls-2" d="M59.72,14.19s-.09.28-.21.72q-.53.16-1,.24a4.77,4.77,0,0,1-.93.09A3.59,3.59,0,0,1,56.42,15a3.32,3.32,0,0,1-1.08-.63,3.06,3.06,0,0,1-.76-1A3.23,3.23,0,0,1,54.29,12a3,3,0,0,1,.52-1.79,3.12,3.12,0,0,1,1.33-1.08,4.22,4.22,0,0,1,1.67-.35,3.64,3.64,0,0,1,1.3.24,1.61,1.61,0,0,0,.44.09l.1,0h.08a.09.09,0,0,1,.06,0l-.07.28a7.17,7.17,0,0,0-.18.93.16.16,0,0,1-.12-.06.29.29,0,0,1,0-.15.89.89,0,0,0-.08-.42,1.44,1.44,0,0,0-.66-.44A2.68,2.68,0,0,0,57.61,9a2.33,2.33,0,0,0-2.16,1.37A3.55,3.55,0,0,0,55.12,12a3.27,3.27,0,0,0,.29,1.43,2.7,2.7,0,0,0,.72,1,3,3,0,0,0,.89.51,2.44,2.44,0,0,0,.78.16,1.94,1.94,0,0,0,.87-.17,1.63,1.63,0,0,0,.54-.41,3.83,3.83,0,0,0,.38-.58q.07-.14.13-.14t.09.09A2.42,2.42,0,0,1,59.72,14.19Z"/><path class="cls-2" d="M61.4,12a3,3,0,0,1,.47-1.63,3.44,3.44,0,0,1,1.25-1.19,3.31,3.31,0,0,1,1.65-.44A3.11,3.11,0,0,1,65.94,9a3.39,3.39,0,0,1,1,.65,3.1,3.1,0,0,1,.73,1,3.28,3.28,0,0,1-1.36,4.15,3.41,3.41,0,0,1-1.74.45A3,3,0,0,1,63.25,15a3.1,3.1,0,0,1-1-.79,3.49,3.49,0,0,1-.63-1.06A3.24,3.24,0,0,1,61.4,12Zm.72-.37a3.41,3.41,0,0,0,.4,1.61,3.28,3.28,0,0,0,1.07,1.21,2.49,2.49,0,0,0,1.42.45,2.2,2.2,0,0,0,1.06-.27,2.12,2.12,0,0,0,.83-.85,2.83,2.83,0,0,0,.33-1.42A3.75,3.75,0,0,0,67,11.12a3.38,3.38,0,0,0-.6-1.06,2.79,2.79,0,0,0-.89-.71,2.37,2.37,0,0,0-1.07-.25,2.29,2.29,0,0,0-1.15.3,2.26,2.26,0,0,0-.86.89A2.74,2.74,0,0,0,62.12,11.66Z"/><path class="cls-2" d="M26.41,17.74v-.12a12.29,12.29,0,0,0,1.43-.07l.45,0a2.89,2.89,0,0,1,.9.14,2.45,2.45,0,0,1,.77.41,1.92,1.92,0,0,1,.53.65,1.89,1.89,0,0,1,.19.86,2,2,0,0,1-.3,1.05,2,2,0,0,1-.85.75,2.78,2.78,0,0,1-1.26.27h-1.9v-.12q.34,0,.41-.15a7.55,7.55,0,0,0,.08-1.58q0-.93,0-1.39a1.57,1.57,0,0,0-.09-.57Q26.67,17.73,26.41,17.74Zm3.71,1.84a1.84,1.84,0,0,0-.29-1,1.86,1.86,0,0,0-.73-.66,2.05,2.05,0,0,0-1.74-.06,10.56,10.56,0,0,0,0,1.06q0,.88,0,1.52s0,.1,0,.24v.43q0,.22,0,.25l.49.14a2,2,0,0,0,.43,0,1.89,1.89,0,0,0,1.08-.28,1.64,1.64,0,0,0,.61-.73A2.33,2.33,0,0,0,30.12,19.58Z"/><path class="cls-2" d="M34.13,20.74h.07q0,.33-.08.55a3,3,0,0,1-.12.41H32.58l-.5,0-.43,0v-.11l.15,0a.25.25,0,0,0,.1-.06.19.19,0,0,0,0-.08,1.28,1.28,0,0,0,0-.17q0-.12,0-.44t0-.71q0-.39,0-.49l0-1q0-.47,0-.63a.37.37,0,0,0-.08-.22.52.52,0,0,0-.22-.1.57.57,0,0,1,0-.08h1.53l.78,0q0,.27,0,.55t-.08.27s-.06,0-.06,0,0-.05,0-.12,0-.11,0-.12a.28.28,0,0,0-.21-.3,1.72,1.72,0,0,0-.5-.06,4.45,4.45,0,0,0-.73.06q0,.53,0,.89t0,.54q0,.3,0,.29h.35a6.16,6.16,0,0,0,.69,0l.14,0a.22.22,0,0,0,.07-.11A2.24,2.24,0,0,0,33.7,19h.07q0,.33,0,.59t0,.6h-.08a1,1,0,0,0-.07-.41.29.29,0,0,0-.22-.15,3.7,3.7,0,0,0-.59,0,2.25,2.25,0,0,0-.43,0v.45a8.94,8.94,0,0,0,0,1.27l.1,0,.11,0,.15,0H33a1.87,1.87,0,0,0,.59-.07.63.63,0,0,0,.33-.23A1.5,1.5,0,0,0,34.13,20.74Z"/><path class="cls-2" d="M37.15,17.68v-.13l.37,0H38q.19.24.45.51l.58.58.36.35,1.87,1.78q0-.4,0-1.2V19q0-.49,0-.74a1,1,0,0,0-.09-.37.33.33,0,0,0-.17-.16,2.19,2.19,0,0,0-.36-.08l0-.09H41l.23,0h.71v.11a.64.64,0,0,0-.27.09.34.34,0,0,0-.12.2,6.78,6.78,0,0,0-.08,1q0,.76,0,1.44,0,.27,0,.52t0,.44q0,.2,0,.37h-.13A6.34,6.34,0,0,0,40,20.24l-1.19-1.11-.29-.26L38,18.32l0,1.94a5,5,0,0,0,0,.84.42.42,0,0,0,.18.32,2,2,0,0,0,.53.15.51.51,0,0,1,0,.12h-1.1l-.22,0-.07,0a.07.07,0,0,1,0-.06s0-.05,0-.06l.07,0a.56.56,0,0,0,.2-.05.25.25,0,0,0,.1-.13,1.21,1.21,0,0,0,.06-.31q0-.21,0-.55l0-1.51a6.94,6.94,0,0,0,0-.74.74.74,0,0,0-.14-.39A.57.57,0,0,0,37.15,17.68Z"/><path class="cls-2" d="M45.49,20.74h.07q0,.33-.08.55a3,3,0,0,1-.12.41H44l-.5,0-.43,0v-.11l.15,0a.25.25,0,0,0,.1-.06.19.19,0,0,0,0-.08,1.28,1.28,0,0,0,0-.17q0-.12,0-.44t0-.71q0-.39,0-.49l0-1q0-.47,0-.63a.37.37,0,0,0-.08-.22.52.52,0,0,0-.22-.1.57.57,0,0,1,0-.08H44.6l.78,0q0,.27,0,.55t-.08.27s-.06,0-.06,0,0-.05,0-.12,0-.11,0-.12a.28.28,0,0,0-.21-.3,1.72,1.72,0,0,0-.5-.06,4.45,4.45,0,0,0-.73.06q0,.53,0,.89t0,.54q0,.3,0,.29h.35a6.16,6.16,0,0,0,.69,0l.14,0a.22.22,0,0,0,.07-.11,2.24,2.24,0,0,0,.07-.28h.07q0,.33,0,.59t0,.6H45a1,1,0,0,0-.07-.41.29.29,0,0,0-.22-.15,3.7,3.7,0,0,0-.59,0,2.25,2.25,0,0,0-.43,0v.45a8.94,8.94,0,0,0,0,1.27l.1,0,.11,0,.15,0h.25a1.87,1.87,0,0,0,.59-.07.63.63,0,0,0,.33-.23A1.5,1.5,0,0,0,45.49,20.74Z"/><path class="cls-2" d="M46.6,17.72V17.6h.45l1.06,0,0,.1a1.42,1.42,0,0,0-.4.09.33.33,0,0,0-.15.14,5.73,5.73,0,0,0-.1,1.49q0,.45,0,.79a3.55,3.55,0,0,0,.05.53.82.82,0,0,0,.51.64,2.11,2.11,0,0,0,.76.16,2.45,2.45,0,0,0,.48-.06,1.69,1.69,0,0,0,.53-.21.73.73,0,0,0,.34-.41,7.32,7.32,0,0,0,.17-2,6.07,6.07,0,0,0,0-.67.86.86,0,0,0-.09-.32.25.25,0,0,0-.15-.12,1.37,1.37,0,0,0-.29,0v-.11l.32,0H51v.13a.89.89,0,0,0-.3,0,.17.17,0,0,0-.1.14,3.46,3.46,0,0,0,0,.42q0,.6,0,1.06t0,.76a4.37,4.37,0,0,1-.08.53,1.58,1.58,0,0,1-.13.38,1,1,0,0,1-.45.42,2.13,2.13,0,0,1-.62.2,4,4,0,0,1-.57,0,2.35,2.35,0,0,1-.79-.13,1.27,1.27,0,0,1-.59-.43,1.22,1.22,0,0,1-.23-.77q0-.11,0-.62t0-.76A5,5,0,0,0,47,17.86a.12.12,0,0,0-.07-.09Z"/><path class="cls-2" d="M56.83,22.31l0,.08a1.4,1.4,0,0,1-.42.12l-.37,0a3,3,0,0,1-2-.8,3.67,3.67,0,0,1-.5,0,2.07,2.07,0,0,1-.43-.13,1.92,1.92,0,0,1-.7-.5,2.27,2.27,0,0,1-.42-.71,2.18,2.18,0,0,1-.14-.75,2,2,0,0,1,.3-1,2.21,2.21,0,0,1,.8-.78,2.16,2.16,0,0,1,1.09-.29,2,2,0,0,1,.76.15,2.18,2.18,0,0,1,.68.43,2,2,0,0,1,.48.67,2.15,2.15,0,0,1,0,1.71,2.21,2.21,0,0,1-.5.71,1.55,1.55,0,0,1-.31.24l-.42.2a3.32,3.32,0,0,0,1.75.73ZM52.4,19.38a2.21,2.21,0,0,0,.15.81,2.3,2.3,0,0,0,.42.69,2,2,0,0,0,.61.47,1.58,1.58,0,0,0,.71.17,1.41,1.41,0,0,0,1.24-.73,1.83,1.83,0,0,0,.21-.92A2.43,2.43,0,0,0,55.6,19a2.19,2.19,0,0,0-.39-.68,1.85,1.85,0,0,0-.58-.46,1.54,1.54,0,0,0-.7-.17,1.49,1.49,0,0,0-.75.2,1.47,1.47,0,0,0-.56.58A1.79,1.79,0,0,0,52.4,19.38Z"/><path class="cls-2" d="M57.17,17.72V17.6h.45l1.06,0,0,.1a1.42,1.42,0,0,0-.4.09.33.33,0,0,0-.15.14,5.73,5.73,0,0,0-.1,1.49q0,.45,0,.79a3.55,3.55,0,0,0,.05.53.82.82,0,0,0,.51.64,2.11,2.11,0,0,0,.76.16,2.45,2.45,0,0,0,.48-.06,1.69,1.69,0,0,0,.53-.21.73.73,0,0,0,.34-.41,7.32,7.32,0,0,0,.17-2,6.07,6.07,0,0,0,0-.67.86.86,0,0,0-.09-.32.25.25,0,0,0-.15-.12,1.37,1.37,0,0,0-.29,0v-.11l.32,0h.92v.13a.89.89,0,0,0-.3,0,.17.17,0,0,0-.1.14,3.46,3.46,0,0,0,0,.42q0,.6,0,1.06t0,.76a4.37,4.37,0,0,1-.08.53,1.58,1.58,0,0,1-.13.38,1,1,0,0,1-.45.42,2.13,2.13,0,0,1-.62.2,4,4,0,0,1-.57,0,2.35,2.35,0,0,1-.79-.13,1.27,1.27,0,0,1-.59-.43,1.22,1.22,0,0,1-.23-.77q0-.11,0-.62t0-.76a5,5,0,0,0-.09-1.17.12.12,0,0,0-.07-.09Z"/><path class="cls-2" d="M64.92,20.74H65q0,.33-.08.55a3,3,0,0,1-.12.41H63.38l-.5,0-.43,0v-.11l.15,0a.25.25,0,0,0,.1-.06.19.19,0,0,0,0-.08,1.28,1.28,0,0,0,0-.17q0-.12,0-.44t0-.71q0-.39,0-.49l0-1q0-.47,0-.63a.37.37,0,0,0-.08-.22.52.52,0,0,0-.22-.1.57.57,0,0,1,0-.08H64l.78,0q0,.27,0,.55t-.08.27s-.06,0-.06,0,0-.05,0-.12,0-.11,0-.12a.28.28,0,0,0-.21-.3,1.72,1.72,0,0,0-.5-.06,4.45,4.45,0,0,0-.73.06q0,.53,0,.89t0,.54q0,.3,0,.29h.35a6.16,6.16,0,0,0,.69,0l.14,0a.22.22,0,0,0,.07-.11,2.24,2.24,0,0,0,.07-.28h.07q0,.33,0,.59t0,.6h-.08a1,1,0,0,0-.07-.41.29.29,0,0,0-.22-.15,3.7,3.7,0,0,0-.59,0,2.25,2.25,0,0,0-.43,0v.45a8.94,8.94,0,0,0,0,1.27l.1,0,.11,0,.15,0h.25a1.87,1.87,0,0,0,.59-.07.63.63,0,0,0,.33-.23A1.5,1.5,0,0,0,64.92,20.74Z"/><path class="cls-2" d="M66,17.68v-.13l.37,0h.46q.19.24.45.51l.58.58.36.35,1.87,1.78q0-.4,0-1.2V19q0-.49,0-.74a1,1,0,0,0-.09-.37.33.33,0,0,0-.17-.16,2.19,2.19,0,0,0-.36-.08l0-.09h.35l.23,0h.71v.11a.64.64,0,0,0-.27.09.34.34,0,0,0-.12.2,6.78,6.78,0,0,0-.08,1q0,.76,0,1.44,0,.27,0,.52t0,.44q0,.2,0,.37H70.2a6.34,6.34,0,0,0-1.32-1.5l-1.19-1.11-.29-.26-.59-.55,0,1.94a5,5,0,0,0,0,.84.42.42,0,0,0,.18.32,2,2,0,0,0,.53.15.51.51,0,0,1,0,.12h-1.1l-.22,0-.07,0a.07.07,0,0,1,0-.06s0-.05,0-.06l.07,0a.56.56,0,0,0,.2-.05.25.25,0,0,0,.1-.13,1.21,1.21,0,0,0,.06-.31q0-.21,0-.55l0-1.51a6.94,6.94,0,0,0,0-.74.74.74,0,0,0-.14-.39A.57.57,0,0,0,66,17.68Z"/><path class="cls-1" d="M27.69,8.65c.33.08.59,1,.76,1.31.43.82.79,1.68,1.22,2.53A8.17,8.17,0,0,1,30.43,14h0v0a6.52,6.52,0,0,0,.72-1.56c.36-.82.82-1.68,1.22-2.49.15-.31.4-1.24.72-1.31v.08c.21.35.07.94.17,1.39.22,1,.16,2.13.38,3.12.13.6-.06,1.45.46,1.64.15.13.47.1.67.17v0h0A5,5,0,0,1,33,15V15a3.13,3.13,0,0,0,0-1.26l-.34-3.37h0v.08A4.87,4.87,0,0,0,32,11.68c-.31.69-.75,1.41-1.05,2.11a7.76,7.76,0,0,1-.63,1.35c-.15.05-.55-.9-.63-1.05-.47-.91-.92-1.84-1.35-2.82a6.23,6.23,0,0,1-.42-.88h0v.46c-.15.24,0,.65-.08,1s0,1-.13,1.47a4.54,4.54,0,0,0-.08,1.6c.16.07.4.1.59.17v0h0a7.27,7.27,0,0,1-1.77,0V15h0v0c.25,0,.44,0,.51-.21.27-.37.13-1.4.25-1.94Z"/><path class="cls-1" d="M2.63,21.85H0L.33,0C2.64,0,10.63,0,10.6,0a3.6,3.6,0,0,0-.48.37C10,.51,10,.73,9.83.83S9.15,1,9,1.2s-.19.46-.33.7-.21.2-.25.29L8.31,3a4,4,0,0,0-.37,1.56C6.28,5,4.41,7.34,5.84,9.26a5.27,5.27,0,0,0,1.85,1.32c.45.17,1.11.07,1.48.33-.21.35.12.83-.16,1.19-.28.21-.67.25-.95.45-.66.48-1.21,2.05-.41,2.8-.1.43-.44,1-.29,1.56a4.87,4.87,0,0,1,.29,1.32,2.17,2.17,0,0,1-.21,1.11s-.15.12-.16.16c-.17.41.22.83.29,1.11s-.34.8-.21,1.11a1.29,1.29,0,0,0,.25.12v0"/><path class="cls-1" d="M22.34,0c-.07,7.32,0,21.89,0,21.89s-11.36,0-12.22,0H9s1.3-.52,1.28-1.48c.13-.14.17-.34.37-.41v0h0c.11.32,1.08.24,1.44.16l0-.12c.1-.17,0-.63.08-.82a2.53,2.53,0,0,0,2.47-1.73c.15-.57-.18-1-.25-1.36.18-.14.24-.39.37-.58.31-.42.8-.73,1.11-1.15.14-.2.26-.56.45-.7l.41-.12c.12-.06.24-.23.37-.29.35-.15.94-.05,1.15-.33l.12-.33c0-.05.14-.14.16-.21V7.49a6,6,0,0,0-.08-1.65c-.34,0-.68-.14-1.07-.16,0-2.06-1.74-1.62-3.41-1.93-.27-.53-.88-.72-1-1.4a.57.57,0,0,1-.29-.08s0-.07,0-.16h-.21l0-.37-.58-.45c-.05-.11.05-.27,0-.33h-.21a6,6,0,0,0-.08-.7A.51.51,0,0,1,11.45,0Z"/><path class="cls-1" d="M12.34,6.09V4.16c1.83-.06,3.8-.15,4.77.78,0,.65,0,1.41-.49,1.65a2.19,2.19,0,0,1-1.36-.12A13.22,13.22,0,0,0,12.34,6.09Z"/><path class="cls-1" d="M10.9,4.28V6.18l0,0c-1.17,0-3.28.5-3.29,1.6,0,0,0,0,0,.08a15.79,15.79,0,0,0,4.28,1.4c1.27.32,2.77.27,3.7.91.51.35,1.19,1.73.41,2.35a5.69,5.69,0,0,1-3.7.91V12a3,3,0,0,1,.82,0c.43-.25,1.48.29,1.52-.53A11.12,11.12,0,0,0,12.26,11c-2.28-.55-4.94-.32-6.13-1.93a2.35,2.35,0,0,1,0-2.72A5.65,5.65,0,0,1,10.9,4.28Z"/><path class="cls-1" d="M10.78,13.54c-.67,0-1.58.12-1.85.53-.06.08-.08.14,0,.21.13.34.63.4,1,.53a22.54,22.54,0,0,0,2.18.58,8,8,0,0,1,1.19.25A1.55,1.55,0,0,1,14.11,18a2.93,2.93,0,0,1-1.85.86v-.91a1.72,1.72,0,0,0,1.07-.7V17c-.13-.08-.22-.23-.37-.29L10.7,16.3a7.82,7.82,0,0,1-2.67-1,1.48,1.48,0,0,1-.25-1.69c.6-1.18,1.54-1.17,3-1.44Z"/><path class="cls-1" d="M10.7,18a3.28,3.28,0,0,1,0,.91c-.62-.1-1.87,0-2.06-.53-.26-.32.07-.6.49-.53A15.22,15.22,0,0,0,10.7,18Z"/><polygon class="cls-1" points="12.05 8.93 11.23 8.76 11.23 1.98 12.05 1.98 12.05 8.93"/><polygon class="cls-1" points="12.05 14.99 11.23 14.86 11.23 11.14 12.05 11.29 12.05 14.99"/><polygon class="cls-1" points="12.05 19.89 11.23 19.84 11.23 16.81 12.05 16.88 12.05 19.89"/></g></svg>