<svg xmlns="http://www.w3.org/2000/svg" viewBox="0 0 715.96 145.42"><defs><style>.cls-1,.cls-2{fill:#fff;}.cls-1{fill-rule:evenodd;}</style></defs><title>logo_nqn_provincia</title><g id="img"><polygon class="cls-1" points="40.6 78.77 15.92 46.3 15.92 78.77 0.05 78.77 0.05 20.48 14.83 20.48 39.56 53.07 39.56 20.48 55.33 20.48 55.33 78.77 40.6 78.77"/><polygon class="cls-1" points="57.9 33.77 57.9 42.91 85.43 42.91 85.43 56.23 57.9 56.23 57.9 65.45 89.09 65.45 89.09 78.77 40.61 78.77 40.61 20.47 97.65 20.47 97.65 33.77 57.9 33.77"/><path class="cls-1" d="M147.11,54.13c0,15.48-10.55,25.36-27.18,25.36S92.32,69.6,92.32,54.13V20.47h17.32V54.13C109.64,60.85,114.2,65,120,65s9.82-4.11,9.82-10.92V20.47h17.26Z"/><path class="cls-1" d="M180.53,65c7.66,0,13.81-6.58,13.81-15.4s-6.15-15.23-13.81-15.23-14.31,6.43-14.31,15.23S172.89,65,180.53,65ZM214.7,86.55A28.15,28.15,0,0,1,197.36,93c-8.5,0-15.48-5.31-18.89-13.63-17.4-.83-29.94-13.2-29.94-29.84C148.53,32.43,162,20,180.29,20s31.77,12.52,31.77,29.59a29.17,29.17,0,0,1-18.64,27.49,7.53,7.53,0,0,0,5.81,3.26c2.51,0,6.15-1.54,9.66-4.14Z"/><path class="cls-1" d="M268.32,54.13c0,15.48-10.53,25.36-27.18,25.36s-27.6-9.88-27.6-25.36V20.47h17.29V54.13c0,6.72,4.56,10.92,10.39,10.92S251,60.93,251,54.13V20.47h17.28Z"/><path class="cls-1" d="M279.17,16.2h-12.3l8.91-15,14.55,4.85L279.17,16.2ZM268.3,33.77v9.14h27.51V56.23H268.3v9.22h31.17V78.77H246.63l4.35-4V20.47h56.73v13.3Z"/><polygon class="cls-1" points="344.19 78.77 319.49 46.3 319.49 78.77 303.58 78.77 303.58 20.48 318.41 20.48 343.11 53.07 343.11 20.48 358.92 20.48 358.92 78.77 344.19 78.77"/><path class="cls-1" d="M9.29,115.21a5.56,5.56,0,0,0,4-1.09,4.9,4.9,0,0,0,0-6.49,6,6,0,0,0-4-1.09H3.15v8.66Zm1.09-11.32a7.37,7.37,0,0,1,5.41,1.83,8.11,8.11,0,0,1,0,10.3c-1.21,1.29-3,1.88-5.41,1.86H3.15v9.65H0V103.89Z"/><path class="cls-1" d="M56.44,114.64a4.7,4.7,0,0,0,1.74-.69,3.35,3.35,0,0,0,1.18-1.27,4.17,4.17,0,0,0,.48-2.09,4.22,4.22,0,0,0-1-2.93,4.09,4.09,0,0,0-3.2-1.11H47.8v8.21h6.57a16.87,16.87,0,0,0,2.08-.13Zm-.68-10.75a7.71,7.71,0,0,1,5.3,1.67A5.55,5.55,0,0,1,63,110.08a7.12,7.12,0,0,1-1,3.8,5.08,5.08,0,0,1-3.11,2.19v.08a5,5,0,0,1,1.68.64,4.19,4.19,0,0,1,1,1.13,5.12,5.12,0,0,1,.54,1.41,15,15,0,0,1,.29,1.63c0,.61.07,1.19.11,1.79a9.72,9.72,0,0,0,.16,1.76,16.16,16.16,0,0,0,.35,1.62,5.58,5.58,0,0,0,.76,1.38H60.27a1.82,1.82,0,0,1-.42-1,9.12,9.12,0,0,1-.17-1.45c0-.49,0-1,0-1.65s-.13-1.19-.21-1.76a12,12,0,0,0-.35-1.63,3.29,3.29,0,0,0-.63-1.37,3,3,0,0,0-1.12-.93,4.35,4.35,0,0,0-1.87-.36H47.8v10.12H44.66V103.89Z"/><path class="cls-1" d="M92.8,119.24a9.32,9.32,0,0,0,1.47,3.13,7.18,7.18,0,0,0,2.53,2.24,7.86,7.86,0,0,0,3.74.83,7.67,7.67,0,0,0,3.69-.83,7.26,7.26,0,0,0,2.55-2.24,9.57,9.57,0,0,0,1.46-3.13,13.85,13.85,0,0,0,0-7.05,9.67,9.67,0,0,0-1.46-3.13,7.43,7.43,0,0,0-6.24-3.09,7.83,7.83,0,0,0-3.74.86,7.47,7.47,0,0,0-2.53,2.23,9.42,9.42,0,0,0-1.47,3.13,13.84,13.84,0,0,0,0,7.05ZM89.94,111a11.6,11.6,0,0,1,2.11-3.94,10.08,10.08,0,0,1,3.53-2.73,11,11,0,0,1,5-1,10.91,10.91,0,0,1,4.91,1A10.19,10.19,0,0,1,109,107.1a13.33,13.33,0,0,1,2.16,3.94,16.41,16.41,0,0,1,0,9.34,13.05,13.05,0,0,1-2.16,3.94,10.43,10.43,0,0,1-3.55,2.72,11,11,0,0,1-4.91,1,11.18,11.18,0,0,1-5-1,10.31,10.31,0,0,1-3.53-2.72,11.39,11.39,0,0,1-2.11-3.94,14.72,14.72,0,0,1,0-9.34Z"/><polygon class="cls-1" points="144.6 127.52 136.3 103.9 139.67 103.9 146.42 124.4 146.49 124.4 153.33 103.9 156.59 103.9 148.18 127.52 144.6 127.52"/><rect class="cls-2" x="182.42" y="103.9" width="3.15" height="23.63"/><polygon class="cls-1" points="217.36 103.9 229.84 123.08 229.88 123.08 229.88 103.9 232.87 103.9 232.87 127.52 229.43 127.52 217.07 108.56 216.99 108.56 216.99 127.52 214.02 127.52 214.02 103.9 217.36 103.9"/><path class="cls-1" d="M275.45,107.23a7.62,7.62,0,0,0-4.32-1.25,7.44,7.44,0,0,0-3.59.82,6.87,6.87,0,0,0-2.51,2.14,9.44,9.44,0,0,0-1.45,3.06,14.85,14.85,0,0,0-.44,3.55,16.68,16.68,0,0,0,.44,3.83,9.73,9.73,0,0,0,1.45,3.17,7.12,7.12,0,0,0,2.52,2.09,7.26,7.26,0,0,0,3.61.82A7.45,7.45,0,0,0,274,125a6.48,6.48,0,0,0,3.44-3.63,9.06,9.06,0,0,0,.57-2.7h3.15a10.52,10.52,0,0,1-3.07,6.93,10,10,0,0,1-7.14,2.5,11.19,11.19,0,0,1-4.81-1,9.46,9.46,0,0,1-3.42-2.58,11.08,11.08,0,0,1-2-3.91,17.42,17.42,0,0,1-.69-4.82,15.92,15.92,0,0,1,.74-4.85,11.27,11.27,0,0,1,2.12-3.95,9.87,9.87,0,0,1,3.53-2.68,11.42,11.42,0,0,1,4.78-1,13.26,13.26,0,0,1,3.53.49,9.25,9.25,0,0,1,3,1.47,9,9,0,0,1,2.16,2.39,8.69,8.69,0,0,1,1.12,3.34h-3.15A5.77,5.77,0,0,0,275.45,107.23Z"/><rect class="cls-2" x="308.4" y="103.9" width="3.13" height="23.63"/><path class="cls-1" d="M352.08,117.76l-3.93-11h-.06l-4,11Zm-2.16-13.86,9.24,23.63h-3.47l-2.62-7.1h-10l-2.62,7.1h-3.22l9.21-23.63Z"/><path class="cls-1" d="M494.92,41.09c0,6.65-4.16,10.53-10.83,10.53a13.79,13.79,0,0,1-10.77-5L477,41.27c2.28,2.31,4.77,3.48,6.58,3.48,2.09,0,3.35-1.31,3.35-3.84V26.31H476.2V19.88h18.72Z"/><path class="cls-1" d="M530,38.09c0,8.28-5.52,13.53-14.27,13.53S501.3,46.36,501.3,38.09V19.91h7.94V38.09c0,4.25,2.72,6.86,6.55,6.86s6.3-2.61,6.3-6.86V19.91H530Z"/><polygon class="cls-1" points="558.82 51.25 544.4 31.96 544.4 51.25 536.93 51.25 536.93 19.91 543.96 19.91 558.39 39.25 558.39 19.91 565.82 19.91 565.82 51.25 558.82 51.25"/><polygon class="cls-1" points="587.8 26.31 587.8 51.26 579.85 51.26 579.85 26.31 570.46 26.31 570.46 19.87 597.23 19.87 597.23 26.31 587.8 26.31"/><path class="cls-1" d="M606.27,35.58A9.12,9.12,0,0,0,615.12,45c4.83,0,8.67-4.1,8.67-9.37s-3.84-9.27-8.67-9.27a9,9,0,0,0-8.85,9.27Zm25.73,0c0,9.14-7.25,16.08-17,16.08s-16.89-6.89-16.89-16.08S605.39,19.67,615,19.67,632,26.46,632,35.53Z"/><path class="cls-1" d="M661.8,23.08l-3,6.2c-3.34-1.94-7.47-3.3-10-3.3-2.06,0-3.44.77-3.44,2.31,0,5.42,16.53,2.31,16.53,13.66,0,6.24-5.51,9.57-12.51,9.57a23.22,23.22,0,0,1-14.31-5l3.09-6.14c3.22,2.82,8,4.7,11.31,4.7,2.5,0,4.07-.91,4.07-2.73C653.52,36.8,637,40.13,637,29c0-5.74,5-9.43,12.48-9.43A23.4,23.4,0,0,1,661.8,23.08Z"/><path class="cls-1" d="M484.64,75.27h5.27c3.51,0,5.51-1.74,5.51-5.07s-2-4.93-5.51-4.93h-5.27v10ZM490.31,59c8,0,12.61,3.95,12.61,10.9,0,7.36-4.59,11.6-12.61,11.6h-5.67v8.81h-8V59Z"/><path class="cls-1" d="M514.35,74.69A9.11,9.11,0,0,0,523.21,84c4.82,0,8.69-4.06,8.69-9.34s-3.87-9.25-8.69-9.25a9,9,0,0,0-8.86,9.25Zm25.75-.06c0,9.14-7.25,16.08-17,16.08s-16.89-6.89-16.89-16.08,7.25-15.88,16.89-15.88S540.09,65.56,540.09,74.63Z"/><path class="cls-1" d="M553.45,84h5.68c4.85,0,8.37-3.76,8.37-9.26s-3.69-9.37-8.71-9.37h-5.34V84ZM559,59c9.83,0,16.64,6.34,16.64,15.67s-6.89,15.65-17,15.65H545.47V59Z"/><polygon class="cls-1" points="588.96 65.28 588.96 71.5 603.9 71.5 603.9 77.78 588.96 77.78 588.96 84.08 606.01 84.08 606.01 90.34 581 90.34 581 59.03 605.52 59.03 605.52 65.28 588.96 65.28"/><polygon class="cls-1" points="639.74 90.34 639.67 70 632.16 87.21 626.98 87.21 619.47 70 619.47 90.34 612.34 90.34 612.34 58.97 621.07 58.97 629.57 77.64 638.08 58.97 646.76 58.97 646.76 90.34 639.74 90.34"/><path class="cls-1" d="M660.35,74.69A9.1,9.1,0,0,0,669.22,84c4.82,0,8.69-4.06,8.69-9.34s-3.86-9.25-8.69-9.25a9,9,0,0,0-8.87,9.25Zm25.75-.06c0,9.14-7.25,16.08-17,16.08s-16.89-6.89-16.89-16.08,7.24-15.88,16.89-15.88S686.1,65.56,686.1,74.63Z"/><path class="cls-1" d="M715.88,62.18l-3,6.21c-3.3-1.95-7.47-3.27-10-3.27-2.09,0-3.45.74-3.45,2.29C699.41,72.8,716,69.72,716,81c0,6.26-5.54,9.57-12.55,9.57a23.43,23.43,0,0,1-14.32-5l3.11-6.14c3.21,2.82,8.05,4.7,11.3,4.7,2.53,0,4.1-.93,4.1-2.73,0-5.55-16.55-2.22-16.55-13.32,0-5.77,5-9.46,12.45-9.46A23.5,23.5,0,0,1,715.88,62.18Z"/><polygon class="cls-1" points="504.05 129.45 504.01 109.08 496.48 126.34 491.31 126.34 483.8 109.08 483.8 129.45 476.65 129.45 476.65 98.08 485.39 98.08 493.91 116.76 502.39 98.08 511.09 98.08 511.09 129.45 504.05 129.45"/><path class="cls-1" d="M532.6,106,528,117.64h9L532.6,106Zm-6.89,17.66-2.29,5.75h-8.18l13.5-31.34h8.2l13.2,31.34h-8.5l-2.23-5.75Z"/><path class="cls-1" d="M578.51,101.26l-3,6.21c-3.32-1.91-7.47-3.27-10-3.27-2.05,0-3.48.76-3.48,2.28,0,5.45,16.59,2.35,16.59,13.65,0,6.28-5.55,9.58-12.53,9.58a23.36,23.36,0,0,1-14.32-5l3.09-6.17c3.19,2.87,8,4.72,11.3,4.72,2.51,0,4.1-.91,4.1-2.73,0-5.53-16.56-2.22-16.56-13.32,0-5.77,5-9.41,12.46-9.41A23.65,23.65,0,0,1,578.51,101.26Z"/><rect class="cls-2" x="419.44" width="3.3" height="145.42"/><polygon class="cls-1" points="532.32 95.72 536.2 89.58 541.92 91.6 537.14 95.72 532.32 95.72"/></g></svg>