<svg xmlns="http://www.w3.org/2000/svg" viewBox="0 0 140.79 24.95"><defs><style>.cls-1{fill:#fff;}</style></defs><title>logo_04</title><g id="texto"><path class="cls-1" d="M34.25,8.51v2.91l1.25.15v.3H32.28v-.3l.89-.15V4.83l-1-.15v-.3h5.62V6.18h-.37L37.28,5l-.43,0-.52,0H34.25V8h2.21l.17-.89H37v2.3h-.34l-.17-.9Zm6.59-2a3.12,3.12,0,0,1,.66.07A1.4,1.4,0,0,1,42,6.8a1.08,1.08,0,0,1,.35.44,1.68,1.68,0,0,1,.13.7v3.55l.65.14v.25H41.71l-.11-.52-.23.2a1.9,1.9,0,0,1-.34.21A2.41,2.41,0,0,1,40,12a1.55,1.55,0,0,1-.64-.12,1,1,0,0,1-.42-.33,1.32,1.32,0,0,1-.22-.5,2.74,2.74,0,0,1-.07-.62,1.92,1.92,0,0,1,.08-.6A1.23,1.23,0,0,1,39,9.4a1.24,1.24,0,0,1,.35-.28,2,2,0,0,1,.44-.17,3,3,0,0,1,.5-.08l.53,0,.79,0V8a2.16,2.16,0,0,0,0-.43.93.93,0,0,0-.13-.33A.63.63,0,0,0,41.16,7a.87.87,0,0,0-.39-.08,2.11,2.11,0,0,0-.54.07,2,2,0,0,0-.48.19l-.19.65h-.31V6.7L40,6.57A5.64,5.64,0,0,1,40.83,6.51Zm.74,2.69-.73,0a3.18,3.18,0,0,0-.57.06.93.93,0,0,0-.4.18.77.77,0,0,0-.23.35,1.75,1.75,0,0,0-.08.57q0,1,.8,1a2.2,2.2,0,0,0,.66-.09,4.15,4.15,0,0,0,.56-.22ZM48,11.56a1.59,1.59,0,0,1-.35.19,2.9,2.9,0,0,1-.43.13l-.48.08-.48,0a3.23,3.23,0,0,1-1.16-.19,2,2,0,0,1-.79-.54,2.25,2.25,0,0,1-.45-.87,4.32,4.32,0,0,1-.15-1.17A3.62,3.62,0,0,1,43.92,8a2.26,2.26,0,0,1,.52-.85,2,2,0,0,1,.8-.49,3.12,3.12,0,0,1,1-.16,7.07,7.07,0,0,1,.88.05l.77.12V8.12h-.31l-.24-.93a2,2,0,0,0-.5-.19,2.54,2.54,0,0,0-.61-.07,1.48,1.48,0,0,0-.64.13,1.19,1.19,0,0,0-.47.41,2,2,0,0,0-.29.71,4.69,4.69,0,0,0-.1,1,4.49,4.49,0,0,0,.08.91,1.72,1.72,0,0,0,.3.69,1.38,1.38,0,0,0,.57.44,2.3,2.3,0,0,0,.91.16H47l.39,0,.35-.06.29-.07Zm2.09-1.18a1.08,1.08,0,0,0,.21.71.85.85,0,0,0,.68.25,5.22,5.22,0,0,0,.65,0,4.29,4.29,0,0,0,.65-.13V7l-.79-.14V6.63h1.71v4.86l.66.14v.25H52.36l0-.42-.39.18-.47.17-.49.13a2.25,2.25,0,0,1-.45.05A1.69,1.69,0,0,1,50,11.9a1,1,0,0,1-.42-.27,1.25,1.25,0,0,1-.27-.48,2.27,2.27,0,0,1-.1-.71V7l-.67-.14V6.63h1.6Zm6,1.11.9.14v.25H54.31v-.25l.89-.14V4.33l-.89-.13V3.94h1.82Zm3,.5a1,1,0,0,1-.8-.32,1.36,1.36,0,0,1-.27-.89V7.1h-.69V6.84l.7-.22.56-1.19H59V6.63h1.2V7.1H59v3.58a.8.8,0,0,0,.16.55.55.55,0,0,0,.43.18l.41,0,.38-.06v.36l-.22.11-.3.1-.35.07ZM63,6.51a3.12,3.12,0,0,1,.66.07,1.4,1.4,0,0,1,.53.23,1.08,1.08,0,0,1,.35.44,1.68,1.68,0,0,1,.13.7v3.55l.65.14v.25H63.9l-.11-.52-.23.2a1.9,1.9,0,0,1-.34.21,2.41,2.41,0,0,1-1.06.23,1.55,1.55,0,0,1-.64-.12,1,1,0,0,1-.42-.33,1.32,1.32,0,0,1-.22-.5,2.74,2.74,0,0,1-.07-.62,1.92,1.92,0,0,1,.08-.6,1.23,1.23,0,0,1,.23-.43,1.24,1.24,0,0,1,.35-.28,2,2,0,0,1,.44-.17,3,3,0,0,1,.5-.08l.53,0,.79,0V8a2.16,2.16,0,0,0,0-.43.93.93,0,0,0-.13-.33A.63.63,0,0,0,63.34,7a.87.87,0,0,0-.39-.08,2.11,2.11,0,0,0-.54.07,2,2,0,0,0-.48.19l-.19.65h-.31V6.7l.75-.14A5.64,5.64,0,0,1,63,6.51Zm.74,2.69-.73,0a3.18,3.18,0,0,0-.57.06.93.93,0,0,0-.4.18.77.77,0,0,0-.23.35,1.75,1.75,0,0,0-.08.57q0,1,.8,1a2.2,2.2,0,0,0,.66-.09,4.15,4.15,0,0,0,.56-.22Zm5.76,2.28a2.59,2.59,0,0,1-.61.35A2.22,2.22,0,0,1,68,12Q65.9,12,65.9,9.3A4.47,4.47,0,0,1,66,8.13a2.39,2.39,0,0,1,.44-.89,1.91,1.91,0,0,1,.75-.56,2.72,2.72,0,0,1,1.07-.19,5.85,5.85,0,0,1,.61,0,6.22,6.22,0,0,1,.62.09,1.45,1.45,0,0,1,0-.18q0-.12,0-.26V5.91q0-.13,0-.22V4.33l-.88-.13V3.94h1.81v7.54l.65.14v.25H69.59ZM66.9,9.3a4,4,0,0,0,.1,1,1.8,1.8,0,0,0,.29.65,1.09,1.09,0,0,0,.46.36,1.57,1.57,0,0,0,.6.11,3,3,0,0,0,.63-.06,2.74,2.74,0,0,0,.5-.15V7L68.95,7l-.59,0a1.19,1.19,0,0,0-1.1.6A3.5,3.5,0,0,0,66.9,9.3ZM78.1,11.48a2.59,2.59,0,0,1-.61.35,2.22,2.22,0,0,1-.86.15q-2.15,0-2.15-2.69a4.47,4.47,0,0,1,.14-1.18,2.39,2.39,0,0,1,.44-.89,1.91,1.91,0,0,1,.75-.56,2.72,2.72,0,0,1,1.07-.19,5.85,5.85,0,0,1,.61,0,6.22,6.22,0,0,1,.62.09,1.45,1.45,0,0,1,0-.18q0-.12,0-.26V5.91q0-.13,0-.22V4.33l-.88-.13V3.94H79v7.54l.65.14v.25H78.16ZM75.48,9.3a4,4,0,0,0,.1,1,1.8,1.8,0,0,0,.29.65,1.09,1.09,0,0,0,.46.36,1.57,1.57,0,0,0,.6.11,3,3,0,0,0,.63-.06,2.74,2.74,0,0,0,.5-.15V7L77.52,7l-.59,0a1.19,1.19,0,0,0-1.1.6A3.5,3.5,0,0,0,75.48,9.3Zm5.75-.07v.1a5,5,0,0,0,.06.78,1.78,1.78,0,0,0,.23.66,1.26,1.26,0,0,0,.49.46,1.77,1.77,0,0,0,.84.17h.35l.37,0,.36-.05.32-.06v.31a1.92,1.92,0,0,1-.31.16l-.4.14a3.72,3.72,0,0,1-.46.1,3.4,3.4,0,0,1-.5,0,3,3,0,0,1-1.1-.18,1.72,1.72,0,0,1-.73-.53,2.19,2.19,0,0,1-.4-.87,5.22,5.22,0,0,1-.12-1.19,3.1,3.1,0,0,1,.58-2,2,2,0,0,1,1.64-.68,2.67,2.67,0,0,1,.78.11,1.58,1.58,0,0,1,.64.37,1.8,1.8,0,0,1,.43.7,3.27,3.27,0,0,1,.16,1.1v.46Zm1.21-2.3a1,1,0,0,0-.91.5,1.78,1.78,0,0,0-.22.58,3.86,3.86,0,0,0-.07.77h2.24a5.65,5.65,0,0,0,0-.77,1.88,1.88,0,0,0-.17-.58.93.93,0,0,0-.32-.37A.91.91,0,0,0,82.44,6.93Zm7.71,4.49,1,.15v.3h-3v-.3l1-.15V4.83l-1-.15v-.3h3v.3l-1,.15Zm3.16-4.38.37-.19.45-.18a4.06,4.06,0,0,1,.47-.14A2,2,0,0,1,95,6.49a1.74,1.74,0,0,1,.55.08,1.08,1.08,0,0,1,.43.27,1.27,1.27,0,0,1,.28.48,2.18,2.18,0,0,1,.1.71v3.45l.64.14v.25H94.78v-.25l.7-.14V8.13a1.09,1.09,0,0,0-.23-.73.87.87,0,0,0-.7-.27l-.33,0-.34,0-.32.05-.25.05v4.18l.71.14v.25H91.76v-.25l.63-.14V7l-.63-.14V6.63h1.5Zm5.16,0h-.9V6.82l.9-.22V6.24a4.05,4.05,0,0,1,.12-1,2.21,2.21,0,0,1,.35-.75A1.48,1.48,0,0,1,99.49,4a1.68,1.68,0,0,1,.73-.16,2.91,2.91,0,0,1,.45,0l.35.08V5.07h-.27l-.25-.69a.78.78,0,0,0-.2-.09,1,1,0,0,0-.26,0,.54.54,0,0,0-.32.09.58.58,0,0,0-.2.27,1.72,1.72,0,0,0-.1.46q0,.28,0,.67v.87h1.4V7.1H99.4v4.34l1.13.18v.25H97.69v-.25l.78-.18Zm7.82,2.13a3.11,3.11,0,0,1-.6,2,2.29,2.29,0,0,1-1.86.71,2.21,2.21,0,0,1-1.79-.71,3.09,3.09,0,0,1-.6-2.05,3,3,0,0,1,.6-2,2.72,2.72,0,0,1,3.63,0A3,3,0,0,1,106.29,9.22Zm-1,0a5.83,5.83,0,0,0-.07-1,2.14,2.14,0,0,0-.24-.72,1.17,1.17,0,0,0-.45-.45,1.41,1.41,0,0,0-.69-.15,1.36,1.36,0,0,0-.68.15,1.09,1.09,0,0,0-.42.45,2.19,2.19,0,0,0-.22.72,6.85,6.85,0,0,0-.06,1,7,7,0,0,0,.06,1,2.25,2.25,0,0,0,.22.73,1.12,1.12,0,0,0,.42.46,1.32,1.32,0,0,0,.68.16,1.37,1.37,0,0,0,.69-.16,1.19,1.19,0,0,0,.45-.46,2.21,2.21,0,0,0,.24-.73A5.92,5.92,0,0,0,105.29,9.22Zm5.15-2.74V7.9h-.24l-.32-.61-.33,0-.36.06-.34.09-.29.11v3.92l.9.14v.25H107v-.25l.66-.14V7L107,6.88V6.63h1.53l.05.65a3.16,3.16,0,0,1,.35-.24,5.11,5.11,0,0,1,.48-.26,4.31,4.31,0,0,1,.52-.21,1.52,1.52,0,0,1,.46-.08Zm1.91.56.37-.19.44-.18a3.77,3.77,0,0,1,.46-.14,2,2,0,0,1,.44-.05,1.73,1.73,0,0,1,.71.15,1,1,0,0,1,.49.46l.43-.21.52-.2a5,5,0,0,1,.54-.15,2.34,2.34,0,0,1,.48-.06,1.69,1.69,0,0,1,.55.08,1,1,0,0,1,.42.27,1.25,1.25,0,0,1,.27.48,2.3,2.3,0,0,1,.1.71v3.45l.68.14v.25h-2.38v-.25l.78-.14V8.13a1.08,1.08,0,0,0-.21-.71.85.85,0,0,0-.68-.25l-.34,0-.39.05-.37.06-.29.06a2.21,2.21,0,0,1,.09.66v3.45l.79.14v.25h-2.49v-.25l.78-.14V8.13a1,1,0,0,0-.24-.71.94.94,0,0,0-.71-.25l-.33,0-.33,0-.31.05-.25.05v4.15l.79.14v.25h-2.38v-.25l.66-.14V7l-.66-.14V6.63h1.54ZM122,6.51a3.12,3.12,0,0,1,.66.07,1.4,1.4,0,0,1,.53.23,1.08,1.08,0,0,1,.35.44,1.68,1.68,0,0,1,.13.7v3.55l.65.14v.25h-1.44l-.11-.52-.23.2a1.9,1.9,0,0,1-.34.21,2.41,2.41,0,0,1-1.06.23,1.55,1.55,0,0,1-.64-.12,1,1,0,0,1-.42-.33,1.32,1.32,0,0,1-.22-.5,2.74,2.74,0,0,1-.07-.62,1.92,1.92,0,0,1,.08-.6,1.23,1.23,0,0,1,.23-.43,1.24,1.24,0,0,1,.35-.28,2,2,0,0,1,.44-.17,3,3,0,0,1,.5-.08l.53,0,.79,0V8a2.16,2.16,0,0,0,0-.43.93.93,0,0,0-.13-.33.63.63,0,0,0-.25-.22.87.87,0,0,0-.39-.08,2.11,2.11,0,0,0-.54.07,2,2,0,0,0-.48.19l-.19.65h-.31V6.7l.75-.14A5.64,5.64,0,0,1,122,6.51Zm.74,2.69-.73,0a3.18,3.18,0,0,0-.57.06.93.93,0,0,0-.4.18.77.77,0,0,0-.23.35,1.75,1.75,0,0,0-.08.57q0,1,.8,1a2.2,2.2,0,0,0,.66-.09,4.15,4.15,0,0,0,.56-.22Zm-1.43-3.57V5.44l1.09-1.52h1.19v.21l-2,1.5Zm5,6.36a1,1,0,0,1-.8-.32,1.36,1.36,0,0,1-.27-.89V7.1h-.69V6.84l.7-.22.56-1.19h.35V6.63h1.2V7.1h-1.2v3.58a.8.8,0,0,0,.16.55.55.55,0,0,0,.43.18l.41,0,.38-.06v.36l-.22.11-.3.1-.35.07Zm3.36-.5.9.14v.25h-2.72v-.25l.89-.14V7L128,6.88V6.63h1.67Zm.06-6.57a.57.57,0,0,1,0,.23.62.62,0,0,1-.13.19.61.61,0,0,1-.2.13.59.59,0,0,1-.23,0,.57.57,0,0,1-.23,0,.63.63,0,0,1-.32-.32.57.57,0,0,1,0-.23.59.59,0,0,1,0-.23.61.61,0,0,1,.13-.2.62.62,0,0,1,.19-.13.57.57,0,0,1,.23,0,.59.59,0,0,1,.23,0,.61.61,0,0,1,.33.33A.59.59,0,0,1,129.76,4.91Zm5.77,6.64a1.59,1.59,0,0,1-.35.19,2.9,2.9,0,0,1-.43.13l-.48.08-.48,0a3.23,3.23,0,0,1-1.16-.19,2,2,0,0,1-.79-.54,2.25,2.25,0,0,1-.45-.87,4.32,4.32,0,0,1-.15-1.17A3.62,3.62,0,0,1,131.43,8a2.26,2.26,0,0,1,.52-.85,2,2,0,0,1,.8-.49,3.12,3.12,0,0,1,1-.16,7.07,7.07,0,0,1,.88.05l.77.12V8.12h-.31l-.24-.93a2,2,0,0,0-.5-.19,2.54,2.54,0,0,0-.61-.07,1.48,1.48,0,0,0-.64.13,1.19,1.19,0,0,0-.47.41,2,2,0,0,0-.29.71,4.69,4.69,0,0,0-.1,1,4.49,4.49,0,0,0,.08.91,1.72,1.72,0,0,0,.3.69,1.38,1.38,0,0,0,.57.44,2.3,2.3,0,0,0,.91.16h.39l.39,0,.35-.06.29-.07Zm2.94-5a3.12,3.12,0,0,1,.66.07,1.4,1.4,0,0,1,.53.23,1.08,1.08,0,0,1,.35.44,1.68,1.68,0,0,1,.13.7v3.55l.65.14v.25h-1.44l-.11-.52-.23.2a1.9,1.9,0,0,1-.34.21,2.41,2.41,0,0,1-1.06.23,1.55,1.55,0,0,1-.64-.12,1,1,0,0,1-.42-.33,1.32,1.32,0,0,1-.22-.5,2.74,2.74,0,0,1-.07-.62,1.92,1.92,0,0,1,.08-.6,1.23,1.23,0,0,1,.23-.43,1.24,1.24,0,0,1,.35-.28,2,2,0,0,1,.44-.17,3,3,0,0,1,.5-.08l.53,0,.79,0V8a2.16,2.16,0,0,0,0-.43.93.93,0,0,0-.13-.33.63.63,0,0,0-.25-.22.87.87,0,0,0-.39-.08,2.11,2.11,0,0,0-.54.07,2,2,0,0,0-.48.19l-.19.65h-.31V6.7l.75-.14A5.64,5.64,0,0,1,138.47,6.51Zm.74,2.69-.73,0a3.18,3.18,0,0,0-.57.06.93.93,0,0,0-.4.18.77.77,0,0,0-.23.35,1.75,1.75,0,0,0-.08.57q0,1,.8,1a2.2,2.2,0,0,0,.66-.09,4.15,4.15,0,0,0,.56-.22Z"/><path class="cls-1" d="M33.1,18.12V15.78l.28,0a1,1,0,0,0,.24,0V18a1.88,1.88,0,0,0,.15.8,1,1,0,0,0,.41.45,1.28,1.28,0,0,0,.62.14,1.35,1.35,0,0,0,.69-.15.91.91,0,0,0,.38-.45,2.24,2.24,0,0,0,.15-.75v-2.3l.17,0,.17,0V18a2.28,2.28,0,0,1-.16.9,1.22,1.22,0,0,1-.52.59,1.82,1.82,0,0,1-.93.21h-.1a1.74,1.74,0,0,1-.92-.21,1.17,1.17,0,0,1-.49-.56A2.1,2.1,0,0,1,33.1,18.12Zm4.53,1.45a.6.6,0,0,0-.19,0V15.78h.26l2.65,2.91V15.78a.48.48,0,0,0,.35,0V19.6h-.22l-2.69-3v3a.35.35,0,0,0-.16,0Zm4.13-3.79a.89.89,0,0,0,.48,0V19.6a.89.89,0,0,0-.48,0Zm1.08,0,.3,0a1.09,1.09,0,0,0,.27,0l1.3,3.13a5.32,5.32,0,0,0,.29-.57q.17-.37.36-.85t.34-.91q.15-.43.27-.8a.74.74,0,0,0,.43,0L44.79,19.6a.12.12,0,0,0-.09,0,.28.28,0,0,0-.12,0Zm4.1,3.78V15.82h2a.48.48,0,0,0,0,.35,3.84,3.84,0,0,0-.72-.05h-.76v1.35h.83l.52,0a.35.35,0,0,0,0,.16.6.6,0,0,0,0,.19l-.65,0h-.7V19.3l.4,0,.58,0,.53,0a.6.6,0,0,0,0,.19.35.35,0,0,0,0,.16Zm3,0a1.07,1.07,0,0,0-.26,0V15.78H51a1.4,1.4,0,0,1,.6.12.81.81,0,0,1,.37.32.93.93,0,0,1,.12.47.86.86,0,0,1-.19.56,1.19,1.19,0,0,1-.45.34,1.67,1.67,0,0,1-.5.14l1.48,1.87a1.65,1.65,0,0,0-.65,0l-1.43-1.83H50.2V19.6a1.07,1.07,0,0,0-.26,0Zm.26-2h.2a1.5,1.5,0,0,0,.78-.17.76.76,0,0,0,.34-.36,1,1,0,0,0,.07-.35.68.68,0,0,0-.07-.29.69.69,0,0,0-.28-.28,1.07,1.07,0,0,0-.56-.12H50.2Zm2.7-.91a1,1,0,0,1,.41-.73,1.35,1.35,0,0,1,.78-.23,1.48,1.48,0,0,1,.52.09.66.66,0,0,1,.33.22.89.89,0,0,0-.17.43h-.09a.54.54,0,0,0-.11-.21.72.72,0,0,0-.24-.19.74.74,0,0,0-.35-.08.55.55,0,0,0-.3.09.73.73,0,0,0-.24.25.62.62,0,0,0-.09.32.73.73,0,0,0,.5.64l.61.26a1,1,0,0,1,.48.37.94.94,0,0,1,.16.53,1.18,1.18,0,0,1-.17.61,1.35,1.35,0,0,1-.49.48,1.38,1.38,0,0,1-1.22.08,1.18,1.18,0,0,1-.4-.24,1,1,0,0,0,.07-.25,2.19,2.19,0,0,0,0-.27H53a1.9,1.9,0,0,0,.34.39.74.74,0,0,0,.27.15,1.11,1.11,0,0,0,.26,0,.75.75,0,0,0,.4-.1.68.68,0,0,0,.26-.27.78.78,0,0,0,.09-.36.77.77,0,0,0-.12-.42.67.67,0,0,0-.36-.27l-.56-.26a1.3,1.3,0,0,1-.45-.31.72.72,0,0,1-.17-.32A2.22,2.22,0,0,1,52.9,16.65Zm3-.87a.89.89,0,0,0,.48,0V19.6a.89.89,0,0,0-.48,0Zm1.51,0h1.78a1.83,1.83,0,0,1,1,.24,1.35,1.35,0,0,1,.55.64,2.33,2.33,0,0,1,.17.9,2.54,2.54,0,0,1-.08.63,2.08,2.08,0,0,1-.3.64,1.71,1.71,0,0,1-.58.53,2,2,0,0,1-.91.24H57.41Zm1.22.21q-.23,0-.7.05v3.3l.51,0a3,3,0,0,0,.83-.1,1.38,1.38,0,0,0,.56-.3,1.32,1.32,0,0,0,.34-.54,3,3,0,0,0,.15-.82q0-.12,0-.17a1.23,1.23,0,0,0-.49-1.14,2.23,2.23,0,0,0-1.2-.31Zm2.59,3.62L63,15.73h.13l1.69,3.87h-.38l-.23,0-.61-1.52H62.23l-.56,1.52-.14,0h-.29Zm1.13-1.78h1.13l-.56-1.35Zm3.05-2h1.78a1.83,1.83,0,0,1,1,.24,1.35,1.35,0,0,1,.55.64,2.33,2.33,0,0,1,.17.9,2.54,2.54,0,0,1-.08.63,2.08,2.08,0,0,1-.3.64,1.71,1.71,0,0,1-.58.53,2,2,0,0,1-.91.24H65.41Zm1.22.21q-.23,0-.7.05v3.3l.51,0a3,3,0,0,0,.83-.1,1.38,1.38,0,0,0,.56-.3,1.32,1.32,0,0,0,.34-.54,3,3,0,0,0,.15-.82q0-.12,0-.17a1.23,1.23,0,0,0-.49-1.14,2.23,2.23,0,0,0-1.2-.31Zm4.8,3.58a.6.6,0,0,0-.19,0V15.78h.26l2.65,2.91V15.78a.48.48,0,0,0,.35,0V19.6h-.22l-2.69-3v3a.35.35,0,0,0-.16,0Zm3.6,0,1.74-3.87h.13L78.6,19.6h-.38l-.23,0-.61-1.52H76l-.56,1.52-.14,0H75Zm1.13-1.78h1.13l-.56-1.35Zm2.75-.09a2,2,0,0,1,.14-.75,1.87,1.87,0,0,1,.41-.63,1.92,1.92,0,0,1,.65-.43,2.2,2.2,0,0,1,.84-.16,2.53,2.53,0,0,1,1.3.26l-.13.43h0a1.9,1.9,0,0,0-.36-.27,1.58,1.58,0,0,0-.37-.15A1.5,1.5,0,0,0,81,16a1.41,1.41,0,0,0-.73.2,1.48,1.48,0,0,0-.55.58,1.83,1.83,0,0,0-.21.89v.07a2.35,2.35,0,0,0,.14.79,1.48,1.48,0,0,0,.34.54,1.33,1.33,0,0,0,.48.31,1.59,1.59,0,0,0,.55.1,1.89,1.89,0,0,0,.64-.11,1.78,1.78,0,0,0,.55-.31l0,.35a2.62,2.62,0,0,1-.4.19,2.38,2.38,0,0,1-.83.16,2.07,2.07,0,0,1-.76-.14,1.91,1.91,0,0,1-.64-.41,1.87,1.87,0,0,1-.43-.64A2.11,2.11,0,0,1,78.91,17.73Zm4-2a.89.89,0,0,0,.48,0V19.6a.89.89,0,0,0-.48,0Zm1.21,1.91a2,2,0,0,1,.14-.73,2,2,0,0,1,.4-.65,1.91,1.91,0,0,1,.67-.46,2.34,2.34,0,0,1,.92-.17,2.68,2.68,0,0,1,1,.2,1.64,1.64,0,0,1,.64.47,1.82,1.82,0,0,1,.32.61,2.9,2.9,0,0,1,.12.68v.08a1.92,1.92,0,0,1-.17.81,1.85,1.85,0,0,1-.47.63,2.1,2.1,0,0,1-.67.4,2.24,2.24,0,0,1-.78.14h-.09a2.37,2.37,0,0,1-.7-.11,2.05,2.05,0,0,1-.66-.35,1.73,1.73,0,0,1-.49-.62A2.09,2.09,0,0,1,84.13,17.69Zm.56,0A1.87,1.87,0,0,0,85.13,19a1.46,1.46,0,0,0,1.13.48,1.38,1.38,0,0,0,.57-.12A1.35,1.35,0,0,0,87.3,19a1.79,1.79,0,0,0,.33-.56,2.78,2.78,0,0,0,.15-.75s0-.05,0-.1a1.9,1.9,0,0,0-.12-.67,1.63,1.63,0,0,0-.32-.54,1.45,1.45,0,0,0-.5-.35,1.56,1.56,0,0,0-.63-.13,1.29,1.29,0,0,0-.67.16,1.37,1.37,0,0,0-.45.43,2.17,2.17,0,0,0-.27.57A3.57,3.57,0,0,0,84.7,17.69Zm4.54,1.88a.6.6,0,0,0-.19,0V15.78h.26L92,18.69V15.78a.48.48,0,0,0,.35,0V19.6h-.22l-2.69-3v3a.35.35,0,0,0-.16,0Zm3.63,0,1.74-3.87h.13l1.69,3.87H96l-.23,0-.61-1.52H93.86l-.56,1.52-.14,0h-.29ZM94,17.82h1.13l-.56-1.35Zm3,1.78V15.78a.83.83,0,0,0,.26,0,.54.54,0,0,0,.22,0V19.3l.4,0,.58,0,.53,0a.42.42,0,0,0,0,.13.86.86,0,0,0,0,.09v.09s0,0,0,0Zm4.24-3.82H103a1.83,1.83,0,0,1,1,.24,1.35,1.35,0,0,1,.55.64,2.33,2.33,0,0,1,.17.9,2.54,2.54,0,0,1-.08.63,2.08,2.08,0,0,1-.3.64,1.71,1.71,0,0,1-.58.53,2,2,0,0,1-.91.24h-1.61Zm1.22.21q-.23,0-.7.05v3.3l.51,0a3,3,0,0,0,.83-.1,1.38,1.38,0,0,0,.56-.3,1.32,1.32,0,0,0,.34-.54,3,3,0,0,0,.15-.82q0-.12,0-.17a1.23,1.23,0,0,0-.49-1.14,2.23,2.23,0,0,0-1.2-.31Zm3,3.62V15.82h2a.48.48,0,0,0,0,.35,3.84,3.84,0,0,0-.72-.05H106v1.35h.83l.52,0a.35.35,0,0,0,0,.16.6.6,0,0,0,0,.19l-.65,0H106V19.3l.4,0,.58,0,.53,0a.6.6,0,0,0,0,.19.35.35,0,0,0,0,.16Zm2.78,0V15.78a.83.83,0,0,0,.26,0,.54.54,0,0,0,.22,0V19.3l.4,0,.58,0,.53,0a.42.42,0,0,0,0,.13.86.86,0,0,0,0,.09v.09s0,0,0,0Zm4-1.87a2,2,0,0,1,.14-.75,1.87,1.87,0,0,1,.41-.63,1.92,1.92,0,0,1,.65-.43,2.2,2.2,0,0,1,.84-.16,2.53,2.53,0,0,1,1.3.26l-.13.43h0a1.9,1.9,0,0,0-.36-.27,1.58,1.58,0,0,0-.37-.15,1.5,1.5,0,0,0-.39-.05,1.41,1.41,0,0,0-.73.2,1.48,1.48,0,0,0-.55.58,1.83,1.83,0,0,0-.21.89v.07a2.35,2.35,0,0,0,.14.79,1.48,1.48,0,0,0,.34.54,1.33,1.33,0,0,0,.48.31,1.59,1.59,0,0,0,.55.1,1.89,1.89,0,0,0,.64-.11,1.78,1.78,0,0,0,.55-.31l0,.35a2.62,2.62,0,0,1-.4.19,2.38,2.38,0,0,1-.83.16,2.07,2.07,0,0,1-.76-.14,1.91,1.91,0,0,1-.64-.41,1.87,1.87,0,0,1-.43-.64A2.11,2.11,0,0,1,112.24,17.73Zm3.68,0a2,2,0,0,1,.14-.73,2,2,0,0,1,.4-.65,1.91,1.91,0,0,1,.67-.46,2.34,2.34,0,0,1,.92-.17,2.68,2.68,0,0,1,1,.2,1.64,1.64,0,0,1,.64.47A1.82,1.82,0,0,1,120,17a2.9,2.9,0,0,1,.12.68v.08a1.92,1.92,0,0,1-.17.81,1.85,1.85,0,0,1-.47.63,2.1,2.1,0,0,1-.67.4,2.24,2.24,0,0,1-.78.14H118a2.37,2.37,0,0,1-.7-.11,2.05,2.05,0,0,1-.66-.35,1.73,1.73,0,0,1-.49-.62A2.09,2.09,0,0,1,115.92,17.69Zm.56,0a1.87,1.87,0,0,0,.43,1.31,1.46,1.46,0,0,0,1.13.48,1.38,1.38,0,0,0,.57-.12,1.35,1.35,0,0,0,.47-.35,1.79,1.79,0,0,0,.33-.56,2.78,2.78,0,0,0,.15-.75s0-.05,0-.1a1.9,1.9,0,0,0-.12-.67,1.63,1.63,0,0,0-.32-.54,1.45,1.45,0,0,0-.5-.35,1.56,1.56,0,0,0-.63-.13,1.29,1.29,0,0,0-.67.16,1.37,1.37,0,0,0-.45.43,2.17,2.17,0,0,0-.27.57A3.57,3.57,0,0,0,116.49,17.69Zm4.25,1.88a.67.67,0,0,0-.21,0l.52-3.82h.17l1.52,2.91,1.56-2.91h.17l.43,3.82-.28,0-.28,0-.26-2.87-1.43,2.78h-.09l-1.39-2.74-.26,2.82a.41.41,0,0,0-.18,0Zm4.52,0L127,15.73h.13l1.69,3.87h-.38l-.23,0-.61-1.52h-1.35l-.56,1.52-.14,0h-.29Zm1.13-1.78h1.13L127,16.47Zm3.22,1.75-.26,0V15.73a.83.83,0,0,0,.26,0,.54.54,0,0,0,.22,0v1.61l.32,0,.41,0H131l.7,0a3,3,0,0,0,.46,0V15.73a1.05,1.05,0,0,0,.26,0,.7.7,0,0,0,.22,0V19.6a.7.7,0,0,0-.22,0,1.05,1.05,0,0,0-.26,0V17.69l-.29,0-.42,0H131a11.42,11.42,0,0,0-1.15,0V19.6l-.22,0Zm4.08-1.45V15.78l.28,0a1,1,0,0,0,.24,0V18a1.88,1.88,0,0,0,.15.8,1,1,0,0,0,.41.45,1.28,1.28,0,0,0,.62.14,1.35,1.35,0,0,0,.69-.15.91.91,0,0,0,.38-.45,2.24,2.24,0,0,0,.15-.75v-2.3l.17,0,.17,0V18a2.28,2.28,0,0,1-.16.9,1.22,1.22,0,0,1-.52.59,1.82,1.82,0,0,1-.93.21h-.1a1.74,1.74,0,0,1-.92-.21,1.17,1.17,0,0,1-.49-.56A2.1,2.1,0,0,1,133.69,18.12ZM138,19.6V15.82h2a.48.48,0,0,0,0,.35,3.84,3.84,0,0,0-.72-.05h-.76v1.35h.83l.52,0a.35.35,0,0,0,0,.16.6.6,0,0,0,0,.19l-.65,0h-.7V19.3l.4,0,.58,0,.53,0a.6.6,0,0,0,0,.19.35.35,0,0,0,0,.16Z"/><path class="cls-1" d="M12.49,0A12.49,12.49,0,0,0,11.3,24.93l.22-4a8.42,8.42,0,0,1,.86-16.79Z"/><path class="cls-1" d="M18.67,23.35A12.42,12.42,0,0,1,13.36,25l-.09-4a8.36,8.36,0,0,0,3.19-1Z"/><path class="cls-1" d="M23.79,17.84A12.54,12.54,0,0,1,20.56,22L18,18.82a8.44,8.44,0,0,0,2-2.71Z"/><path class="cls-1" d="M24.79,10.3a12.6,12.6,0,0,1-.21,5.35l-4-1.25a8.5,8.5,0,0,0,.08-3.24Z"/><path class="cls-1" d="M21.34,3.67a12.51,12.51,0,0,1,2.78,4.23L20.3,9.7a8.42,8.42,0,0,0-1.86-3Z"/><path class="cls-1" d="M14.79.21a12.43,12.43,0,0,1,4.88,2.05L17.09,5.59a8.37,8.37,0,0,0-3.18-1.3Z"/><circle class="cls-1" cx="11.3" cy="11.62" r="5.51"/></g></svg>