<svg id="texto" xmlns="http://www.w3.org/2000/svg" viewBox="0 0 385 447.37"><defs><style>.cls-1,.cls-2,.cls-3{fill:none;stroke-miterlimit:10;}.cls-1,.cls-2{stroke:#2fbcea;}.cls-1{stroke-width:5px;}.cls-2{stroke-width:3px;}.cls-3{stroke:#ea1e79;stroke-width:2px;}</style></defs><title>objetivo</title><path class="cls-1" d="M204.7,446.72l-1.52-99.45h1.42a4.32,4.32,0,0,0,3.34-1.38,4.43,4.43,0,0,0,1.15-3.43l-.85-13.54-.81-12.9a17.69,17.69,0,0,0,14.19-19.9l-7-48.17a21.8,21.8,0,0,0-21.54-18.75H155.63a21.86,21.86,0,0,0-21.6,19l-6.48,45.91s-2.8,18.27,14.15,23.3c-.79,5.82-1.49,25.19-1.49,25.19a4.29,4.29,0,0,0,1.1,3.32,4.38,4.38,0,0,0,3.32,1.35h1.53l-1,99.45m25.81,0h7.55l-.83-99.45h-6ZM140.19,342.6"/><path class="cls-1" d="M198,195.51a23.38,23.38,0,1,1-23.39-23.39A23.38,23.38,0,0,1,198,195.51Zm0,0"/><path class="cls-2" d="M64.24,192a8.9,8.9,0,0,0-6.53-2.71H9.65A8.9,8.9,0,0,0,3.12,192a8.91,8.91,0,0,0-2.71,6.53v62.85a8.9,8.9,0,0,0,2.71,6.53,8.89,8.89,0,0,0,6.53,2.71H57.71A9.27,9.27,0,0,0,67,261.34V198.49A8.92,8.92,0,0,0,64.24,192Zm-28,73.83a3.63,3.63,0,1,1,1.1-2.6,3.56,3.56,0,0,1-1.1,2.6Zm23.28-11.84a1.87,1.87,0,0,1-1.85,1.85H9.65a1.87,1.87,0,0,1-1.85-1.85V198.49a1.87,1.87,0,0,1,1.85-1.85H57.71a1.87,1.87,0,0,1,1.85,1.85Zm0,0"/><path class="cls-2" d="M97.85,2.72H54.68a7.56,7.56,0,0,0-7.55,7.55V98a7.56,7.56,0,0,0,7.55,7.55H97.85A7.55,7.55,0,0,0,105.4,98V10.26a7.55,7.55,0,0,0-7.55-7.55Z"/><polyline class="cls-2" points="100.95 14.19 100.95 80.01 51.59 80.01 51.59 18.43"/><path class="cls-2" d="M51.59,14.19V11.56a4,4,0,0,1,4-4H97a4,4,0,0,1,4,4v2.63"/><path class="cls-2" d="M97,99.74H55.54a4,4,0,0,1-4-4V83.29h49.36v12.5a4,4,0,0,1-4,4Z"/><path class="cls-2" d="M76.27,94.81a3.29,3.29,0,1,1,3.29-3.29,3.3,3.3,0,0,1-3.29,3.29Zm0,0"/><path class="cls-2" d="M372,78.63H267.9A9.89,9.89,0,0,0,258,88.51v79.07a9.89,9.89,0,0,0,9.88,9.88h38.22V192H292.28a2,2,0,0,0,0,4h55.35a2,2,0,0,0,0-4H333.79v-14.5H372a9.89,9.89,0,0,0,9.88-9.88V88.51A9.89,9.89,0,0,0,372,78.63Zm5.93,79.07H262V88.51a5.94,5.94,0,0,1,5.93-5.93H372a5.94,5.94,0,0,1,5.93,5.93Zm0,0"/><path class="cls-2" d="M315.73,170.44h10.05a2.31,2.31,0,1,0,0-4.61H315.73a2.31,2.31,0,1,0,0,4.61Zm0,0"/><path class="cls-3" d="M175.1,104.42a8.21,8.21,0,1,0-8.2-8.21,8.22,8.22,0,0,0,8.2,8.21Zm0-14.07"/><path class="cls-3" d="M197.7,117.31h-8.39l3.57-5.16c6.74-9,5.77-23.77-2.09-31.63a22.48,22.48,0,0,0-31.79,0c-7.86,7.86-8.84,22.64-2.12,31.6l3.6,5.2h-8.81l-12.84,27h71.7Zm-44.54,2.35h8.95l12.79,18.47,12.79-18.47h8.53l10.61,22.27H142.55Zm0,0"/></svg>