<svg id="texto" xmlns="http://www.w3.org/2000/svg" viewBox="0 0 568.09 580.96"><defs><style>.cls-1{fill:#2fbcea;}.cls-2{fill:none;stroke:#2fbcea;stroke-miterlimit:10;stroke-width:8px;}.cls-3{fill:#ea1e79;}</style></defs><title>dni_1</title><path class="cls-1" d="M394.15,226a42.48,42.48,0,1,1,42.51-42.46A42.51,42.51,0,0,1,394.15,226Zm0-74.25a31.77,31.77,0,1,0,31.79,31.79A31.8,31.8,0,0,0,394.15,151.72Z"/><path class="cls-1" d="M247.68,355.52l-9.39-62.2a29.31,29.31,0,0,0-29-25.53H148.1a29.28,29.28,0,0,0-29,25.58l-7.74,62-10.64-1.33,7.74-62a40,40,0,0,1,39.68-35h61.2a40,40,0,0,1,39.61,34.76l9.37,62.09Z"/><path class="cls-1" d="M178.78,254.6a42.48,42.48,0,1,1,42.46-42.51A42.55,42.55,0,0,1,178.78,254.6Zm0-74.25a31.77,31.77,0,1,0,31.74,31.74A31.8,31.8,0,0,0,178.78,180.35Z"/><path class="cls-1" d="M419.21,581a25.66,25.66,0,0,1-25-20.11,25.63,25.63,0,0,1-50.66-5.5V429.58a11.8,11.8,0,0,1-6.31-3.6,12.14,12.14,0,0,1-3.11-9.35v-.08l1.68-16.11-248.68,0a25.56,25.56,0,1,1,0-51.11l226.34,0,10.88-82.83A40.18,40.18,0,0,1,364,231.65h59.55A40.16,40.16,0,0,1,463,266l11,76.49a33.42,33.42,0,0,1-22.22,36.4l2.37,37.56a12.36,12.36,0,0,1-3.2,9.46,11.55,11.55,0,0,1-6.17,3.61V555.36A25.67,25.67,0,0,1,419.21,581ZM384.08,419.17h20.24V555.36a14.91,14.91,0,1,0,29.82,0V419.17h7.61a2,2,0,0,0,1.28-.36,1.74,1.74,0,0,0,.53-1.43v-.16l-2.95-46.71,4.63-.89A22.72,22.72,0,0,0,463.47,344l-11-76.5a29.39,29.39,0,0,0-28.91-25.18H364a29.42,29.42,0,0,0-29,25.53L322.87,360l-235.74,0a14.84,14.84,0,1,0,0,29.68l260.58,0-2.91,27.89a1.47,1.47,0,0,0,.43,1.22,1.9,1.9,0,0,0,1.25.34h7.79V555.39a14.91,14.91,0,0,0,29.82,0Z"/><path class="cls-1" d="M184.19,568a78.65,78.65,0,1,1,78.65-78.65A78.74,78.74,0,0,1,184.19,568Zm0-146.57a67.93,67.93,0,1,0,67.93,67.93A68,68,0,0,0,184.19,421.42Z"/><path class="cls-1" d="M184.92,464.45a15.57,15.57,0,1,1,15.56-15.56A15.58,15.58,0,0,1,184.92,464.45Zm0-20.42a4.85,4.85,0,1,0,4.85,4.86A4.86,4.86,0,0,0,184.92,444Z"/><path class="cls-1" d="M184.92,541a13,13,0,0,1-13-13V482.07a13,13,0,0,1,26,0V528A13,13,0,0,1,184.92,541Zm0-61.26a2.3,2.3,0,0,0-2.3,2.3V528a2.3,2.3,0,0,0,4.6,0V482.07A2.3,2.3,0,0,0,184.92,479.77Z"/><path class="cls-2" d="M364.47,19.81A14.84,14.84,0,0,0,354.06,5.67a13,13,0,0,0-1.41-.37,14.9,14.9,0,0,0-3-.31H199.47a14.82,14.82,0,0,0-14.8,14.8v86.14a14.82,14.82,0,0,0,14.8,14.81h15.17v25a2.51,2.51,0,0,0,1.59,2.33,2.56,2.56,0,0,0,.89.16,2.48,2.48,0,0,0,1.85-.81l24.22-26.63H349.68a14.82,14.82,0,0,0,14.8-14.81Z"/><path class="cls-3" d="M262.3,19.41l-29-3.43a11.11,11.11,0,0,0-12.3,9.7l-6.24,52.79a11.11,11.11,0,0,0,9.7,12.3l88,10.4a11.11,11.11,0,0,0,12.3-9.7L331,38.68a11.11,11.11,0,0,0-9.7-12.3h0l-29-3.43Zm24.41,3.89v.11m2.58,3.65,31.46,3.72a6.66,6.66,0,0,1,5.82,7.38L320.31,91a6.66,6.66,0,0,1-7.38,5.82l-88-10.4A6.66,6.66,0,0,1,219.13,79l6.24-52.79a6.66,6.66,0,0,1,7.38-5.82Zm31,63.89"/><path class="cls-3" d="M269.24,66.4c-1.15-6.27-4.73-9-9.18-11a16.49,16.49,0,0,0,4.19-9,13.29,13.29,0,0,0-26.4-3.12,17.25,17.25,0,0,0,2.07,9.84c-4.46.92-8.47,2.79-11.06,8.62l-2.66,6.49a4.15,4.15,0,0,0,.15,3.47,3.88,3.88,0,0,0,2.9,1.9L266.09,78a3.88,3.88,0,0,0,3.26-1.18,3.79,3.79,0,0,0,1-3.34ZM252.08,36a8.89,8.89,0,0,1,7.76,9.84c-.59,4.95-5.37,10.52-10.1,10a6.81,6.81,0,0,1-4.19-2.28l-.39-.49a13.13,13.13,0,0,1-2.92-9.27A8.89,8.89,0,0,1,252.08,36ZM230.54,69.19l2.35-5.74c1.85-4.35,4.8-5.68,10-6.29a11.26,11.26,0,0,0,6.33,3.09,10.76,10.76,0,0,0,7-1.63c5.33,2.08,7.8,3.82,8.7,8.5l.93,6.25Zm0,0"/><path class="cls-3" d="M312.94,58.87l-35.2-4.16a2.22,2.22,0,1,0-.52,4.4l35.2,4.16a2.22,2.22,0,1,0,.52-4.4Zm0,0"/><path class="cls-3" d="M314,50l-35.2-4.16a2.22,2.22,0,1,0-.52,4.4l35.2,4.16A2.22,2.22,0,1,0,314,50Zm0,0"/><path class="cls-3" d="M291,65.2l-14.3-1.69a2.21,2.21,0,1,0-.52,4.4l14.3,1.69a2.21,2.21,0,1,0,.52-4.4Zm0,0"/><path class="cls-3" d="M304.2,66.76l-3.3-.39a2.21,2.21,0,1,0-.52,4.4l3.3.39a2.21,2.21,0,1,0,.52-4.4Zm0,0"/></svg>