<?xml version="1.0" encoding="utf-8"?>
<!-- Generator: Adobe Illustrator 21.0.0, SVG Export Plug-In . SVG Version: 6.00 Build 0)  -->
<svg version="1.1" id="Capa_1" xmlns="http://www.w3.org/2000/svg" xmlns:xlink="http://www.w3.org/1999/xlink" x="0px" y="0px"
	 viewBox="0 0 332.2 53.7" style="enable-background:new 0 0 332.2 53.7;" xml:space="preserve">
<style type="text/css">
	.st0{fill:#FFFFFF;}
</style>
<title>Mesa de trabajo 12</title>
<path class="st0" d="M133.9,50.4l-1-2.6h-3.3l-1,2.6h-1l3.3-8.3h0.8l3.3,8.3H133.9z M132.5,46.9l-1-2.6c-0.1-0.3-0.3-0.7-0.4-1.2
	c-0.1,0.4-0.2,0.8-0.4,1.2l-1,2.6H132.5z"/>
<path class="st0" d="M143.5,44.6c0,0.7-0.3,1.5-0.9,1.9c-0.7,0.5-1.6,0.7-2.4,0.7h-1v3.3h-1v-8.3h2.1
	C142.5,42.2,143.5,43,143.5,44.6z M139.3,46.3h0.9c0.6,0.1,1.3-0.1,1.9-0.4c0.4-0.3,0.6-0.8,0.6-1.3c0-0.5-0.2-0.9-0.5-1.2
	c-0.5-0.3-1.1-0.4-1.7-0.4h-1.1L139.3,46.3z"/>
<path class="st0" d="M152.8,44.6c0,0.7-0.3,1.5-0.9,1.9c-0.7,0.5-1.6,0.7-2.4,0.7h-1v3.3h-1v-8.3h2.1
	C151.7,42.2,152.8,43,152.8,44.6z M148.5,46.3h0.9c0.6,0.1,1.3-0.1,1.9-0.4c0.4-0.3,0.6-0.8,0.6-1.3c0-0.5-0.2-0.9-0.5-1.2
	c-0.5-0.3-1.1-0.4-1.7-0.4h-1.1L148.5,46.3z"/>
<path class="st0" d="M161.5,48.2c0,0.7-0.3,1.3-0.8,1.7c-0.6,0.4-1.4,0.7-2.1,0.6c-0.8,0-1.5-0.1-2.3-0.4v-0.9
	c0.7,0.3,1.5,0.5,2.3,0.5c0.5,0,1-0.1,1.4-0.4c0.3-0.2,0.5-0.6,0.5-1c0-0.2,0-0.5-0.2-0.7c-0.1-0.2-0.3-0.4-0.6-0.5
	c-0.4-0.2-0.8-0.4-1.2-0.5c-0.6-0.2-1.2-0.5-1.6-1c-0.3-0.4-0.5-0.9-0.5-1.5c0-0.6,0.2-1.2,0.7-1.5c0.5-0.4,1.2-0.6,1.9-0.6
	c0.8,0,1.5,0.1,2.3,0.5l-0.3,0.8c-0.6-0.3-1.3-0.4-2-0.4c-0.4,0-0.8,0.1-1.2,0.3c-0.3,0.2-0.4,0.6-0.4,0.9c0,0.2,0,0.5,0.2,0.7
	c0.1,0.2,0.3,0.4,0.5,0.5c0.4,0.2,0.8,0.4,1.1,0.5c0.7,0.2,1.3,0.5,1.8,1C161.3,47.2,161.5,47.7,161.5,48.2z"/>
<path class="st0" d="M177.3,50.4h-1.1l-4.5-6.9l0,0c0.1,0.8,0.1,1.6,0.1,2.2v4.7h-0.9v-8.3h1.1l4.5,6.9l0,0c0-0.1,0-0.4-0.1-1
	s0-0.9,0-1.2v-4.7h0.9L177.3,50.4z"/>
<path class="st0" d="M186.4,50.4h-4.6v-8.3h4.6V43h-3.6v2.7h3.4v0.8h-3.4v3h3.6V50.4z"/>
<path class="st0" d="M196.8,42.2v5.3c0,0.8-0.3,1.6-0.9,2.2c-0.6,0.6-1.5,0.9-2.3,0.8c-0.8,0.1-1.7-0.2-2.3-0.8
	c-0.6-0.6-0.9-1.4-0.8-2.2v-5.3h1v5.4c0,0.6,0.2,1.2,0.6,1.6c0.5,0.4,1.1,0.6,1.7,0.5c0.6,0,1.2-0.2,1.6-0.6c0.4-0.4,0.6-1,0.6-1.6
	v-5.4H196.8z"/>
<path class="st0" d="M208.5,46.3c0,0.9-0.2,1.8-0.6,2.6c-0.4,0.7-1,1.2-1.8,1.4l2,2h-1.4l-1.6-1.8h-0.3c-1.1,0.1-2.1-0.3-2.8-1.1
	c-0.7-0.9-1.1-2-1-3.2c-0.1-1.1,0.3-2.2,1-3.1c0.7-0.8,1.8-1.2,2.8-1.1c1-0.1,2.1,0.4,2.8,1.1C208.2,44,208.5,45.1,208.5,46.3z
	 M201.9,46.3c-0.1,0.9,0.2,1.8,0.7,2.5c1.1,1.1,3,1.2,4.1,0c0,0,0,0,0,0c0.5-0.7,0.8-1.6,0.7-2.5c0.1-0.9-0.2-1.8-0.7-2.5
	c-0.5-0.6-1.3-0.9-2.1-0.9c-0.8-0.1-1.6,0.3-2.1,0.9C202.1,44.5,201.8,45.4,201.9,46.3z"/>
<path class="st0" d="M218.9,42.2v5.3c0,0.8-0.3,1.6-0.9,2.2c-0.6,0.6-1.5,0.9-2.3,0.8c-0.8,0.1-1.7-0.2-2.3-0.8
	c-0.6-0.6-0.9-1.4-0.8-2.2v-5.3h1v5.4c0,0.6,0.2,1.2,0.6,1.6c0.5,0.4,1.1,0.6,1.7,0.5c0.6,0,1.2-0.2,1.6-0.6c0.4-0.4,0.6-1,0.6-1.6
	v-5.4H218.9z"/>
<path class="st0" d="M223.4,50.4v-8.3h1v8.3L223.4,50.4z"/>
<path class="st0" d="M235.3,50.4h-1.1l-4.5-6.9l0,0c0.1,0.8,0.1,1.6,0.1,2.2v4.7h-0.9v-8.3h1.1l4.5,6.9l0,0c0-0.1,0-0.4-0.1-1
	s0-0.9,0-1.2v-4.7h0.9L235.3,50.4z"/>
<path class="st0" d="M245.1,50.4l-1-2.6h-3.3l-1,2.6h-1l3.2-8.3h0.8l3.3,8.3H245.1z M243.8,46.9l-1-2.6c-0.1-0.3-0.3-0.7-0.4-1.2
	c-0.1,0.4-0.2,0.8-0.4,1.2l-1,2.6H243.8z"/>
<path class="st0" d="M254.2,48.2c0,0.7-0.3,1.3-0.8,1.7c-0.6,0.4-1.4,0.7-2.1,0.6c-0.8,0-1.5-0.1-2.3-0.4v-0.9
	c0.7,0.3,1.5,0.5,2.3,0.5c0.5,0,1-0.1,1.4-0.4c0.3-0.2,0.5-0.6,0.5-1c0-0.2,0-0.5-0.2-0.7c-0.1-0.2-0.3-0.4-0.6-0.5
	c-0.4-0.2-0.8-0.4-1.2-0.5c-0.6-0.2-1.2-0.5-1.6-1c-0.3-0.4-0.5-0.9-0.5-1.5c0-0.6,0.2-1.2,0.7-1.5c0.6-0.4,1.2-0.6,1.9-0.6
	c0.8,0,1.5,0.1,2.3,0.5l-0.3,0.8c-0.6-0.3-1.3-0.4-2-0.4c-0.4,0-0.8,0.1-1.2,0.3c-0.3,0.2-0.4,0.6-0.4,0.9c0,0.2,0,0.5,0.2,0.7
	c0.1,0.2,0.3,0.4,0.5,0.5c0.4,0.2,0.8,0.4,1.1,0.5c0.7,0.2,1.3,0.5,1.8,1C254,47.2,254.2,47.7,254.2,48.2z"/>
<path class="st0" d="M270.1,46.2c0.1,1.2-0.3,2.3-1.1,3.1c-0.9,0.8-2,1.2-3.2,1.1h-2.3v-8.3h2.5c2-0.2,3.9,1.3,4.1,3.3
	C270.1,45.7,270.1,45.9,270.1,46.2L270.1,46.2z M269.1,46.2c0.1-0.9-0.2-1.8-0.8-2.4c-0.7-0.6-1.5-0.9-2.4-0.8h-1.4v6.6h1.2
	c0.9,0.1,1.9-0.2,2.6-0.8C268.8,48,269.1,47.1,269.1,46.2L269.1,46.2z"/>
<path class="st0" d="M278.9,50.4h-4.6v-8.3h4.6V43h-3.6v2.7h3.4v0.8h-3.4v3h3.6V50.4z"/>
<path class="st0" d="M293,48.2c0,0.7-0.3,1.3-0.8,1.7c-0.6,0.4-1.4,0.7-2.1,0.6c-0.8,0-1.5-0.1-2.3-0.4v-0.9
	c0.7,0.3,1.5,0.5,2.3,0.5c0.5,0,1-0.1,1.4-0.4c0.3-0.2,0.5-0.6,0.5-1c0-0.2,0-0.5-0.2-0.7c-0.1-0.2-0.3-0.4-0.6-0.5
	c-0.4-0.2-0.8-0.4-1.2-0.5c-0.6-0.2-1.2-0.5-1.6-1c-0.3-0.4-0.5-0.9-0.5-1.5c0-0.6,0.2-1.2,0.7-1.5c0.6-0.4,1.2-0.6,1.9-0.6
	c0.8,0,1.5,0.1,2.3,0.5l-0.3,0.8c-0.6-0.3-1.3-0.4-2-0.4c-0.4,0-0.8,0.1-1.2,0.3c-0.3,0.2-0.4,0.6-0.4,0.9c0,0.2,0,0.5,0.2,0.7
	c0.1,0.2,0.3,0.4,0.5,0.5c0.4,0.2,0.8,0.4,1.1,0.5c0.7,0.2,1.3,0.5,1.8,1C292.8,47.2,293,47.7,293,48.2z"/>
<path class="st0" d="M302.1,50.4l-1-2.6h-3.3l-1,2.6h-1l3.3-8.3h0.8l3.3,8.3H302.1z M300.8,46.9l-1-2.6c-0.1-0.3-0.3-0.7-0.4-1.2
	c-0.1,0.4-0.2,0.8-0.4,1.2l-1,2.6H300.8z"/>
<path class="st0" d="M306.6,50.4v-8.3h1v7.4h3.6v0.9L306.6,50.4z"/>
<path class="st0" d="M321.1,42.2v5.3c0,0.8-0.3,1.6-0.9,2.2c-0.6,0.6-1.5,0.9-2.3,0.8c-0.8,0.1-1.7-0.2-2.3-0.8
	c-0.6-0.6-0.9-1.4-0.8-2.2v-5.3h1v5.4c0,0.6,0.2,1.2,0.6,1.6c0.5,0.4,1.1,0.6,1.7,0.5c0.6,0,1.2-0.2,1.6-0.6c0.4-0.4,0.6-1,0.6-1.6
	v-5.4H321.1z"/>
<path class="st0" d="M332.2,46.2c0.1,1.1-0.3,2.3-1.1,3.1c-0.9,0.8-2,1.2-3.2,1.1h-2.3v-8.3h2.5c2-0.2,3.9,1.3,4.1,3.3
	C332.2,45.7,332.2,45.9,332.2,46.2L332.2,46.2z M331.2,46.2c0.1-0.9-0.2-1.8-0.8-2.4c-0.7-0.6-1.5-0.8-2.4-0.8h-1.4v6.6h1.2
	c0.9,0.1,1.9-0.2,2.6-0.8C331,48.1,331.3,47.2,331.2,46.2L331.2,46.2z"/>
<path class="st0" d="M148,27.4c-0.3,0-0.6-0.1-0.8-0.2c-0.3-0.2-0.5-0.4-0.6-0.7l-2.9-6.9l-5.1-11.8l-8.2,18.8
	c-0.2,0.6-0.7,0.9-1.3,0.9c-0.4,0-0.7-0.1-1-0.4c-0.3-0.2-0.4-0.5-0.5-0.9c0-0.2,0-0.5,0.1-0.7l9.5-22.3c0.1-0.3,0.3-0.6,0.6-0.7
	c0.2-0.1,0.5-0.2,0.8-0.2c0.6,0,1.2,0.3,1.4,0.9l9.5,22.2c0.1,0.2,0.1,0.4,0.1,0.6c0,0.4-0.2,0.8-0.5,1.1
	C148.7,27.3,148.4,27.4,148,27.4z"/>
<path class="st0" d="M221.9,27.7c-1.9,0-2-1.1-2-1.5c0-0.7,0.5-1.5,2-1.5h9.1c2.4,0.2,4.7-0.8,6.3-2.7c1.5-2.1,2.2-4.6,2.1-7.1
	c0-1.7-0.3-3.4-0.9-5c-0.6-1.3-1.5-2.5-2.7-3.2c-1.1-0.7-2.5-1-4.7-1h-8.9c-0.4,0-0.8,0-1.1-0.1c-0.6-0.1-1.1-0.7-1.1-1.3
	c0-0.3,0.2-1.5,2.2-1.5h9.3c2.2-0.1,4.3,0.4,6.1,1.6c1.6,1.1,2.9,2.7,3.7,4.5c0.8,1.9,1.2,4,1.2,6.1c0,2.1-0.4,4.3-1.2,6.2
	c-0.7,1.9-2,3.5-3.7,4.7c-1.8,1.2-4,1.9-6.1,1.8L221.9,27.7L221.9,27.7z"/>
<path class="st0" d="M322.9,27.7c-1.7,0-3.3-0.3-4.9-0.9c-1.5-0.7-2.8-1.6-4-2.8c-0.3-0.3-0.5-0.7-0.5-1c0-0.4,0.2-0.8,0.5-1
	c0.3-0.3,0.7-0.5,1.1-0.5c0.4,0,0.9,0.2,1.1,0.5c0.8,0.9,1.9,1.7,3,2.2c1.2,0.5,2.4,0.7,3.7,0.7c1.4,0.1,2.8-0.3,4-1.1
	c0.9-0.6,1.5-1.6,1.4-2.7c0-0.8-0.2-1.6-0.7-2.2c-0.5-0.6-1.2-1.1-1.9-1.5c-1.1-0.5-2.3-1-3.4-1.4c-1.3-0.5-2.6-1-3.9-1.6
	c-1-0.5-1.9-1.2-2.6-2.1c-0.8-1.1-1.2-2.4-1.1-3.7c0-1.2,0.4-2.4,1.1-3.4c0.8-1,1.8-1.9,3-2.4c1.4-0.6,2.9-0.9,4.4-0.8
	c1.4,0,2.9,0.3,4.2,0.8c1.3,0.5,2.4,1.2,3.3,2.3c0.3,0.3,0.5,0.7,0.5,1.2c0,0.4-0.2,0.8-0.5,1.1c-0.3,0.3-0.7,0.4-1.1,0.4
	c-0.4,0-0.7-0.2-1-0.5c-0.6-0.7-1.4-1.3-2.3-1.7c-1-0.4-2-0.7-3.1-0.6c-1.4,0-2.8,0.3-4,1.1c-0.9,0.6-1.5,1.6-1.5,2.7
	c0,0.7,0.2,1.4,0.7,2c0.5,0.6,1.2,1,1.9,1.3c1,0.5,2.1,0.9,3.2,1.3c1.4,0.4,2.7,1,4,1.6c1.1,0.5,2,1.3,2.7,2.3
	c0.8,1.2,1.2,2.6,1.2,4c0,1.2-0.4,2.4-1.1,3.3c-0.8,1-1.8,1.9-3,2.4C325.9,27.4,324.4,27.7,322.9,27.7z"/>
<path class="st0" d="M193,27.6c-0.5,0-0.9-0.2-1.2-0.6L177.2,8v18.2c0,0.4-0.2,0.8-0.5,1c-0.3,0.2-0.6,0.4-1,0.4
	c-0.4,0-0.7-0.1-1-0.4c-0.3-0.3-0.4-0.6-0.4-1V3.8c0-0.4,0.2-0.8,0.5-1.1c0.3-0.2,0.6-0.4,0.9-0.3c0.4,0,0.8,0.2,1.1,0.5l14.8,19.2
	V3.8c0-0.4,0.2-0.7,0.4-1c0.3-0.3,0.6-0.4,1-0.4c0.8,0,1.4,0.6,1.4,1.3c0,0,0,0,0,0.1v22.2c0,0.4-0.2,0.8-0.5,1.1
	C193.7,27.4,193.4,27.6,193,27.6z"/>
<path class="st0" d="M268.8,5.7c-0.8,0.1-1.6-0.5-1.7-1.3s0.5-1.6,1.3-1.7c0.1,0,0.2,0,0.3,0h19.4c0.8-0.1,1.6,0.5,1.7,1.3
	s-0.5,1.6-1.3,1.7c-0.1,0-0.2,0-0.3,0H268.8z"/>
<path class="st0" d="M268.8,27.7c-0.8-0.1-1.4-0.8-1.3-1.7c0.1-0.7,0.6-1.2,1.3-1.3h19.4c0.8-0.1,1.6,0.5,1.7,1.3
	c0.1,0.8-0.5,1.6-1.3,1.7c-0.1,0-0.2,0-0.3,0H268.8z"/>
<path class="st0" d="M287.5,14.5V16c0,0.4-0.3,0.7-0.7,0.7h-17.5c-0.4,0-0.7-0.3-0.7-0.7v-1.5c0-0.4,0.3-0.7,0.7-0.7h17.5
	C287.1,13.7,287.5,14,287.5,14.5z"/>
<path class="st0" d="M109,42.7c-6.2-0.6-8.1-3.6-10.2-6.7c-2.8-4.2-5.6-8.5-17.8-5V31c-4.1,0.6-6.3,5.7-8.4,10.6
	c-0.4,1-0.8,1.9-1.3,2.8c-0.8-1.5-1.6-3.1-2.2-4.8c-1.8-4.4-3.6-9.9-5.4-15.2s-3.3-9.8-4.7-13.4c-2.3-6.1-4.3-9.6-6.5-10.2
	C52,0.7,45.6-1.3,40.8,1.5c-3,1.6-5.5,7.7-8.9,16c-1.9,4.6-3.9,9.7-6.4,14.7c-2.2-3.3-4.3-6.3-6.9-6.3c-2,0-4.1,2.1-6.9,5.1
	C8.5,34.4,4.6,38.5,0,40.1l0.8,2.1c5.1-1.8,9.2-6.1,12.6-9.6c2.1-2.2,4.3-4.4,5.3-4.4c1.5,0,3.7,3.3,5.4,5.9
	c0.8,1.2,1.5,2.3,2.3,3.3c0.4,0.6,0.9,1.1,1.5,1.7c0.8,0.9,1.9,1.6,3.1,1.7c0.2,0,0.4,0,0.6,0c5,0,8.5-10.2,12.3-20.9
	c0.9-2.6,1.9-5.5,3-8.1c1.6,4.1,3.2,9.1,4.9,14.4c5.2,16.3,8.8,26.3,13.1,26.9v0.1c1.9,0.4,3.8,0.6,5.7,0.6c9.3,0,11.8-6.1,14-11.6
	c0.7-2,1.6-3.9,2.8-5.7c0.6,0.7,1.3,1.4,1.9,2.2c2.8,3.3,6,7.1,10.8,7.6c0.4,0,0.8,0.1,1.2,0c2.7,0,5.4-0.5,7.9-1.4l5-1.7L109,42.7z
	 M41.8,19.1c-2.9,8.2-6.8,19.4-10.2,19.4c-0.9-0.1-1.7-0.5-2.3-1.2c-0.5-0.5-0.9-1-1.3-1.5c-0.4-0.5-0.7-1-1-1.5
	c2.7-5.4,5-11,7-15.9c3-7.4,5.5-13.7,7.9-14.9l0,0c2.3-1.4,5.2-1.3,7.3-1L49,2.6c-1,1.1-1.8,2.4-2.3,3.8
	C44.8,10.5,43.2,14.8,41.8,19.1z M53.9,25.4c-2-6.3-4-12.2-5.8-16.6c0.2-0.6,0.4-1.1,0.7-1.6c0.4-0.7,0.7-1.5,1.2-2.2
	c0.5-0.8,1.1-1.5,1.9-2c1.5,0.8,3.2,4.3,4.9,8.7c1.4,3.7,2.9,8,4.4,12.6c1.8,5.5,3.7,11.2,5.6,15.7v0.1l0.4,1l0.2,0.5l0.2,0.5L68,43
	l0.2,0.4l0.4,0.7l0.2,0.5l0.3,0.5l0.4,0.7l0.1,0.2c0.2,0.3,0.3,0.5,0.4,0.7l0,0c-0.7,1.5-1.7,2.7-3,3.7c-0.5,0.3-1.1,0.4-1.7,0.4
	C62,50.3,57.3,35.9,53.9,25.4z M82.5,41.3c-2.2,5.5-4.3,10.7-13.2,10.2l0.3-0.3l0,0l0.2-0.2c1-1.1,1.9-2.3,2.5-3.7l0.3-0.6v-0.1
	c0.7-1.3,1.3-2.7,1.9-4.1c2-4.6,4.1-9.3,7.2-9.3c1.5,0,3,0.6,4,1.7C84.4,36.9,83.3,39,82.5,41.3z M100.4,44c-4-0.4-6.7-3.7-9.4-6.8
	c-0.7-0.8-1.4-1.7-2.2-2.5l0,0l-0.6-0.5c-0.7-0.7-1.4-1.3-2.2-1.8l-0.1-0.1l-0.1-0.1c7-1.1,8.9,1.7,11.1,5c1.6,2.4,3.4,5.1,7.1,6.6
	C102.8,44,101.6,44.1,100.4,44z"/>
</svg>
