<svg xmlns="http://www.w3.org/2000/svg" xmlns:xlink="http://www.w3.org/1999/xlink" viewBox="0 0 462.35 23.88"><defs><style>.cls-1{isolation:isolate;}.cls-2{fill:#30a3dc;}.cls-3{fill:#062837;}.cls-4{mix-blend-mode:multiply;fill:url(#Degradado_sin_nombre_2);}.cls-5{fill:none;stroke:#30a3dc;stroke-miterlimit:10;}</style><linearGradient id="Degradado_sin_nombre_2" y1="12.76" x2="47.32" y2="12.76" gradientUnits="userSpaceOnUse"><stop offset="0" stop-color="#fff" stop-opacity="0"/><stop offset="0" stop-color="#fcfefe" stop-opacity="0.01"/><stop offset="0.02" stop-color="#c2e7f1" stop-opacity="0.24"/><stop offset="0.05" stop-color="#8fd2e6" stop-opacity="0.44"/><stop offset="0.08" stop-color="#63c1dc" stop-opacity="0.62"/><stop offset="0.1" stop-color="#40b3d4" stop-opacity="0.76"/><stop offset="0.13" stop-color="#24a8ce" stop-opacity="0.86"/><stop offset="0.17" stop-color="#11a0c9" stop-opacity="0.94"/><stop offset="0.21" stop-color="#069bc7" stop-opacity="0.99"/><stop offset="0.26" stop-color="#029ac6"/><stop offset="0.62" stop-color="#853288"/><stop offset="1" stop-color="#f4a47e"/></linearGradient></defs><title>logo_horizontal</title><g class="cls-1"><g id="Capa_3" data-name="Capa 3"><path class="cls-2" d="M207.92,16.88l-1.32-3.37h-4.24l-1.3,3.37h-1.25L204,6.25h1l4.16,10.63Zm-1.7-4.48L205,9.12q-.24-.62-.49-1.53A13.54,13.54,0,0,1,204,9.12l-1.25,3.28Z"/><path class="cls-2" d="M220.33,9.38a3,3,0,0,1-1.1,2.47,5,5,0,0,1-3.14.86h-1.25v4.16h-1.23V6.29h2.74Q220.33,6.29,220.33,9.38Zm-5.48,2.28H216a4.11,4.11,0,0,0,2.37-.53,2,2,0,0,0,.73-1.7,1.82,1.82,0,0,0-.69-1.56,3.59,3.59,0,0,0-2.14-.51h-1.38Z"/><path class="cls-2" d="M232.22,9.38a3,3,0,0,1-1.1,2.47,5,5,0,0,1-3.14.86h-1.25v4.16h-1.23V6.29h2.74Q232.22,6.29,232.22,9.38Zm-5.48,2.28h1.11a4.11,4.11,0,0,0,2.37-.53,2,2,0,0,0,.73-1.7,1.82,1.82,0,0,0-.69-1.56,3.59,3.59,0,0,0-2.14-.51h-1.38Z"/><path class="cls-2" d="M243.37,14.06a2.59,2.59,0,0,1-1,2.18,4.39,4.39,0,0,1-2.75.78,6.9,6.9,0,0,1-2.9-.49V15.35a7.48,7.48,0,0,0,1.42.43,7.41,7.41,0,0,0,1.52.16,3.06,3.06,0,0,0,1.85-.47,1.53,1.53,0,0,0,.62-1.3,1.67,1.67,0,0,0-.22-.9,2.07,2.07,0,0,0-.74-.65,10.38,10.38,0,0,0-1.57-.67,5,5,0,0,1-2.11-1.25,2.76,2.76,0,0,1-.63-1.89,2.35,2.35,0,0,1,.92-1.95,3.83,3.83,0,0,1,2.43-.72,7.14,7.14,0,0,1,2.9.58l-.38,1.07a6.58,6.58,0,0,0-2.55-.55,2.46,2.46,0,0,0-1.53.42,1.38,1.38,0,0,0-.55,1.16,1.78,1.78,0,0,0,.2.9,1.89,1.89,0,0,0,.68.64,8.31,8.31,0,0,0,1.47.65,5.83,5.83,0,0,1,2.29,1.28A2.51,2.51,0,0,1,243.37,14.06Z"/><path class="cls-2" d="M263.59,16.88h-1.4L256.4,8h-.06q.12,1.56.12,2.87v6h-1.14V6.29h1.39l5.77,8.85h.06c0-.13,0-.55-.07-1.26s0-1.21,0-1.52V6.29h1.15Z"/><path class="cls-2" d="M275.36,16.88h-5.9V6.29h5.9V7.39h-4.67V10.8h4.39v1.09h-4.39v3.9h4.67Z"/><path class="cls-2" d="M288.67,6.29v6.85A3.73,3.73,0,0,1,287.58,16a4.2,4.2,0,0,1-3,1,4,4,0,0,1-3-1,3.87,3.87,0,0,1-1-2.87V6.29h1.23V13.2a2.72,2.72,0,0,0,.72,2,2.92,2.92,0,0,0,2.13.71,2.81,2.81,0,0,0,2.06-.71,2.74,2.74,0,0,0,.72-2V6.29Z"/><path class="cls-2" d="M303.63,11.57a6.41,6.41,0,0,1-.82,3.38,4.08,4.08,0,0,1-2.31,1.83L303,19.4h-1.79L299.16,17h-.4a4.58,4.58,0,0,1-3.61-1.43,5.88,5.88,0,0,1-1.27-4,5.81,5.81,0,0,1,1.27-4,4.61,4.61,0,0,1,3.62-1.42,4.51,4.51,0,0,1,3.56,1.45A5.82,5.82,0,0,1,303.63,11.57Zm-8.43,0a5,5,0,0,0,.91,3.26,3.74,3.74,0,0,0,5.32,0,5.1,5.1,0,0,0,.9-3.27,5,5,0,0,0-.89-3.24,3.2,3.2,0,0,0-2.65-1.1,3.27,3.27,0,0,0-2.68,1.11A5,5,0,0,0,295.19,11.57Z"/><path class="cls-2" d="M316.94,6.29v6.85A3.73,3.73,0,0,1,315.85,16a4.2,4.2,0,0,1-3,1,4,4,0,0,1-3-1,3.87,3.87,0,0,1-1-2.87V6.29h1.23V13.2a2.72,2.72,0,0,0,.72,2,2.92,2.92,0,0,0,2.13.71,2.81,2.81,0,0,0,2.06-.71,2.74,2.74,0,0,0,.72-2V6.29Z"/><path class="cls-2" d="M322.71,16.88V6.29h1.23V16.88Z"/><path class="cls-2" d="M338.08,16.88h-1.4L330.89,8h-.06q.12,1.56.12,2.87v6h-1.14V6.29h1.39L337,15.14H337c0-.13,0-.55-.07-1.26s0-1.21,0-1.52V6.29h1.15Z"/><path class="cls-2" d="M350.61,16.88l-1.32-3.37H345l-1.3,3.37H342.5l4.19-10.63h1l4.16,10.63Zm-1.7-4.48-1.23-3.28q-.24-.62-.49-1.53a13.54,13.54,0,0,1-.46,1.53l-1.25,3.28Z"/><path class="cls-2" d="M362.28,14.06a2.59,2.59,0,0,1-1,2.18,4.39,4.39,0,0,1-2.75.78,6.9,6.9,0,0,1-2.9-.49V15.35a7.48,7.48,0,0,0,1.42.43,7.41,7.41,0,0,0,1.52.16,3.06,3.06,0,0,0,1.85-.47,1.53,1.53,0,0,0,.62-1.3,1.67,1.67,0,0,0-.22-.9,2.07,2.07,0,0,0-.74-.65A10.38,10.38,0,0,0,358.5,12a5,5,0,0,1-2.11-1.25,2.76,2.76,0,0,1-.63-1.89,2.35,2.35,0,0,1,.92-1.95,3.83,3.83,0,0,1,2.43-.72,7.14,7.14,0,0,1,2.9.58l-.38,1.07a6.58,6.58,0,0,0-2.55-.55,2.46,2.46,0,0,0-1.53.42A1.38,1.38,0,0,0,357,8.83a1.78,1.78,0,0,0,.2.9,1.89,1.89,0,0,0,.68.64,8.31,8.31,0,0,0,1.47.65,5.83,5.83,0,0,1,2.29,1.28A2.51,2.51,0,0,1,362.28,14.06Z"/><path class="cls-2" d="M382.67,11.48a5.35,5.35,0,0,1-1.42,4,5.63,5.63,0,0,1-4.09,1.39h-2.93V6.29h3.24a5.18,5.18,0,0,1,3.84,1.37A5.17,5.17,0,0,1,382.67,11.48Zm-1.3,0a4.26,4.26,0,0,0-1-3.12,4.16,4.16,0,0,0-3.09-1h-1.79v8.46H377a4.56,4.56,0,0,0,3.31-1.08A4.29,4.29,0,0,0,381.37,11.53Z"/><path class="cls-2" d="M393.9,16.88H388V6.29h5.9V7.39h-4.67V10.8h4.39v1.09h-4.39v3.9h4.67Z"/><path class="cls-2" d="M412,14.06a2.59,2.59,0,0,1-1,2.18,4.39,4.39,0,0,1-2.75.78,6.9,6.9,0,0,1-2.9-.49V15.35a7.48,7.48,0,0,0,1.42.43,7.41,7.41,0,0,0,1.52.16,3.06,3.06,0,0,0,1.85-.47,1.53,1.53,0,0,0,.62-1.3,1.67,1.67,0,0,0-.22-.9,2.07,2.07,0,0,0-.74-.65,10.38,10.38,0,0,0-1.57-.67,5,5,0,0,1-2.11-1.25,2.76,2.76,0,0,1-.63-1.89,2.35,2.35,0,0,1,.92-1.95,3.83,3.83,0,0,1,2.43-.72,7.14,7.14,0,0,1,2.9.58l-.38,1.07a6.58,6.58,0,0,0-2.55-.55,2.46,2.46,0,0,0-1.53.42,1.38,1.38,0,0,0-.55,1.16,1.78,1.78,0,0,0,.2.9,1.89,1.89,0,0,0,.68.64,8.31,8.31,0,0,0,1.47.65,5.83,5.83,0,0,1,2.29,1.28A2.51,2.51,0,0,1,412,14.06Z"/><path class="cls-2" d="M423.79,16.88l-1.32-3.37h-4.24l-1.3,3.37h-1.25l4.19-10.63h1l4.16,10.63Zm-1.7-4.48-1.23-3.28q-.24-.62-.49-1.53a13.54,13.54,0,0,1-.46,1.53l-1.25,3.28Z"/><path class="cls-2" d="M429.48,16.88V6.29h1.23v9.47h4.67v1.12Z"/><path class="cls-2" d="M448.14,6.29v6.85A3.73,3.73,0,0,1,447,16a4.2,4.2,0,0,1-3,1,4,4,0,0,1-3-1,3.87,3.87,0,0,1-1-2.87V6.29h1.23V13.2a2.72,2.72,0,0,0,.72,2,2.92,2.92,0,0,0,2.13.71,2.81,2.81,0,0,0,2.06-.71,2.74,2.74,0,0,0,.72-2V6.29Z"/><path class="cls-2" d="M462.35,11.48a5.35,5.35,0,0,1-1.42,4,5.63,5.63,0,0,1-4.09,1.39H453.9V6.29h3.24A5.18,5.18,0,0,1,461,7.66,5.17,5.17,0,0,1,462.35,11.48Zm-1.3,0a4.26,4.26,0,0,0-1-3.12,4.16,4.16,0,0,0-3.09-1h-1.79v8.46h1.5a4.56,4.56,0,0,0,3.31-1.08A4.29,4.29,0,0,0,461,11.53Z"/><path class="cls-3" d="M69.09,17.64a.83.83,0,0,1-.44-.12.7.7,0,0,1-.31-.38l-1.56-3.62-2.7-6.25-4.3,9.9a.73.73,0,0,1-.7.47.79.79,0,0,1-.53-.19.74.74,0,0,1-.25-.46.65.65,0,0,1,0-.37l5-11.75a.71.71,0,0,1,.32-.38.85.85,0,0,1,.4-.09.76.76,0,0,1,.74.48l5,11.72a.85.85,0,0,1,.05.3.7.7,0,0,1-.26.56A.82.82,0,0,1,69.09,17.64Z"/><path class="cls-3" d="M108.14,17.81c-1,0-1.06-.61-1.06-.79,0-.38.28-.79,1.06-.79h4.79a4,4,0,0,0,3.3-1.41,5.93,5.93,0,0,0,1.11-3.76,6.86,6.86,0,0,0-.48-2.62,3.7,3.7,0,0,0-1.44-1.7,4.2,4.2,0,0,0-2.48-.56h-4.69a2,2,0,0,1-.58-.08.72.72,0,0,1-.59-.7c0-.19.08-.8,1.14-.8h4.9a5.46,5.46,0,0,1,3.24.83,5.36,5.36,0,0,1,1.95,2.39,8.21,8.21,0,0,1,.62,3.22,8.36,8.36,0,0,1-.62,3.3,5.54,5.54,0,0,1-1.94,2.48,5.66,5.66,0,0,1-3.24,1h-5Z"/><path class="cls-3" d="M161.46,17.82a6.35,6.35,0,0,1-2.57-.49,7.64,7.64,0,0,1-2.15-1.48.75.75,0,0,1-.24-.55.78.78,0,0,1,.25-.55.78.78,0,0,1,.56-.25.82.82,0,0,1,.61.29,4.46,4.46,0,0,0,1.59,1.15,4.92,4.92,0,0,0,1.94.39,3.65,3.65,0,0,0,2.14-.58,1.62,1.62,0,0,0,.76-1.41,1.75,1.75,0,0,0-.39-1.14,3.07,3.07,0,0,0-1-.78,18,18,0,0,0-1.81-.72,20.33,20.33,0,0,1-2.05-.83,3.94,3.94,0,0,1-1.37-1.12,3.1,3.1,0,0,1-.6-2A3.06,3.06,0,0,1,157.71,6a3.76,3.76,0,0,1,1.6-1.25,5.77,5.77,0,0,1,2.32-.44,6.19,6.19,0,0,1,2.23.41,4.16,4.16,0,0,1,1.73,1.19,1.07,1.07,0,0,1,.28.63.72.72,0,0,1-.28.56.87.87,0,0,1-.56.21.7.7,0,0,1-.54-.24,3.3,3.3,0,0,0-1.21-.91,4,4,0,0,0-1.64-.34,3.74,3.74,0,0,0-2.13.57,1.58,1.58,0,0,0-.77,1.41,1.52,1.52,0,0,0,.36,1,3,3,0,0,0,1,.76,16.48,16.48,0,0,0,1.67.67,18.83,18.83,0,0,1,2.11.83,4,4,0,0,1,1.45,1.2,3.42,3.42,0,0,1,.62,2.12,3,3,0,0,1-.58,1.75,3.81,3.81,0,0,1-1.61,1.26A5.7,5.7,0,0,1,161.46,17.82Z"/><path class="cls-3" d="M92.84,17.73a.77.77,0,0,1-.61-.29l-7.73-10V17a.67.67,0,0,1-.24.52.76.76,0,0,1-.51.19.75.75,0,0,1-.54-.2A.68.68,0,0,1,83,17V5.21a.72.72,0,0,1,.24-.57.75.75,0,0,1,.5-.19.76.76,0,0,1,.58.26l7.83,10.13V5.19a.72.72,0,0,1,.23-.53.75.75,0,0,1,.53-.21.73.73,0,0,1,.76.74V16.94a.76.76,0,0,1-.25.6A.8.8,0,0,1,92.84,17.73Z"/><path class="cls-3" d="M132.89,6.2a.8.8,0,1,1,0-1.59h10.24a.8.8,0,1,1,0,1.59Z"/><path class="cls-3" d="M132.89,17.82a.8.8,0,0,1,0-1.59h10.24a.8.8,0,1,1,0,1.59Z"/><rect class="cls-3" x="136.95" y="6.21" width="1.59" height="10.01" rx="0.48" ry="0.48" transform="translate(148.96 -126.53) rotate(90)"/><path class="cls-4" d="M45.14,19.31a5,5,0,0,1-4.24-2.79c-1.14-1.73-2.31-3.51-7.38-2.07v0c-1.68.24-2.6,2.35-3.49,4.39-.17.39-.35.79-.52,1.17a19.86,19.86,0,0,1-.93-2c-.75-1.81-1.5-4.08-2.24-6.31S25,7.71,24.4,6.21c-1-2.52-1.77-4-2.67-4.22-.2-.06-2.86-.89-4.84.28-1.26.68-2.27,3.18-3.67,6.64-.77,1.9-1.63,4-2.64,6.07-.91-1.37-1.79-2.6-2.86-2.6-.83,0-1.68.89-2.87,2.12s-3,3.08-4.85,3.75l.31.87c2.1-.75,3.82-2.54,5.21-4,.87-.91,1.77-1.84,2.2-1.84.64,0,1.54,1.35,2.26,2.43.32.48.63.95.95,1.36a5.74,5.74,0,0,0,.61.7,2.08,2.08,0,0,0,1.3.7l.23,0c2.05,0,3.54-4.21,5.1-8.67.37-1.06.8-2.27,1.23-3.37.66,1.68,1.34,3.78,2,6,2.18,6.74,3.64,10.86,5.43,11.13v0a12.1,12.1,0,0,0,2.34.25c3.87,0,4.89-2.53,5.81-4.81a11.69,11.69,0,0,1,1.15-2.35c.26.28.52.59.79.91,1.16,1.38,2.48,2.94,4.49,3.14a4.42,4.42,0,0,0,.5,0,10.57,10.57,0,0,0,3.28-.58l2.07-.69ZM17.3,9.55c-1.2,3.4-2.83,8.05-4.23,8.05a1.42,1.42,0,0,1-.94-.51,7.15,7.15,0,0,1-.51-.62c-.14-.2-.28-.41-.42-.62,1.13-2.22,2.06-4.54,2.89-6.59,1.23-3,2.29-5.66,3.26-6.18h0a4.75,4.75,0,0,1,3-.43l0,.06a6.28,6.28,0,0,0-1,1.57A53.94,53.94,0,0,0,17.3,9.55Zm5,2.62c-.84-2.59-1.63-5-2.41-6.88.09-.23.18-.45.27-.64a10,10,0,0,1,.49-.9,2.38,2.38,0,0,1,.8-.83c.62.35,1.33,1.77,2,3.58.58,1.52,1.19,3.33,1.82,5.23.76,2.29,1.54,4.62,2.32,6.52l0,0,.18.44.08.19.09.21.15.33.07.15.15.31.1.19.1.19.15.27.06.1L29,21v0a4,4,0,0,1-1.27,1.51,1.13,1.13,0,0,1-.71.15C25.67,22.49,23.74,16.52,22.33,12.17Zm11.84,6.56c-.91,2.26-1.77,4.42-5.45,4.21l.11-.11h0l.08-.08a6.88,6.88,0,0,0,1-1.52l.13-.25,0,0c.28-.55.53-1.13.79-1.72.83-1.9,1.69-3.86,3-3.86a2.26,2.26,0,0,1,1.64.7A11.91,11.91,0,0,0,34.17,18.73Zm7.39,1.12c-1.65-.16-2.79-1.51-3.89-2.81-.3-.35-.6-.7-.91-1v0l-.24-.22a6.28,6.28,0,0,0-.9-.76l-.05,0,0,0c2.92-.45,3.67.69,4.59,2.09a6.25,6.25,0,0,0,3,2.75A6.66,6.66,0,0,1,41.57,19.85Z"/><line class="cls-5" x1="184.28" x2="184.28" y2="23.52"/></g></g></svg>