<svg xmlns="http://www.w3.org/2000/svg" xmlns:xlink="http://www.w3.org/1999/xlink" viewBox="0 0 332.21 53.69"><defs><style>.cls-1{isolation:isolate;}.cls-2{fill:#30a3dc;}.cls-3{fill:#062837;}.cls-4{mix-blend-mode:multiply;fill:url(#Degradado_sin_nombre_2);}</style><linearGradient id="Degradado_sin_nombre_2" y1="26.84" x2="114.25" y2="26.84" gradientUnits="userSpaceOnUse"><stop offset="0" stop-color="#fff" stop-opacity="0"/><stop offset="0" stop-color="#fcfefe" stop-opacity="0.01"/><stop offset="0.02" stop-color="#c2e7f1" stop-opacity="0.24"/><stop offset="0.05" stop-color="#8fd2e6" stop-opacity="0.44"/><stop offset="0.08" stop-color="#63c1dc" stop-opacity="0.62"/><stop offset="0.1" stop-color="#40b3d4" stop-opacity="0.76"/><stop offset="0.13" stop-color="#24a8ce" stop-opacity="0.86"/><stop offset="0.17" stop-color="#11a0c9" stop-opacity="0.94"/><stop offset="0.21" stop-color="#069bc7" stop-opacity="0.99"/><stop offset="0.26" stop-color="#029ac6"/><stop offset="0.62" stop-color="#853288"/><stop offset="1" stop-color="#f4a47e"/></linearGradient></defs><title>Mesa de trabajo 12</title><g class="cls-1"><g id="Capa_3" data-name="Capa 3"><path class="cls-2" d="M133.85,50.41l-1-2.62h-3.31l-1,2.62h-1l3.26-8.29h.81l3.25,8.29Zm-1.33-3.49-1-2.56q-.19-.49-.38-1.19a10.55,10.55,0,0,1-.36,1.19l-1,2.56Z"/><path class="cls-2" d="M143.53,44.56a2.31,2.31,0,0,1-.86,1.93,3.88,3.88,0,0,1-2.45.67h-1v3.25h-1V42.15h2.14Q143.53,42.15,143.53,44.56Zm-4.27,1.78h.86a3.21,3.21,0,0,0,1.85-.41,1.52,1.52,0,0,0,.57-1.32,1.42,1.42,0,0,0-.54-1.22,2.8,2.8,0,0,0-1.67-.4h-1.07Z"/><path class="cls-2" d="M152.8,44.56a2.31,2.31,0,0,1-.86,1.93,3.88,3.88,0,0,1-2.45.67h-1v3.25h-1V42.15h2.14Q152.8,42.15,152.8,44.56Zm-4.27,1.78h.86a3.21,3.21,0,0,0,1.85-.41,1.52,1.52,0,0,0,.57-1.32,1.42,1.42,0,0,0-.54-1.22,2.8,2.8,0,0,0-1.67-.4h-1.07Z"/><path class="cls-2" d="M161.49,48.21a2,2,0,0,1-.79,1.7,3.42,3.42,0,0,1-2.14.61,5.38,5.38,0,0,1-2.26-.38v-.93a6.13,6.13,0,0,0,2.29.46,2.38,2.38,0,0,0,1.44-.37,1.19,1.19,0,0,0,.49-1,1.3,1.3,0,0,0-.17-.7,1.62,1.62,0,0,0-.58-.51,8.1,8.1,0,0,0-1.23-.52,3.91,3.91,0,0,1-1.65-1,2.15,2.15,0,0,1-.49-1.47,1.83,1.83,0,0,1,.72-1.52A3,3,0,0,1,159,42a5.57,5.57,0,0,1,2.26.45l-.3.83a5.13,5.13,0,0,0-2-.43,1.92,1.92,0,0,0-1.19.33,1.08,1.08,0,0,0-.43.91,1.39,1.39,0,0,0,.16.7,1.47,1.47,0,0,0,.53.5,6.48,6.48,0,0,0,1.15.51,4.55,4.55,0,0,1,1.79,1A2,2,0,0,1,161.49,48.21Z"/><path class="cls-2" d="M177.25,50.41h-1.09l-4.51-6.93h0q.09,1.22.09,2.24v4.69h-.89V42.15h1.08l4.5,6.9h0c0-.1,0-.43-.05-1s0-.94,0-1.18V42.15h.9Z"/><path class="cls-2" d="M186.44,50.41h-4.6V42.15h4.6V43H182.8v2.66h3.42v.85H182.8v3h3.64Z"/><path class="cls-2" d="M196.81,42.15v5.34a2.91,2.91,0,0,1-.85,2.22,3.27,3.27,0,0,1-2.34.81,3.13,3.13,0,0,1-2.31-.81,3,3,0,0,1-.82-2.24V42.15h1v5.39a2.12,2.12,0,0,0,.56,1.59,2.28,2.28,0,0,0,1.66.55,2.19,2.19,0,0,0,1.61-.56,2.14,2.14,0,0,0,.56-1.59V42.15Z"/><path class="cls-2" d="M208.47,46.27a5,5,0,0,1-.64,2.64,3.18,3.18,0,0,1-1.8,1.42l2,2H206.6L205,50.51h-.31a3.57,3.57,0,0,1-2.81-1.11,4.59,4.59,0,0,1-1-3.15,4.53,4.53,0,0,1,1-3.13A3.59,3.59,0,0,1,204.69,42a3.52,3.52,0,0,1,2.78,1.13A4.54,4.54,0,0,1,208.47,46.27Zm-6.58,0a3.92,3.92,0,0,0,.71,2.54,2.91,2.91,0,0,0,4.15,0,4,4,0,0,0,.7-2.55,3.93,3.93,0,0,0-.7-2.52,2.5,2.5,0,0,0-2.06-.86,2.55,2.55,0,0,0-2.09.87A3.88,3.88,0,0,0,201.89,46.27Z"/><path class="cls-2" d="M218.85,42.15v5.34a2.91,2.91,0,0,1-.85,2.22,3.27,3.27,0,0,1-2.34.81,3.13,3.13,0,0,1-2.31-.81,3,3,0,0,1-.82-2.24V42.15h1v5.39a2.12,2.12,0,0,0,.56,1.59,2.28,2.28,0,0,0,1.66.55,2.19,2.19,0,0,0,1.61-.56,2.14,2.14,0,0,0,.56-1.59V42.15Z"/><path class="cls-2" d="M223.35,50.41V42.15h1v8.25Z"/><path class="cls-2" d="M235.33,50.41h-1.09l-4.51-6.93h0q.09,1.22.09,2.24v4.69h-.89V42.15H230l4.5,6.9h0c0-.1,0-.43-.05-1s0-.94,0-1.18V42.15h.9Z"/><path class="cls-2" d="M245.1,50.41l-1-2.62h-3.31l-1,2.62h-1L242,42.12h.81l3.25,8.29Zm-1.33-3.49-1-2.56q-.19-.49-.38-1.19a10.55,10.55,0,0,1-.36,1.19l-1,2.56Z"/><path class="cls-2" d="M254.19,48.21a2,2,0,0,1-.79,1.7,3.42,3.42,0,0,1-2.14.61,5.38,5.38,0,0,1-2.26-.38v-.93a6.13,6.13,0,0,0,2.29.46,2.38,2.38,0,0,0,1.44-.37,1.19,1.19,0,0,0,.49-1,1.3,1.3,0,0,0-.17-.7,1.62,1.62,0,0,0-.58-.51,8.1,8.1,0,0,0-1.23-.52,3.91,3.91,0,0,1-1.65-1,2.15,2.15,0,0,1-.49-1.47,1.83,1.83,0,0,1,.72-1.52,3,3,0,0,1,1.9-.56,5.57,5.57,0,0,1,2.26.45l-.3.83a5.13,5.13,0,0,0-2-.43,1.92,1.92,0,0,0-1.19.33,1.08,1.08,0,0,0-.43.91,1.39,1.39,0,0,0,.16.7,1.47,1.47,0,0,0,.53.5,6.48,6.48,0,0,0,1.15.51,4.55,4.55,0,0,1,1.79,1A2,2,0,0,1,254.19,48.21Z"/><path class="cls-2" d="M270.1,46.2A4.17,4.17,0,0,1,269,49.33a4.39,4.39,0,0,1-3.19,1.08h-2.29V42.15H266a3.71,3.71,0,0,1,4.06,4Zm-1,0a3.32,3.32,0,0,0-.81-2.43,3.25,3.25,0,0,0-2.41-.82h-1.39v6.59h1.17a3.56,3.56,0,0,0,2.58-.84A3.34,3.34,0,0,0,269.08,46.24Z"/><path class="cls-2" d="M278.85,50.41h-4.6V42.15h4.6V43h-3.64v2.66h3.42v.85h-3.42v3h3.64Z"/><path class="cls-2" d="M293,48.21a2,2,0,0,1-.79,1.7,3.42,3.42,0,0,1-2.14.61,5.38,5.38,0,0,1-2.26-.38v-.93a6.13,6.13,0,0,0,2.29.46,2.38,2.38,0,0,0,1.44-.37,1.19,1.19,0,0,0,.49-1,1.3,1.3,0,0,0-.17-.7,1.62,1.62,0,0,0-.58-.51,8.1,8.1,0,0,0-1.23-.52,3.91,3.91,0,0,1-1.65-1,2.15,2.15,0,0,1-.49-1.47,1.83,1.83,0,0,1,.72-1.52,3,3,0,0,1,1.9-.56,5.57,5.57,0,0,1,2.26.45l-.3.83a5.13,5.13,0,0,0-2-.43,1.92,1.92,0,0,0-1.19.33,1.08,1.08,0,0,0-.43.91,1.39,1.39,0,0,0,.16.7,1.47,1.47,0,0,0,.53.5,6.48,6.48,0,0,0,1.15.51,4.55,4.55,0,0,1,1.79,1A2,2,0,0,1,293,48.21Z"/><path class="cls-2" d="M302.15,50.41l-1-2.62h-3.31l-1,2.62h-1l3.26-8.29h.81l3.25,8.29Zm-1.33-3.49-1-2.56q-.19-.49-.38-1.19a10.55,10.55,0,0,1-.36,1.19l-1,2.56Z"/><path class="cls-2" d="M306.59,50.41V42.15h1v7.38h3.64v.87Z"/><path class="cls-2" d="M321.13,42.15v5.34a2.91,2.91,0,0,1-.85,2.22,3.27,3.27,0,0,1-2.34.81,3.13,3.13,0,0,1-2.31-.81,3,3,0,0,1-.82-2.24V42.15h1v5.39a2.12,2.12,0,0,0,.56,1.59,2.28,2.28,0,0,0,1.66.55,2.19,2.19,0,0,0,1.61-.56,2.14,2.14,0,0,0,.56-1.59V42.15Z"/><path class="cls-2" d="M332.21,46.2a4.17,4.17,0,0,1-1.11,3.12,4.39,4.39,0,0,1-3.19,1.08h-2.29V42.15h2.53a3.71,3.71,0,0,1,4.06,4Zm-1,0a3.32,3.32,0,0,0-.81-2.43A3.25,3.25,0,0,0,328,43h-1.39v6.59h1.17a3.56,3.56,0,0,0,2.58-.84A3.34,3.34,0,0,0,331.2,46.24Z"/><path class="cls-3" d="M148,27.39a1.57,1.57,0,0,1-.84-.23,1.33,1.33,0,0,1-.58-.71l-2.95-6.86L138.52,7.75,130.37,26.5a1.37,1.37,0,0,1-1.33.89,1.49,1.49,0,0,1-1-.35,1.39,1.39,0,0,1-.48-.86,1.22,1.22,0,0,1,.07-.69l9.51-22.25a1.34,1.34,0,0,1,.61-.72,1.62,1.62,0,0,1,.76-.17,1.44,1.44,0,0,1,1.41.91l9.49,22.19a1.6,1.6,0,0,1,.1.57,1.32,1.32,0,0,1-.5,1.06A1.55,1.55,0,0,1,148,27.39Z"/><path class="cls-3" d="M221.93,27.71c-1.87,0-2-1.15-2-1.5,0-.72.53-1.5,2-1.5H231a7.51,7.51,0,0,0,6.25-2.68,11.22,11.22,0,0,0,2.1-7.11,13,13,0,0,0-.91-5,7,7,0,0,0-2.73-3.22C234.63,6,233.22,5.71,231,5.71h-8.87A3.85,3.85,0,0,1,221,5.57a1.37,1.37,0,0,1-1.11-1.32c0-.35.16-1.51,2.16-1.51h9.27a10.34,10.34,0,0,1,6.13,1.58,10.14,10.14,0,0,1,3.69,4.52,15.55,15.55,0,0,1,1.17,6.1,15.83,15.83,0,0,1-1.17,6.24,10.49,10.49,0,0,1-3.68,4.69,10.72,10.72,0,0,1-6.14,1.84h-9.42Z"/><path class="cls-3" d="M322.9,27.72A12,12,0,0,1,318,26.8,14.47,14.47,0,0,1,314,24a1.41,1.41,0,0,1-.45-1.05,1.47,1.47,0,0,1,.47-1.05,1.48,1.48,0,0,1,1.07-.48,1.54,1.54,0,0,1,1.15.54,8.44,8.44,0,0,0,3,2.17,9.31,9.31,0,0,0,3.68.74,6.92,6.92,0,0,0,4-1.1,3.06,3.06,0,0,0,1.44-2.67,3.31,3.31,0,0,0-.74-2.16,5.81,5.81,0,0,0-1.92-1.47,34,34,0,0,0-3.43-1.36,38.5,38.5,0,0,1-3.88-1.58,7.46,7.46,0,0,1-2.59-2.12,5.87,5.87,0,0,1-1.13-3.72,5.8,5.8,0,0,1,1.09-3.42,7.12,7.12,0,0,1,3-2.37,10.93,10.93,0,0,1,4.4-.83,11.72,11.72,0,0,1,4.22.77,7.87,7.87,0,0,1,3.27,2.25,2,2,0,0,1,.53,1.19,1.36,1.36,0,0,1-.54,1.07,1.64,1.64,0,0,1-1.06.39,1.33,1.33,0,0,1-1-.46,6.25,6.25,0,0,0-2.29-1.72,7.48,7.48,0,0,0-3.11-.64,7.08,7.08,0,0,0-4,1.08,3,3,0,0,0-1.45,2.66,2.87,2.87,0,0,0,.68,2A5.75,5.75,0,0,0,320.33,12a31.21,31.21,0,0,0,3.17,1.26,35.65,35.65,0,0,1,4,1.58,7.64,7.64,0,0,1,2.74,2.27,6.47,6.47,0,0,1,1.18,4,5.65,5.65,0,0,1-1.09,3.32,7.22,7.22,0,0,1-3,2.38A10.8,10.8,0,0,1,322.9,27.72Z"/><path class="cls-3" d="M193,27.56a1.45,1.45,0,0,1-1.16-.56L177.17,8V26.23a1.26,1.26,0,0,1-.46,1,1.44,1.44,0,0,1-1,.35,1.42,1.42,0,0,1-1-.38,1.28,1.28,0,0,1-.41-1V3.85a1.36,1.36,0,0,1,.46-1.08,1.42,1.42,0,0,1,.94-.35,1.44,1.44,0,0,1,1.09.49l14.82,19.19V3.82a1.36,1.36,0,0,1,.43-1,1.43,1.43,0,0,1,1-.39,1.38,1.38,0,0,1,1.43,1.4V26.06a1.43,1.43,0,0,1-.47,1.13A1.52,1.52,0,0,1,193,27.56Z"/><path class="cls-3" d="M268.81,5.71a1.51,1.51,0,1,1,0-3H288.2a1.51,1.51,0,1,1,0,3Z"/><path class="cls-3" d="M268.81,27.72a1.51,1.51,0,0,1,0-3H288.2a1.51,1.51,0,1,1,0,3Z"/><rect class="cls-3" x="276.48" y="5.74" width="3.01" height="18.95" rx="0.74" ry="0.74" transform="matrix(0, 1, -1, 0, 293.21, -262.77)"/><path class="cls-4" d="M109,42.66c-6.18-.59-8.14-3.58-10.23-6.73-2.75-4.17-5.59-8.47-17.82-5V31c-4.06.59-6.28,5.67-8.44,10.6-.42.95-.84,1.91-1.27,2.82A48,48,0,0,1,69,39.65c-1.81-4.37-3.63-9.86-5.4-15.23S60.35,14.65,58.93,11C56.6,4.94,54.65,1.4,52.48.83,52,.68,45.57-1.33,40.8,1.51c-3,1.65-5.49,7.69-8.87,16-1.85,4.58-3.93,9.71-6.37,14.67-2.2-3.3-4.33-6.27-6.91-6.27-2,0-4.07,2.15-6.93,5.13C8.53,34.38,4.57,38.5,0,40.13l.75,2.1c5.07-1.8,9.23-6.13,12.58-9.61,2.1-2.19,4.27-4.44,5.32-4.44,1.55,0,3.71,3.26,5.45,5.87.77,1.16,1.53,2.29,2.29,3.29A13.87,13.87,0,0,0,27.86,39,5,5,0,0,0,31,40.72a4.28,4.28,0,0,0,.56,0c5,0,8.54-10.17,12.33-20.94.9-2.57,1.93-5.48,3-8.15,1.59,4.06,3.23,9.12,4.94,14.42C57.07,42.37,60.59,52.31,64.92,53v.11a29.21,29.21,0,0,0,5.66.61c9.35,0,11.81-6.12,14-11.61a28.22,28.22,0,0,1,2.78-5.68c.63.68,1.26,1.43,1.92,2.21,2.81,3.32,6,7.09,10.84,7.57a10.68,10.68,0,0,0,1.2.05,25.52,25.52,0,0,0,7.92-1.4l5-1.66ZM41.77,19.08c-2.89,8.21-6.84,19.45-10.22,19.45a3.42,3.42,0,0,1-2.28-1.23A17.26,17.26,0,0,1,28,35.8c-.35-.48-.69-1-1-1.51,2.72-5.37,5-11,7-15.91C37,11,39.52,4.71,41.87,3.46l0,0c2.29-1.37,5.2-1.33,7.27-1l-.11.14a15.16,15.16,0,0,0-2.34,3.79A130.24,130.24,0,0,0,41.77,19.08Zm12.15,6.33c-2-6.26-3.95-12.19-5.82-16.6.22-.56.44-1.08.66-1.56a24.23,24.23,0,0,1,1.18-2.18,5.74,5.74,0,0,1,1.94-2c1.49.84,3.21,4.27,4.94,8.66,1.41,3.66,2.87,8,4.39,12.63C63,29.89,64.92,35.53,66.8,40.1l0,.12.44,1.05.2.47.22.5.37.8.17.37.36.74.23.46.25.47.36.65.14.24c.15.26.3.5.45.74l0,0A9.59,9.59,0,0,1,67,50.4a2.73,2.73,0,0,1-1.73.37C62,50.34,57.33,35.93,53.92,25.41Zm28.6,15.84c-2.2,5.47-4.29,10.67-13.15,10.18l.26-.26,0,0,.2-.2a16.61,16.61,0,0,0,2.53-3.66l.33-.6,0-.06c.67-1.32,1.29-2.74,1.9-4.14,2-4.58,4.08-9.32,7.19-9.32a5.46,5.46,0,0,1,4,1.7A28.76,28.76,0,0,0,82.52,41.25ZM100.37,44c-4-.4-6.73-3.65-9.38-6.8-.72-.85-1.44-1.7-2.19-2.49l0,0-.59-.53a15.15,15.15,0,0,0-2.18-1.84l-.13-.09-.12-.08c7-1.1,8.87,1.68,11.09,5.05,1.61,2.44,3.38,5.13,7.13,6.63A16.08,16.08,0,0,1,100.37,44Z"/></g></g></svg>