<?xml version="1.0" encoding="utf-8"?>
<!-- Generator: Adobe Illustrator 21.0.0, SVG Export Plug-In . SVG Version: 6.00 Build 0)  -->
<svg version="1.1" id="Capa_1" xmlns="http://www.w3.org/2000/svg" xmlns:xlink="http://www.w3.org/1999/xlink" x="0px" y="0px"
	 viewBox="0 0 114.2 53.7" style="enable-background:new 0 0 114.2 53.7;" xml:space="preserve">
<style type="text/css">
	.st0{fill:#FFFFFF;}
</style>
<title>Mesa de trabajo 12</title>
<path class="st0" d="M109,42.7c-6.2-0.6-8.1-3.6-10.2-6.7c-2.8-4.2-5.6-8.5-17.8-5V31c-4.1,0.6-6.3,5.7-8.4,10.6
	c-0.4,1-0.8,1.9-1.3,2.8c-0.8-1.5-1.6-3.1-2.2-4.8c-1.8-4.4-3.6-9.9-5.4-15.2s-3.3-9.8-4.7-13.4c-2.3-6.1-4.3-9.6-6.5-10.2
	C52,0.7,45.6-1.3,40.8,1.5c-3,1.6-5.5,7.7-8.9,16c-1.9,4.6-3.9,9.7-6.4,14.7c-2.2-3.3-4.3-6.3-6.9-6.3c-2,0-4.1,2.1-6.9,5.1
	C8.5,34.4,4.6,38.5,0,40.1l0.8,2.1c5.1-1.8,9.2-6.1,12.6-9.6c2.1-2.2,4.3-4.4,5.3-4.4c1.5,0,3.7,3.3,5.4,5.9
	c0.8,1.2,1.5,2.3,2.3,3.3c0.4,0.6,0.9,1.1,1.5,1.7c0.8,0.9,1.9,1.6,3.1,1.7c0.2,0,0.4,0,0.6,0c5,0,8.5-10.2,12.3-20.9
	c0.9-2.6,1.9-5.5,3-8.1c1.6,4.1,3.2,9.1,4.9,14.4c5.2,16.3,8.8,26.3,13.1,26.9v0.1c1.9,0.4,3.8,0.6,5.7,0.6c9.3,0,11.8-6.1,14-11.6
	c0.7-2,1.6-3.9,2.8-5.7c0.6,0.7,1.3,1.4,1.9,2.2c2.8,3.3,6,7.1,10.8,7.6c0.4,0,0.8,0.1,1.2,0c2.7,0,5.4-0.5,7.9-1.4l5-1.7L109,42.7z
	 M41.8,19.1c-2.9,8.2-6.8,19.4-10.2,19.4c-0.9-0.1-1.7-0.5-2.3-1.2c-0.5-0.5-0.9-1-1.3-1.5c-0.4-0.5-0.7-1-1-1.5
	c2.7-5.4,5-11,7-15.9c3-7.4,5.5-13.7,7.9-14.9l0,0c2.3-1.4,5.2-1.3,7.3-1L49,2.6c-1,1.1-1.8,2.4-2.3,3.8
	C44.8,10.5,43.2,14.8,41.8,19.1z M53.9,25.4c-2-6.3-4-12.2-5.8-16.6c0.2-0.6,0.4-1.1,0.7-1.6c0.4-0.7,0.7-1.5,1.2-2.2
	c0.5-0.8,1.1-1.5,1.9-2c1.5,0.8,3.2,4.3,4.9,8.7c1.4,3.7,2.9,8,4.4,12.6c1.8,5.5,3.7,11.2,5.6,15.7v0.1l0.4,1l0.2,0.5l0.2,0.5L68,43
	l0.2,0.4l0.4,0.7l0.2,0.5l0.3,0.5l0.4,0.7l0.1,0.2c0.2,0.3,0.3,0.5,0.4,0.7l0,0c-0.7,1.5-1.7,2.7-3,3.7c-0.5,0.3-1.1,0.4-1.7,0.4
	C62,50.3,57.3,35.9,53.9,25.4z M82.5,41.3c-2.2,5.5-4.3,10.7-13.2,10.2l0.3-0.3l0,0l0.2-0.2c1-1.1,1.9-2.3,2.5-3.7l0.3-0.6v-0.1
	c0.7-1.3,1.3-2.7,1.9-4.1c2-4.6,4.1-9.3,7.2-9.3c1.5,0,3,0.6,4,1.7C84.4,36.9,83.3,39,82.5,41.3z M100.4,44c-4-0.4-6.7-3.7-9.4-6.8
	c-0.7-0.8-1.4-1.7-2.2-2.5l0,0l-0.6-0.5c-0.7-0.7-1.4-1.3-2.2-1.8l-0.1-0.1l-0.1-0.1c7-1.1,8.9,1.7,11.1,5c1.6,2.4,3.4,5.1,7.1,6.6
	C102.8,44,101.6,44.1,100.4,44z"/>
</svg>
