<svg id="texto" xmlns="http://www.w3.org/2000/svg" viewBox="0 0 232.05 237.31"><defs><style>.cls-1,.cls-2,.cls-3{fill:none;stroke:#2fbcea;stroke-miterlimit:10;}.cls-1{stroke-width:0.75px;}.cls-2{stroke-width:2.5px;}.cls-4{fill:#ea1e79;}.cls-5{font-size:22.46px;fill:#2ca2da;font-family:SourceSansPro-Regular, Source Sans Pro;}.cls-6{letter-spacing:0em;}.cls-10,.cls-11,.cls-7,.cls-8,.cls-9{font-family:SourceSansPro-Bold, Source Sans Pro;font-weight:700;}.cls-8{letter-spacing:-0.01em;}.cls-9{letter-spacing:-0.03em;}.cls-10{letter-spacing:-0.03em;}.cls-11{letter-spacing:0em;}.cls-12{letter-spacing:-0.01em;}.cls-13{letter-spacing:-0.02em;}</style></defs><title>beneficio04</title><path class="cls-1" d="M33.45,50.33A2.66,2.66,0,1,1,36.11,53a2.66,2.66,0,0,1-2.66-2.66Zm0,0"/><path class="cls-1" d="M32.23,60.28a.46.46,0,1,1,0-.92h.7v-.7a.46.46,0,1,1,.92,0v.7h.69a.46.46,0,1,1,0,.92h-.69V61a.46.46,0,1,1-.92,0v-.69Zm0,0"/><path class="cls-1" d="M35.48,55.15a.46.46,0,0,1,.35.6l-.31.93.6,1.17.6-1.17-.31-.93a.46.46,0,0,1,.35-.6l1-.21.08-1.06H34.38l.08,1.06,1,.21Zm0,0"/><path class="cls-1" d="M42.8,50.34A2.67,2.67,0,1,1,45.48,53a2.67,2.67,0,0,1-2.67-2.67Zm0,0"/><path class="cls-1" d="M51.53,66.52V57.26a3.35,3.35,0,0,0-3.35-3.35h-5.4a3.34,3.34,0,0,0-3.34,3.34v11.8"/><path class="cls-1" d="M30.09,64.72V57.21a3.33,3.33,0,0,1,3.33-3.32h0l.11,1.48a.46.46,0,0,0,.37.42l.85.17-.21.62a.46.46,0,0,0,0,.36l1.1,2.15a.5.5,0,0,0,.4.21.43.43,0,0,0,.42-.21l1.1-2.15a.46.46,0,0,0,0-.36l-.21-.61.85-.17a.46.46,0,0,0,.37-.42l.11-1.48h0a3.32,3.32,0,0,1,2,.67"/><line class="cls-1" x1="39.43" y1="65.04" x2="24.7" y2="65.04"/><path class="cls-2" d="M19.25,68A21.63,21.63,0,1,1,47.76,79.13,21.67,21.67,0,0,1,19.25,68Z"/><path class="cls-2" d="M153.3,87.33a37.58,37.58,0,1,1-41.77-32.88A37.62,37.62,0,0,1,153.3,87.33Z"/><path class="cls-2" d="M210.9,15.42a25.64,25.64,0,1,1-14.71-13,25.67,25.67,0,0,1,14.71,13Z"/><line class="cls-2" x1="81.09" y1="78.49" x2="58.76" y2="68.03"/><polygon class="cls-1" points="155.5 142.51 152.46 142.51 152.46 141.25 150.02 143.69 152.46 146.14 152.46 144.87 155.5 144.87 155.5 142.51"/><polygon class="cls-1" points="153.87 149.36 156.9 149.36 156.9 150.63 159.34 148.18 156.9 145.74 156.9 147 153.87 147 153.87 149.36"/><path class="cls-1" d="M149.66,147.29a2.62,2.62,0,1,1-2.62-2.62,2.62,2.62,0,0,1,2.62,2.62Zm0,0"/><path class="cls-1" d="M153,161.11v-7.06a3.27,3.27,0,0,0-3.27-3.27h0l-.11,1.45a.46.46,0,0,1-.36.41l-.83.17.21.6a.45.45,0,0,1,0,.35l-1.08,2.11a.49.49,0,0,1-.4.21.42.42,0,0,1-.41-.21l-1.08-2.11a.45.45,0,0,1,0-.35l.2-.6-.83-.17a.45.45,0,0,1-.36-.41l-.11-1.45h0a3.28,3.28,0,0,0-3.28,3.28v3.68"/><path class="cls-1" d="M151.32,156.28h-.69V157a.45.45,0,1,1-.9,0v-.68H149a.45.45,0,1,1,0-.9h.68v-.69a.45.45,0,1,1,.9,0v.69h.69a.45.45,0,1,1,0,.9Z"/><path class="cls-1" d="M147.66,152l1-.2.08-1h-3.4l.08,1,1,.2a.46.46,0,0,1,.34.59l-.31.91.59,1.15.59-1.15-.31-.91a.46.46,0,0,1,.34-.59Zm0,0"/><path class="cls-1" d="M166.31,147.29a2.62,2.62,0,1,1-2.62-2.62,2.62,2.62,0,0,1,2.62,2.62Zm0,0"/><path class="cls-1" d="M169.61,157.74v-3.69a3.27,3.27,0,0,0-3.27-3.27h0l-.11,1.45a.46.46,0,0,1-.36.41l-.83.17.21.6a.45.45,0,0,1,0,.35l-1.08,2.11a.49.49,0,0,1-.4.21.42.42,0,0,1-.41-.21l-1.08-2.11a.45.45,0,0,1,0-.35l.2-.6-.83-.17a.45.45,0,0,1-.36-.41l-.11-1.45h0a3.28,3.28,0,0,0-3.28,3.28v7"/><path class="cls-1" d="M168,156.28h-.69V157a.45.45,0,1,1-.9,0v-.68h-.68a.45.45,0,1,1,0-.9h.68v-.69a.45.45,0,1,1,.9,0v.69H168a.45.45,0,1,1,0,.9Z"/><path class="cls-1" d="M164.31,152l1-.2.08-1H162l.08,1,1,.2a.46.46,0,0,1,.34.59l-.31.91.59,1.15.59-1.15-.31-.91a.46.46,0,0,1,.34-.59Zm0,0"/><path class="cls-2" d="M171.39,161.78a18.72,18.72,0,1,1-6.62-25.64,18.75,18.75,0,0,1,6.62,25.64Z"/><line class="cls-3" x1="136.22" y1="123.44" x2="145.27" y2="137.01"/><line class="cls-2" x1="145.27" y1="67.74" x2="170.59" y2="44.77"/><path class="cls-1" d="M191.67,30.69a.49.49,0,0,0,.12.38.5.5,0,0,0,.38.15h.17v9.35a1.45,1.45,0,0,0,2.9,0V31.22h.68v9.35a1.45,1.45,0,1,0,2.9,0V31.22H199a.49.49,0,0,0,.38-.16.5.5,0,0,0,.13-.39l-.19-3a2,2,0,0,0,1.61-2.26l-.79-5.47a2.47,2.47,0,0,0-2.45-2.13h-4.26A2.48,2.48,0,0,0,191,20l-.82,6.25H173.63a1.44,1.44,0,1,0,0,2.89h18.2Zm0,0"/><path class="cls-1" d="M198.23,14a2.65,2.65,0,1,1-2.65-2.65A2.65,2.65,0,0,1,198.23,14Zm0,0"/><path class="cls-1" d="M178,19.64a2.47,2.47,0,0,0-2.46,2.16l-.43,3.51h10.17l-.46-3.53a2.47,2.47,0,0,0-2.45-2.15Zm0,0"/><path class="cls-1" d="M182.84,16a2.65,2.65,0,1,1-2.65-2.65A2.65,2.65,0,0,1,182.84,16Zm0,0"/><circle class="cls-1" cx="180.89" cy="35.61" r="4.75"/><path class="cls-1" d="M180.94,32.32a.66.66,0,1,0,.66.66.66.66,0,0,0-.66-.66Zm0,0"/><path class="cls-1" d="M180.94,34.64a.5.5,0,0,0-.5.5v3a.5.5,0,0,0,1,0v-3a.5.5,0,0,0-.5-.5Zm0,0"/><path class="cls-4" d="M124.29,88.13a.68.68,0,0,1-.68.68h-16.9a.67.67,0,1,1,0-1.35h16.9A.67.67,0,0,1,124.29,88.13ZM106.71,83.4h6.76a.68.68,0,1,0,0-1.35h-6.76a.68.68,0,0,0,0,1.35Zm16.9,9.47h-16.9a.68.68,0,0,0,0,1.35h16.9a.68.68,0,0,0,0-1.35Zm0,5.41h-16.9a.68.68,0,0,0,0,1.35h16.9a.68.68,0,0,0,0-1.35Zm0,5.41h-16.9a.67.67,0,1,0,0,1.35h16.9a.67.67,0,1,0,0-1.35Zm7.44-19.83v29.3H99.27V72.58h18a9.34,9.34,0,1,1,13.79,11.27Zm-1.35.73a9.34,9.34,0,0,1-12.86-10.65H100.62v37.86H129.7Zm-3.76-16.87A8.32,8.32,0,1,0,134.25,76,8.32,8.32,0,0,0,125.94,67.71Z"/><polygon class="cls-4" points="131.21 74.38 127.58 74.38 127.58 70.76 124.48 70.76 124.48 74.38 120.86 74.38 120.86 77.49 124.48 77.49 124.48 81.11 127.58 81.11 127.58 77.49 131.21 77.49 131.21 74.38"/><text class="cls-5" transform="translate(31.09 204.75)">Ma<tspan class="cls-6" x="27.71" y="0">y</tspan><tspan x="38.11" y="0">or </tspan><tspan class="cls-7" x="62.62" y="0">in</tspan><tspan class="cls-8" x="81.66" y="0">t</tspan><tspan class="cls-7" x="90.04" y="0">e</tspan><tspan class="cls-9" x="101.67" y="0">r</tspan><tspan class="cls-7" x="109.96" y="0">a</tspan><tspan class="cls-10" x="121.96" y="0">c</tspan><tspan class="cls-11" x="131.81" y="0">ción</tspan><tspan x="-9.23" y="26.95">en </tspan><tspan class="cls-12" x="18.73" y="26.95">t</tspan><tspan x="26.19" y="26.95">u equipo médi</tspan><tspan class="cls-13" x="161.1" y="26.95">c</tspan><tspan x="170.87" y="26.95">o</tspan></text></svg>