<svg xmlns="http://www.w3.org/2000/svg" viewBox="0 0 232.05 237.31"><defs><style>.cls-1{fill:none;}.cls-2{fill:#2fbcea;}.cls-3{fill:#2ca2da;}</style></defs><title>beneficio01</title><g id="texto"><circle class="cls-1" cx="114.4" cy="146.38" r="4.07"/><path class="cls-1" d="M83.85,130h61.08V67.77c-.11,0-.21,9.23-.32,9.23-16.7,0-36.55-12-36.55-39.59H83.85Z"/><path class="cls-1" d="M76.15,26.93V152.4a4.07,4.07,0,0,0,4.07,4.07h68.35a4.07,4.07,0,0,0,4.07-4.07V66.9q-1.57.35-3.19.55v64.86a2.26,2.26,0,0,1-2.26,2.26H81.59a2.26,2.26,0,0,1-2.26-2.26V35.15a2.26,2.26,0,0,1,2.26-2.26h25.92c0-.76-.08-1.52-.08-2.29a37.31,37.31,0,0,1,.81-7.74h-28A4.07,4.07,0,0,0,76.15,26.93Zm38.25,110.85a8.6,8.6,0,1,1-8.59,8.6A8.61,8.61,0,0,1,114.39,137.78Z"/><path class="cls-2" d="M79.33,35.15v97.16a2.26,2.26,0,0,0,2.26,2.26h65.6a2.26,2.26,0,0,0,2.26-2.26V76.45a37.48,37.48,0,0,1-4.52.32V130H83.85V37.41h24.21a37.2,37.2,0,0,1-.56-4.52H81.59A2.26,2.26,0,0,0,79.33,35.15Z"/><path class="cls-2" d="M114.39,155a8.6,8.6,0,1,0-8.59-8.6A8.61,8.61,0,0,0,114.39,155Zm0-12.67a4.07,4.07,0,1,1-4.07,4.07A4.08,4.08,0,0,1,114.39,142.31Z"/><path class="cls-2" d="M152.64,152.4a4.07,4.07,0,0,1-4.07,4.07H80.22a4.07,4.07,0,0,1-4.07-4.07V26.93a4.07,4.07,0,0,1,4.07-4.07h30.7a7.51,7.51,0,0,1,3-4.52H80.22a8.61,8.61,0,0,0-8.6,8.6V152.4a8.61,8.61,0,0,0,8.6,8.6h68.35a8.61,8.61,0,0,0,8.59-8.6V74.6a36.91,36.91,0,0,1-4.52,1.3Z"/><path class="cls-2" d="M144.61,79.29a39.65,39.65,0,1,1,39.65-39.65A39.69,39.69,0,0,1,144.61,79.29Zm0-74.36a34.71,34.71,0,1,0,34.71,34.71A34.75,34.75,0,0,0,144.61,4.93Z"/><path class="cls-2" d="M151.56,16.62a15.23,15.23,0,0,0-14.23,20.62L122.77,51.79a1.11,1.11,0,0,0-.32.78v8a1.11,1.11,0,0,0,1.11,1.11h6.56a1.11,1.11,0,0,0,.78-.32l2.21-2.21a1.11,1.11,0,0,0,.33-.78V55.61h2.71a1.11,1.11,0,0,0,1.11-1.11V53.42h1.09a1.11,1.11,0,0,0,1.11-1.11V49.92h2.39a1.11,1.11,0,0,0,.78-.32l3.53-3.53a15.22,15.22,0,1,0,5.4-29.45Zm0,28.22a12.9,12.9,0,0,1-5.22-1.09,1.11,1.11,0,0,0-1.22.22h0l-3.72,3.72h-3a1.11,1.11,0,0,0-1.11,1.11V51.2h-1.09A1.11,1.11,0,0,0,135,52.31v1.09h-2.71a1.11,1.11,0,0,0-1.11,1.11v3.36l-1.56,1.56h-5V57.86L138.22,44.3a1,1,0,0,0-1.41-1.41L124.67,55V53l14.75-14.75h0a1.11,1.11,0,0,0,.22-1.22,13,13,0,1,1,11.91,7.78Z"/><path class="cls-2" d="M130.12,62h-6.56a1.42,1.42,0,0,1-1.42-1.42v-8a1.41,1.41,0,0,1,.41-1L137,37.16a15.51,15.51,0,1,1,9.27,9.27l-3.39,3.39a1.41,1.41,0,0,1-1,.42h-2.08v2.08a1.42,1.42,0,0,1-1.42,1.42h-.78v.78a1.42,1.42,0,0,1-1.42,1.42h-2.4v2.41a1.43,1.43,0,0,1-.42,1l-2.21,2.21A1.41,1.41,0,0,1,130.12,62Zm21.44-45a14.92,14.92,0,0,0-13.94,20.2l.07.19L123,52a.8.8,0,0,0-.23.57v8a.8.8,0,0,0,.8.8h6.56a.8.8,0,0,0,.57-.23l2.21-2.21a.8.8,0,0,0,.24-.57v-3h3a.8.8,0,0,0,.8-.8v-1.4h1.4a.8.8,0,0,0,.8-.8V49.61h2.69a.79.79,0,0,0,.57-.23l3.67-3.67.19.07a14.91,14.91,0,1,0,5.29-28.85ZM129.79,59.73h-5.43v-2L138,44.08a.69.69,0,0,0,0-1,.69.69,0,0,0-1,0L124.36,55.78V52.9L139.2,38.07a.8.8,0,0,0,.17-.89A13.3,13.3,0,1,1,146.22,44a.79.79,0,0,0-.88.16L141.51,48h-3.16a.8.8,0,0,0-.8.8v2.69h-1.4a.8.8,0,0,0-.8.8v1.4h-3a.8.8,0,0,0-.8.8V58ZM125,59.12h4.56l1.38-1.38V54.5a1.42,1.42,0,0,1,1.42-1.42h2.4v-.78a1.42,1.42,0,0,1,1.42-1.42h.78V48.81a1.42,1.42,0,0,1,1.42-1.42h2.91l3.63-3.63a1.42,1.42,0,0,1,1.57-.3,12.68,12.68,0,1,0-6.53-6.53,1.41,1.41,0,0,1-.28,1.56L125,53.16v1.13l11.62-11.62a1.31,1.31,0,1,1,1.85,1.85L125,58Z"/><path class="cls-2" d="M156.19,23a4.15,4.15,0,1,0,4.15,4.15A4.16,4.16,0,0,0,156.19,23Zm0,6.09a1.94,1.94,0,1,1,1.94-1.94A1.94,1.94,0,0,1,156.19,29.14Z"/><path class="cls-2" d="M156.19,31.67a4.46,4.46,0,1,1,4.46-4.46A4.47,4.47,0,0,1,156.19,31.67Zm0-8.31A3.85,3.85,0,1,0,160,27.2,3.85,3.85,0,0,0,156.19,23.36Zm0,6.09a2.24,2.24,0,1,1,2.24-2.24A2.25,2.25,0,0,1,156.19,29.45Zm0-3.87a1.63,1.63,0,1,0,1.63,1.63A1.63,1.63,0,0,0,156.19,25.58Z"/><path class="cls-3" d="M8.69,201.26H3.32l-1.42,4.49H0L5,191H7.1l5,14.73h-2Zm-.47-1.5-.7-2.25c-.52-1.64-1-3.26-1.46-5H6c-.47,1.71-.94,3.32-1.46,5l-.72,2.25Z"/><path class="cls-3" d="M13.63,194.84H15.5v6.67c0,2,.61,2.92,2,2.92,1.12,0,1.91-.56,2.94-1.84v-7.75h1.84v10.92H20.8L20.64,204h-.07A4.61,4.61,0,0,1,17,206c-2.31,0-3.35-1.48-3.35-4.27Z"/><path class="cls-3" d="M26,194.84h1.53l.16,1.57h.07a4.8,4.8,0,0,1,3.39-1.84,2.86,2.86,0,0,1,3,2.09c1.15-1.24,2.27-2.09,3.59-2.09,2.25,0,3.32,1.48,3.32,4.27v6.92H39.24v-6.67c0-2-.65-2.92-2-2.92-.85,0-1.73.56-2.74,1.68v7.91H32.63v-6.67c0-2-.65-2.92-2-2.92a4.1,4.1,0,0,0-2.74,1.68v7.91H26Z"/><path class="cls-3" d="M48.71,194.57c2.79,0,4.36,2,4.36,5.12a6.51,6.51,0,0,1-.07,1H45.64c.13,2.36,1.55,3.84,3.64,3.84a4.93,4.93,0,0,0,2.72-.85l.65,1.21A6.5,6.5,0,0,1,49.05,206c-2.92,0-5.23-2.13-5.23-5.71S46.22,194.57,48.71,194.57Zm2.74,4.92c0-2.22-1-3.46-2.7-3.46-1.53,0-2.92,1.26-3.14,3.46Z"/><path class="cls-3" d="M55.77,194.84h1.53l.16,1.57h.07a5.15,5.15,0,0,1,3.66-1.84c2.29,0,3.32,1.48,3.32,4.27v6.92H62.66v-6.67c0-2-.63-2.92-2.07-2.92-1.12,0-1.89.58-3,1.68v7.91H55.77Z"/><path class="cls-3" d="M68.37,196.34H66.75V195l1.71-.11.22-3.05h1.55v3.05h2.94v1.5H70.23v6.06c0,1.35.43,2.11,1.68,2.11a4,4,0,0,0,1.24-.29l.36,1.39a6.74,6.74,0,0,1-2,.4c-2.34,0-3.12-1.48-3.12-3.64Z"/><path class="cls-3" d="M81.42,198.84c0-1.39-.47-2.74-2.25-2.74a5.87,5.87,0,0,0-3.26,1.17L75.17,196a8.1,8.1,0,0,1,4.29-1.42c2.67,0,3.8,1.77,3.8,4.49v6.69H81.73l-.16-1.3h0A5.93,5.93,0,0,1,77.91,206a3,3,0,0,1-3.21-3.1C74.7,200.54,76.77,199.35,81.42,198.84Zm-3,5.71a4.47,4.47,0,0,0,3-1.46v-3c-3.66.45-4.9,1.35-4.9,2.74A1.67,1.67,0,0,0,78.43,204.54Z"/><path class="cls-3" d="M91.28,189.76h1.84v13.93c0,.58.25.81.52.81a1.55,1.55,0,0,0,.4,0l.25,1.39a2.48,2.48,0,0,1-1.06.18c-1.39,0-2-.88-2-2.47Z"/><path class="cls-3" d="M103.18,198.84c0-1.39-.47-2.74-2.25-2.74a5.87,5.87,0,0,0-3.26,1.17L96.94,196a8.1,8.1,0,0,1,4.29-1.42c2.67,0,3.8,1.77,3.8,4.49v6.69h-1.53l-.16-1.3h0A5.93,5.93,0,0,1,99.68,206a3,3,0,0,1-3.21-3.1C96.46,200.54,98.53,199.35,103.18,198.84Zm-3,5.71a4.47,4.47,0,0,0,3-1.46v-3c-3.66.45-4.9,1.35-4.9,2.74A1.67,1.67,0,0,0,100.19,204.54Z"/><path class="cls-3" d="M113.15,202.41a4.8,4.8,0,0,0,2.88,1.17c1,0,1.42-.36,1.42-.94,0-.74-1.12-1.08-2.27-1.53-1.35-.52-2.94-1.44-2.94-3.28,0-2.07,1.68-3.48,4.27-3.48a6.41,6.41,0,0,1,3.93,1.42l-1.48,2a4.11,4.11,0,0,0-2.36-.94c-.85,0-1.26.31-1.26.88,0,.72,1,1,2.18,1.42,1.42.52,3,1.3,3,3.35s-1.59,3.59-4.58,3.59a7.19,7.19,0,0,1-4.27-1.55Z"/><path class="cls-3" d="M127.21,194.34c3.17,0,4.74,2.31,4.74,5.35a6.54,6.54,0,0,1-.13,1.39h-6.67a2.7,2.7,0,0,0,2.9,2.43,4.49,4.49,0,0,0,2.4-.74l1.1,2a7.29,7.29,0,0,1-4,1.26c-3.19,0-5.64-2.16-5.64-5.84S124.54,194.34,127.21,194.34Zm1.93,4.69c0-1.28-.54-2.18-1.86-2.18-1,0-1.93.7-2.16,2.18Z"/><path class="cls-3" d="M134.92,205.42v-.09a2.14,2.14,0,0,1-1-1.89,2.69,2.69,0,0,1,1.26-2.09v-.09a3.57,3.57,0,0,1-1.5-2.9c0-2.67,2.2-4,4.6-4a5.18,5.18,0,0,1,1.73.27H144V197h-1.77a3,3,0,0,1,.36,1.46c0,2.56-1.93,3.75-4.38,3.75a4.44,4.44,0,0,1-1.35-.22,1,1,0,0,0-.4.83c0,.56.45.83,1.68.83H140c2.74,0,4.25.83,4.25,2.83,0,2.31-2.4,4-6.22,4-2.61,0-4.67-.85-4.67-2.83A2.62,2.62,0,0,1,134.92,205.42Zm3.59,3c1.48,0,2.56-.61,2.56-1.37s-.61-.88-1.71-.88h-1.15a6.48,6.48,0,0,1-1.57-.13,1.46,1.46,0,0,0-.61,1.1C136,208,137,208.43,138.51,208.43Zm1.26-10.06c0-1.17-.65-1.8-1.53-1.8s-1.53.61-1.53,1.8.65,1.86,1.53,1.86S139.77,199.6,139.77,198.36Z"/><path class="cls-3" d="M145.9,194.61h3.3v6.49c0,1.59.43,2.11,1.39,2.11s1.33-.36,2-1.24v-7.37h3.3v11.14h-2.7l-.25-1.55h-.07a4.34,4.34,0,0,1-3.5,1.82c-2.43,0-3.46-1.71-3.46-4.49Z"/><path class="cls-3" d="M158.77,194.61h2.7l.22,2h.09a3.73,3.73,0,0,1,3.17-2.22,3.2,3.2,0,0,1,1.33.22l-.54,2.85a4.16,4.16,0,0,0-1.21-.18,2.76,2.76,0,0,0-2.45,2v6.47h-3.3Z"/><path class="cls-3" d="M167.44,191.24a1.92,1.92,0,1,1,1.91,1.73A1.75,1.75,0,0,1,167.44,191.24Zm.27,3.37H171v11.14h-3.3Z"/><path class="cls-3" d="M177.95,194.34a3.65,3.65,0,0,1,2.74,1.17l-.13-1.71V190h3.3v15.75h-2.7l-.22-1.1h-.09a4.41,4.41,0,0,1-3,1.37c-2.76,0-4.56-2.2-4.56-5.84S175.59,194.34,177.95,194.34Zm.79,9a2.09,2.09,0,0,0,1.82-1v-4.56a2.64,2.64,0,0,0-1.84-.72c-1.06,0-2,1-2,3.1S177.45,203.33,178.73,203.33Z"/><path class="cls-3" d="M192.64,198.59a1.55,1.55,0,0,0-1.75-1.62,6,6,0,0,0-3,1l-1.17-2.18a9.21,9.21,0,0,1,4.76-1.46c2.85,0,4.42,1.62,4.42,5v6.38h-2.7l-.25-1.15h-.07a4.9,4.9,0,0,1-3.26,1.42,3.2,3.2,0,0,1-3.3-3.37C186.37,200.32,188.23,199,192.64,198.59Zm-1.84,4.87a2.48,2.48,0,0,0,1.84-.94v-2c-2.36.31-3.12,1-3.12,1.84S190,203.46,190.79,203.46Z"/><path class="cls-3" d="M202.81,194.34a3.65,3.65,0,0,1,2.74,1.17l-.13-1.71V190h3.3v15.75H206l-.22-1.1h-.09a4.41,4.41,0,0,1-3,1.37c-2.76,0-4.56-2.2-4.56-5.84S200.45,194.34,202.81,194.34Zm.79,9a2.09,2.09,0,0,0,1.82-1v-4.56a2.64,2.64,0,0,0-1.84-.72c-1.06,0-2,1-2,3.1S202.32,203.33,203.6,203.33Z"/><path class="cls-3" d="M5.93,221.52c2.79,0,4.36,2,4.36,5.12a6.51,6.51,0,0,1-.07,1H2.85C3,230,4.4,231.49,6.49,231.49a4.93,4.93,0,0,0,2.72-.85l.65,1.21A6.5,6.5,0,0,1,6.27,233C3.35,233,1,230.84,1,227.27S3.44,221.52,5.93,221.52Zm2.74,4.92c0-2.22-1-3.46-2.7-3.46-1.53,0-2.92,1.26-3.14,3.46Z"/><path class="cls-3" d="M13,221.79h1.53l.16,1.57h.07a5.15,5.15,0,0,1,3.66-1.84c2.29,0,3.32,1.48,3.32,4.27v6.92H19.88V226c0-2-.63-2.92-2.07-2.92-1.12,0-1.89.58-3,1.68v7.91H13Z"/><path class="cls-3" d="M29.8,216.71h1.84v13.93c0,.58.25.81.52.81a1.55,1.55,0,0,0,.4,0l.25,1.39a2.48,2.48,0,0,1-1.06.18c-1.39,0-2-.88-2-2.47Z"/><path class="cls-3" d="M39.78,221.52c2.67,0,5.05,2.09,5.05,5.75S42.45,233,39.78,233s-5.05-2.09-5.05-5.71S37.1,221.52,39.78,221.52Zm0,9.93c1.89,0,3.14-1.68,3.14-4.18S41.66,223,39.78,223s-3.14,1.71-3.14,4.22S37.91,231.45,39.78,231.45Z"/><path class="cls-3" d="M47.41,230.24a4.91,4.91,0,0,0,3.21,1.3c1.44,0,2.16-.76,2.16-1.71,0-1.12-1.3-1.62-2.49-2.07-1.55-.56-3.26-1.3-3.26-3.14s1.39-3.1,3.75-3.1a5.45,5.45,0,0,1,3.39,1.24l-.88,1.17a4.05,4.05,0,0,0-2.49-1c-1.37,0-2,.74-2,1.57,0,1,1.19,1.42,2.43,1.89,1.57.58,3.32,1.24,3.32,3.3,0,1.77-1.42,3.26-4,3.26a6.57,6.57,0,0,1-4.07-1.5Z"/><path class="cls-3" d="M63.49,233.63v3.68H61.65V221.79h1.53l.16,1.26h.07a5.65,5.65,0,0,1,3.48-1.53c2.81,0,4.31,2.18,4.31,5.57,0,3.71-2.22,5.88-4.72,5.88a5.06,5.06,0,0,1-3-1.26Zm2.67-2.2c1.8,0,3.12-1.64,3.12-4.33,0-2.4-.81-4-2.87-4a4.6,4.6,0,0,0-2.92,1.48v5.73A4.32,4.32,0,0,0,66.17,231.43Z"/><path class="cls-3" d="M74.12,221.79h1.53l.16,2h.07a3.73,3.73,0,0,1,3.1-2.25,2.71,2.71,0,0,1,1.17.22l-.36,1.62a3.06,3.06,0,0,0-1.06-.18c-.92,0-2,.67-2.76,2.52v7H74.12Z"/><path class="cls-3" d="M85.93,221.52c2.67,0,5.05,2.09,5.05,5.75S88.6,233,85.93,233s-5.05-2.09-5.05-5.71S83.26,221.52,85.93,221.52Zm0,9.93c1.89,0,3.14-1.68,3.14-4.18S87.82,223,85.93,223s-3.14,1.71-3.14,4.22S84.07,231.45,85.93,231.45Z"/><path class="cls-3" d="M98.31,221.52a4.5,4.5,0,0,1,3.19,1.3l-.92,1.19a3.3,3.3,0,0,0-2.2-1c-2,0-3.41,1.71-3.41,4.22s1.37,4.18,3.37,4.18a3.89,3.89,0,0,0,2.56-1.1l.83,1.21A5.41,5.41,0,0,1,98.17,233c-2.9,0-5.12-2.09-5.12-5.71S95.5,221.52,98.31,221.52Z"/><path class="cls-3" d="M107.72,221.52c2.79,0,4.36,2,4.36,5.12a6.51,6.51,0,0,1-.07,1h-7.37c.13,2.36,1.55,3.84,3.64,3.84a4.93,4.93,0,0,0,2.72-.85l.65,1.21a6.5,6.5,0,0,1-3.59,1.12c-2.92,0-5.23-2.13-5.23-5.71S105.22,221.52,107.72,221.52Zm2.74,4.92c0-2.22-1-3.46-2.7-3.46-1.53,0-2.92,1.26-3.14,3.46Z"/><path class="cls-3" d="M114.48,230.24a4.91,4.91,0,0,0,3.21,1.3c1.44,0,2.16-.76,2.16-1.71,0-1.12-1.3-1.62-2.49-2.07-1.55-.56-3.26-1.3-3.26-3.14s1.39-3.1,3.75-3.1a5.45,5.45,0,0,1,3.39,1.24l-.88,1.17a4.05,4.05,0,0,0-2.49-1c-1.37,0-2,.74-2,1.57,0,1,1.19,1.42,2.43,1.89,1.57.58,3.32,1.24,3.32,3.3,0,1.77-1.42,3.26-4,3.26a6.57,6.57,0,0,1-4.07-1.5Z"/><path class="cls-3" d="M128.42,221.52c2.67,0,5.05,2.09,5.05,5.75S131.1,233,128.42,233s-5.05-2.09-5.05-5.71S125.75,221.52,128.42,221.52Zm0,9.93c1.89,0,3.14-1.68,3.14-4.18s-1.26-4.22-3.14-4.22-3.14,1.71-3.14,4.22S126.56,231.45,128.42,231.45Z"/><path class="cls-3" d="M136.06,230.24a4.91,4.91,0,0,0,3.21,1.3c1.44,0,2.16-.76,2.16-1.71,0-1.12-1.3-1.62-2.49-2.07-1.55-.56-3.26-1.3-3.26-3.14s1.39-3.1,3.75-3.1a5.45,5.45,0,0,1,3.39,1.24l-.88,1.17a4.05,4.05,0,0,0-2.49-1c-1.37,0-2,.74-2,1.57,0,1,1.19,1.42,2.43,1.89,1.57.58,3.32,1.24,3.32,3.3,0,1.77-1.42,3.26-4,3.26a6.57,6.57,0,0,1-4.07-1.5Z"/><path class="cls-3" d="M154.25,221.52a4.5,4.5,0,0,1,3.05,1.26l-.09-1.86v-4.2h1.86v16h-1.53l-.16-1.28h-.07A4.92,4.92,0,0,1,154,233c-2.74,0-4.51-2.07-4.51-5.71S151.76,221.52,154.25,221.52Zm.18,9.91a3.69,3.69,0,0,0,2.79-1.5v-5.71a3.8,3.8,0,0,0-2.65-1.15c-1.75,0-3.14,1.68-3.14,4.18S152.52,231.43,154.43,231.43Z"/><path class="cls-3" d="M166.85,221.52c2.79,0,4.36,2,4.36,5.12a6.51,6.51,0,0,1-.07,1h-7.37c.13,2.36,1.55,3.84,3.64,3.84a4.93,4.93,0,0,0,2.72-.85l.65,1.21a6.5,6.5,0,0,1-3.59,1.12c-2.92,0-5.23-2.13-5.23-5.71S164.36,221.52,166.85,221.52Zm2.74,4.92c0-2.22-1-3.46-2.7-3.46-1.53,0-2.92,1.26-3.14,3.46Z"/><path class="cls-3" d="M178.15,230.24a4.91,4.91,0,0,0,3.21,1.3c1.44,0,2.16-.76,2.16-1.71,0-1.12-1.3-1.62-2.49-2.07-1.55-.56-3.26-1.3-3.26-3.14s1.39-3.1,3.75-3.1a5.45,5.45,0,0,1,3.39,1.24l-.88,1.17a4.05,4.05,0,0,0-2.49-1c-1.37,0-2,.74-2,1.57,0,1,1.19,1.42,2.43,1.89,1.57.58,3.32,1.24,3.32,3.3,0,1.77-1.42,3.26-4,3.26a6.57,6.57,0,0,1-4.07-1.5Z"/><path class="cls-3" d="M194,225.79c0-1.39-.47-2.74-2.25-2.74a5.87,5.87,0,0,0-3.26,1.17l-.74-1.28a8.1,8.1,0,0,1,4.29-1.42c2.67,0,3.8,1.77,3.8,4.49v6.69h-1.53l-.16-1.3h0a5.93,5.93,0,0,1-3.62,1.57,3,3,0,0,1-3.21-3.1C187.31,227.5,189.38,226.3,194,225.79Zm-3,5.71a4.47,4.47,0,0,0,3-1.46v-3c-3.66.45-4.9,1.35-4.9,2.74A1.67,1.67,0,0,0,191,231.49Z"/><path class="cls-3" d="M199.35,216.71h1.84v13.93c0,.58.25.81.52.81a1.55,1.55,0,0,0,.4,0l.25,1.39a2.48,2.48,0,0,1-1.06.18c-1.39,0-2-.88-2-2.47Z"/><path class="cls-3" d="M204.92,221.79h1.86v6.67c0,2,.61,2.92,2,2.92,1.12,0,1.91-.56,2.94-1.84v-7.75h1.84v10.92h-1.53l-.16-1.71h-.07a4.61,4.61,0,0,1-3.59,2c-2.31,0-3.35-1.48-3.35-4.27Z"/><path class="cls-3" d="M221.25,221.52a4.5,4.5,0,0,1,3.05,1.26l-.09-1.86v-4.2h1.86v16h-1.53l-.16-1.28h-.07A4.92,4.92,0,0,1,221,233c-2.74,0-4.51-2.07-4.51-5.71S218.75,221.52,221.25,221.52Zm.18,9.91a3.69,3.69,0,0,0,2.79-1.5v-5.71a3.8,3.8,0,0,0-2.65-1.15c-1.75,0-3.14,1.68-3.14,4.18S219.52,231.43,221.43,231.43Z"/><path class="cls-3" d="M230.73,230.15a1.42,1.42,0,1,1-1.35,1.44A1.36,1.36,0,0,1,230.73,230.15Z"/></g></svg>