<svg xmlns="http://www.w3.org/2000/svg" viewBox="0 0 269.54 232.87"><defs><style>.cls-1{fill:#2ca2da;}.cls-2{fill:#2fbcea;}</style></defs><title>Mesa de trabajo 24</title><g id="texto"><path class="cls-1" d="M32.14,186.45h4.54c3.26,0,5.44,1.1,5.44,4.33s-2.22,4.56-5.44,4.56H34v5.84H32.14Zm4.29,7.37c2.58,0,3.82-.94,3.82-3S39,188,36.43,188H34v5.86Z"/><path class="cls-1" d="M48.4,190c2.79,0,4.36,2,4.36,5.12a6.5,6.5,0,0,1-.07,1H45.32c.13,2.36,1.55,3.84,3.64,3.84a4.94,4.94,0,0,0,2.72-.85l.65,1.21a6.51,6.51,0,0,1-3.59,1.12c-2.92,0-5.23-2.13-5.23-5.71S45.91,190,48.4,190Zm2.74,4.92c0-2.22-1-3.46-2.7-3.46-1.53,0-2.92,1.26-3.14,3.46Z"/><path class="cls-1" d="M55.45,190.27H57l.16,2h.07A3.73,3.73,0,0,1,60.3,190a2.69,2.69,0,0,1,1.17.22l-.36,1.62a3,3,0,0,0-1.05-.18c-.92,0-2,.67-2.76,2.52v7H55.45Z"/><path class="cls-1" d="M63.25,190.27h1.53l.16,1.57H65A4.8,4.8,0,0,1,68.39,190a2.86,2.86,0,0,1,3,2.09C72.54,190.85,73.67,190,75,190c2.25,0,3.32,1.48,3.32,4.27v6.92H76.48v-6.67c0-2-.65-2.92-2-2.92-.85,0-1.73.56-2.74,1.69v7.91H69.87v-6.67c0-2-.65-2.92-2-2.92a4.1,4.1,0,0,0-2.74,1.69v7.91H63.25Z"/><path class="cls-1" d="M81.53,186.83a1.28,1.28,0,0,1,2.56,0,1.28,1.28,0,0,1-2.56,0Zm.34,3.44h1.84v10.92H81.87Z"/><path class="cls-1" d="M87.71,191.77H86.09v-1.39l1.71-.11.22-3.05h1.55v3.05h2.94v1.5H89.57v6.06c0,1.35.43,2.11,1.68,2.11a4,4,0,0,0,1.24-.29l.36,1.39a6.77,6.77,0,0,1-2,.4c-2.34,0-3.12-1.48-3.12-3.64Z"/><path class="cls-1" d="M98.85,190c2.79,0,4.36,2,4.36,5.12a6.49,6.49,0,0,1-.07,1H95.77c.13,2.36,1.55,3.84,3.64,3.84a4.94,4.94,0,0,0,2.72-.85l.65,1.21a6.51,6.51,0,0,1-3.59,1.12c-2.92,0-5.23-2.13-5.23-5.71S96.35,190,98.85,190Zm2.74,4.92c0-2.22-1-3.46-2.7-3.46-1.53,0-2.92,1.26-3.14,3.46Z"/><path class="cls-1" d="M114.39,190a4.45,4.45,0,0,1,3.12,1.3h0l.18-1h1.48v15.52h-1.87V201.9l.09-1.93a5,5,0,0,1-3.28,1.48c-2.74,0-4.51-2.07-4.51-5.71S111.89,190,114.39,190Zm.18,9.9a3.69,3.69,0,0,0,2.79-1.5v-5.71a3.79,3.79,0,0,0-2.65-1.15c-1.75,0-3.14,1.69-3.14,4.18S112.66,199.9,114.57,199.9Z"/><path class="cls-1" d="M122.63,190.27h1.87v6.67c0,2,.61,2.92,2,2.92,1.12,0,1.91-.56,2.94-1.84v-7.75h1.84v10.92h-1.53l-.16-1.71h-.07a4.62,4.62,0,0,1-3.59,2c-2.31,0-3.35-1.48-3.35-4.27Z"/><path class="cls-1" d="M139.09,190c2.79,0,4.36,2,4.36,5.12a6.52,6.52,0,0,1-.07,1H136c.13,2.36,1.55,3.84,3.64,3.84a4.94,4.94,0,0,0,2.72-.85l.65,1.21a6.51,6.51,0,0,1-3.59,1.12c-2.92,0-5.23-2.13-5.23-5.71S136.6,190,139.09,190Zm2.74,4.92c0-2.22-1-3.46-2.7-3.46-1.53,0-2.92,1.26-3.14,3.46Z"/><path class="cls-1" d="M156.86,194.26c0-1.39-.47-2.74-2.25-2.74a5.87,5.87,0,0,0-3.26,1.17l-.74-1.28A8.12,8.12,0,0,1,154.9,190c2.67,0,3.79,1.77,3.79,4.49v6.69h-1.53l-.16-1.3h0a5.94,5.94,0,0,1-3.62,1.57,3,3,0,0,1-3.21-3.1C150.14,196,152.21,194.78,156.86,194.26Zm-3,5.71a4.47,4.47,0,0,0,3-1.46v-3c-3.66.45-4.9,1.35-4.9,2.74A1.67,1.67,0,0,0,153.87,200Z"/><path class="cls-1" d="M166.63,190a4.5,4.5,0,0,1,3.19,1.3l-.92,1.19a3.3,3.3,0,0,0-2.2-1c-2,0-3.41,1.71-3.41,4.22s1.37,4.18,3.37,4.18a3.89,3.89,0,0,0,2.56-1.1L170,200a5.4,5.4,0,0,1-3.55,1.42c-2.9,0-5.12-2.09-5.12-5.71S163.82,190,166.63,190Z"/><path class="cls-1" d="M176.4,190a4.5,4.5,0,0,1,3.19,1.3l-.92,1.19a3.3,3.3,0,0,0-2.2-1c-2,0-3.41,1.71-3.41,4.22s1.37,4.18,3.37,4.18a3.89,3.89,0,0,0,2.56-1.1l.83,1.21a5.4,5.4,0,0,1-3.55,1.42c-2.9,0-5.12-2.09-5.12-5.71S173.59,190,176.4,190Z"/><path class="cls-1" d="M185.81,190c2.79,0,4.36,2,4.36,5.12a6.49,6.49,0,0,1-.07,1h-7.37c.13,2.36,1.55,3.84,3.64,3.84a4.94,4.94,0,0,0,2.72-.85l.65,1.21a6.51,6.51,0,0,1-3.59,1.12c-2.92,0-5.23-2.13-5.23-5.71S183.31,190,185.81,190Zm2.74,4.92c0-2.22-1-3.46-2.7-3.46-1.53,0-2.92,1.26-3.14,3.46Z"/><path class="cls-1" d="M196.81,190a4.49,4.49,0,0,1,3.05,1.26l-.09-1.87v-4.2h1.86v16h-1.53L200,199.9h-.07a4.92,4.92,0,0,1-3.3,1.55c-2.74,0-4.51-2.07-4.51-5.71S194.32,190,196.81,190Zm.18,9.9a3.7,3.7,0,0,0,2.79-1.5v-5.71a3.8,3.8,0,0,0-2.65-1.15c-1.75,0-3.14,1.69-3.14,4.18S195.08,199.9,197,199.9Z"/><path class="cls-1" d="M211.5,194.26c0-1.39-.47-2.74-2.25-2.74a5.87,5.87,0,0,0-3.26,1.17l-.74-1.28a8.11,8.11,0,0,1,4.29-1.41c2.67,0,3.8,1.77,3.8,4.49v6.69h-1.53l-.16-1.3h0a5.93,5.93,0,0,1-3.62,1.57,3,3,0,0,1-3.21-3.1C204.79,196,206.85,194.78,211.5,194.26Zm-3,5.71a4.47,4.47,0,0,0,3-1.46v-3c-3.66.45-4.9,1.35-4.9,2.74A1.67,1.67,0,0,0,208.51,200Z"/><path class="cls-1" d="M216.53,198.71a4.91,4.91,0,0,0,3.21,1.3c1.44,0,2.16-.76,2.16-1.71,0-1.12-1.3-1.62-2.49-2.07-1.55-.56-3.26-1.3-3.26-3.14s1.39-3.1,3.75-3.1a5.45,5.45,0,0,1,3.39,1.23l-.87,1.17a4.06,4.06,0,0,0-2.49-1c-1.37,0-2,.74-2,1.57,0,1,1.19,1.41,2.43,1.89,1.57.58,3.32,1.23,3.32,3.3,0,1.78-1.42,3.26-4,3.26a6.57,6.57,0,0,1-4.07-1.51Z"/><path class="cls-1" d="M236.95,194.26c0-1.39-.47-2.74-2.25-2.74a5.87,5.87,0,0,0-3.26,1.17l-.74-1.28A8.1,8.1,0,0,1,235,190c2.67,0,3.8,1.77,3.8,4.49v6.69h-1.53l-.16-1.3h0a5.93,5.93,0,0,1-3.62,1.57,3,3,0,0,1-3.21-3.1C230.23,196,232.3,194.78,236.95,194.26ZM234,200a4.48,4.48,0,0,0,3-1.46v-3c-3.66.45-4.9,1.35-4.9,2.74A1.67,1.67,0,0,0,234,200Z"/><path class="cls-1" d="M1.53,219.58H0v-2.45L1.71,217l.38-3H4.83v3H7.5v2.58H4.83V224c0,1.26.56,1.78,1.44,1.78a3.17,3.17,0,0,0,1.05-.22l.52,2.4a8,8,0,0,1-2.47.4c-2.76,0-3.84-1.73-3.84-4.31Z"/><path class="cls-1" d="M9.57,217h3.3v6.49c0,1.59.43,2.11,1.39,2.11s1.33-.36,2-1.24V217h3.3v11.14h-2.7l-.25-1.55h-.07A4.34,4.34,0,0,1,13,228.4c-2.43,0-3.46-1.71-3.46-4.49Z"/><path class="cls-1" d="M22.93,224.79A4.8,4.8,0,0,0,25.81,226c1,0,1.42-.36,1.42-.94,0-.74-1.12-1.08-2.27-1.53C23.61,223,22,222,22,220.21c0-2.07,1.68-3.48,4.27-3.48a6.41,6.41,0,0,1,3.93,1.42l-1.48,2a4.11,4.11,0,0,0-2.36-.94c-.85,0-1.26.31-1.26.88,0,.72,1,1,2.18,1.42,1.42.52,3,1.3,3,3.35s-1.59,3.59-4.58,3.59a7.2,7.2,0,0,1-4.27-1.55Z"/><path class="cls-1" d="M41.1,216.72a3.65,3.65,0,0,1,2.74,1.17l-.13-1.71v-3.79H47v15.74h-2.7l-.22-1.1H44a4.41,4.41,0,0,1-3,1.37c-2.76,0-4.56-2.2-4.56-5.84S38.74,216.72,41.1,216.72Zm.79,9a2.09,2.09,0,0,0,1.82-1v-4.56a2.64,2.64,0,0,0-1.84-.72c-1.06,0-2,1-2,3.1S40.61,225.71,41.89,225.71Z"/><path class="cls-1" d="M55.79,221A1.55,1.55,0,0,0,54,219.35a6,6,0,0,0-3,1l-1.17-2.18a9.21,9.21,0,0,1,4.76-1.46c2.85,0,4.42,1.62,4.42,5v6.38H56.4L56.15,227h-.07a4.9,4.9,0,0,1-3.26,1.41,3.2,3.2,0,0,1-3.3-3.37C49.52,222.7,51.39,221.42,55.79,221Zm-1.84,4.87a2.48,2.48,0,0,0,1.84-.94v-2c-2.36.31-3.12,1-3.12,1.84S53.16,225.84,53.95,225.84Z"/><path class="cls-1" d="M62.37,219.58H60.84v-2.45l1.71-.13.38-3h2.74v3h2.67v2.58H65.67V224c0,1.26.56,1.78,1.44,1.78a3.19,3.19,0,0,0,1.06-.22l.52,2.4a8,8,0,0,1-2.47.4c-2.76,0-3.84-1.73-3.84-4.31Z"/><path class="cls-1" d="M75.08,216.72a5.46,5.46,0,0,1,5.41,5.84c0,3.71-2.61,5.84-5.41,5.84a5.85,5.85,0,0,1,0-11.68Zm0,9c1.35,0,2-1.24,2-3.17s-.7-3.17-2-3.17-2,1.23-2,3.17S73.71,225.73,75.08,225.73Z"/><path class="cls-1" d="M83.15,224.79A4.8,4.8,0,0,0,86,226c1,0,1.41-.36,1.41-.94,0-.74-1.12-1.08-2.27-1.53-1.35-.52-2.94-1.44-2.94-3.28,0-2.07,1.69-3.48,4.27-3.48a6.41,6.41,0,0,1,3.93,1.42l-1.48,2a4.11,4.11,0,0,0-2.36-.94c-.85,0-1.26.31-1.26.88,0,.72,1,1,2.18,1.42,1.41.52,3,1.3,3,3.35s-1.6,3.59-4.58,3.59a7.19,7.19,0,0,1-4.27-1.55Z"/><path class="cls-1" d="M101.32,216.72a3.65,3.65,0,0,1,2.74,1.17l-.13-1.71v-3.79h3.3v15.74h-2.7l-.22-1.1h-.09a4.41,4.41,0,0,1-3,1.37c-2.76,0-4.56-2.2-4.56-5.84S99,216.72,101.32,216.72Zm.79,9a2.1,2.1,0,0,0,1.82-1v-4.56a2.64,2.64,0,0,0-1.84-.72c-1.06,0-2,1-2,3.1S100.82,225.71,102.1,225.71Z"/><path class="cls-1" d="M109.87,213.62a1.92,1.92,0,1,1,1.91,1.73A1.75,1.75,0,0,1,109.87,213.62Zm.27,3.37h3.3v11.14h-3.3Z"/><path class="cls-1" d="M117.24,227.8v-.09a2.14,2.14,0,0,1-1-1.89,2.69,2.69,0,0,1,1.26-2.09v-.09a3.56,3.56,0,0,1-1.51-2.9c0-2.67,2.2-4,4.61-4a5.17,5.17,0,0,1,1.73.27h4.07v2.4h-1.78a3,3,0,0,1,.36,1.46c0,2.56-1.93,3.75-4.38,3.75a4.47,4.47,0,0,1-1.35-.22.94.94,0,0,0-.4.83c0,.56.45.83,1.68.83h1.8c2.74,0,4.25.83,4.25,2.83,0,2.31-2.4,4-6.22,4-2.61,0-4.67-.85-4.67-2.83A2.62,2.62,0,0,1,117.24,227.8Zm3.59,3c1.48,0,2.56-.61,2.56-1.37s-.61-.87-1.71-.87h-1.15a6.48,6.48,0,0,1-1.57-.13,1.46,1.46,0,0,0-.61,1.1C118.36,230.36,119.35,230.81,120.83,230.81Zm1.26-10.06c0-1.17-.65-1.8-1.53-1.8s-1.53.61-1.53,1.8.65,1.86,1.53,1.86S122.09,222,122.09,220.74Z"/><path class="cls-1" d="M128.06,213.62a1.92,1.92,0,1,1,1.91,1.73A1.75,1.75,0,0,1,128.06,213.62Zm.27,3.37h3.3v11.14h-3.3Z"/><path class="cls-1" d="M135,219.58h-1.53v-2.45l1.71-.13.38-3h2.74v3H141v2.58h-2.67V224c0,1.26.56,1.78,1.44,1.78a3.18,3.18,0,0,0,1.06-.22l.52,2.4a8,8,0,0,1-2.47.4c-2.76,0-3.84-1.73-3.84-4.31Z"/><path class="cls-1" d="M148.73,221a1.55,1.55,0,0,0-1.75-1.62,6,6,0,0,0-3,1l-1.17-2.18a9.21,9.21,0,0,1,4.76-1.46c2.85,0,4.42,1.62,4.42,5v6.38h-2.7l-.25-1.14H149a4.9,4.9,0,0,1-3.26,1.41,3.2,3.2,0,0,1-3.3-3.37C142.46,222.7,144.33,221.42,148.73,221Zm-1.84,4.87a2.48,2.48,0,0,0,1.84-.94v-2c-2.36.31-3.12,1-3.12,1.84S146.1,225.84,146.89,225.84Z"/><path class="cls-1" d="M154.86,212.39h3.3v12.42c0,.7.31.92.58.92a1.39,1.39,0,0,0,.4,0l.4,2.45a4.29,4.29,0,0,1-1.66.27c-2.27,0-3-1.48-3-3.73Z"/><path class="cls-1" d="M165.89,216.72c3.17,0,4.74,2.31,4.74,5.35a6.61,6.61,0,0,1-.13,1.39h-6.67a2.7,2.7,0,0,0,2.9,2.43,4.49,4.49,0,0,0,2.4-.74l1.1,2a7.29,7.29,0,0,1-4,1.26,5.43,5.43,0,0,1-5.64-5.84C160.63,218.95,163.21,216.72,165.89,216.72Zm1.93,4.7c0-1.28-.54-2.18-1.86-2.18-1,0-1.93.7-2.16,2.18Z"/><path class="cls-1" d="M173.41,224.79a4.8,4.8,0,0,0,2.88,1.17c1,0,1.42-.36,1.42-.94,0-.74-1.12-1.08-2.27-1.53-1.35-.52-2.94-1.44-2.94-3.28,0-2.07,1.68-3.48,4.27-3.48a6.4,6.4,0,0,1,3.93,1.42l-1.48,2a4.11,4.11,0,0,0-2.36-.94c-.85,0-1.26.31-1.26.88,0,.72,1,1,2.18,1.42,1.42.52,3,1.3,3,3.35s-1.59,3.59-4.58,3.59a7.2,7.2,0,0,1-4.27-1.55Z"/><path class="cls-1" d="M191.74,216.95a4.5,4.5,0,0,1,3.05,1.26l-.09-1.86v-4.2h1.86v16H195l-.16-1.28h-.07a4.93,4.93,0,0,1-3.3,1.55c-2.74,0-4.52-2.07-4.52-5.71S189.24,216.95,191.74,216.95Zm.18,9.91a3.69,3.69,0,0,0,2.79-1.51v-5.71a3.8,3.8,0,0,0-2.65-1.14c-1.75,0-3.14,1.68-3.14,4.18S190,226.85,191.92,226.85Z"/><path class="cls-1" d="M204.34,216.95c2.79,0,4.36,2,4.36,5.12a6.51,6.51,0,0,1-.07,1h-7.37c.13,2.36,1.55,3.84,3.64,3.84a4.92,4.92,0,0,0,2.72-.85l.65,1.21a6.49,6.49,0,0,1-3.59,1.12c-2.92,0-5.23-2.13-5.23-5.71S201.84,216.95,204.34,216.95Zm2.74,4.92c0-2.22-1-3.46-2.7-3.46-1.53,0-2.92,1.26-3.14,3.46Z"/><path class="cls-1" d="M215.63,225.66a4.91,4.91,0,0,0,3.21,1.3c1.44,0,2.16-.76,2.16-1.71,0-1.12-1.3-1.62-2.49-2.07-1.55-.56-3.26-1.3-3.26-3.14s1.39-3.1,3.75-3.1a5.45,5.45,0,0,1,3.39,1.24l-.87,1.17a4.05,4.05,0,0,0-2.49-1c-1.37,0-2,.74-2,1.57,0,1,1.19,1.42,2.43,1.89,1.57.58,3.32,1.24,3.32,3.3,0,1.77-1.42,3.26-4,3.26a6.57,6.57,0,0,1-4.07-1.5Z"/><path class="cls-1" d="M231.51,221.21c0-1.39-.47-2.74-2.25-2.74a5.87,5.87,0,0,0-3.26,1.17l-.74-1.28a8.09,8.09,0,0,1,4.29-1.42c2.67,0,3.8,1.78,3.8,4.49v6.69h-1.53l-.16-1.3h0A5.93,5.93,0,0,1,228,228.4a3,3,0,0,1-3.21-3.1C224.8,222.92,226.86,221.73,231.51,221.21Zm-3,5.71a4.47,4.47,0,0,0,3-1.46v-3c-3.66.45-4.9,1.35-4.9,2.74A1.67,1.67,0,0,0,228.53,226.92Z"/><path class="cls-1" d="M236.84,212.14h1.84v13.93c0,.58.25.81.52.81a1.55,1.55,0,0,0,.4,0l.25,1.39a2.46,2.46,0,0,1-1.05.18c-1.39,0-2-.87-2-2.47Z"/><path class="cls-1" d="M242.41,217.22h1.86v6.67c0,2,.61,2.92,2,2.92,1.12,0,1.91-.56,2.94-1.84v-7.75h1.84v10.92h-1.53l-.16-1.71h-.07a4.61,4.61,0,0,1-3.59,2c-2.31,0-3.35-1.48-3.35-4.27Z"/><path class="cls-1" d="M258.73,216.95a4.5,4.5,0,0,1,3.05,1.26l-.09-1.86v-4.2h1.86v16H262l-.16-1.28h-.07a4.93,4.93,0,0,1-3.3,1.55c-2.74,0-4.51-2.07-4.51-5.71S256.24,216.95,258.73,216.95Zm.18,9.91a3.69,3.69,0,0,0,2.79-1.51v-5.71A3.8,3.8,0,0,0,259,218.5c-1.75,0-3.14,1.68-3.14,4.18S257,226.85,258.91,226.85Z"/><path class="cls-1" d="M268.21,225.57a1.42,1.42,0,1,1-1.35,1.44A1.36,1.36,0,0,1,268.21,225.57Z"/><path class="cls-2" d="M115.19,98.93a2.52,2.52,0,0,0,1.78,4.3,2.48,2.48,0,0,0,1.77-.74L149,72.28a2.33,2.33,0,0,0,.54-.81,2.56,2.56,0,0,0-.54-2.75L118.74,38.5a2.52,2.52,0,0,0-3.55,3.57L141.1,68h-77a2.51,2.51,0,1,0,0,5h77Zm0,0"/><path class="cls-2" d="M179.92,0H86.75a2.52,2.52,0,0,0-2.52,2.52V55.4a2.52,2.52,0,0,0,5,0V5h88.12V136H89.27V85.6a2.52,2.52,0,1,0-5,0v52.88A2.53,2.53,0,0,0,86.75,141h93.16a2.51,2.51,0,0,0,2.51-2.52V2.52A2.51,2.51,0,0,0,179.92,0Zm0,0"/></g></svg>