<svg xmlns="http://www.w3.org/2000/svg" viewBox="0 0 232.05 237.31"><defs><style>.cls-1,.cls-2,.cls-3{fill:none;stroke:#2fbcea;stroke-miterlimit:10;}.cls-1{stroke-width:0.75px;}.cls-2{stroke-width:2.5px;}.cls-4{fill:#ea1e79;}.cls-5{fill:#2ca2da;}</style></defs><title>beneficio04</title><g id="texto"><path class="cls-1" d="M33.45,50.33A2.66,2.66,0,1,1,36.11,53a2.66,2.66,0,0,1-2.66-2.66Zm0,0"/><path class="cls-1" d="M32.23,60.28a.46.46,0,1,1,0-.92h.7v-.7a.46.46,0,1,1,.92,0v.7h.69a.46.46,0,1,1,0,.92h-.69V61a.46.46,0,1,1-.92,0v-.69Zm0,0"/><path class="cls-1" d="M35.48,55.15a.46.46,0,0,1,.35.6l-.31.93.6,1.17.6-1.17-.31-.93a.46.46,0,0,1,.35-.6l1-.21.08-1.06H34.38l.08,1.06,1,.21Zm0,0"/><path class="cls-1" d="M42.8,50.34A2.67,2.67,0,1,1,45.48,53a2.67,2.67,0,0,1-2.67-2.67Zm0,0"/><path class="cls-1" d="M51.53,66.52V57.26a3.35,3.35,0,0,0-3.35-3.35h-5.4a3.34,3.34,0,0,0-3.34,3.34v11.8"/><path class="cls-1" d="M30.09,64.72V57.21a3.33,3.33,0,0,1,3.33-3.32h0l.11,1.48a.46.46,0,0,0,.37.42l.85.17-.21.62a.46.46,0,0,0,0,.36l1.1,2.15a.5.5,0,0,0,.4.21.43.43,0,0,0,.42-.21l1.1-2.15a.46.46,0,0,0,0-.36l-.21-.61.85-.17a.46.46,0,0,0,.37-.42l.11-1.48h0a3.32,3.32,0,0,1,2,.67"/><line class="cls-1" x1="39.43" y1="65.04" x2="24.7" y2="65.04"/><path class="cls-2" d="M19.25,68A21.63,21.63,0,1,1,47.76,79.13,21.67,21.67,0,0,1,19.25,68Z"/><path class="cls-2" d="M153.3,87.33a37.58,37.58,0,1,1-41.77-32.88A37.62,37.62,0,0,1,153.3,87.33Z"/><path class="cls-2" d="M210.9,15.42a25.64,25.64,0,1,1-14.71-13,25.67,25.67,0,0,1,14.71,13Z"/><line class="cls-2" x1="81.09" y1="78.49" x2="58.76" y2="68.03"/><polygon class="cls-1" points="155.5 142.51 152.46 142.51 152.46 141.25 150.02 143.69 152.46 146.14 152.46 144.87 155.5 144.87 155.5 142.51"/><polygon class="cls-1" points="153.87 149.36 156.9 149.36 156.9 150.63 159.34 148.18 156.9 145.74 156.9 147 153.87 147 153.87 149.36"/><path class="cls-1" d="M149.66,147.29a2.62,2.62,0,1,1-2.62-2.62,2.62,2.62,0,0,1,2.62,2.62Zm0,0"/><path class="cls-1" d="M153,161.11v-7.06a3.27,3.27,0,0,0-3.27-3.27h0l-.11,1.45a.46.46,0,0,1-.36.41l-.83.17.21.6a.45.45,0,0,1,0,.35l-1.08,2.11a.49.49,0,0,1-.4.21.42.42,0,0,1-.41-.21l-1.08-2.11a.45.45,0,0,1,0-.35l.2-.6-.83-.17a.45.45,0,0,1-.36-.41l-.11-1.45h0a3.28,3.28,0,0,0-3.28,3.28v3.68"/><path class="cls-1" d="M151.32,156.28h-.69V157a.45.45,0,1,1-.9,0v-.68H149a.45.45,0,1,1,0-.9h.68v-.69a.45.45,0,1,1,.9,0v.69h.69a.45.45,0,1,1,0,.9Z"/><path class="cls-1" d="M147.66,152l1-.2.08-1h-3.4l.08,1,1,.2a.46.46,0,0,1,.34.59l-.31.91.59,1.15.59-1.15-.31-.91a.46.46,0,0,1,.34-.59Zm0,0"/><path class="cls-1" d="M166.31,147.29a2.62,2.62,0,1,1-2.62-2.62,2.62,2.62,0,0,1,2.62,2.62Zm0,0"/><path class="cls-1" d="M169.61,157.74v-3.69a3.27,3.27,0,0,0-3.27-3.27h0l-.11,1.45a.46.46,0,0,1-.36.41l-.83.17.21.6a.45.45,0,0,1,0,.35l-1.08,2.11a.49.49,0,0,1-.4.21.42.42,0,0,1-.41-.21l-1.08-2.11a.45.45,0,0,1,0-.35l.2-.6-.83-.17a.45.45,0,0,1-.36-.41l-.11-1.45h0a3.28,3.28,0,0,0-3.28,3.28v7"/><path class="cls-1" d="M168,156.28h-.69V157a.45.45,0,1,1-.9,0v-.68h-.68a.45.45,0,1,1,0-.9h.68v-.69a.45.45,0,1,1,.9,0v.69H168a.45.45,0,1,1,0,.9Z"/><path class="cls-1" d="M164.31,152l1-.2.08-1H162l.08,1,1,.2a.46.46,0,0,1,.34.59l-.31.91.59,1.15.59-1.15-.31-.91a.46.46,0,0,1,.34-.59Zm0,0"/><path class="cls-2" d="M171.39,161.78a18.72,18.72,0,1,1-6.62-25.64,18.75,18.75,0,0,1,6.62,25.64Z"/><line class="cls-3" x1="136.22" y1="123.44" x2="145.27" y2="137.01"/><line class="cls-2" x1="145.27" y1="67.74" x2="170.59" y2="44.77"/><path class="cls-1" d="M191.67,30.69a.49.49,0,0,0,.12.38.5.5,0,0,0,.38.15h.17v9.35a1.45,1.45,0,0,0,2.9,0V31.22h.68v9.35a1.45,1.45,0,1,0,2.9,0V31.22H199a.49.49,0,0,0,.38-.16.5.5,0,0,0,.13-.39l-.19-3a2,2,0,0,0,1.61-2.26l-.79-5.47a2.47,2.47,0,0,0-2.45-2.13h-4.26A2.48,2.48,0,0,0,191,20l-.82,6.25H173.63a1.44,1.44,0,1,0,0,2.89h18.2Zm0,0"/><path class="cls-1" d="M198.23,14a2.65,2.65,0,1,1-2.65-2.65A2.65,2.65,0,0,1,198.23,14Zm0,0"/><path class="cls-1" d="M178,19.64a2.47,2.47,0,0,0-2.46,2.16l-.43,3.51h10.17l-.46-3.53a2.47,2.47,0,0,0-2.45-2.15Zm0,0"/><path class="cls-1" d="M182.84,16a2.65,2.65,0,1,1-2.65-2.65A2.65,2.65,0,0,1,182.84,16Zm0,0"/><circle class="cls-1" cx="180.89" cy="35.61" r="4.75"/><path class="cls-1" d="M180.94,32.32a.66.66,0,1,0,.66.66.66.66,0,0,0-.66-.66Zm0,0"/><path class="cls-1" d="M180.94,34.64a.5.5,0,0,0-.5.5v3a.5.5,0,0,0,1,0v-3a.5.5,0,0,0-.5-.5Zm0,0"/><path class="cls-4" d="M124.29,88.13a.68.68,0,0,1-.68.68h-16.9a.67.67,0,1,1,0-1.35h16.9A.67.67,0,0,1,124.29,88.13ZM106.71,83.4h6.76a.68.68,0,1,0,0-1.35h-6.76a.68.68,0,0,0,0,1.35Zm16.9,9.47h-16.9a.68.68,0,0,0,0,1.35h16.9a.68.68,0,0,0,0-1.35Zm0,5.41h-16.9a.68.68,0,0,0,0,1.35h16.9a.68.68,0,0,0,0-1.35Zm0,5.41h-16.9a.67.67,0,1,0,0,1.35h16.9a.67.67,0,1,0,0-1.35Zm7.44-19.83v29.3H99.27V72.58h18a9.34,9.34,0,1,1,13.79,11.27Zm-1.35.73a9.34,9.34,0,0,1-12.86-10.65H100.62v37.86H129.7Zm-3.76-16.87A8.32,8.32,0,1,0,134.25,76,8.32,8.32,0,0,0,125.94,67.71Z"/><polygon class="cls-4" points="131.21 74.38 127.58 74.38 127.58 70.76 124.48 70.76 124.48 74.38 120.86 74.38 120.86 77.49 124.48 77.49 124.48 81.11 127.58 81.11 127.58 77.49 131.21 77.49 131.21 74.38"/><path class="cls-5" d="M33,190h2.22l2.85,7.91,1.06,3h.09l1-3L43.13,190h2.2v14.73H43.56v-8.11c0-1.3.16-3.05.25-4.36h-.09l-1.17,3.28-2.83,7.7H38.64l-2.83-7.7-1.17-3.28h-.09c.09,1.3.22,3.05.22,4.36v8.11H33Z"/><path class="cls-5" d="M55.33,197.84c0-1.39-.47-2.74-2.25-2.74a5.87,5.87,0,0,0-3.26,1.17L49.08,195a8.1,8.1,0,0,1,4.29-1.42c2.67,0,3.8,1.77,3.8,4.49v6.69H55.64l-.16-1.3h0A5.93,5.93,0,0,1,51.82,205a3,3,0,0,1-3.21-3.1C48.61,199.54,50.68,198.35,55.33,197.84Zm-3,5.71a4.47,4.47,0,0,0,3-1.46v-3c-3.66.45-4.9,1.35-4.9,2.74A1.67,1.67,0,0,0,52.34,203.54Z"/><path class="cls-5" d="M60.74,207.92c1.24,0,2-1,2.47-2.34l.25-.81-4.38-10.94H61l2.22,6c.34.94.72,2.07,1.06,3.08h.09c.31-1,.63-2.11.92-3.08l2-6H69l-4.11,11.81c-.76,2.16-1.89,3.8-4.09,3.8a3.62,3.62,0,0,1-1.28-.22l.36-1.46A3.21,3.21,0,0,0,60.74,207.92Z"/><path class="cls-5" d="M75.29,193.57c2.67,0,5.05,2.09,5.05,5.75S78,205,75.29,205s-5.05-2.09-5.05-5.71S72.62,193.57,75.29,193.57Zm0,9.93c1.89,0,3.14-1.68,3.14-4.18s-1.26-4.22-3.14-4.22-3.14,1.71-3.14,4.22S73.43,203.5,75.29,203.5Z"/><path class="cls-5" d="M83.22,193.84h1.53l.16,2H85a3.73,3.73,0,0,1,3.1-2.25,2.71,2.71,0,0,1,1.17.22l-.36,1.62a3.06,3.06,0,0,0-1.06-.18c-.92,0-2,.67-2.76,2.52v7H83.22Z"/><path class="cls-5" d="M94.9,190.24A1.92,1.92,0,1,1,96.81,192,1.75,1.75,0,0,1,94.9,190.24Zm.27,3.37h3.3v11.14h-3.3Z"/><path class="cls-5" d="M101.37,193.61h2.7l.22,1.42h.09a5.13,5.13,0,0,1,3.57-1.68c2.43,0,3.46,1.71,3.46,4.49v6.92h-3.3v-6.49c0-1.62-.43-2.11-1.37-2.11a2.82,2.82,0,0,0-2.07,1.08v7.52h-3.3Z"/><path class="cls-5" d="M114.66,196.2h-1.53v-2.45l1.71-.13.38-3H118v3h2.67v2.58H118v4.47c0,1.26.56,1.77,1.44,1.77a3.16,3.16,0,0,0,1.06-.22l.52,2.4a8,8,0,0,1-2.47.4c-2.76,0-3.84-1.73-3.84-4.31Z"/><path class="cls-5" d="M127.2,193.34c3.17,0,4.74,2.31,4.74,5.35a6.54,6.54,0,0,1-.13,1.39h-6.67a2.7,2.7,0,0,0,2.9,2.43,4.49,4.49,0,0,0,2.4-.74l1.1,2a7.29,7.29,0,0,1-4,1.26c-3.19,0-5.64-2.16-5.64-5.84S124.52,193.34,127.2,193.34Zm1.93,4.69c0-1.28-.54-2.18-1.86-2.18-1,0-1.93.7-2.16,2.18Z"/><path class="cls-5" d="M134.23,193.61h2.7l.22,2h.09a3.73,3.73,0,0,1,3.17-2.22,3.2,3.2,0,0,1,1.33.22l-.54,2.85a4.16,4.16,0,0,0-1.21-.18,2.76,2.76,0,0,0-2.45,2v6.47h-3.3Z"/><path class="cls-5" d="M148.38,197.59a1.55,1.55,0,0,0-1.75-1.62,6,6,0,0,0-3,1l-1.17-2.18a9.21,9.21,0,0,1,4.76-1.46c2.85,0,4.42,1.62,4.42,5v6.38H149l-.25-1.15h-.07a4.9,4.9,0,0,1-3.26,1.42,3.2,3.2,0,0,1-3.3-3.37C142.11,199.32,144,198,148.38,197.59Zm-1.84,4.87a2.48,2.48,0,0,0,1.84-.94v-2c-2.36.31-3.12,1-3.12,1.84S145.75,202.46,146.54,202.46Z"/><path class="cls-5" d="M159.65,193.34a4.5,4.5,0,0,1,3.26,1.28l-1.5,2a2.38,2.38,0,0,0-1.55-.65c-1.59,0-2.61,1.24-2.61,3.17s1.06,3.17,2.49,3.17a3.21,3.21,0,0,0,2-.81l1.33,2.09a5.78,5.78,0,0,1-3.71,1.39c-3.1,0-5.5-2.13-5.5-5.84A5.6,5.6,0,0,1,159.65,193.34Z"/><path class="cls-5" d="M169.51,193.34a4.5,4.5,0,0,1,3.26,1.28l-1.5,2a2.38,2.38,0,0,0-1.55-.65c-1.59,0-2.61,1.24-2.61,3.17s1.06,3.17,2.49,3.17a3.21,3.21,0,0,0,2-.81l1.33,2.09a5.78,5.78,0,0,1-3.71,1.39c-3.1,0-5.5-2.13-5.5-5.84A5.6,5.6,0,0,1,169.51,193.34Z"/><path class="cls-5" d="M174.59,190.24A1.92,1.92,0,1,1,176.5,192,1.75,1.75,0,0,1,174.59,190.24Zm.27,3.37h3.3v11.14h-3.3Z"/><path class="cls-5" d="M185.84,193.34c2.81,0,5.41,2.13,5.41,5.84s-2.61,5.84-5.41,5.84a5.85,5.85,0,0,1,0-11.68Zm0,9c1.35,0,2-1.24,2-3.17s-.7-3.17-2-3.17-2,1.24-2,3.17S184.47,202.35,185.84,202.35Zm.56-10.49H184l2-3.37h3.19Z"/><path class="cls-5" d="M193.52,193.61h2.7l.22,1.42h.09a5.13,5.13,0,0,1,3.57-1.68c2.43,0,3.46,1.71,3.46,4.49v6.92h-3.3v-6.49c0-1.62-.43-2.11-1.37-2.11a2.82,2.82,0,0,0-2.07,1.08v7.52h-3.3Z"/><path class="cls-5" d="M27.79,220.52c2.79,0,4.36,2,4.36,5.12a6.51,6.51,0,0,1-.07,1H24.71c.13,2.36,1.55,3.84,3.64,3.84a4.93,4.93,0,0,0,2.72-.85l.65,1.21A6.5,6.5,0,0,1,28.13,232c-2.92,0-5.23-2.13-5.23-5.71S25.3,220.52,27.79,220.52Zm2.74,4.92c0-2.22-1-3.46-2.7-3.46-1.53,0-2.92,1.26-3.14,3.46Z"/><path class="cls-5" d="M34.84,220.79h1.53l.16,1.57h.07a5.15,5.15,0,0,1,3.66-1.84c2.29,0,3.32,1.48,3.32,4.27v6.92H41.74V225c0-2-.63-2.92-2.07-2.92-1.12,0-1.89.58-3,1.68v7.91H34.84Z"/><path class="cls-5" d="M52,222.29H50.36V220.9l1.71-.11.22-3.05h1.55v3.05h2.94v1.5H53.84v6.06c0,1.35.43,2.11,1.68,2.11a4,4,0,0,0,1.24-.29l.36,1.39a6.74,6.74,0,0,1-2,.4c-2.34,0-3.12-1.48-3.12-3.64Z"/><path class="cls-5" d="M59,220.79h1.86v6.67c0,2,.61,2.92,2,2.92,1.12,0,1.91-.56,2.94-1.84v-7.75h1.84v10.92H66.13L66,230h-.07a4.61,4.61,0,0,1-3.59,2C60,232,59,230.49,59,227.71Z"/><path class="cls-5" d="M80,220.52c2.79,0,4.36,2,4.36,5.12a6.51,6.51,0,0,1-.07,1H76.89c.13,2.36,1.55,3.84,3.64,3.84a4.93,4.93,0,0,0,2.72-.85l.65,1.21A6.5,6.5,0,0,1,80.3,232c-2.92,0-5.23-2.13-5.23-5.71S77.47,220.52,80,220.52Zm2.74,4.92c0-2.22-1-3.46-2.7-3.46-1.53,0-2.92,1.26-3.14,3.46Z"/><path class="cls-5" d="M91,220.52a4.45,4.45,0,0,1,3.12,1.3h0l.18-1H95.8v15.52H93.94v-3.89l.09-1.93A5,5,0,0,1,90.75,232c-2.74,0-4.51-2.07-4.51-5.71S88.48,220.52,91,220.52Zm.18,9.91a3.69,3.69,0,0,0,2.79-1.5v-5.71a3.8,3.8,0,0,0-2.65-1.15c-1.75,0-3.14,1.68-3.14,4.18S89.24,230.43,91.15,230.43Z"/><path class="cls-5" d="M99.21,220.79h1.86v6.67c0,2,.61,2.92,2,2.92,1.12,0,1.91-.56,2.94-1.84v-7.75h1.84v10.92h-1.53l-.16-1.71h-.07a4.61,4.61,0,0,1-3.59,2c-2.31,0-3.35-1.48-3.35-4.27Z"/><path class="cls-5" d="M111.25,217.35a1.28,1.28,0,0,1,2.56,0,1.28,1.28,0,0,1-2.56,0Zm.34,3.44h1.84v10.92h-1.84Z"/><path class="cls-5" d="M119,232.63v3.68h-1.84V220.79h1.53l.16,1.26h.07a5.65,5.65,0,0,1,3.48-1.53c2.81,0,4.31,2.18,4.31,5.57,0,3.71-2.22,5.88-4.72,5.88a5.06,5.06,0,0,1-3-1.26Zm2.67-2.2c1.8,0,3.12-1.64,3.12-4.33,0-2.4-.81-4-2.87-4a4.6,4.6,0,0,0-2.92,1.48v5.73A4.32,4.32,0,0,0,121.63,230.43Z"/><path class="cls-5" d="M133.82,220.52c2.67,0,5.05,2.09,5.05,5.75S136.5,232,133.82,232s-5.05-2.09-5.05-5.71S131.15,220.52,133.82,220.52Zm0,9.93c1.89,0,3.14-1.68,3.14-4.18s-1.26-4.22-3.14-4.22-3.14,1.71-3.14,4.22S132,230.45,133.82,230.45Z"/><path class="cls-5" d="M146.29,220.79h1.53l.16,1.57H148a4.8,4.8,0,0,1,3.39-1.84,2.86,2.86,0,0,1,3,2.09c1.15-1.24,2.27-2.09,3.59-2.09,2.25,0,3.32,1.48,3.32,4.27v6.92h-1.84V225c0-2-.65-2.92-2-2.92-.85,0-1.73.56-2.74,1.68v7.91h-1.84V225c0-2-.65-2.92-2-2.92a4.1,4.1,0,0,0-2.74,1.68v7.91h-1.84Z"/><path class="cls-5" d="M169,220.52c2.79,0,4.36,2,4.36,5.12a6.51,6.51,0,0,1-.07,1h-7.37c.13,2.36,1.55,3.84,3.64,3.84a4.93,4.93,0,0,0,2.72-.85l.65,1.21a6.5,6.5,0,0,1-3.59,1.12c-2.92,0-5.23-2.13-5.23-5.71S166.5,220.52,169,220.52Zm2.74,4.92c0-2.22-1-3.46-2.7-3.46-1.53,0-2.92,1.26-3.14,3.46Zm-2.79-6.6h-1.42l2-3.17h1.91Z"/><path class="cls-5" d="M180,220.52a4.5,4.5,0,0,1,3.05,1.26l-.09-1.86v-4.2h1.86v16H183.3l-.16-1.28h-.07a4.92,4.92,0,0,1-3.3,1.55c-2.74,0-4.51-2.07-4.51-5.71S177.51,220.52,180,220.52Zm.18,9.91a3.69,3.69,0,0,0,2.79-1.5v-5.71a3.8,3.8,0,0,0-2.65-1.15c-1.75,0-3.14,1.68-3.14,4.18S178.27,230.43,180.18,230.43Z"/><path class="cls-5" d="M188.17,217.35a1.28,1.28,0,0,1,2.56,0,1.28,1.28,0,0,1-2.56,0Zm.34,3.44h1.84v10.92h-1.84Z"/><path class="cls-5" d="M198.48,220.52a4.5,4.5,0,0,1,3.19,1.3l-.92,1.19a3.3,3.3,0,0,0-2.2-1c-2,0-3.41,1.71-3.41,4.22s1.37,4.18,3.37,4.18a3.89,3.89,0,0,0,2.56-1.1l.83,1.21a5.41,5.41,0,0,1-3.55,1.42c-2.9,0-5.12-2.09-5.12-5.71S195.68,220.52,198.48,220.52Z"/><path class="cls-5" d="M208.05,220.52c2.67,0,5.05,2.09,5.05,5.75s-2.38,5.71-5.05,5.71-5.05-2.09-5.05-5.71S205.38,220.52,208.05,220.52Zm0,9.93c1.89,0,3.14-1.68,3.14-4.18s-1.26-4.22-3.14-4.22-3.14,1.71-3.14,4.22S206.19,230.45,208.05,230.45Z"/></g></svg>