<svg xmlns="http://www.w3.org/2000/svg" viewBox="0 0 232.05 237.31"><defs><style>.cls-1{fill:none;}.cls-2{fill:#2fbcea;}.cls-3{fill:#ea1e79;}.cls-4{fill:#2ca2da;}</style></defs><title>beneficio01</title><g id="texto"><circle class="cls-1" cx="114.4" cy="146.38" r="4.07"/><path class="cls-1" d="M83.85,130h61.08V67.77c-.11,0-.21,9.23-.32,9.23-16.7,0-36.55-12-36.55-39.59H83.85Z"/><path class="cls-1" d="M76.15,26.93V152.4a4.07,4.07,0,0,0,4.07,4.07h68.35a4.07,4.07,0,0,0,4.07-4.07V66.9q-1.57.35-3.19.55v64.86a2.26,2.26,0,0,1-2.26,2.26H81.59a2.26,2.26,0,0,1-2.26-2.26V35.15a2.26,2.26,0,0,1,2.26-2.26h25.92c0-.76-.08-1.52-.08-2.29a37.31,37.31,0,0,1,.81-7.74h-28A4.07,4.07,0,0,0,76.15,26.93Zm38.25,110.85a8.6,8.6,0,1,1-8.59,8.6A8.61,8.61,0,0,1,114.39,137.78Z"/><path class="cls-2" d="M79.33,35.15v97.16a2.26,2.26,0,0,0,2.26,2.26h65.6a2.26,2.26,0,0,0,2.26-2.26V76.45a37.48,37.48,0,0,1-4.52.32V130H83.85V37.41h24.21a37.2,37.2,0,0,1-.56-4.52H81.59A2.26,2.26,0,0,0,79.33,35.15Z"/><path class="cls-2" d="M114.39,155a8.6,8.6,0,1,0-8.59-8.6A8.61,8.61,0,0,0,114.39,155Zm0-12.67a4.07,4.07,0,1,1-4.07,4.07A4.08,4.08,0,0,1,114.39,142.31Z"/><path class="cls-2" d="M152.64,152.4a4.07,4.07,0,0,1-4.07,4.07H80.22a4.07,4.07,0,0,1-4.07-4.07V26.93a4.07,4.07,0,0,1,4.07-4.07h30.7a7.51,7.51,0,0,1,3-4.52H80.22a8.61,8.61,0,0,0-8.6,8.6V152.4a8.61,8.61,0,0,0,8.6,8.6h68.35a8.61,8.61,0,0,0,8.59-8.6V74.6a36.91,36.91,0,0,1-4.52,1.3Z"/><path class="cls-2" d="M144.61,79.29a39.65,39.65,0,1,1,39.65-39.65A39.69,39.69,0,0,1,144.61,79.29Zm0-74.36a34.71,34.71,0,1,0,34.71,34.71A34.75,34.75,0,0,0,144.61,4.93Z"/><path class="cls-3" d="M152.56,16.6a14.24,14.24,0,0,0-13.31,19.28L125.64,49.49a1,1,0,0,0-.3.73v7.45a1,1,0,0,0,1,1h6.14a1,1,0,0,0,.73-.3l2.07-2.07a1,1,0,0,0,.3-.73V53.07h2.54a1,1,0,0,0,1-1V51h1a1,1,0,0,0,1-1V47.75h2.23a1,1,0,0,0,.73-.3l3.3-3.3a14.24,14.24,0,1,0,5.05-27.55Zm0,26.39a12.07,12.07,0,0,1-4.88-1,1,1,0,0,0-1.14.21h0L143,45.67h-2.84a1,1,0,0,0-1,1v2.23h-1a1,1,0,0,0-1,1v1h-2.54a1,1,0,0,0-1,1v3.15l-1.46,1.46h-4.67V55.17l12.68-12.68a.93.93,0,0,0-1.32-1.32L127.41,52.53V50.66l13.79-13.79h0a1,1,0,0,0,.21-1.14A12.16,12.16,0,1,1,152.56,43Z"/><path class="cls-3" d="M132.51,59h-6.14A1.33,1.33,0,0,1,125,57.67V50.23a1.32,1.32,0,0,1,.39-.94l13.48-13.48a14.51,14.51,0,1,1,8.67,8.67l-3.17,3.17a1.32,1.32,0,0,1-.94.39h-1.94V50a1.33,1.33,0,0,1-1.33,1.33h-.73V52a1.33,1.33,0,0,1-1.33,1.33h-2.25v2.25a1.33,1.33,0,0,1-.39.94l-2.07,2.06A1.32,1.32,0,0,1,132.51,59Zm20.05-42.11a14,14,0,0,0-13,18.89l.07.17L125.84,49.7a.75.75,0,0,0-.22.53v7.45a.75.75,0,0,0,.75.75h6.14a.74.74,0,0,0,.53-.22l2.07-2.07a.75.75,0,0,0,.22-.53V52.78h2.82a.75.75,0,0,0,.75-.75v-1.3h1.31A.75.75,0,0,0,141,50V47.46h2.52a.74.74,0,0,0,.53-.22l3.43-3.43.17.07a13.95,13.95,0,1,0,4.95-27Zm-20.36,40h-5.08V55.05l12.76-12.76a.65.65,0,0,0,0-.91.65.65,0,0,0-.91,0L127.12,53.23V50.54L141,36.66a.75.75,0,0,0,.16-.83,12.44,12.44,0,1,1,6.41,6.41.74.74,0,0,0-.82.15L143.17,46h-3a.75.75,0,0,0-.75.75v2.52h-1.31a.75.75,0,0,0-.75.75v1.3h-2.82a.75.75,0,0,0-.75.75V55.3Zm-4.5-.58H132l1.29-1.29V52a1.33,1.33,0,0,1,1.33-1.33h2.25V50a1.33,1.33,0,0,1,1.33-1.33h.73V46.71a1.33,1.33,0,0,1,1.33-1.33h2.72l3.4-3.4a1.33,1.33,0,0,1,1.47-.28,11.86,11.86,0,1,0-6.11-6.11,1.32,1.32,0,0,1-.27,1.46L127.7,50.78v1.06L138.57,41a1.22,1.22,0,1,1,1.73,1.73L127.7,55.29Z"/><path class="cls-3" d="M156.89,22.61a3.89,3.89,0,1,0,3.89,3.89A3.89,3.89,0,0,0,156.89,22.61Zm0,5.7a1.81,1.81,0,1,1,1.81-1.81A1.81,1.81,0,0,1,156.89,28.31Z"/><path class="cls-3" d="M156.89,30.67a4.17,4.17,0,1,1,4.17-4.17A4.18,4.18,0,0,1,156.89,30.67Zm0-7.77a3.6,3.6,0,1,0,3.6,3.6A3.6,3.6,0,0,0,156.89,22.9Zm0,5.7a2.1,2.1,0,1,1,2.1-2.1A2.1,2.1,0,0,1,156.89,28.6Zm0-3.62a1.52,1.52,0,1,0,1.52,1.52A1.52,1.52,0,0,0,156.89,25Z"/><path class="cls-4" d="M18.69,201.26H13.32l-1.42,4.49H10L15,191H17.1l5,14.73h-2Zm-.47-1.5-.7-2.25c-.52-1.64-1-3.26-1.46-5H16c-.47,1.71-.94,3.32-1.46,5l-.72,2.25Z"/><path class="cls-4" d="M23.63,194.84H25.5v6.67c0,2,.61,2.92,2,2.92,1.12,0,1.91-.56,2.94-1.84v-7.75h1.84v10.92H30.8L30.64,204h-.07A4.61,4.61,0,0,1,27,206c-2.31,0-3.35-1.48-3.35-4.27Z"/><path class="cls-4" d="M36,194.84h1.53l.16,1.57h.07a4.8,4.8,0,0,1,3.39-1.84,2.86,2.86,0,0,1,3,2.09c1.15-1.24,2.27-2.09,3.59-2.09,2.25,0,3.32,1.48,3.32,4.27v6.92H49.24v-6.67c0-2-.65-2.92-2-2.92-.85,0-1.73.56-2.74,1.68v7.91H42.63v-6.67c0-2-.65-2.92-2-2.92a4.1,4.1,0,0,0-2.74,1.68v7.91H36Z"/><path class="cls-4" d="M58.71,194.57c2.79,0,4.36,2,4.36,5.12a6.51,6.51,0,0,1-.07,1H55.64c.13,2.36,1.55,3.84,3.64,3.84a4.93,4.93,0,0,0,2.72-.85l.65,1.21A6.5,6.5,0,0,1,59.05,206c-2.92,0-5.23-2.13-5.23-5.71S56.22,194.57,58.71,194.57Zm2.74,4.92c0-2.22-1-3.46-2.7-3.46-1.53,0-2.92,1.26-3.14,3.46Z"/><path class="cls-4" d="M65.77,194.84h1.53l.16,1.57h.07a5.15,5.15,0,0,1,3.66-1.84c2.29,0,3.32,1.48,3.32,4.27v6.92H72.66v-6.67c0-2-.63-2.92-2.07-2.92-1.12,0-1.89.58-3,1.68v7.91H65.77Z"/><path class="cls-4" d="M78.37,196.34H76.75V195l1.71-.11.22-3.05h1.55v3.05h2.94v1.5H80.23v6.06c0,1.35.43,2.11,1.68,2.11a4,4,0,0,0,1.24-.29l.36,1.39a6.74,6.74,0,0,1-2,.4c-2.34,0-3.12-1.48-3.12-3.64Z"/><path class="cls-4" d="M91.42,198.84c0-1.39-.47-2.74-2.25-2.74a5.87,5.87,0,0,0-3.26,1.17L85.17,196a8.1,8.1,0,0,1,4.29-1.42c2.67,0,3.8,1.77,3.8,4.49v6.69H91.73l-.16-1.3h0A5.93,5.93,0,0,1,87.91,206a3,3,0,0,1-3.21-3.1C84.7,200.54,86.77,199.35,91.42,198.84Zm-3,5.71a4.47,4.47,0,0,0,3-1.46v-3c-3.66.45-4.9,1.35-4.9,2.74A1.67,1.67,0,0,0,88.43,204.54Z"/><path class="cls-4" d="M101.28,189.76h1.84v13.93c0,.58.25.81.52.81a1.55,1.55,0,0,0,.4,0l.25,1.39a2.48,2.48,0,0,1-1.06.18c-1.39,0-2-.88-2-2.47Z"/><path class="cls-4" d="M113.18,198.84c0-1.39-.47-2.74-2.25-2.74a5.87,5.87,0,0,0-3.26,1.17l-.74-1.28a8.1,8.1,0,0,1,4.29-1.42c2.67,0,3.8,1.77,3.8,4.49v6.69h-1.53l-.16-1.3h0a5.93,5.93,0,0,1-3.62,1.57,3,3,0,0,1-3.21-3.1C106.46,200.54,108.53,199.35,113.18,198.84Zm-3,5.71a4.47,4.47,0,0,0,3-1.46v-3c-3.66.45-4.9,1.35-4.9,2.74A1.67,1.67,0,0,0,110.19,204.54Z"/><path class="cls-4" d="M123.15,202.41a4.8,4.8,0,0,0,2.88,1.17c1,0,1.42-.36,1.42-.94,0-.74-1.12-1.08-2.27-1.53-1.35-.52-2.94-1.44-2.94-3.28,0-2.07,1.68-3.48,4.27-3.48a6.41,6.41,0,0,1,3.93,1.42l-1.48,2a4.11,4.11,0,0,0-2.36-.94c-.85,0-1.26.31-1.26.88,0,.72,1,1,2.18,1.42,1.42.52,3,1.3,3,3.35s-1.59,3.59-4.58,3.59a7.19,7.19,0,0,1-4.27-1.55Z"/><path class="cls-4" d="M137.21,194.34c3.17,0,4.74,2.31,4.74,5.35a6.54,6.54,0,0,1-.13,1.39h-6.67a2.7,2.7,0,0,0,2.9,2.43,4.49,4.49,0,0,0,2.4-.74l1.1,2a7.29,7.29,0,0,1-4,1.26c-3.19,0-5.64-2.16-5.64-5.84S134.54,194.34,137.21,194.34Zm1.93,4.69c0-1.28-.54-2.18-1.86-2.18-1,0-1.93.7-2.16,2.18Z"/><path class="cls-4" d="M144.92,205.42v-.09a2.14,2.14,0,0,1-1-1.89,2.69,2.69,0,0,1,1.26-2.09v-.09a3.57,3.57,0,0,1-1.5-2.9c0-2.67,2.2-4,4.6-4a5.18,5.18,0,0,1,1.73.27H154V197h-1.77a3,3,0,0,1,.36,1.46c0,2.56-1.93,3.75-4.38,3.75a4.44,4.44,0,0,1-1.35-.22,1,1,0,0,0-.4.83c0,.56.45.83,1.68.83H150c2.74,0,4.25.83,4.25,2.83,0,2.31-2.4,4-6.22,4-2.61,0-4.67-.85-4.67-2.83A2.62,2.62,0,0,1,144.92,205.42Zm3.59,3c1.48,0,2.56-.61,2.56-1.37s-.61-.88-1.71-.88h-1.15a6.48,6.48,0,0,1-1.57-.13,1.46,1.46,0,0,0-.61,1.1C146,208,147,208.43,148.51,208.43Zm1.26-10.06c0-1.17-.65-1.8-1.53-1.8s-1.53.61-1.53,1.8.65,1.86,1.53,1.86S149.77,199.6,149.77,198.36Z"/><path class="cls-4" d="M155.9,194.61h3.3v6.49c0,1.59.43,2.11,1.39,2.11s1.33-.36,2-1.24v-7.37h3.3v11.14h-2.7l-.25-1.55h-.07a4.34,4.34,0,0,1-3.5,1.82c-2.43,0-3.46-1.71-3.46-4.49Z"/><path class="cls-4" d="M168.77,194.61h2.7l.22,2h.09a3.73,3.73,0,0,1,3.17-2.22,3.2,3.2,0,0,1,1.33.22l-.54,2.85a4.16,4.16,0,0,0-1.21-.18,2.76,2.76,0,0,0-2.45,2v6.47h-3.3Z"/><path class="cls-4" d="M177.44,191.24a1.92,1.92,0,1,1,1.91,1.73A1.75,1.75,0,0,1,177.44,191.24Zm.27,3.37H181v11.14h-3.3Z"/><path class="cls-4" d="M187.95,194.34a3.65,3.65,0,0,1,2.74,1.17l-.13-1.71V190h3.3v15.75h-2.7l-.22-1.1h-.09a4.41,4.41,0,0,1-3,1.37c-2.76,0-4.56-2.2-4.56-5.84S185.59,194.34,187.95,194.34Zm.79,9a2.09,2.09,0,0,0,1.82-1v-4.56a2.64,2.64,0,0,0-1.84-.72c-1.06,0-2,1-2,3.1S187.45,203.33,188.73,203.33Z"/><path class="cls-4" d="M202.64,198.59a1.55,1.55,0,0,0-1.75-1.62,6,6,0,0,0-3,1l-1.17-2.18a9.21,9.21,0,0,1,4.76-1.46c2.85,0,4.42,1.62,4.42,5v6.38h-2.7l-.25-1.15h-.07a4.9,4.9,0,0,1-3.26,1.42,3.2,3.2,0,0,1-3.3-3.37C196.37,200.32,198.23,199,202.64,198.59Zm-1.84,4.87a2.48,2.48,0,0,0,1.84-.94v-2c-2.36.31-3.12,1-3.12,1.84S200,203.46,200.79,203.46Z"/><path class="cls-4" d="M212.81,194.34a3.65,3.65,0,0,1,2.74,1.17l-.13-1.71V190h3.3v15.75H216l-.22-1.1h-.09a4.41,4.41,0,0,1-3,1.37c-2.76,0-4.56-2.2-4.56-5.84S210.45,194.34,212.81,194.34Zm.79,9a2.09,2.09,0,0,0,1.82-1v-4.56a2.64,2.64,0,0,0-1.84-.72c-1.06,0-2,1-2,3.1S212.32,203.33,213.6,203.33Z"/><path class="cls-4" d="M5.93,221.52c2.79,0,4.36,2,4.36,5.12a6.51,6.51,0,0,1-.07,1H2.85C3,230,4.4,231.49,6.49,231.49a4.93,4.93,0,0,0,2.72-.85l.65,1.21A6.5,6.5,0,0,1,6.27,233C3.35,233,1,230.84,1,227.27S3.44,221.52,5.93,221.52Zm2.74,4.92c0-2.22-1-3.46-2.7-3.46-1.53,0-2.92,1.26-3.14,3.46Z"/><path class="cls-4" d="M13,221.79h1.53l.16,1.57h.07a5.15,5.15,0,0,1,3.66-1.84c2.29,0,3.32,1.48,3.32,4.27v6.92H19.88V226c0-2-.63-2.92-2.07-2.92-1.12,0-1.89.58-3,1.68v7.91H13Z"/><path class="cls-4" d="M29.8,216.71h1.84v13.93c0,.58.25.81.52.81a1.55,1.55,0,0,0,.4,0l.25,1.39a2.48,2.48,0,0,1-1.06.18c-1.39,0-2-.88-2-2.47Z"/><path class="cls-4" d="M39.78,221.52c2.67,0,5.05,2.09,5.05,5.75S42.45,233,39.78,233s-5.05-2.09-5.05-5.71S37.1,221.52,39.78,221.52Zm0,9.93c1.89,0,3.14-1.68,3.14-4.18S41.66,223,39.78,223s-3.14,1.71-3.14,4.22S37.91,231.45,39.78,231.45Z"/><path class="cls-4" d="M47.41,230.24a4.91,4.91,0,0,0,3.21,1.3c1.44,0,2.16-.76,2.16-1.71,0-1.12-1.3-1.62-2.49-2.07-1.55-.56-3.26-1.3-3.26-3.14s1.39-3.1,3.75-3.1a5.45,5.45,0,0,1,3.39,1.24l-.88,1.17a4.05,4.05,0,0,0-2.49-1c-1.37,0-2,.74-2,1.57,0,1,1.19,1.42,2.43,1.89,1.57.58,3.32,1.24,3.32,3.3,0,1.77-1.42,3.26-4,3.26a6.57,6.57,0,0,1-4.07-1.5Z"/><path class="cls-4" d="M63.49,233.63v3.68H61.65V221.79h1.53l.16,1.26h.07a5.65,5.65,0,0,1,3.48-1.53c2.81,0,4.31,2.18,4.31,5.57,0,3.71-2.22,5.88-4.72,5.88a5.06,5.06,0,0,1-3-1.26Zm2.67-2.2c1.8,0,3.12-1.64,3.12-4.33,0-2.4-.81-4-2.87-4a4.6,4.6,0,0,0-2.92,1.48v5.73A4.32,4.32,0,0,0,66.17,231.43Z"/><path class="cls-4" d="M74.12,221.79h1.53l.16,2h.07a3.73,3.73,0,0,1,3.1-2.25,2.71,2.71,0,0,1,1.17.22l-.36,1.62a3.06,3.06,0,0,0-1.06-.18c-.92,0-2,.67-2.76,2.52v7H74.12Z"/><path class="cls-4" d="M85.93,221.52c2.67,0,5.05,2.09,5.05,5.75S88.6,233,85.93,233s-5.05-2.09-5.05-5.71S83.26,221.52,85.93,221.52Zm0,9.93c1.89,0,3.14-1.68,3.14-4.18S87.82,223,85.93,223s-3.14,1.71-3.14,4.22S84.07,231.45,85.93,231.45Z"/><path class="cls-4" d="M98.31,221.52a4.5,4.5,0,0,1,3.19,1.3l-.92,1.19a3.3,3.3,0,0,0-2.2-1c-2,0-3.41,1.71-3.41,4.22s1.37,4.18,3.37,4.18a3.89,3.89,0,0,0,2.56-1.1l.83,1.21A5.41,5.41,0,0,1,98.17,233c-2.9,0-5.12-2.09-5.12-5.71S95.5,221.52,98.31,221.52Z"/><path class="cls-4" d="M107.72,221.52c2.79,0,4.36,2,4.36,5.12a6.51,6.51,0,0,1-.07,1h-7.37c.13,2.36,1.55,3.84,3.64,3.84a4.93,4.93,0,0,0,2.72-.85l.65,1.21a6.5,6.5,0,0,1-3.59,1.12c-2.92,0-5.23-2.13-5.23-5.71S105.22,221.52,107.72,221.52Zm2.74,4.92c0-2.22-1-3.46-2.7-3.46-1.53,0-2.92,1.26-3.14,3.46Z"/><path class="cls-4" d="M114.48,230.24a4.91,4.91,0,0,0,3.21,1.3c1.44,0,2.16-.76,2.16-1.71,0-1.12-1.3-1.62-2.49-2.07-1.55-.56-3.26-1.3-3.26-3.14s1.39-3.1,3.75-3.1a5.45,5.45,0,0,1,3.39,1.24l-.88,1.17a4.05,4.05,0,0,0-2.49-1c-1.37,0-2,.74-2,1.57,0,1,1.19,1.42,2.43,1.89,1.57.58,3.32,1.24,3.32,3.3,0,1.77-1.42,3.26-4,3.26a6.57,6.57,0,0,1-4.07-1.5Z"/><path class="cls-4" d="M128.42,221.52c2.67,0,5.05,2.09,5.05,5.75S131.1,233,128.42,233s-5.05-2.09-5.05-5.71S125.75,221.52,128.42,221.52Zm0,9.93c1.89,0,3.14-1.68,3.14-4.18s-1.26-4.22-3.14-4.22-3.14,1.71-3.14,4.22S126.56,231.45,128.42,231.45Z"/><path class="cls-4" d="M136.06,230.24a4.91,4.91,0,0,0,3.21,1.3c1.44,0,2.16-.76,2.16-1.71,0-1.12-1.3-1.62-2.49-2.07-1.55-.56-3.26-1.3-3.26-3.14s1.39-3.1,3.75-3.1a5.45,5.45,0,0,1,3.39,1.24l-.88,1.17a4.05,4.05,0,0,0-2.49-1c-1.37,0-2,.74-2,1.57,0,1,1.19,1.42,2.43,1.89,1.57.58,3.32,1.24,3.32,3.3,0,1.77-1.42,3.26-4,3.26a6.57,6.57,0,0,1-4.07-1.5Z"/><path class="cls-4" d="M154.25,221.52a4.5,4.5,0,0,1,3.05,1.26l-.09-1.86v-4.2h1.86v16h-1.53l-.16-1.28h-.07A4.92,4.92,0,0,1,154,233c-2.74,0-4.51-2.07-4.51-5.71S151.76,221.52,154.25,221.52Zm.18,9.91a3.69,3.69,0,0,0,2.79-1.5v-5.71a3.8,3.8,0,0,0-2.65-1.15c-1.75,0-3.14,1.68-3.14,4.18S152.52,231.43,154.43,231.43Z"/><path class="cls-4" d="M166.85,221.52c2.79,0,4.36,2,4.36,5.12a6.51,6.51,0,0,1-.07,1h-7.37c.13,2.36,1.55,3.84,3.64,3.84a4.93,4.93,0,0,0,2.72-.85l.65,1.21a6.5,6.5,0,0,1-3.59,1.12c-2.92,0-5.23-2.13-5.23-5.71S164.36,221.52,166.85,221.52Zm2.74,4.92c0-2.22-1-3.46-2.7-3.46-1.53,0-2.92,1.26-3.14,3.46Z"/><path class="cls-4" d="M178.15,230.24a4.91,4.91,0,0,0,3.21,1.3c1.44,0,2.16-.76,2.16-1.71,0-1.12-1.3-1.62-2.49-2.07-1.55-.56-3.26-1.3-3.26-3.14s1.39-3.1,3.75-3.1a5.45,5.45,0,0,1,3.39,1.24l-.88,1.17a4.05,4.05,0,0,0-2.49-1c-1.37,0-2,.74-2,1.57,0,1,1.19,1.42,2.43,1.89,1.57.58,3.32,1.24,3.32,3.3,0,1.77-1.42,3.26-4,3.26a6.57,6.57,0,0,1-4.07-1.5Z"/><path class="cls-4" d="M194,225.79c0-1.39-.47-2.74-2.25-2.74a5.87,5.87,0,0,0-3.26,1.17l-.74-1.28a8.1,8.1,0,0,1,4.29-1.42c2.67,0,3.8,1.77,3.8,4.49v6.69h-1.53l-.16-1.3h0a5.93,5.93,0,0,1-3.62,1.57,3,3,0,0,1-3.21-3.1C187.31,227.5,189.38,226.3,194,225.79Zm-3,5.71a4.47,4.47,0,0,0,3-1.46v-3c-3.66.45-4.9,1.35-4.9,2.74A1.67,1.67,0,0,0,191,231.49Z"/><path class="cls-4" d="M199.35,216.71h1.84v13.93c0,.58.25.81.52.81a1.55,1.55,0,0,0,.4,0l.25,1.39a2.48,2.48,0,0,1-1.06.18c-1.39,0-2-.88-2-2.47Z"/><path class="cls-4" d="M204.92,221.79h1.86v6.67c0,2,.61,2.92,2,2.92,1.12,0,1.91-.56,2.94-1.84v-7.75h1.84v10.92h-1.53l-.16-1.71h-.07a4.61,4.61,0,0,1-3.59,2c-2.31,0-3.35-1.48-3.35-4.27Z"/><path class="cls-4" d="M221.25,221.52a4.5,4.5,0,0,1,3.05,1.26l-.09-1.86v-4.2h1.86v16h-1.53l-.16-1.28h-.07A4.92,4.92,0,0,1,221,233c-2.74,0-4.51-2.07-4.51-5.71S218.75,221.52,221.25,221.52Zm.18,9.91a3.69,3.69,0,0,0,2.79-1.5v-5.71a3.8,3.8,0,0,0-2.65-1.15c-1.75,0-3.14,1.68-3.14,4.18S219.52,231.43,221.43,231.43Z"/></g></svg>