<svg xmlns="http://www.w3.org/2000/svg" viewBox="0 0 185.2 222.32"><defs><style>.cls-1{isolation:isolate;}.cls-2{fill:#2ca2da;}.cls-3,.cls-4{fill:#2fbcea;}.cls-4{mix-blend-mode:overlay;}</style></defs><title>Mesa de trabajo 25</title><g class="cls-1"><g id="texto"><path class="cls-2" d="M8.69,190.61H3.32L1.91,195.1H0l5-14.73H7.1l5,14.73h-2Zm-.47-1.5-.7-2.25c-.52-1.64-1-3.26-1.46-5H6c-.47,1.71-.94,3.32-1.46,5L3.8,189.1Z"/><path class="cls-2" d="M18.37,183.91a4.5,4.5,0,0,1,3.19,1.3l-.92,1.19a3.3,3.3,0,0,0-2.2-1c-2,0-3.41,1.71-3.41,4.22s1.37,4.18,3.37,4.18a3.89,3.89,0,0,0,2.56-1.1l.83,1.21a5.41,5.41,0,0,1-3.55,1.42c-2.9,0-5.12-2.09-5.12-5.71S15.56,183.91,18.37,183.91Z"/><path class="cls-2" d="M27.78,183.91c2.79,0,4.36,2,4.36,5.12a6.51,6.51,0,0,1-.07,1H24.71c.13,2.36,1.55,3.84,3.64,3.84a4.93,4.93,0,0,0,2.72-.85l.65,1.21a6.5,6.5,0,0,1-3.59,1.12c-2.92,0-5.23-2.13-5.23-5.71S25.29,183.91,27.78,183.91Zm2.74,4.92c0-2.22-1-3.46-2.7-3.46-1.53,0-2.92,1.26-3.14,3.46Z"/><path class="cls-2" d="M34.83,179.11h1.84V193c0,.58.25.81.52.81a1.55,1.55,0,0,0,.4,0l.25,1.39a2.48,2.48,0,0,1-1.06.18c-1.39,0-2-.88-2-2.47Z"/><path class="cls-2" d="M44.65,183.91c2.79,0,4.36,2,4.36,5.12a6.51,6.51,0,0,1-.07,1H41.57c.13,2.36,1.55,3.84,3.64,3.84a4.93,4.93,0,0,0,2.72-.85l.65,1.21A6.5,6.5,0,0,1,45,195.37c-2.92,0-5.23-2.13-5.23-5.71S42.16,183.91,44.65,183.91Zm2.74,4.92c0-2.22-1-3.46-2.7-3.46-1.53,0-2.92,1.26-3.14,3.46Z"/><path class="cls-2" d="M51.7,184.18h1.53l.16,2h.07a3.73,3.73,0,0,1,3.1-2.25,2.71,2.71,0,0,1,1.17.22l-.36,1.62a3.06,3.06,0,0,0-1.06-.18c-.92,0-2,.67-2.76,2.52v7H51.7Z"/><path class="cls-2" d="M65.11,188.18c0-1.39-.47-2.74-2.25-2.74a5.87,5.87,0,0,0-3.26,1.17l-.74-1.28a8.1,8.1,0,0,1,4.29-1.42c2.67,0,3.8,1.77,3.8,4.49v6.69H65.42l-.16-1.3h0a5.93,5.93,0,0,1-3.62,1.57,3,3,0,0,1-3.21-3.1C58.39,189.89,60.46,188.7,65.11,188.18Zm-3,5.71a4.47,4.47,0,0,0,3-1.46v-3c-3.66.45-4.9,1.35-4.9,2.74A1.67,1.67,0,0,0,62.12,193.88Z"/><path class="cls-2" d="M75,179.11h1.84V193c0,.58.25.81.52.81a1.55,1.55,0,0,0,.4,0l.25,1.39a2.48,2.48,0,0,1-1.06.18c-1.39,0-2-.88-2-2.47Z"/><path class="cls-2" d="M84.94,183.91c2.67,0,5.05,2.09,5.05,5.75s-2.38,5.71-5.05,5.71-5.05-2.09-5.05-5.71S82.27,183.91,84.94,183.91Zm0,9.93c1.89,0,3.14-1.68,3.14-4.18s-1.26-4.22-3.14-4.22-3.14,1.71-3.14,4.22S83.08,193.84,84.94,193.84Z"/><path class="cls-2" d="M92.58,192.63a4.91,4.91,0,0,0,3.21,1.3c1.44,0,2.16-.76,2.16-1.71,0-1.12-1.3-1.62-2.49-2.07-1.55-.56-3.26-1.3-3.26-3.14s1.39-3.1,3.75-3.1a5.45,5.45,0,0,1,3.39,1.24l-.88,1.17a4.05,4.05,0,0,0-2.49-1c-1.37,0-2,.74-2,1.57,0,1,1.19,1.42,2.43,1.89,1.57.58,3.32,1.24,3.32,3.3,0,1.77-1.42,3.26-4,3.26a6.57,6.57,0,0,1-4.07-1.5Z"/><path class="cls-2" d="M106.88,186.54h-1.53v-2.45l1.71-.13.38-3h2.74v3h2.67v2.58h-2.67V191c0,1.26.56,1.77,1.44,1.77a3.16,3.16,0,0,0,1.06-.22l.52,2.4a8,8,0,0,1-2.47.4c-2.76,0-3.84-1.73-3.84-4.31Z"/><path class="cls-2" d="M114.77,180.59a1.92,1.92,0,1,1,1.91,1.73A1.75,1.75,0,0,1,114.77,180.59ZM115,184h3.3V195.1H115Z"/><path class="cls-2" d="M125.84,183.69c3.17,0,4.74,2.31,4.74,5.35a6.54,6.54,0,0,1-.13,1.39h-6.67a2.7,2.7,0,0,0,2.9,2.43,4.49,4.49,0,0,0,2.4-.74l1.1,2a7.29,7.29,0,0,1-4,1.26c-3.19,0-5.64-2.16-5.64-5.84S123.17,183.69,125.84,183.69Zm1.93,4.69c0-1.28-.54-2.18-1.86-2.18-1,0-1.93.7-2.16,2.18Z"/><path class="cls-2" d="M132.87,184h2.7l.22,1.44h.09a4.66,4.66,0,0,1,3.37-1.71,3.08,3.08,0,0,1,3.08,1.86,4.88,4.88,0,0,1,3.5-1.86c2.4,0,3.48,1.71,3.48,4.49v6.92H146v-6.49c0-1.62-.43-2.11-1.37-2.11a3,3,0,0,0-1.91,1.08v7.52h-3.3v-6.49c0-1.62-.43-2.11-1.37-2.11a2.91,2.91,0,0,0-1.89,1.08v7.52h-3.3Z"/><path class="cls-2" d="M155.42,196v3.26h-3.3V184h2.7l.22,1.1h.09a4.9,4.9,0,0,1,3.17-1.37c2.7,0,4.36,2.22,4.36,5.66,0,3.82-2.29,6-4.69,6a3.86,3.86,0,0,1-2.65-1.17Zm1.77-3.3c1.15,0,2.07-1,2.07-3.28,0-2-.61-3-1.93-3a2.58,2.58,0,0,0-1.91,1V192A2.56,2.56,0,0,0,157.19,192.67Z"/><path class="cls-2" d="M169.77,183.69c2.81,0,5.41,2.13,5.41,5.84s-2.61,5.84-5.41,5.84a5.85,5.85,0,0,1,0-11.68Zm0,9c1.35,0,2-1.24,2-3.17s-.7-3.17-2-3.17-2,1.24-2,3.17S168.4,192.69,169.77,192.69Z"/><path class="cls-2" d="M177.83,191.75a4.8,4.8,0,0,0,2.88,1.17c1,0,1.42-.36,1.42-.94,0-.74-1.12-1.08-2.27-1.53-1.35-.52-2.94-1.44-2.94-3.28,0-2.07,1.68-3.48,4.27-3.48a6.41,6.41,0,0,1,3.93,1.42l-1.48,2a4.11,4.11,0,0,0-2.36-.94c-.85,0-1.26.31-1.26.88,0,.72,1,1,2.18,1.42,1.42.52,3,1.3,3,3.35s-1.59,3.59-4.58,3.59a7.19,7.19,0,0,1-4.27-1.55Z"/><path class="cls-2" d="M24.76,215.13c0-1.39-.47-2.74-2.25-2.74a5.87,5.87,0,0,0-3.26,1.17l-.74-1.28a8.1,8.1,0,0,1,4.29-1.42c2.67,0,3.8,1.77,3.8,4.49V222H25.08l-.16-1.3h0a5.93,5.93,0,0,1-3.62,1.57,3,3,0,0,1-3.21-3.1C18,216.84,20.11,215.65,24.76,215.13Zm-3,5.71a4.47,4.47,0,0,0,3-1.46v-3c-3.66.45-4.9,1.35-4.9,2.74A1.67,1.67,0,0,0,21.77,220.84Z"/><path class="cls-2" d="M34,210.86a4.5,4.5,0,0,1,3.05,1.26L37,210.26v-4.2h1.86v16H37.34l-.16-1.28h-.07a4.92,4.92,0,0,1-3.3,1.55c-2.74,0-4.51-2.07-4.51-5.71S31.54,210.86,34,210.86Zm.18,9.91a3.69,3.69,0,0,0,2.79-1.5v-5.71a3.8,3.8,0,0,0-2.65-1.15c-1.75,0-3.14,1.68-3.14,4.18S32.31,220.77,34.22,220.77Z"/><path class="cls-2" d="M42.55,211.13h1.53l.16,1.57h.07a4.8,4.8,0,0,1,3.39-1.84,2.86,2.86,0,0,1,3,2.09c1.15-1.24,2.27-2.09,3.59-2.09,2.25,0,3.32,1.48,3.32,4.27V222H55.78v-6.67c0-2-.65-2.92-2-2.92-.85,0-1.73.56-2.74,1.68V222H49.17v-6.67c0-2-.65-2.92-2-2.92a4.1,4.1,0,0,0-2.74,1.68V222H42.55Z"/><path class="cls-2" d="M60.83,207.7a1.28,1.28,0,0,1,2.56,0,1.28,1.28,0,0,1-2.56,0Zm.34,3.44H63V222H61.17Z"/><path class="cls-2" d="M66.69,211.13h1.53l.16,1.57h.07a5.15,5.15,0,0,1,3.66-1.84c2.29,0,3.32,1.48,3.32,4.27V222H73.59v-6.67c0-2-.63-2.92-2.07-2.92-1.12,0-1.89.58-3,1.68V222H66.69Z"/><path class="cls-2" d="M78.64,207.7a1.28,1.28,0,0,1,2.56,0,1.28,1.28,0,0,1-2.56,0Zm.34,3.44h1.84V222H79Z"/><path class="cls-2" d="M84.21,219.58a4.91,4.91,0,0,0,3.21,1.3c1.44,0,2.16-.76,2.16-1.71,0-1.12-1.3-1.62-2.49-2.07-1.55-.56-3.26-1.3-3.26-3.14s1.39-3.1,3.75-3.1A5.45,5.45,0,0,1,91,212.1l-.88,1.17a4.05,4.05,0,0,0-2.49-1c-1.37,0-2,.74-2,1.57,0,1,1.19,1.42,2.43,1.89,1.57.58,3.32,1.24,3.32,3.3,0,1.77-1.42,3.26-4,3.26a6.57,6.57,0,0,1-4.07-1.5Z"/><path class="cls-2" d="M94.23,212.64H92.61v-1.39l1.71-.11.22-3.05h1.55v3.05H99v1.5H96.09v6.06c0,1.35.43,2.11,1.68,2.11a4,4,0,0,0,1.24-.29l.36,1.39a6.74,6.74,0,0,1-2,.4c-2.34,0-3.12-1.48-3.12-3.64Z"/><path class="cls-2" d="M101.5,211.13H103l.16,2h.07a3.73,3.73,0,0,1,3.1-2.25,2.71,2.71,0,0,1,1.17.22l-.36,1.62a3.06,3.06,0,0,0-1.06-.18c-.92,0-2,.67-2.76,2.52v7H101.5Z"/><path class="cls-2" d="M114.91,215.13c0-1.39-.47-2.74-2.25-2.74a5.87,5.87,0,0,0-3.26,1.17l-.74-1.28a8.1,8.1,0,0,1,4.29-1.42c2.67,0,3.8,1.77,3.8,4.49V222h-1.53l-.16-1.3h0a5.93,5.93,0,0,1-3.62,1.57,3,3,0,0,1-3.21-3.1C108.2,216.84,110.26,215.65,114.91,215.13Zm-3,5.71a4.47,4.47,0,0,0,3-1.46v-3c-3.66.45-4.9,1.35-4.9,2.74A1.67,1.67,0,0,0,111.93,220.84Z"/><path class="cls-2" d="M120.55,212.64h-1.62v-1.39l1.71-.11.22-3.05h1.55v3.05h2.94v1.5h-2.94v6.06c0,1.35.43,2.11,1.68,2.11a4,4,0,0,0,1.24-.29l.36,1.39a6.74,6.74,0,0,1-2,.4c-2.34,0-3.12-1.48-3.12-3.64Z"/><path class="cls-2" d="M127.49,207.7a1.28,1.28,0,0,1,2.56,0,1.28,1.28,0,0,1-2.56,0Zm.34,3.44h1.84V222h-1.84Z"/><path class="cls-2" d="M131.78,211.13h1.91l2.07,6.2c.31,1.08.67,2.18,1,3.21h.09c.31-1,.67-2.13,1-3.21l2.07-6.2h1.82L137.87,222h-2.16Z"/><path class="cls-2" d="M148,210.86c2.67,0,5.05,2.09,5.05,5.75s-2.38,5.71-5.05,5.71-5.05-2.09-5.05-5.71S145.32,210.86,148,210.86Zm0,9.93c1.89,0,3.14-1.68,3.14-4.18s-1.26-4.22-3.14-4.22-3.14,1.71-3.14,4.22S146.13,220.79,148,220.79Z"/><path class="cls-2" d="M155.63,219.58a4.91,4.91,0,0,0,3.21,1.3c1.44,0,2.16-.76,2.16-1.71,0-1.12-1.3-1.62-2.49-2.07-1.55-.56-3.26-1.3-3.26-3.14s1.39-3.1,3.75-3.1a5.45,5.45,0,0,1,3.39,1.24l-.88,1.17a4.05,4.05,0,0,0-2.49-1c-1.37,0-2,.74-2,1.57,0,1,1.19,1.42,2.43,1.89,1.57.58,3.32,1.24,3.32,3.3,0,1.77-1.42,3.26-4,3.26a6.57,6.57,0,0,1-4.07-1.5Z"/><path class="cls-2" d="M166.3,219.49a1.42,1.42,0,1,1-1.35,1.44A1.36,1.36,0,0,1,166.3,219.49Z"/><path class="cls-3" d="M77.19,92.78a2,2,0,0,1-1.29-.46,2,2,0,0,1-.26-2.86L94.57,66.58V28.33a2,2,0,1,1,4.06,0v39a2.11,2.11,0,0,1-.45,1.31L78.75,92A2,2,0,0,1,77.19,92.78Zm0,0"/><path class="cls-4" d="M158.79,65.87A66,66,0,1,1,130,11.48L140.13,1.35l8.14,31.22L117,24.44l7.09-7.09a57.7,57.7,0,1,0,26.54,48.52Z"/></g></g></svg>