<svg xmlns="http://www.w3.org/2000/svg" viewBox="0 0 568.09 580.96"><defs><style>.cls-1,.cls-2{fill:#2fbcea;}.cls-2{stroke:#ededed;stroke-width:10px;}.cls-2,.cls-3{stroke-miterlimit:10;}.cls-3{fill:#ededed;stroke:#2fbcea;stroke-width:12px;}.cls-4{fill:#ea1e79;}</style></defs><title>codigo</title><g id="texto"><path class="cls-1" d="M275.07,476.71c8,0,14.44-5.93,14.44-13.22s-6.48-13.22-14.44-13.22-14.43,5.93-14.43,13.22S267.11,476.71,275.07,476.71Zm0-19.49c3.77,0,6.84,2.81,6.84,6.26s-3.07,6.27-6.84,6.27a6.29,6.29,0,1,1,0-12.53Z"/><path class="cls-2" d="M415.62,360.51c-9-10.38-13-13.33-30.38-18.12V187.3c0-18.37-16.32-33.31-36.38-33.31H198.76c-20.06,0-36.38,14.94-36.38,33.31V320.71H152.32c-20.06,0-36.38,14.94-36.38,33.31v1.48a31.08,31.08,0,0,0,5.58,17.7c-8.9,6.08-14.68,15.79-14.68,26.72v1.48c0,10.93,5.78,20.64,14.68,26.72a31.09,31.09,0,0,0-5.58,17.7v1.48c0,18.37,16.32,33.31,36.38,33.31h10.09c.52,12.92,9.1,24,21.26,29.07,1.13,11.66,5,33.52,17.91,50.56a12.48,12.48,0,0,0,10,4.76,12.86,12.86,0,0,0,6.92-2c5.5-3.5,6.85-10.42,3-15.46-8.24-10.85-11.64-25.1-13-34.87H308.72c.33.46.66.91,1,1.34a12.84,12.84,0,0,0,16.87,2.81c5.51-3.49,6.88-10.41,3.07-15.45-14.45-19.13-10.66-39.85,11.62-63.31,3.72-2.94,14.93-13,13.6-26.69-1-10.37-8.62-19.09-22.64-25.91a12.51,12.51,0,0,0-1.29-.54c-.57-.2-13.83-5.08-11.81-17.44C320.36,360,337,358.32,348,359c28.08,1.74,38.81,4,48.68,15.35,7,8,9.23,18.46,6.88,31.91q-.75,4.31-1.51,8.84c-7,41.3-14.5,93.87-59.31,128.49a10.47,10.47,0,0,0-1.45,15.65,12.59,12.59,0,0,0,9.27,3.94,12.76,12.76,0,0,0,7.81-2.62c51.75-40,60.44-99.47,67.64-142.06q.75-4.47,1.49-8.73C430.91,390.08,426.92,373.51,415.62,360.51Zm-272.4,52c-6.69,0-12.13-5-12.13-11.1v-1.48c0-6.12,5.44-11.1,12.13-11.1h18.19V412.5H143.22Zm-3-58.48c0-6.12,5.44-11.1,12.13-11.1h9.1v23.69h-9.1c-6.69,0-12.13-5-12.13-11.1ZM161.41,458.4h-9.1c-6.69,0-12.13-5-12.13-11.1v-1.48c0-6.12,5.44-11.1,12.13-11.1h9.1Zm136.13,11.79a55.27,55.27,0,0,0,.89,20.29H198.76c-6.69,0-12.13-5-12.13-11.1V187.3c0-6.12,5.44-11.1,12.13-11.1h150.1c6.69,0,12.13,5,12.13,11.1V337.85c-3.68-.42-7.46-.77-11.39-1-30.51-1.88-51.38,8.6-54.45,27.39-3.79,23.21,15.07,36.85,26.23,41.13,6.6,3.3,9.16,6.27,9.34,8,.25,2.39-3.1,6.31-5.43,8.05a11.77,11.77,0,0,0-1.62,1.4A111.75,111.75,0,0,0,305,448S297.83,460,297.55,470.19Z"/><path class="cls-1" d="M320.57,427.8H212.35V203.23h74c-.9-4.35-9-8.79-9.33-13.3H204.89c-4.12,0-7.46,3-7.46,6.65V434.45c0,3.68,3.34,6.65,7.46,6.65H311.67"/><path class="cls-1" d="M348.22,343.65V237a120.81,120.81,0,0,1-14.92,1.07V344"/><path class="cls-3" d="M470.73,91.17a105.25,105.25,0,1,1-60.38-53.4,105.35,105.35,0,0,1,60.38,53.4Z"/><rect class="cls-4" x="305.64" y="93.19" width="4.11" height="89.21"/><rect class="cls-4" x="313.39" y="93.19" width="7.59" height="89.21"/><rect class="cls-4" x="323.83" y="93.19" width="5.69" height="89.21"/><rect class="cls-4" x="334.59" y="93.19" width="3.16" height="89.21"/><rect class="cls-4" x="437.92" y="93.19" width="7.59" height="89.21"/><rect class="cls-4" x="429.53" y="93.19" width="5.38" height="89.21"/><rect class="cls-4" x="421.15" y="93.19" width="3.16" height="89.21"/><rect class="cls-4" x="410.87" y="93.19" width="4.75" height="89.21"/><rect class="cls-4" x="351.99" y="102.11" width="8.92" height="8.92"/><path class="cls-4" d="M405.52,124.41v4.46m0-35.68v4.46h-4.46v4.46h4.46V120"/><rect class="cls-4" x="351.99" y="164.56" width="8.92" height="8.92"/><rect class="cls-4" x="383.22" y="177.94" width="4.46" height="4.46"/><rect class="cls-4" x="387.68" y="160.1" width="4.46" height="4.46"/><rect class="cls-4" x="387.68" y="169.02" width="4.46" height="4.46"/><rect class="cls-4" x="343.07" y="146.71" width="4.46" height="4.46"/><rect class="cls-4" x="343.07" y="124.41" width="4.46" height="4.46"/><polygon class="cls-4" points="392.14 97.65 392.14 102.11 383.22 102.11 383.22 106.57 396.6 106.57 396.6 102.11 396.6 97.65 392.14 97.65"/><path class="cls-4" d="M405.52,137.79v-4.46h-4.46v4.46h-8.92v4.46h13.38v4.46H392.14v-4.46h-4.46v4.46h-4.46v-4.46h-4.46v4.46H374.3v4.46h8.92v4.46h4.46v-4.46h8.92v4.46h-4.46v4.46h4.46V169h4.46v4.46h4.46V169m-4.46-4.46V151.18"/><polygon class="cls-4" points="401.06 119.95 396.6 119.95 396.6 124.41 392.14 124.41 392.14 128.87 392.14 133.33 396.6 133.33 396.6 128.87 401.06 128.87 401.06 124.41 405.52 124.41 405.52 119.95 401.06 119.95"/><rect class="cls-4" x="392.14" y="177.94" width="8.92" height="4.46"/><rect class="cls-4" x="378.76" y="97.65" width="4.46" height="4.46"/><rect class="cls-4" x="360.91" y="146.71" width="4.46" height="4.46"/><path class="cls-4" d="M369.84,177.94V160.1h4.46v-8.92h-4.46v4.46H356.45v-4.46h-8.92v4.46h-4.46V182.4h35.68v-4.46Zm-4.46,0H347.53V160.1h17.84Z"/><rect class="cls-4" x="369.84" y="119.95" width="4.46" height="4.46"/><path class="cls-4" d="M374.3,93.19H343.07V120h4.46v4.46H352V120h4.46v4.46h4.46V120h8.92V111h4.46v-4.46h-4.46V97.65h8.92V93.19Zm-8.92,22.3H347.53V97.65h17.84Z"/><rect class="cls-4" x="396.6" y="106.57" width="4.46" height="4.46"/><rect class="cls-4" x="387.68" y="93.19" width="4.46" height="4.46"/><path class="cls-4" d="M396.6,120v-4.46h-4.46V111h-4.46v4.46h-8.92V111H374.3V120h4.46v8.92H365.38v-4.46h-4.46v4.46H347.53v4.46h8.92v4.46H343.07v4.46h13.38v4.46h4.46v-4.46h4.46v4.46h4.46v-4.46h8.92v-4.46H374.3v-4.46h8.92v4.46h8.92v-4.46h-4.46v-4.46h-4.46V120H396.6Zm-26.76,17.84h-8.92v-4.46h8.92Z"/><polygon class="cls-4" points="383.22 164.56 383.22 160.1 383.22 155.64 378.76 155.64 378.76 160.1 374.3 160.1 374.3 164.56 378.76 164.56 378.76 169.02 374.3 169.02 374.3 173.48 383.22 173.48 383.22 169.02 387.68 169.02 387.68 164.56 383.22 164.56"/></g></svg>