<svg xmlns="http://www.w3.org/2000/svg" viewBox="0 0 232.05 237.31"><defs><style>.cls-1{font-size:22.46px;fill:#2ca2da;font-family:SourceSansPro-Regular, Source Sans Pro;}.cls-2{letter-spacing:-0.01em;}.cls-3{letter-spacing:-0.02em;}.cls-4{letter-spacing:0em;}.cls-5{letter-spacing:-0.02em;}.cls-6{font-family:SourceSansPro-Bold, Source Sans Pro;font-weight:700;}.cls-7{fill:#2fbcea;}.cls-8{fill:none;stroke:#2fbcea;stroke-miterlimit:10;stroke-width:2px;}.cls-9{fill:#ea1e79;}</style></defs><title>dni</title><g id="texto"><text class="cls-1" transform="translate(27.05 205.75)">As<tspan class="cls-2" x="21.49" y="0">e</tspan><tspan x="32.41" y="0">gu</tspan><tspan class="cls-3" x="55.95" y="0">r</tspan><tspan x="63.18" y="0">a</tspan><tspan class="cls-2" x="74.68" y="0">t</tspan><tspan x="82.04" y="0">e de ll</tspan><tspan class="cls-4" x="137.32" y="0">e</tspan><tspan class="cls-5" x="148.57" y="0">v</tspan><tspan x="158.61" y="0">ar</tspan><tspan class="cls-6"><tspan x="51.25" y="26.95">tu D.N.I</tspan></tspan></text><path class="cls-7" d="M151.18,62.76A11.87,11.87,0,1,1,163.06,50.9,11.88,11.88,0,0,1,151.18,62.76Zm0-20.75a8.88,8.88,0,1,0,8.89,8.89A8.89,8.89,0,0,0,151.18,42Z"/><path class="cls-7" d="M110.24,99l-2.62-17.39a8.19,8.19,0,0,0-8.11-7.14H82.4a8.18,8.18,0,0,0-8.12,7.15L72.12,98.94l-3-.37,2.16-17.33A11.18,11.18,0,0,1,82.4,71.46H99.51a11.19,11.19,0,0,1,11.07,9.71l2.62,17.36Z"/><path class="cls-7" d="M91,70.77a11.87,11.87,0,1,1,11.87-11.88A11.89,11.89,0,0,1,91,70.77ZM91,50a8.88,8.88,0,1,0,8.87,8.87A8.89,8.89,0,0,0,91,50Z"/><path class="cls-7" d="M158.18,162a7.17,7.17,0,0,1-7-5.62A7.16,7.16,0,0,1,137,154.84V119.68a3.3,3.3,0,0,1-1.76-1,3.39,3.39,0,0,1-.87-2.61v0l.47-4.5H65.36a7.14,7.14,0,1,1,0-14.29h63.26l3-23.15a11.23,11.23,0,0,1,11.08-9.74h16.64a11.22,11.22,0,0,1,11,9.61l3.09,21.38a9.34,9.34,0,0,1-6.21,10.17L168,116a3.45,3.45,0,0,1-.9,2.64,3.23,3.23,0,0,1-1.73,1v35.17A7.18,7.18,0,0,1,158.18,162Zm-9.82-45.23H154v38.07a4.17,4.17,0,1,0,8.33,0V116.77h2.13a.55.55,0,0,0,.36-.1.49.49,0,0,0,.15-.4v0l-.82-13.06,1.29-.25a6.35,6.35,0,0,0,5.1-7.15l-3.09-21.38a8.22,8.22,0,0,0-8.08-7H142.74a8.22,8.22,0,0,0-8.11,7.14l-3.38,25.75H65.36a4.15,4.15,0,1,0,0,8.3H138.2l-.81,7.79a.41.41,0,0,0,.12.34.53.53,0,0,0,.35.09H140v38.08a4.17,4.17,0,0,0,8.33,0Z"/><path class="cls-7" d="M92.49,158.37a22,22,0,1,1,22-22A22,22,0,0,1,92.49,158.37Zm0-41a19,19,0,1,0,19,19A19,19,0,0,0,92.49,117.4Z"/><path class="cls-7" d="M92.7,129.42A4.35,4.35,0,1,1,97,125.07,4.36,4.36,0,0,1,92.7,129.42Zm0-5.71a1.36,1.36,0,1,0,1.35,1.36A1.36,1.36,0,0,0,92.7,123.72Z"/><path class="cls-7" d="M92.7,150.83a3.64,3.64,0,0,1-3.64-3.64V134.35a3.64,3.64,0,0,1,7.28,0v12.84A3.64,3.64,0,0,1,92.7,150.83Zm0-17.12a.64.64,0,0,0-.64.64v12.84a.64.64,0,0,0,1.28,0V134.35A.64.64,0,0,0,92.7,133.7Z"/><path class="cls-8" d="M142.88,5.14a4.15,4.15,0,0,0-2.91-4l-.4-.1a4.17,4.17,0,0,0-.83-.09h-42a4.14,4.14,0,0,0-4.14,4.14V29.21a4.14,4.14,0,0,0,4.14,4.14H101v7a.7.7,0,0,0,.45.65.72.72,0,0,0,.25,0,.69.69,0,0,0,.52-.23L109,33.35h29.76a4.14,4.14,0,0,0,4.14-4.14Z"/><path class="cls-9" d="M114.33,5l-8.12-1a3.1,3.1,0,0,0-3.44,2.71L101,21.54A3.1,3.1,0,0,0,103.74,25l24.59,2.91a3.1,3.1,0,0,0,3.44-2.71l1.74-14.76A3.1,3.1,0,0,0,130.8,7h0l-8.12-1Zm6.82,1.09v0m.72,1,8.79,1a1.86,1.86,0,0,1,1.63,2.06L130.54,25a1.86,1.86,0,0,1-2.06,1.63l-24.59-2.91a1.86,1.86,0,0,1-1.63-2.06L104,6.92a1.86,1.86,0,0,1,2.06-1.63ZM130.54,25"/><path class="cls-9" d="M116.26,18.16a3.89,3.89,0,0,0-2.57-3.08,4.61,4.61,0,0,0,1.17-2.51,3.71,3.71,0,0,0-7.38-.87,4.82,4.82,0,0,0,.58,2.75A3.89,3.89,0,0,0,105,16.86l-.74,1.81a1.16,1.16,0,0,0,0,1,1.09,1.09,0,0,0,.81.53l10.3,1.22a1.09,1.09,0,0,0,.91-.33,1.06,1.06,0,0,0,.27-.93Zm-4.79-8.48a2.48,2.48,0,0,1,2.17,2.75c-.16,1.38-1.5,2.94-2.82,2.78a1.9,1.9,0,0,1-1.17-.64l-.11-.14a3.67,3.67,0,0,1-.82-2.59,2.48,2.48,0,0,1,2.75-2.17Zm-6,9.26.66-1.61c.52-1.22,1.34-1.59,2.8-1.76a3.15,3.15,0,0,0,1.77.86,3,3,0,0,0,2-.45c1.49.58,2.18,1.07,2.43,2.38l.26,1.75Zm0,0"/><path class="cls-9" d="M128.48,16.06l-9.84-1.16a.62.62,0,1,0-.15,1.23l9.84,1.16a.62.62,0,1,0,.15-1.23Zm0,0"/><path class="cls-9" d="M128.78,13.58l-9.84-1.16a.62.62,0,1,0-.15,1.23l9.84,1.16a.62.62,0,1,0,.15-1.23Zm0,0"/><path class="cls-9" d="M122.35,17.83l-4-.47a.62.62,0,1,0-.15,1.23l4,.47a.62.62,0,1,0,.15-1.23Zm0,0"/><path class="cls-9" d="M126,18.26l-.92-.11a.62.62,0,1,0-.15,1.23l.92.11a.62.62,0,1,0,.15-1.23Zm0,0"/></g></svg>