<svg xmlns="http://www.w3.org/2000/svg" viewBox="0 0 697.54 584.07"><defs><style>.cls-1,.cls-2,.cls-3{fill:none;stroke:#2fbcea;stroke-miterlimit:10;}.cls-1{stroke-width:2px;}.cls-2{stroke-width:5px;}.cls-3{stroke-width:3px;}.cls-4{fill:#ea1e79;}</style></defs><title>inter</title><g id="texto"><path class="cls-1" d="M58.72,176.48a9.41,9.41,0,1,1,9.41,9.41,9.41,9.41,0,0,1-9.41-9.41Zm0,0"/><path class="cls-1" d="M54.4,211.66a1.63,1.63,0,1,1,0-3.26h2.48v-2.49a1.63,1.63,0,1,1,3.26,0v2.49h2.44a1.63,1.63,0,1,1,0,3.26H60.14v2.44a1.63,1.63,0,1,1-3.26,0v-2.44Zm0,0"/><path class="cls-1" d="M65.91,193.51a1.64,1.64,0,0,1,1.22,2.13L66,198.92,68.13,203l2.11-4.12-1.11-3.28a1.64,1.64,0,0,1,1.22-2.13l3.61-.73.29-3.74H62l.29,3.74,3.61.73Zm0,0"/><path class="cls-1" d="M91.81,176.53a9.45,9.45,0,1,1,9.45,9.46,9.45,9.45,0,0,1-9.45-9.46Zm0,0"/><path class="cls-1" d="M122.66,233.75V201a11.85,11.85,0,0,0-11.85-11.85H91.7A11.82,11.82,0,0,0,79.88,201V242.7"/><path class="cls-1" d="M46.85,227.36V200.8A11.77,11.77,0,0,1,58.62,189h.12l.4,5.22a1.64,1.64,0,0,0,1.31,1.48l3,.61-.74,2.18a1.63,1.63,0,0,0,.1,1.27l3.88,7.6a1.77,1.77,0,0,0,1.43.75,1.5,1.5,0,0,0,1.49-.75l3.88-7.6a1.63,1.63,0,0,0,.09-1.27l-.73-2.17,3-.61a1.63,1.63,0,0,0,1.3-1.48l.41-5.22h.12a11.74,11.74,0,0,1,7.09,2.37"/><line class="cls-1" x1="79.88" y1="228.52" x2="27.8" y2="228.52"/><path class="cls-2" d="M8.49,239.13a76.52,76.52,0,1,1,100.86,39.22A76.63,76.63,0,0,1,8.49,239.13Z"/><path class="cls-2" d="M482.63,307.36c8.68,72.74-43.46,139-116.22,147.7S227.31,411.6,218.63,338.86A133.09,133.09,0,0,1,334.91,191.08c72.76-8.68,139,43.46,147.73,116.28Z"/><path class="cls-2" d="M686.36,53a90.7,90.7,0,1,1-52-46,90.78,90.78,0,0,1,52,46Z"/><line class="cls-2" x1="227.24" y1="276.08" x2="148.24" y2="239.08"/><polygon class="cls-1" points="490.27 497.46 481.24 497.46 481.24 493.7 474 500.96 481.24 508.22 481.24 504.46 490.27 504.46 490.27 497.46"/><polygon class="cls-1" points="485.43 517.8 494.46 517.8 494.46 521.56 501.7 514.29 494.46 507.03 494.46 510.79 485.43 510.79 485.43 517.8"/><path class="cls-1" d="M472.93,511.66a7.77,7.77,0,1,1-7.77-7.77,7.77,7.77,0,0,1,7.77,7.77Zm0,0"/><path class="cls-1" d="M482.73,552.69v-21A9.72,9.72,0,0,0,473,522h-.1l-.33,4.31a1.35,1.35,0,0,1-1.08,1.22l-2.47.5.61,1.8a1.35,1.35,0,0,1-.08,1l-3.2,6.27a1.46,1.46,0,0,1-1.18.62,1.24,1.24,0,0,1-1.23-.62l-3.2-6.27a1.35,1.35,0,0,1-.08-1l.61-1.79-2.47-.5a1.35,1.35,0,0,1-1.08-1.22L457.4,522h-.1a9.74,9.74,0,0,0-9.74,9.74v10.93"/><path class="cls-1" d="M477.87,538.34h-2v2a1.34,1.34,0,1,1-2.69,0v-2h-2a1.34,1.34,0,1,1,0-2.69h2V533.6a1.34,1.34,0,1,1,2.69,0v2.05h2a1.34,1.34,0,1,1,0,2.69Z"/><path class="cls-1" d="M467,525.72l3-.6.24-3.09h-10.1l.24,3.09,3,.6a1.36,1.36,0,0,1,1,1.76l-.92,2.71,1.74,3.4,1.74-3.4-.92-2.71a1.36,1.36,0,0,1,1-1.76Zm0,0"/><path class="cls-1" d="M522.38,511.66a7.77,7.77,0,1,1-7.77-7.77,7.77,7.77,0,0,1,7.77,7.77Zm0,0"/><path class="cls-1" d="M532.19,542.69v-11a9.72,9.72,0,0,0-9.71-9.71h-.1l-.33,4.31a1.35,1.35,0,0,1-1.08,1.22l-2.47.5.61,1.8a1.35,1.35,0,0,1-.08,1l-3.2,6.27a1.46,1.46,0,0,1-1.18.62,1.24,1.24,0,0,1-1.23-.62l-3.2-6.27a1.35,1.35,0,0,1-.08-1l.61-1.79-2.47-.5a1.35,1.35,0,0,1-1.08-1.22l-.34-4.31h-.1a9.74,9.74,0,0,0-9.74,9.74v20.93"/><path class="cls-1" d="M527.33,538.34h-2v2a1.34,1.34,0,1,1-2.69,0v-2h-2a1.34,1.34,0,1,1,0-2.69h2V533.6a1.34,1.34,0,1,1,2.69,0v2.05h2a1.34,1.34,0,1,1,0,2.69Z"/><path class="cls-1" d="M516.45,525.72l3-.6.24-3.09h-10.1l.24,3.09,3,.6a1.36,1.36,0,0,1,1,1.76l-.92,2.71,1.74,3.4,1.74-3.4-.92-2.71a1.36,1.36,0,0,1,1-1.76Zm0,0"/><path class="cls-2" d="M537.49,554.69a55.62,55.62,0,1,1-19.66-76.16,55.7,55.7,0,0,1,19.66,76.16Z"/><line class="cls-2" x1="422.24" y1="435.08" x2="454.24" y2="483.08"/><line class="cls-2" x1="454.24" y1="238.08" x2="543.79" y2="156.81"/><path class="cls-3" d="M618.35,107a1.72,1.72,0,0,0,.44,1.33,1.76,1.76,0,0,0,1.33.54h.61V142A5.12,5.12,0,0,0,631,142V108.89h2.41V142a5.12,5.12,0,1,0,10.25,0V108.89h.57a1.74,1.74,0,0,0,1.34-.55A1.78,1.78,0,0,0,646,107l-.67-10.62a7.1,7.1,0,0,0,5.7-8L648.24,69a8.75,8.75,0,0,0-8.65-7.53H624.54a8.78,8.78,0,0,0-8.67,7.63L613,91.23h-58.4a5.11,5.11,0,1,0,0,10.21h64.37Zm0,0"/><path class="cls-3" d="M641.56,48a9.38,9.38,0,1,1-9.39-9.39A9.39,9.39,0,0,1,641.56,48Zm0,0"/><path class="cls-3" d="M570,67.92a8.74,8.74,0,0,0-8.68,7.65L559.75,88h36l-1.62-12.47a8.73,8.73,0,0,0-8.67-7.61Zm0,0"/><path class="cls-3" d="M587.11,55.19a9.38,9.38,0,1,1-9.38-9.38,9.38,9.38,0,0,1,9.38,9.38Zm0,0"/><circle class="cls-3" cx="580.23" cy="124.41" r="16.8"/><path class="cls-3" d="M580.4,112.79a2.34,2.34,0,1,0,2.34,2.34,2.34,2.34,0,0,0-2.34-2.34Zm0,0"/><path class="cls-3" d="M580.4,121a1.75,1.75,0,0,0-1.76,1.76v10.53a1.76,1.76,0,0,0,3.51,0V122.74A1.75,1.75,0,0,0,580.4,121Zm0,0"/><path class="cls-4" d="M380,310.17a2.39,2.39,0,0,1-2.39,2.39H317.84a2.39,2.39,0,1,1,0-4.77h59.79A2.39,2.39,0,0,1,380,310.17Zm-62.18-16.73h23.92a2.39,2.39,0,0,0,0-4.79H317.84a2.39,2.39,0,1,0,0,4.79Zm59.79,33.48H317.84a2.39,2.39,0,0,0,0,4.79h59.79a2.39,2.39,0,0,0,0-4.79Zm0,19.13H317.84a2.39,2.39,0,0,0,0,4.79h59.79a2.39,2.39,0,0,0,0-4.79Zm0,19.14H317.84a2.39,2.39,0,1,0,0,4.77h59.79a2.39,2.39,0,1,0,0-4.77ZM403.94,295V398.66H291.53V255.17h63.62A33,33,0,1,1,403.94,295Zm-4.79,2.6A33,33,0,0,1,353.66,260H296.32V393.87H399.15ZM385.86,238a29.41,29.41,0,1,0,29.41,29.41A29.41,29.41,0,0,0,385.86,238Z"/><polygon class="cls-4" points="404.5 261.55 391.69 261.55 391.69 248.74 380.7 248.74 380.7 261.55 367.88 261.55 367.88 272.54 380.7 272.54 380.7 285.36 391.69 285.36 391.69 272.54 404.5 272.54 404.5 261.55"/></g></svg>