<svg xmlns="http://www.w3.org/2000/svg" viewBox="0 0 27.13 23.17"><defs><style>.cls-1,.cls-5{fill:#1d1d1b;}.cls-2{fill:gray;}.cls-3{fill:#969696;}.cls-4{fill:#fff;}.cls-5{fill-rule:evenodd;}</style></defs><title>logo_06</title><g id="texto"><rect class="cls-1" x="13.97" width="13.17" height="23.17"/><path class="cls-2" d="M13.93,0H27.13V23.17H22.45l0-.12A5,5,0,0,1,22,21.81h.2a6.17,6.17,0,0,0,1.8,0v-.08c.24-.33.13-1,.24-1.44.18-.75.21-1.54.4-2.32A8.26,8.26,0,0,0,25,16.33a2.5,2.5,0,0,0-.52,0c-.3,1.43-1.1,3.74-2.6,3.92v0h0c-.4-3,.76-5.24,1.6-7.16A26.35,26.35,0,0,1,25,10c.37-.61.66-1.29,1-1.92a5.15,5.15,0,0,0,.56-1V6h0v0a18.1,18.1,0,0,1-3,0h-6c0-1.29-.21-3.16.36-3.92.25-.34.87-.43,1.36-.52V1.4c.08-.11,0-.32,0-.44a6.58,6.58,0,0,0-1.68,0h-3.6Z"/><path class="cls-3" d="M17.49,11.33c1.85,0,3.85,0,5.76,0v0a2.08,2.08,0,0,0-.4.52c-.44.61-.94,1.19-1.4,1.8-.22.29-.54.55-.76.84-.7.94-1.4,1.84-2.08,2.8A6,6,0,0,0,17.53,19h0Z"/><path class="cls-4" d="M0,0H13.93V.92h3.48a10.85,10.85,0,0,1,1.8,0v.52l-.12,0c-.12.08-.28,0-.44.08a1.49,1.49,0,0,0-1,.76,5.25,5.25,0,0,0-.16,1.84V15.85a21,21,0,0,0,.16,4.44,3.89,3.89,0,0,0,2.08.28c2.61,0,3.28-.51,4.08-2.36a7.21,7.21,0,0,0,.64-1.84H25v.08l-.92,5.32a3.79,3.79,0,0,1-1,0H14l0-.12a1,1,0,0,1,0-.44c-2.09-.15-1.6-2.42-1.6-4.56l0-11c0-2.17-.42-3.93,1.64-4.16V1H8.72V1a1.21,1.21,0,0,0,0,.52A1.78,1.78,0,0,1,10,2.08a5.67,5.67,0,0,1,.32,2.68v5.76H4.68V4.76a6.2,6.2,0,0,1,.2-2.52,1.6,1.6,0,0,1,1-.64c.2,0,.32,0,.44-.08a1,1,0,0,0,0-.44s0,0,0-.08a1.48,1.48,0,0,0-.44,0A3.49,3.49,0,0,0,4.6.92,22.34,22.34,0,0,0,1.08,1V1c-.08.12,0,.39,0,.52a1.72,1.72,0,0,1,1.32.56c.43.64.32,2.87.32,4V16.81a14.37,14.37,0,0,1-.08,2.68c-.08.38,0,.74-.12,1s-.89.61-1.44.72v.56c1.66,0,3.48,0,5.2,0a2.14,2.14,0,0,0,0-.6H6.24c-.12-.07-.33,0-.48-.08a1.8,1.8,0,0,1-.84-.56,5.82,5.82,0,0,1-.24-2.76V11.93h5.68v6a7,7,0,0,1-.28,2.68,2,2,0,0,1-1.36.6v.56H8.8a5.61,5.61,0,0,0,1.44,0H14v1.32H0Z"/><path class="cls-2" d="M15.57,6H14.41V6h0a9.64,9.64,0,0,1-.44,1.84v-4A10.78,10.78,0,0,1,14,1.6h.36c.31.23.67.23.88.56C15.67,2.84,15.56,4.9,15.57,6Z"/><path class="cls-2" d="M14,21.21V11.65l.12,0c.32-.25,1-.19,1.48-.28V19l-.12,1.16A1.5,1.5,0,0,1,14,21.21Z"/><path class="cls-1" d="M13.49,12.53s0,0,0,.08h0Z"/><path class="cls-5" d="M13.93,7.84c-.28,1.1-.49,2.32-.84,3.4-.24.73-.3,1.5-.52,2.2a2,2,0,0,0-.12.72,2.06,2.06,0,0,0,.8,0,6.29,6.29,0,0,1,.64-2.6s.05,0,.08,0l1.6-.32V6h-1.2A11.59,11.59,0,0,1,13.93,7.84Z"/><path class="cls-2" d="M16.45,21.81v0c-.3.2-.33.83-.32,1.32H14V21.81Z"/></g></svg>