<?xml version="1.0" encoding="utf-8"?>
<!-- Generator: Adobe Illustrator 21.0.0, SVG Export Plug-In . SVG Version: 6.00 Build 0)  -->
<svg version="1.1" id="Capa_1" xmlns="http://www.w3.org/2000/svg" xmlns:xlink="http://www.w3.org/1999/xlink" x="0px" y="0px"
	 viewBox="0 0 266 55" style="enable-background:new 0 0 266 55;" xml:space="preserve">
<style type="text/css">
	.st0{fill:#FFFFFF;}
</style>
<title>logo_02</title>
<path class="st0" d="M26.6,50.8L26.6,50.8c0-0.3,0-0.7,0-1c-0.1,0-0.1,0-0.1,0c0.1,0.3,0.1,0.7,0,1H26.6z M26,51L26,51
	c0-0.6-0.1-1.2-0.3-1.8c-0.1,0.5,0,1,0.1,1.5c0,0,0,0,0-0.1c0.1,0.2,0.1,0.3,0.1,0.5L26,51z M26.1,30.8L26.1,30.8h0.6
	c0.1-0.1,0.3-0.1,0-0.2c-0.2-0.1-0.4-0.2-0.6-0.3c-0.1-0.1-0.2-0.2-0.3-0.3c0,0.2,0,0.4,0,0.6s0,0.3,0,0.4c0,0.1,0,0.1,0.1,0.1
	c0.1,0.2,0.1,0.4,0.2,0.5l0,0c0.2,0.2,0.2,0.2,0.2-0.1l-0.2-0.5C26.1,31,26.1,30.9,26.1,30.8L26.1,30.8z M25.9,47.1L25.9,47.1
	c0,0.4,0.1,0.7,0.1,1.2c0-0.1-0.1-0.2-0.2-0.3l0,0c-0.1,0.4-0.1,0.8,0,1.2c0-0.2,0.1-0.3,0.2-0.5c0,0.4,0.1,0.8,0.3,1.1
	c0.1-0.2,0.1-0.5,0.2-0.7c0.2,0.3,0.3,0.7,0.4,1c0-0.9-0.2-1.8-0.5-2.6c0,0.2,0,0.4-0.1,0.5C26.3,47.7,26.1,47.4,25.9,47.1
	L25.9,47.1z M25.9,43.3L25.9,43.3c0.1,0.1,0.1,0.3,0.1,0.4c0.1-0.2,0.2-0.3,0.3-0.5L25.9,43.3z M25.7,42.5h-0.2l-0.1,0.1v-0.1
	l-0.1,0.1L25,42.7l0.2,0.1c0.2,0,0.5,0.1,0.7,0.2l0,0c0,0,0.1-0.3,0.1-0.3c0-0.1,0-0.2,0-0.3L25.7,42.5L25.7,42.5z M24.4,43.1
	L24.4,43.1L24.4,43.1C24.4,43.1,24.4,43.1,24.4,43.1c-0.1-0.3-0.4-0.1-0.6,0.1c0,0.1,0.1,0.2,0.1,0.3C24,43.3,24.2,43.2,24.4,43.1
	L24.4,43.1z M27.1,29L27.1,29c-0.2-0.4-0.4-0.9-0.7-1.2c-0.1-0.1-0.2-0.2-0.4-0.2v0.2h-0.2l0,0l0,0h0.3h0.1c0.2,0.2,0.3,0.3,0.5,0.5
	c0.1,0.1,0,0.2,0.1,0.3l0.2,0.3L27.1,29z M24.9,43.5L24.9,43.5c0,0.1,0,0.1,0,0.2C24.9,43.6,24.9,43.5,24.9,43.5z M25.4,43.3
	L25.4,43.3L25.4,43.3c0-0.2,0-0.3-0.1-0.4c-0.2-0.1-0.3-0.1-0.5-0.2l-0.1,0.1c0.2,0.1,0.4,0.4,0.4,0.6l0,0l0.2,0.3
	c0-0.2,0-0.3-0.1-0.5c0.1,0.2,0.2,0.4,0.3,0.5C25.5,43.7,25.5,43.5,25.4,43.3L25.4,43.3z M29.3,19.1L29.3,19.1
	c0.1,0.2,0,0.4,0.1,0.6c0.1-0.2,0.1-0.4,0.1-0.6s0.1-0.2,0.2-0.2s0.2,0,0.4-0.1c-0.2-0.1-0.2-0.1-0.4-0.1s-0.2-0.1-0.2-0.2
	s0-0.4-0.1-0.6c-0.1,0.2-0.1,0.4-0.1,0.6s-0.1,0.2-0.2,0.2c-0.1,0-0.3,0.1-0.4,0.1c0.2,0.1,0.2,0.1,0.4,0.1S29.2,19,29.3,19.1
	L29.3,19.1z M20.5,19.2L20.5,19.2c0,0.2,0,0.4,0.2,0.6c0.1-0.2,0.1-0.4,0.1-0.6S20.9,19,21,19s0.2,0,0.4-0.1
	c-0.2-0.1-0.2-0.1-0.4-0.1s-0.2-0.1-0.2-0.2s0-0.4-0.1-0.6c-0.2,0.2-0.1,0.4-0.2,0.6s-0.1,0.2-0.2,0.2s-0.2,0-0.4,0.1
	c0.2,0.1,0.2,0.1,0.4,0.1S20.5,19,20.5,19.2L20.5,19.2z M26.3,25.4L26.3,25.4c-0.1-0.1-0.3-0.2-0.4-0.4
	C26.1,25.3,26.2,25.4,26.3,25.4L26.3,25.4z M27.2,23.9L27.2,23.9l0.2,0.1C27.3,23.9,27.3,23.9,27.2,23.9L27.2,23.9z M28.1,23.8
	L28.1,23.8c0,0,0,0.1,0,0.1C28.1,23.9,28.2,23.8,28.1,23.8L28.1,23.8z M29.5,22.9L29.5,22.9l0.7,0.1C30,22.9,29.7,22.8,29.5,22.9
	L29.5,22.9z M28.5,23.9L28.5,23.9c0,0,0-0.1-0.1-0.2C28.5,23.9,28.5,24,28.5,23.9L28.5,23.9z M24.2,45.7L24.2,45.7
	c0.2-0.6,0.3-1.2,0.1-1.8l-0.1,0.2C24.2,44.7,24.1,45.3,24.2,45.7z M24.4,29.5L24.4,29.5c0,0-0.1,0-0.2,0s0,0.1,0,0.1
	S24.4,29.6,24.4,29.5c0.1,0.4,0.1,0.6,0.1,0.9c-0.1,0-0.1,0,0,0.2c0.1,0.1,0.1,0.3,0,0.4c-0.1,0.1-0.1,0.1,0,0.2c0,0.3,0,0.7-0.1,1
	c0,0.1-0.1,0.1-0.1,0.2s0.1,0.1,0.1,0.2c0,0.1,0.1,0.1,0.1,0.2h-0.1v0.5l0.3,0.1c-0.1,0-0.2,0-0.4,0c0,0.2,0,0.5,0,0.7
	c0,0.1,0,0.3,0,0.4c0,0.5,0,1,0,1.5c0.1,0,0.3,0,0.4,0.1h-0.5c0,0.4,0,0.8,0,1c0.1,0,0.2,0.1,0.2,0.1l-0.2-0.1v0.2l0.4,0.1h-0.4
	c0,0.3,0,0.5,0.1,0.7c0.2,0,0.5,0,0.6,0.1h-0.6c0,0.1,0,0.3,0,0.4c0.1,0,0.2,0,0.3,0c0.1,0.1,0.2,0.1,0.1,0.2l-0.4-0.1
	c0,0.1,0,0.1,0,0.2h0.2c0.1,0,0.2,0.1,0.3,0.1s0.1,0.1,0.1,0.1l-0.2-0.1h-0.4v0.2c0.2,0,0.3,0.1,0.2,0.2c-0.1-0.1-0.2-0.2-0.2-0.1
	v0.2l0.3,0.1l-0.2,0.1c0,0,0,0,0,0.1c0.1,0,0.2,0.1,0.3,0.1c-0.1,0-0.2-0.1-0.3-0.1s0,0.3,0,0.5c0.1,0,0.3,0,0.4,0.1h-0.4v0.2
	c0.1,0,0.3,0.1,0.4,0.1c-0.1,0-0.3,0-0.4-0.1c0,0.1,0,0.3,0,0.3s0.1,0,0.1,0s0.1,0,0.1,0.1h-0.2v0.2c0.1,0,0.2,0.1,0.3,0.1h-0.4v0.4
	c0.2,0,0.3,0,0.5-0.1c0,0.1,0,0.1,0.1,0.2v0.3l0.3-0.1L25,42.4l0.3-0.2h0.1l0.2-0.3v-0.1l0,0v-0.4h-0.3c0,0,0.1-0.1,0.1-0.1v-2
	c0,0.1,0,0.2,0.1,0.3s0-0.4,0-0.8c-0.2-0.8,0-0.5,0-0.7s0-0.2-0.1-0.6c0,0,0-0.1,0-0.1c0-0.2-0.1-0.4-0.1-0.6c0-0.6,0-1.1,0-1.7
	c-0.1-0.3-0.1-0.3,0-0.5c-0.1-0.5-0.1-1,0-1.4c0.1,0,0.2,0,0.3,0c0.1,0,0.1,0,0.1-0.1c-0.2,0-0.2,0-0.4-0.1v-0.7c0.1,0,0.2,0,0.3,0
	l-0.3-0.1c-0.1-0.9-0.1-1.9,0-2.8c0,0,0.1,0,0.1-0.1c-0.1,0-0.1,0-0.1,0c0-0.6-0.1-1.3,0-2c0.2-0.1,0.3,0,0.5,0
	c-0.2,0-0.3,0-0.5-0.1c0,0,0.1-0.1,0-0.1c0-0.2,0-0.2,0-0.4s0-0.4,0-0.6h0.2c0,0.1,0.1,0,0.1,0.1s0,0.4,0,0.5c0,0,0-0.3,0-0.4
	s0.1,0.2,0.1,0.1c0.2,0.5,0.2,0.5,0.2,0.5c-0.1-0.1-0.1-0.3-0.1-0.4c-0.1-0.2,0.3,0.2,0.2,0.1c0.1,0.2,0,0.2,0.1,0.4
	c0-0.1-0.1-0.3-0.1-0.4c0.1,0.1,0.2,0.3,0.3,0.4c0-0.1-0.1-0.3-0.2-0.4c0.2,0.1,0.3,0.3,0.5,0.3c-0.1-0.1-0.3-0.3-0.4-0.4
	c0.6,0.2,1.1,0.3,0.2,0c-0.2-0.1,0.6,0,0.7,0c-0.1,0-0.7,0-0.9-0.1h0.3c0.1,0,0.2,0,0.3,0c-0.7-0.1-1-0.1-0.3-0.1c0,0,0-0.1,0-0.1
	s-0.5,0.1-0.7,0c0-0.1,0.2-0.2,0.3-0.2c-0.4,0-0.7-0.1-1-0.1c0-0.1,0-0.4,0-0.5c0.5,0,0.4,0,0,0c0-0.3-0.1-0.5-0.1-0.8
	c0.6,0.5,0.6,0.5,0-0.1c0-0.1,0-0.4,0-0.6s0-0.4,0-0.3c0.2,0.4,0.4,0.7,0.6,1c-0.3-0.4-0.5-0.8-0.6-1.3c-0.1-0.1-0.1-0.3,0-0.4
	c0,0,0.1,0,0.1,0s0.3,0.8,0.3,0.7c0-0.1,0-0.2,0-0.4c0,0.1,0.1,0.2,0.2,0.2c0.3,0.8,0.4,0.8,0.3,0.3c0.1,0,0.1,0.1,0.1,0.1v-0.1
	c0.1-0.1,0.1-0.1,0.2,0s0.2,0.3,0.3,0.1c0.1,0.1,0,0.1,0.2,0.1c0,0.1,0.2,0.2,0.3,0.3c0-0.1-0.2-0.2-0.1-0.3
	c0.1,0.1,0.2,0.1,0.3,0.2c-0.1-0.1-0.1-0.2-0.2-0.3l0.4,0.3c-0.1-0.2-0.3-0.3-0.4-0.4c0-0.1-0.1-0.1-0.2-0.2
	c0.2,0.1,0.3,0.2,0.5,0.3c-0.2-0.2-0.3-0.3-0.5-0.5c0.6,0.3,0.6,0.3,0.1,0c0,0,0.1,0,0.2,0l-0.3-0.1c-0.1,0,0-0.1-0.1-0.1
	s-0.1,0.1-0.2,0s0-0.1,0-0.1s-0.1,0-0.2,0s-0.1,0.1-0.1,0s0-0.1,0-0.1s-0.2,0-0.3,0s0.1-0.1,0.1-0.2s-0.2,0.1-0.3,0.1s0-0.2,0-0.2
	c-0.1,0-0.2,0-0.3,0s-0.1-0.2-0.2-0.1v-0.3c0.3,0.2,0.6,0.4,1,0.5l0.3,0.1c0-0.1,0.1-0.1,0.2,0l1,0.2c0,0,0.1,0.2,0.2,0.4
	c0-0.1,0-0.2,0-0.3c0,0,0.1,0.1,0.1,0.2c0-0.1,0-0.2,0.1-0.2c0,0.1,0.1,0.2,0.1,0.2c0-0.1,0-0.1,0-0.2c0,0,0,0.1,0.1,0.1
	c0-0.1,0-0.2,0-0.2s0.1,0.4,0.3,0.3c0.1,0.2,0.3,0.3,0.6,0.3c-0.1-0.1-0.3-0.1-0.4-0.3c0-0.1,0.3,0,0.3,0c0.2,0.1,0.4,0.2,0.6,0.2
	c-0.2,0-0.3-0.1-0.5-0.2c-0.1-0.1-0.2-0.3-0.2-0.4s0.2,0.1,0.3,0.1h0.1c0.1,0,0.1-0.1,0.2-0.1s0,0,0,0.1s0.1,0,0.2-0.2
	c0.2-0.1,0.4,0,0.6-0.1c-0.3,0-0.5,0-0.8,0c0.5-0.1,0.9-0.4,0.7-0.3c-0.2,0.1-0.5,0.2-0.7,0.3c-0.2,0.1-0.5,0.1-0.5-0.1
	c0.1-0.1,0.3-0.1,0.5-0.2c-0.3,0-0.5,0-0.8,0.1c0-0.1,0.2-0.1,0.5-0.2c0,0,0,0,0.1,0h-0.1c-0.3,0.1-0.6,0.2-0.9,0.4
	c0-0.1,0.2-0.3,0.3-0.3c-0.3,0.1-0.5,0.3-0.7,0.5h-0.5c-0.4,0-0.8-0.2-1.1-0.4c-0.3-0.2-0.8-0.4-1.1-0.6c0,0,0,0,0-0.1s0.2,0,0.3,0
	s0.1,0.1,0.2,0.1c0.1,0.3,0.1,0.2,0.1,0s0.1,0.1,0.1,0c0.1,0.1,0.1,0.2,0.1,0.3c0-0.1,0-0.2,0-0.3c0-0.1,0.1,0,0.1,0
	c0,0.1,0,0.3,0.1,0.3s0-0.2,0-0.3h0.1c0,0.1,0,0.2,0.1,0.3c0.2,0,0.4,0,0.4,0s-0.3-0.1-0.2-0.2c0.2,0.1,0.3,0.2,0.5,0.2
	c0.3,0.5,0.2,0.2,0.2,0.1s0.1,0,0.1,0c0,0.2,0.1,0.3,0.2,0.1s0.2,0,0.2,0S28,22.9,28,22.8s0-0.2,0.1-0.1s0.2,0.4,0.4,0.3
	c-0.1-0.1-0.2-0.3-0.3-0.5c0.1,0,0.2,0,0.3,0c0,0,0.1,0,0.1,0.1s0-0.1,0.1-0.2s0,0.1,0.1,0.1l-0.1-0.2c0,0,0.1,0,0.1,0s0,0.2,0,0.2
	s0-0.3,0-0.4s0.1,0,0.2,0.1s0-0.1,0-0.1c0.1,0.1,0.2,0.1,0.3,0.2c0-0.1-0.2-0.2-0.3-0.2c0.2,0,0.4,0.1,0.6,0.2
	c-0.1-0.1-0.3-0.2-0.4-0.3c0.1-0.1,0.5,0,0.6,0c-0.1-0.2-0.5-0.3-0.8-0.1c0,0,0.1-0.2,0.2-0.2s0.3,0,0.3,0s-0.3-0.1-0.2-0.1
	s0.4,0.1,0.6,0.1c-0.1,0-0.1-0.1-0.2-0.2s-0.2,0-0.4,0c0,0,0.2-0.1,0.3-0.2c-0.1,0-0.3,0.2-0.4,0.1s0-0.1,0.1-0.1
	c-0.1,0.1-0.3,0.3-0.2,0.1c0.1-0.3,0.1-0.3-0.3,0.2c0-0.1,0,0,0-0.1s0-0.1,0-0.1s-0.2,0.3-0.3,0.3c0,0.1-0.1,0.1-0.2,0.1
	c-0.1,0,0.2-0.4,0.2-0.3s-0.3,0.3-0.3,0.2s0.1-0.1,0.1-0.1c-0.1,0.1-0.4,0.1-0.5,0.1s0-0.2-0.3-0.3c0.3,0.1,0.6,0.1,0.9,0.1
	c-0.2-0.1-0.5-0.1-0.4-0.4c0.2,0,0.3,0,0.4-0.1c-0.2,0-0.4,0-0.7,0c0-0.3,0.2-0.2,0.6-0.2c-0.1,0-0.3-0.1-0.4-0.1c0.1,0,0.2,0,0.3,0
	c-0.1,0-0.2-0.1-0.1-0.1c0-0.1,0.1-0.1,0.1-0.2c-0.1,0-0.1,0.1-0.2,0s0-0.1,0-0.2l-0.3,0.2c0,0,0-0.1-0.1-0.2
	c-0.1,0.2-0.2,0.3-0.4,0.4c0.1-0.2,0.2-0.3,0.3-0.5c-0.1,0.1-0.2,0.2-0.4,0.2c0-0.1,0.1-0.3,0.1-0.4c0,0.1-0.2,0.4-0.3,0.3
	c0-0.1,0-0.3,0.1-0.4c-0.1,0.2-0.2,0.4-0.3,0.7c-0.1,0-0.1,0.1-0.1-0.1c0.1-0.1,0.2-0.3,0.2-0.5c0-0.1,0-0.2,0-0.3
	c0,0.1-0.1,0.3-0.2,0.2s-0.1,0.1-0.1,0.2c0-0.1,0.1-0.5,0.1-0.5c-0.1,0.1-0.1,0.2-0.2,0.3c0,0,0-0.2,0-0.4c0,0.1-0.1,0.2-0.1,0.2
	s-0.2,0-0.3,0s0-0.3,0-0.3s-0.2,0.2-0.1,0.1c0-0.1,0-0.1,0.1-0.1c0,0,0,0.1-0.1,0.1s-0.1,0-0.1,0.1s0-0.1,0-0.2l-0.1,0.2
	c0-0.1,0-0.1,0-0.1c0,0,0-0.1,0-0.2s-0.1,0.2-0.2,0.2s0-0.1,0-0.2s-0.2,0.2-0.2,0.3c0,0.2-0.1,0.4-0.1,0.4s0-0.2,0-0.3
	s0.1-0.3,0.1-0.4c-0.1,0.2-0.1,0.4-0.2,0.3c0-0.1-0.1-0.1-0.1-0.2c-0.1,0.1,0,0.2,0,0.3S24.9,19,24.8,19s0.1,0.2,0.1,0.2
	s-0.2,0-0.2-0.1s0,0.1,0,0.1h-0.2c-0.1-0.1-0.2-0.2-0.3-0.1c0.2,0.1,0.3,0.2,0.2,0.1S24,19.2,24,19.5c0,0-0.1-0.2-0.1-0.2
	s0.1,0.2,0,0.2s-0.2,0-0.2,0s0,0.1,0,0.2c-0.1-0.1-0.2-0.2-0.3-0.3c0.1,0.1,0.1,0.2,0.1,0.3c0,0,0,0.1,0,0.1s-0.2-0.1-0.3-0.1
	s0,0,0,0.1c0.1,0.1,0.1,0.3,0.1,0.4c-0.1,0-0.2-0.1-0.4-0.2c0.3,0.3,0.4,0.3,0.4,0.6c-0.1-0.2-0.2-0.3-0.3-0.4h-0.1
	c-0.1-0.1-0.1-0.3-0.2-0.4c0,0.1,0,0.3,0,0.4c-0.1-0.1-0.2-0.2-0.3-0.3l0.2,0.4c-0.1,0.1-0.3,0-0.4-0.1c0,0.1,0.2,0.2,0.2,0.3
	c-0.2,0-0.3,0-0.4-0.1c0.1,0.1,0.2,0.1,0.1,0.2c-0.1,0-0.2-0.1-0.3-0.2c0,0.1,0.1,0.2,0.2,0.2c-0.1,0-0.2,0-0.3-0.1l0.1,0.1
	c0,0.1-0.2,0-0.4,0c0.1,0.1,0.3,0.2,0.4,0.2c-0.1,0.1-0.3,0-0.5,0c0.1,0.2,0.6,0.3,0.9,0.3c-0.2,0.1-0.3,0.1-0.5,0
	c0.2,0.1,0.5,0.2,0.7,0.2c0,0,0,0,0,0.1h0.2c-0.1,0.1-0.4,0.1-0.5,0c0.2,0.1,0.3,0.1,0.5,0.1c0.2,0,0.3,0,0.5,0l0.1,0.2l-0.7,0.1
	l0.5,0.1c0.2,0,0.4,0,0.6,0c0.1,0,0.1,0.1,0.1,0.2s0,0.1,0,0.1s-0.1,0.1-0.1,0.1s-0.2-0.3-0.3-0.3c0.1,0.2,0.2,0.4-0.2,0.2
	c-0.1-0.1-0.2-0.2-0.2-0.2S22.8,22,22.7,22s0.1,0.2,0.1,0.3s-0.3-0.2-0.4-0.5c0,0.1,0,0.3,0,0.4c0,0-0.1,0-0.2-0.1S22.3,22,22.3,22
	s-0.1-0.2-0.1-0.2s-0.2-0.2-0.3-0.3c0.1,0.2,0.2,0.4,0.2,0.7c0,0.1,0,0.1-0.1,0.1c-0.1-0.2-0.2-0.4-0.2-0.5c0,0,0,0.2,0,0.4
	c0,0.1-0.1-0.1-0.2-0.2s-0.1-0.1-0.1-0.1s-0.1-0.1-0.1-0.4c0,0.2,0,0.4,0,0.7c0,0.1-0.1-0.2-0.3-0.7c0,0.1-0.1,0.1-0.1,0.1
	c-0.1-0.1-0.2-0.1-0.2-0.1s-0.1,0-0.1,0.1s0,0.2,0,0.3s-0.3-0.1-0.4-0.3c0,0.1,0.1,0.1,0,0.2s-0.1,0-0.1,0.1s-0.1-0.1-0.2-0.2
	c0,0,0.1,0.2,0.2,0.2c-0.1,0-0.2,0-0.3,0h0.5c0.1,0.1,0.1,0.1,0,0.1S20,22,19.7,22l0.6,0.1c-0.1,0-0.3,0.1-0.4,0.1h0.8
	c-0.1,0.1-0.2,0.1-0.3,0.1c0.1,0,0.3,0,0.5-0.1s0.2,0.1,0.2,0.1c-0.2,0.1-0.4,0.1-0.6,0.1l0.4,0.1c0.1,0,0.2,0.1,0.2,0.2
	c-0.1,0-0.3,0-0.4-0.1v0.1c-0.2,0-0.3-0.1-0.4-0.2c0.1,0.1,0.1,0.2,0.2,0.3c-0.1,0-0.3,0-0.3-0.1c0.1,0,0.1,0.1,0.1,0.2
	s-0.1,0.1-0.2,0c-0.1-0.2-0.3-0.4-0.4-0.6c0,0.1,0.1,0.1,0.1,0.2h-0.1c0,0-0.1-0.1-0.1-0.1c0,0.1,0.1,0.2,0.1,0.3c0,0-0.1,0-0.1,0
	s-0.1-0.1-0.1-0.2s0,0.1,0,0.2s-0.1,0-0.1,0c-0.1-0.1-0.2-0.2-0.2-0.3c0,0.1,0.1,0.2,0.2,0.3s-0.1,0-0.1,0s-0.1,0.1-0.2,0.1
	c0.1,0,0.1,0.1,0.2,0.1c0,0,0,0,0,0.1c0.1,0,0.3,0,0.5,0c-0.1,0.1-0.3,0.2-0.5,0.3c0.2-0.1,0.4-0.1,0.6-0.2c0,0,0.1,0,0.1,0
	s0.4,0,0.5,0s-0.5,0.2-0.8,0.3c0.3,0,0.5-0.1,0.8-0.1s0.3,0,0.4-0.1c-0.1,0.1-0.2,0.1-0.3,0.2c0.1,0,0.2,0,0.3-0.1
	c0.1-0.1,0.2-0.2,0.4-0.2c0,0-0.1,0.1-0.1,0.1c0.1,0,0.3-0.1,0.2-0.1c-0.4,0.3-0.3,0.3,0.1,0l0.5-0.1c-0.1,0.1-0.3,0.2-0.4,0.3
	c0.2-0.1,0.4-0.3,0.5-0.2l0.5-0.1c0.4,0,0.9-0.2,1.3-0.3c0.1,0,0.2,0,0.1,0.1c-0.3,0-0.7,0.2-1,0.3c0.2,0,0.5-0.1,0.7-0.1
	c-0.3,0.2-0.6,0.4-1,0.4c0,0,0,0.1,0,0.1c-0.2,0-0.3,0-0.5-0.1c0,0.1,0,0.1,0.1,0.2c-0.1,0-0.3-0.1-0.4-0.2c0,0,0.1,0.1,0.1,0.2
	c-0.3-0.1-0.5-0.2-0.8-0.2c0.2,0.1,0.4,0.2,0.6,0.3c-0.2,0-0.3-0.1-0.5-0.1c0,0,0.1,0.1,0.1,0.1c-0.3,0-0.5,0-0.8-0.1l0.5,0.2
	c-0.1,0-0.2,0-0.3,0c-0.2-0.1-0.3-0.1-0.5-0.2c0.1,0.1,0.2,0.1,0.3,0.2c-0.2,0-0.4,0-0.6-0.2c0.1,0.1,0.1,0.2,0.2,0.3
	c-0.2,0-0.4-0.1-0.5-0.3c0,0.1,0.1,0.2,0.2,0.3c-0.2,0-0.5-0.1-0.6-0.3c0.1,0.1,0.2,0.1,0.1,0.3c-0.1-0.1-0.2,0-0.3-0.1
	c0.2,0.1,0.2,0.1,0.3,0.3c0,0.1-0.4-0.1-0.4-0.1c0.1,0,0.4,0.2,0.6,0.1c-0.1,0-0.2,0.1-0.3,0.1h0.5c0.2,0,0.4,0,0.5,0
	c0.1,0,0.2,0,0.3,0s0.2,0,0.3,0c0,0.1,0,0.1-0.1,0.1c0.1,0,0.2-0.1,0.2-0.1h0.2c0,0.1,0,0.2-0.3,0.2c0.1,0,0.2,0,0.3,0
	c0.3-0.1,0.6-0.2,0.9-0.4c0.1,0,0.3,0,0.4-0.1c0.3-0.2,0.7-0.4,1.1-0.6c0.3-0.2,0.5-0.3,0.9-0.4V23c-1.1,0.6-2.3,1.3-3.6,1.3
	c-0.2,0-0.5-0.1-0.8-0.1s-0.3-0.1-0.4-0.2c-0.1,0.1-0.4,0-0.4,0l1,0.2c0.1,0-0.2,0-0.1,0.1c0.5,0.1,1.1,0.1,1.6,0l0,0l0.6-0.1
	c-0.2,0.1-0.3,0.2-0.5,0.3c0.2-0.1,0.4-0.2,0.6-0.4c0.4-0.2,0.8-0.4,1.2-0.6c0,0-0.1,0.1,0,0.1c-0.1,0.2-0.2,0.3-0.4,0.4
	c-0.1,0.1,0.1,0.1,0.1,0c-0.1,0.1-0.2,0.2-0.3,0.3c0.1-0.1,0.2-0.2,0.4-0.3c0,0-0.1,0.1-0.1,0.2c-0.2,0.3-0.4,0.6-0.4,1
	C23,25.3,23,25.1,23,25l-0.1,0.6c0.1-0.2,0.1-0.4,0.2-0.6s0.1,0.1,0,0.4c0-0.1,0.1-0.3,0.1-0.4c0,0.1,0.1,0.2,0.1,0.3
	c0-0.3,0-0.5,0.1-0.9c0,0.2,0,0.2,0.1,0.4c-0.2-0.7,0.1-0.3,0.1-0.8c0.1,0.1,0.1,0.2,0.1,0.3c0-0.3,0-0.6,0.1-0.7
	c0.3-0.4,0.4-0.4,0.6-0.4c-0.1,0-0.3,0.1-0.3,0.3c0.1,0.1,0.1,0.1,0.2,0.1c0.1,0,0,0.1-0.3,0l0.2,0.2c0.1,0.1,0,0.1-0.2,0l0.3,0.2
	c0,0,0,0.1,0.1,0.1c-0.2,0-0.3,0-0.4-0.1c-0.1,0.2,0.2,0.2,0.4,0.3c-0.1,0.1-0.2,0.1-0.3,0.1l0.4,0.1c0,0.1,0.1,0.3,0.1,0.5
	c-0.3,0.1-0.5,0.1-0.8,0.3c0.3-0.1,0.6-0.2,0.8,0v0.2c-0.2,0-0.3,0.1-0.5,0.1c0,0,0.4,0,0.4,0c0.2,0.1-0.1,0.2,0,0.3
	c-0.2,0.1-0.4,0.2-0.5,0.4c0.1-0.2,0.3-0.3,0.5-0.3c0,0.2,0,0.5,0,0.7c-0.1,0-0.3,0-0.4-0.1c0.1,0.1,0.3,0.1,0.4,0.3s0,0.3,0,0.4
	c-0.1,0-0.3,0-0.4,0.1s0,0,0,0.1c0.1,0,0.3,0,0.4,0v1c-0.2,0.1-0.4,0.1-0.5,0.1c0.1,0,0.3,0.1,0.5,0.1
	C24.4,29.1,24.4,29.3,24.4,29.5L24.4,29.5z M23.4,18.5L23.4,18.5c0,0.2,0,0.4,0.1,0.6c0.1-0.2,0.1-0.4,0.1-0.6s0.1-0.2,0.2-0.3
	s0.2,0,0.4-0.1C24,18,24,18,23.8,18s-0.2-0.1-0.2-0.2c0-0.2,0-0.4-0.1-0.6c-0.1,0.2-0.1,0.4-0.1,0.6s-0.1,0.2-0.2,0.2
	s-0.2,0-0.4,0.1c0.2,0.1,0.3,0.1,0.4,0.1S23.3,18.3,23.4,18.5L23.4,18.5z M26.2,18.5L26.2,18.5c0,0.2,0,0.4,0.1,0.6
	c0.1-0.2,0.1-0.4,0.1-0.6s0.1-0.2,0.2-0.2s0.2,0,0.4-0.1C26.9,18,26.8,18,26.7,18c-0.1,0-0.2-0.1-0.2-0.2c0-0.2,0-0.4-0.1-0.6
	c-0.1,0.2-0.1,0.4-0.1,0.6S26.1,18,26,18s-0.2,0-0.4,0.1c0.2,0.1,0.2,0.1,0.4,0.1S26.1,18.3,26.2,18.5L26.2,18.5z M21.5,24.5
	c-0.2,0-0.4,0-0.4,0.1C21.2,24.5,21.4,24.5,21.5,24.5L21.5,24.5z M21.5,24.5L21.5,24.5c0.1,0,0.2,0,0.3-0.1L21.5,24.5 M34.5,52.8
	L34.5,52.8c-1.1-0.1-2.2-0.3-3.3-0.4l0,0L30,52.9l-3.9,1.7c0,0-0.1,0-0.1,0.1c0,0,0,0.1,0.1,0.1c0.6,0.2,1.3,0.3,1.9,0.3
	c0.6,0,1.1-0.1,1.6-0.4c0.1,0,0.2-0.1,0.3-0.2h0c1.5-0.8,3-1.7,4.5-1.5C34.5,52.8,34.5,52.7,34.5,52.8L34.5,52.8z M11.5,49.1
	L11.5,49.1C11.6,49.1,11.6,49.1,11.5,49.1c0-0.1,0-0.1,0-0.1l-4.4-2.2l0,0c-1.1-0.2-2.1-0.2-3.2,0.1l-0.8,0.1c-0.1,0,0,0.1,0,0.1
	c1.5,0.2,3,0.7,4.3,1.5c0.2,0.1,0.3,0.1,0.4,0.2c0.5,0.2,1.1,0.4,1.6,0.4C10.2,49.3,10.9,49.3,11.5,49.1z M23.7,54.6L23.7,54.6
	l-3.9-1.7l-1.2-0.5l0,0l-3.3,0.4l0,0c-0.1,0-0.1,0.1,0,0.1c1.5-0.1,3,0.7,4.5,1.5l0,0c0.1,0,0.2,0.1,0.3,0.2
	c0.5,0.3,1.1,0.4,1.6,0.4C22.4,54.9,23,54.8,23.7,54.6C23.8,54.7,23.8,54.6,23.7,54.6z M25.6,48.3L25.6,48.3c0.1-0.7,0.1-1.4-0.1-2
	c-0.1,0.3,0,0.7,0,1.1S25.5,48,25.6,48.3L25.6,48.3z M4.6,45.3L4.6,45.3c0.3,0.1,0.7,0.2,1,0.2c0.3,0,0.7,0,1-0.1h0.1l-0.1-0.1
	l-0.1-0.1c-0.4-0.5-0.8-0.8-1.3-1.1l-1.6-0.7C3.1,43.2,2.5,43,2,42.7l0,0c-0.3,0-0.7-0.1-1-0.1s-0.7-0.1-1-0.1v0.1
	c0.3,0.4,0.6,0.7,1,1c0.3,0.2,0.5,0.4,0.8,0.6l0,0c0.5,0.2,0.9,0.4,1.4,0.6S4.1,45.1,4.6,45.3z M12.3,27.2L12.3,27.2
	c0.1-0.2,0.1-0.2,0.2-0.2s0.2,0,0.4-0.1c-0.2-0.1-0.3-0.1-0.4-0.1c-0.1,0-0.2-0.1-0.2-0.2c0-0.2,0-0.4-0.1-0.6
	C12,26,12,26.3,12,26.5c0,0.1-0.1,0.2-0.2,0.2c-0.1,0-0.2,0-0.4,0.1c0.2,0.1,0.2,0.1,0.4,0.1s0.2,0.1,0.2,0.2s0,0.4,0.1,0.6
	C12.3,27.6,12.2,27.4,12.3,27.2L12.3,27.2z M42.1,46.8L42.1,46.8l0.3-1.5l-2,0.9l-2.3,1H38h-0.1c-0.1,0-0.2,0-0.3-0.1
	c-0.2,0.4-0.6,0.8-1,1c-0.8,0.4-1.5,0.7-2.3,1.1S32.8,50,32,50.4h-0.1h-0.1c-0.2,0-0.3-0.1-0.4-0.2l-0.4,0.5l0,0.1L31,50.8L28.4,52
	l0,0h-0.1l-0.1,0v0.2l-3.3,1.5l-3.1-1.4v-0.2l-3-1.5c-0.1,0-0.1-0.1-0.1-0.1l-0.4-0.5c-0.1,0.1-0.2,0.2-0.4,0.2l0,0h-0.1l0,0l-2.3-1
	c-0.8-0.4-1.6-0.7-2.3-1.1c-0.4-0.2-0.7-0.5-1-0.9c-0.1,0.1-0.2,0.1-0.3,0.1l0,0h-0.1l0,0l-2.3-1L8.6,46v0.1H8.6V46l-0.8-0.4
	l0.2,0.9l17,8.3l0.2-0.1l16.4-7.7L42.1,46.8z M46.7,47.1L46.7,47.1l-0.8-0.1c-1-0.3-2.1-0.3-3.2-0.1l0,0L38.2,49c0,0,0,0.1,0,0.1
	c0.7,0.1,1.3,0.2,2,0.2c0.6,0,1.1-0.2,1.6-0.4c0.2-0.1,0.3-0.2,0.5-0.2c1.3-0.8,2.8-1.3,4.3-1.5C46.7,47.2,46.7,47.1,46.7,47.1z
	 M11.4,32.3L11.4,32.3c-0.1-0.2,0-0.4-0.1-0.6c-0.1,0.2-0.1,0.4-0.1,0.6c0,0.1-0.1,0.2-0.2,0.2c-0.1,0-0.2,0-0.4,0.1
	c0.2,0.1,0.2,0.1,0.4,0.1s0.2,0.1,0.2,0.2s0,0.4,0.1,0.6c0.1-0.2,0.1-0.4,0.1-0.6s0.1-0.2,0.2-0.2s0.2,0,0.4-0.1
	c-0.2-0.1-0.2-0.1-0.4-0.1C11.5,32.5,11.5,32.4,11.4,32.3z M49.7,42.4L49.7,42.4c-0.3,0-0.7,0.1-1,0.1s-0.7,0.1-1,0.1l0,0l-1.6,0.8
	l-1.6,0.7c-0.5,0.3-1,0.7-1.3,1.1l0,0.1l-0.1,0.1h0.1c0.3,0.1,0.7,0.1,1,0.1c0.3,0,0.7-0.1,1-0.2c0.5-0.2,0.9-0.4,1.4-0.6
	s0.9-0.4,1.4-0.6l0,0c0.3-0.2,0.6-0.4,0.8-0.6C49.1,43.2,49.4,42.8,49.7,42.4L49.7,42.4z M29.4,21.2L29.4,21.2L29.4,21.2
	C29.5,21.1,29.4,21.1,29.4,21.2z M40.8,49.8L40.8,49.8l-1-0.1c-1-0.3-2-0.3-3,0l-2.3,1.2c-0.8,0.4-1.5,0.8-2.3,1.1c0,0,0,0.1,0,0.1
	l0.8,0.1c0.9,0.2,1.8,0.1,2.6-0.2c0.3-0.2,0.5-0.3,0.8-0.4c1.4-0.8,3-1.4,4.6-1.6C40.9,49.9,40.9,49.8,40.8,49.8z M16.9,52.1
	L16.9,52.1l0.8-0.1c0,0,0.1-0.1,0-0.1c-0.8-0.3-1.5-0.7-2.3-1.1L13,49.7c-1-0.3-2-0.3-3,0l-1,0.1c-0.1,0,0,0.1,0,0.1
	c1.6,0.2,3.2,0.7,4.6,1.6l0.8,0.4C15.2,52.2,16.1,52.3,16.9,52.1z M31.9,20.4L31.9,20.4c0.1,0.2,0,0.4,0.2,0.6
	c0.1-0.2,0.1-0.4,0.1-0.6s0.1-0.2,0.2-0.2s0.2,0,0.4-0.1c-0.1-0.1-0.2-0.1-0.4-0.1c-0.1,0-0.2-0.1-0.2-0.2c0-0.2,0-0.4-0.1-0.6
	c-0.1,0.2-0.1,0.4-0.1,0.6s-0.1,0.2-0.2,0.2c-0.1,0-0.3,0.1-0.4,0.1c0.2,0.1,0.3,0.1,0.4,0.1S31.9,20.2,31.9,20.4L31.9,20.4z
	 M34.2,22.3L34.2,22.3c0,0.2,0,0.4,0.2,0.6c0.2-0.2,0.1-0.4,0.2-0.6s0.1-0.2,0.2-0.2s0.2,0,0.3-0.1c-0.2-0.1-0.2-0.1-0.3-0.1
	s-0.2-0.1-0.2-0.2s0-0.4-0.2-0.6c-0.2,0.2-0.1,0.4-0.2,0.6c0,0.1-0.1,0.2-0.2,0.2c-0.1,0.1-0.2,0-0.4,0.1c0.2,0.1,0.2,0.1,0.4,0.1
	S34.1,22.1,34.2,22.3L34.2,22.3z M27.8,32.4L27.8,32.4c-0.3-0.4-0.3-0.4-0.1,0.1c0.1,0.2,0.3,0.4,0.4,0.6v0.2
	c0.1,0.1,0.1,0.1,0.2,0.2c0,0.1,0.1,0.2,0.1,0.3c0.1,0.2,0.2,0.3,0.3,0.5c0.2,0.1,0.3,0.3,0.4,0.6c0.2,0.4,0.2,0.2,0-0.5
	c-0.4-0.7-0.6-1.4-0.6-2.2c0-0.2-0.1-0.3-0.1-0.2c0,0.1-0.1,0.1-0.1,0.2c0,0.3,0,0.6,0.1,0.9C28.2,32.9,27.9,32.7,27.8,32.4z
	 M31.9,50.1L31.9,50.1l2.3-1.1c0.8-0.4,1.5-0.7,2.3-1.1c0.7-0.6,1.3-1.3,1.6-2.2l0.4-0.8c0,0-0.1-0.1-0.1-0.1
	c-0.5,0.5-1.1,0.9-1.8,1.3c-0.9,0.5-2,1-3.3,1.6l0,0c-0.3,0.3-0.5,0.7-0.8,1.1s-0.5,0.7-0.8,1.1C31.7,50,31.8,50.1,31.9,50.1z
	 M38,47L38,47l2.3-1c0.8-0.4,1.5-0.7,2.3-1.1c0.7-0.6,1.3-1.3,1.7-2.2c0.1-0.3,0.3-0.5,0.4-0.8c0-0.1-0.1-0.1-0.1-0.1
	c-0.5,0.5-1.1,1-1.8,1.3c-0.9,0.5-2,1-3.3,1.6l0,0c-0.3,0.3-0.5,0.7-0.8,1.1C38.5,46.2,38.2,46.6,38,47C37.8,47,37.9,47,38,47z
	 M11.7,29.5L11.7,29.5c-0.1,0-0.2-0.1-0.2-0.2s0-0.4-0.1-0.6c-0.1,0.2-0.1,0.4-0.1,0.6c0,0.1-0.1,0.2-0.2,0.2s-0.2,0-0.4,0.1
	c0.2,0.1,0.2,0.1,0.4,0.1s0.2,0.1,0.2,0.2s0,0.4,0.1,0.6c0.1-0.2,0.1-0.4,0.1-0.6s0.1-0.2,0.2-0.2s0.2,0,0.4-0.1
	C11.8,29.5,11.8,29.5,11.7,29.5z M15.7,21.5L15.7,21.5c-0.1-0.2,0-0.4-0.1-0.6c-0.1,0.2-0.1,0.4-0.1,0.6c0,0.1-0.1,0.2-0.2,0.2
	c-0.1,0-0.2,0-0.4,0.1c0.1,0.1,0.2,0.1,0.4,0.1c0.2,0.1,0.2,0.1,0.2,0.2s0,0.4,0.1,0.6c0.1-0.2,0.1-0.4,0.1-0.6s0.1-0.2,0.2-0.2
	c0.1,0,0.3-0.1,0.4-0.1c-0.2-0.1-0.2-0.1-0.4-0.1S15.7,21.6,15.7,21.5L15.7,21.5z M18,19.6L18,19.6c0-0.2,0-0.4-0.1-0.6
	c-0.1,0.2-0.2,0.4-0.1,0.6c0,0.1-0.1,0.2-0.2,0.2s-0.2,0-0.4,0.1c0.2,0.1,0.3,0.1,0.4,0.1s0.2,0.1,0.2,0.2s0,0.4,0.1,0.6
	c0.1-0.2,0.1-0.4,0.1-0.6s0.1-0.2,0.2-0.2c0.1,0,0.3-0.1,0.4-0.1c-0.2-0.1-0.3-0.1-0.4-0.1C18.1,19.8,18,19.7,18,19.6z M36.4,23.8
	L36.4,23.8c0-0.2,0-0.4-0.1-0.6c-0.2,0.2-0.1,0.4-0.2,0.6S36,24,35.9,24.1s-0.2,0-0.4,0.1c0.2,0.1,0.2,0.1,0.4,0.1s0.2,0.1,0.2,0.2
	s0,0.4,0.2,0.6c0.1-0.2,0.1-0.4,0.1-0.6s0.1-0.2,0.2-0.2s0.2,0,0.4-0.1c-0.2-0.1-0.2-0.1-0.4-0.1S36.5,24,36.4,23.8L36.4,23.8z
	 M38.7,29.6L38.7,29.6c-0.1,0-0.2-0.1-0.2-0.2c0-0.2,0-0.4-0.1-0.6c-0.2,0.2-0.1,0.4-0.2,0.6c0,0.1-0.1,0.2-0.2,0.2
	c-0.1,0.1-0.2,0-0.4,0.1c0.2,0.1,0.2,0.1,0.4,0.1s0.2,0.1,0.2,0.2s0,0.4,0.2,0.6c0.1-0.2,0.1-0.4,0.1-0.6s0.1-0.2,0.2-0.2
	s0.2,0,0.4-0.1C38.9,29.6,38.9,29.6,38.7,29.6L38.7,29.6z M38.5,32.3L38.5,32.3c0-0.2,0-0.4-0.1-0.6c-0.2,0.2-0.1,0.4-0.2,0.6
	c0,0.1-0.1,0.2-0.2,0.2c-0.1,0-0.2,0-0.4,0.1c0.2,0.1,0.2,0.1,0.4,0.1s0.2,0.1,0.2,0.2s0,0.4,0.2,0.6c0.1-0.2,0.1-0.4,0.1-0.6
	c0.1-0.2,0.1-0.2,0.2-0.2s0.2,0,0.4-0.1c-0.2-0.1-0.2-0.1-0.4-0.1S38.6,32.5,38.5,32.3L38.5,32.3z M37.8,26.5L37.8,26.5
	c0-0.2,0-0.4-0.2-0.6c-0.1,0.2-0.1,0.4-0.1,0.6c0,0.1-0.1,0.2-0.2,0.2c-0.1,0-0.2,0-0.4,0.1C37,27,37.1,27,37.2,27
	c0.2,0.1,0.2,0.1,0.2,0.2s0,0.4,0.1,0.6c0.2-0.2,0.1-0.4,0.2-0.6s0.1-0.2,0.2-0.2c0.1,0,0.3-0.1,0.4-0.1c-0.2-0.1-0.2-0.1-0.4-0.1
	C37.9,26.7,37.8,26.7,37.8,26.5L37.8,26.5z M13.7,23.8L13.7,23.8c0-0.2,0-0.4-0.1-0.6c-0.1,0.2-0.1,0.4-0.1,0.6S13.3,24,13.2,24
	s-0.2,0-0.4,0.1c0.1,0.1,0.2,0.1,0.4,0.1c0.2,0.1,0.2,0.1,0.2,0.2s0,0.4,0.1,0.6c0.1-0.2,0.1-0.4,0.1-0.6s0.1-0.2,0.2-0.2
	c0.1,0,0.3-0.1,0.4-0.1C14.1,24,14.1,24,13.9,24S13.8,23.9,13.7,23.8z M30.8,50.5L30.8,50.5L30.8,50.5c0.3-0.4,0.6-0.9,0.9-1.3
	l0.9-1.3c0-0.1,0-0.1-0.1-0.1c-0.8,0.6-1.7,1.1-2.6,1.6l-1,0.5l0,0l-2.5,1.2l0,0l0,0L26,51.4l-0.8,1.8l2.9-1.4l0,0l0.1-0.1
	L30.8,50.5z M23.9,47.1L23.9,47.1c0-0.3,0-0.6,0.1-0.9C23.9,46.5,23.8,46.8,23.9,47.1L23.9,47.1z M13.3,47.9L13.3,47.9
	c0.8,0.4,1.5,0.7,2.3,1.1l2.3,1c0.1,0,0.1,0,0.1-0.1c-0.3-0.3-0.5-0.7-0.8-1.1s-0.5-0.8-0.8-1.1l0,0c-1.3-0.6-2.4-1.2-3.3-1.6
	c-0.7-0.3-1.3-0.7-1.8-1.3c0,0-0.1,0-0.1,0.1l0.4,0.8C12,46.6,12.6,47.4,13.3,47.9z M38.4,37.6L38.4,37.6l-0.2-0.2
	c-0.1,0.1-0.2,0.2-0.3,0.3l0,0.2c0,0.1-0.1,0.1-0.1,0.2c-0.1,0-0.1,0-0.2,0c0-0.1-0.1-0.1-0.2-0.2c0-0.2,0.4-0.5,0.6-0.7
	C38.5,37.3,38.4,37.5,38.4,37.6z M36.5,39L36.5,39c0,0.1,0,0.3,0,0.4l-0.7,1l-1.2,0.4c-0.5,0.4-1,0.8-1.4,1.3
	c-0.5,0.1-1,0.2-1.5,0.3s-0.9,0.3-1.3,0.5L30.2,43l-0.1-0.1L30,43l-0.1,0.4L29.3,44c0-0.1,0-0.1,0-0.2l0.4-0.5
	c0.1-0.2,0.1-0.3,0.2-0.5c0.5-0.5,1.1-1,1.6-1.5c0,0,0,0.1,0.1,0.1c0.4-0.1,0.8-0.2,1.3-0.2l0,0c0,0,0-0.1,0-0.1l0,0L33,41l0,0
	l0.3-0.2c0.1-0.1,0.1-0.1,0.2-0.2c0.2-0.1,0.3-0.2,0.5-0.3c0.4-0.2,0.7-0.4,1.2-0.5c0-0.1,0-0.2,0.1-0.2l0,0
	c0.2-0.2,0.4-0.5,0.6-0.7l0,0l0,0c0-0.1,0.1-0.3,0.1-0.4l0,0c-0.1,0.2-0.2,0.4-0.4,0.5c0-0.4,0-0.7,0.2-0.7c-0.1-0.4,0-0.9,0.3-0.9
	v0.1c0.1-0.2,0.1-0.3,0.2-0.1c0-0.1,0.1-0.3,0.1-0.4V37l0.1-0.2c0.1-0.1,0.2-0.2,0.3-0.2l0,0l0,0c-0.1,0-0.1,0.1-0.2,0.1h0.1
	c0,0.3,0,0.7-0.1,1c-0.1,0.2-0.2,0.3-0.2,0.5s-0.2,0.1-0.1-0.3l0,0c0,0.2,0,0.4,0,0.7l0.2-0.2c0.1-0.2,0.3-0.4,0.4-0.5
	c0.2-0.2,0.3-0.3,0.6-0.5l0,0c0.1-0.1,0.2-0.2,0.4-0.2c0.2-0.1,0.4-0.1,0.5,0l0,0l0,0l0,0l0,0h-0.1l-1,0.9
	C37,38.4,36.7,38.7,36.5,39z M37,40.8L37,40.8c0,0,0,0.1-0.1,0.1l0,0l0,0c-0.1,0.2-0.2,0.4-0.4,0.4c0,0,0,0.1,0,0.1
	c-0.2,0.2-0.4,0.4-0.7,0.6c-0.3,0.2-0.6,0.4-0.8,0.7C34.9,43,34.8,43,34.8,43c-0.1,0.2-0.2,0.3-0.3,0.4s-0.4,0.3-0.5,0.3
	c-0.2,0-0.4,0.1-0.6,0.2c-0.2,0.1-0.4,0.2-0.6,0.4l-1.3,0.9l0,0l0,0l1.3-0.9c0.2-0.1,0.4-0.3,0.6-0.4c0.2-0.1,0.4-0.2,0.6-0.2l0,0
	c0.1,0,0.3-0.1,0.5-0.3c0.2-0.2,0.4-0.5,0.6-0.8l0,0c0.4-0.3,0.8-0.6,1.2-1l0.2-0.2l0,0c0.2-0.1,0.3-0.2,0.3-0.3V41l0,0V41l0,0
	c0,0,0-0.1,0-0.1l0,0l0,0l0,0l0,0c0-0.3,0-0.7,0-1l0,0l0,0C36.9,40.2,37,40.5,37,40.8z M33.5,43.7L33.5,43.7
	c-0.6,0.4-1.2,0.7-1.7,1.2c-0.1-0.1,0.8-0.7,1.3-1.1C33.2,43.8,33.3,43.7,33.5,43.7L33.5,43.7z M36.1,40.4L36.1,40.4L36.1,40.4
	c0.2,0,0.1-0.1,0.2,0.1s0,0,0,0l0,0C36.4,40.5,36.3,40.5,36.1,40.4L36.1,40.4z M36.2,40.6L36.2,40.6L36.2,40.6L36.2,40.6
	C36.2,40.6,36.2,40.6,36.2,40.6c-0.1-0.1-0.2-0.1-0.2-0.1l0,0l0,0C36.1,40.5,36.1,40.5,36.2,40.6C36.1,40.5,36.2,40.6,36.2,40.6
	L36.2,40.6z M30.6,45.6L30.6,45.6c0-0.2,0.1-0.5,1.5-1.3c0-0.1,0-0.1,0-0.2c0.3,0,0.5-0.3,0.8-0.5c-0.1,0-0.3,0-0.3-0.1
	s0.1-0.3,0.3-0.3c0,0,0.1,0,0.1,0c0.1-0.1,0.3-0.2,0.5-0.2l0.5-0.5c0.4-0.3,0.7-0.5,1-0.9c0.2-0.1,0.5-0.3,0.6-0.5
	c0.2-0.1,0.4-0.2,0.6-0.4c0,0,0-0.1,0.1-0.1c0-0.1,0-0.1,0-0.1h0.2c0.2-0.2,0.4-0.5,0.5-0.8c0.1,0,0,0-0.1,0.3l-0.4,0.5v0.1l0,0l0,0
	l0,0l0,0l0,0l0,0l-0.1,0.1c0,0-0.1,0-0.1,0c-0.4,0.3-0.8,0.7-1.2,1c-0.5,0.4-0.9,0.7-1.3,1.2c0.1,0,0.1,0.1,0.1,0.1
	c-0.3,0.1-0.4,0.2-0.4,0.3h-0.3L32.5,44c-0.1,0.1-0.2,0.2-0.3,0.3C31.5,44.7,31,45.1,30.6,45.6L30.6,45.6z M30.5,42.9L30.5,42.9
	l-0.1,0.2l0,0l0,0L30.5,42.9L30.5,42.9C30.5,42.9,30.5,42.8,30.5,42.9L30.5,42.9z M31.5,40.5L31.5,40.5c-0.1-0.1-0.1-0.2-0.2-0.3
	l0,0l0,0c0.1,0.2,0.2,0.5,0.4,0.6l0,0l0,0C31.7,40.7,31.5,40.6,31.5,40.5L31.5,40.5z M31.4,40L31.4,40c0.2,0.1,0.3,0.2,0.4,0.3
	c0.1,0.1,0.2,0.3,0.2,0.4l0,0c0-0.1-0.1-0.3-0.2-0.4C31.7,40.2,31.5,40.1,31.4,40L31.4,40L31.4,40z M31.5,39.9L31.5,39.9
	C31.5,39.9,31.5,39.9,31.5,39.9c0.2,0.1,0.3,0.2,0.4,0.3c0.1,0.1,0.1,0.2,0.1,0.3l0,0l0,0c0-0.1-0.1-0.2-0.2-0.3
	C31.8,40.2,31.7,40.1,31.5,39.9C31.6,40,31.5,40,31.5,39.9L31.5,39.9z M32.3,39.3L32.3,39.3c0.2-0.3,0.4-0.5,0.7-0.6
	c0.2,0.1,0.3,0.2,0.4,0.4c-0.1,0.4-0.3,0.5-0.6,0.7c-0.1,0-0.2-0.1-0.3-0.2l0,0C32.5,39.5,32.4,39.4,32.3,39.3L32.3,39.3z M34.8,36
	L34.8,36L34.8,36c0.2,0.2,0.4,0.3,0.6,0.4c0,0.1-0.1,0.1-0.2,0.2s-0.3-0.2-0.4-0.2c-0.1-0.1-0.3-0.2-0.4-0.4
	c-0.2-0.2-0.3-0.2-0.3-0.5C34.3,35.4,34.6,35.7,34.8,36z M35.5,35.5L35.5,35.5l0.3,0.4c0.2,0.1,0.4,0.3,0.6,0.4h-0.4
	c-0.2-0.1-0.4-0.2-0.5-0.4c-0.1-0.1-0.3-0.2-0.4-0.3c0-0.1,0-0.1,0-0.2C35.3,35.5,35.4,35.5,35.5,35.5L35.5,35.5z M36.9,36.6
	L36.9,36.6c0,0,0.1,0,0.1,0.1c0,0.2,0,0.4,0,0.7h-0.3C36.7,37,36.6,36.7,36.9,36.6L36.9,36.6z M27.7,39.8L27.7,39.8
	c-0.1-0.3-0.2-0.5-0.4-0.7c0-0.3,0-0.6,0-0.8s0.1,0,0.2,0.3s0.3,0.5,0.3,0.8c0.1,0.1,0.1,0.3,0.2,0.5C27.9,39.9,27.8,39.9,27.7,39.8
	z M11.9,37.3L11.9,37.3c0.3,0.2,0.6,0.5,0.5,0.7c0,0.1-0.1,0.1-0.2,0.2c-0.1,0-0.1,0-0.2,0c0,0-0.1-0.1-0.1-0.1l0.1-0.3l-0.3-0.3
	c0,0.1-0.1,0.1-0.2,0.2C11.6,37.4,11.6,37.3,11.9,37.3z M13.6,38.4L13.6,38.4c0.4,0.4,0.8,0.7,1.1,1.2l0,0l0,0
	c0.1,0.1,0.1,0.2,0.1,0.2c0.4,0.1,0.8,0.3,1.1,0.5c0.1,0.1,0.3,0.2,0.5,0.3l0.2,0.2L17,41l0,0l0.2,0.2c0.4,0,0.9,0.1,1.3,0.2
	c0,0,0-0.1,0.1-0.1c0.5,0.5,1.1,1,1.6,1.5c0.1,0.2,0.1,0.3,0.2,0.5l0.4,0.5c0,0.1,0,0.1,0,0.2l-0.6-0.6c0-0.1-0.1-0.3-0.1-0.4
	l-0.2-0.1h0c-0.5-0.2-1-0.3-1.4-0.5s-1-0.2-1.5-0.3c-0.5-0.4-1-0.8-1.4-1.3c-0.4-0.1-0.8-0.3-1.2-0.4c-0.2-0.3-0.4-0.7-0.7-1
	c0-0.1,0-0.3-0.1-0.4l-0.6-0.8l-1-0.9C12.2,37,12.6,37,13.6,38.4z M13,36.7L13,36.7c0-0.1,0.1-0.1,0.1-0.1c0.3,0.1,0.2,0.3,0.1,0.8
	H13C13,37.1,13,36.9,13,36.7z M13.3,36.6L13.3,36.6L13.3,36.6c0.1,0.1,0.2,0.1,0.3,0.3c0,0.1,0.1,0.1,0.1,0.2l0,0
	c0.1,0.3,0.1,0.5,0.1,0.8l0,0c0,0.4-0.1,0.5-0.1,0.3c-0.1-0.1-0.2-0.3-0.2-0.4C13.3,37.3,13.3,37,13.3,36.6l0.1,0.1
	C13.3,36.6,13.3,36.6,13.3,36.6C13.2,36.5,13.3,36.6,13.3,36.6L13.3,36.6z M14.5,39L14.5,39c-0.1-0.2-0.3-0.4-0.4-0.6
	c0-0.3,0-0.7,0-1c0.3,0,0.3,0.5,0.2,0.9C14.4,38.3,14.5,38.6,14.5,39z M14.2,34.7L14.2,34.7c0.7-0.3,1.8-0.9,1.5-0.6
	c0,0.2-0.9,0.5-1.3,0.8c-0.3,0.2-0.6,0.3-0.9,0.3C13.3,35.2,13.8,35,14.2,34.7L14.2,34.7z M17,38.6L17,38.6c0.3,0.1,0.5,0.3,0.7,0.6
	c0,0.1-0.1,0.2-0.2,0.3l0,0c-0.1,0.1-0.2,0.1-0.3,0.2c-0.3-0.2-0.5-0.3-0.6-0.7C16.7,38.9,16.8,38.7,17,38.6z M18.1,40.1L18.1,40.1
	c0.1-0.1,0.2-0.2,0.3-0.3l0,0l0,0C18.3,39.9,18.2,40,18.1,40.1c0,0.1-0.1,0.2-0.1,0.3l0,0l0,0C18,40.3,18.1,40.2,18.1,40.1
	L18.1,40.1z M18.7,39.9L18.7,39.9L18.7,39.9c-0.2,0.1-0.3,0.2-0.4,0.3c-0.1,0.1-0.1,0.2-0.1,0.4l0,0l0,0c0-0.2,0.1-0.3,0.2-0.4
	C18.4,40.1,18.5,40,18.7,39.9C18.7,39.9,18.6,39.9,18.7,39.9L18.7,39.9z M18.7,40.1L18.7,40.1c0,0.1-0.1,0.3-0.2,0.4
	c-0.1,0.1-0.2,0.2-0.3,0.3l0,0l0,0c0.1-0.1,0.2-0.2,0.3-0.3C18.6,40.3,18.6,40.2,18.7,40.1L18.7,40.1L18.7,40.1L18.7,40.1z
	 M13.9,40.5L13.9,40.5c0,0,0.1,0,0.1,0l0,0l0,0C14,40.5,14,40.5,13.9,40.5C13.9,40.5,13.9,40.5,13.9,40.5L13.9,40.5L13.9,40.5
	C13.9,40.5,13.9,40.5,13.9,40.5L13.9,40.5z M13.7,40.5L13.7,40.5L13.7,40.5L13.7,40.5c0.1-0.1,0.2-0.1,0.3-0.2c0,0,0,0.1,0,0.1
	C13.9,40.4,13.8,40.4,13.7,40.5L13.7,40.5z M18.3,44.8L18.3,44.8c-0.6-0.4-1.2-0.8-1.7-1.2c0.1,0,0.3,0.1,0.5,0.1
	C17.4,44.1,18.4,44.7,18.3,44.8L18.3,44.8z M18.1,44.4L18.1,44.4c-0.1-0.1-0.2-0.2-0.4-0.3s-0.5-0.4-0.7-0.5h-0.3
	c0-0.1-0.1-0.2-0.4-0.3c0-0.1,0.1-0.1,0.1-0.1c-0.4-0.4-0.8-0.7-1.3-1.1c-0.4-0.3-0.8-0.7-1.2-1h-0.1c-0.2-0.3-0.4-0.6-0.6-0.9
	c0-0.1,0-0.1-0.1-0.2c0,0.3,0,0.6,0.1,0.9c0.1,0.2,0.2,0.4,0.4,0.6l0.1,0.1c0,0,0.1,0.1,0.1,0.1c0.4,0.4,0.8,0.7,1.2,1l0,0
	c0.2,0.3,0.4,0.5,0.6,0.8c0.2,0.2,0.4,0.3,0.5,0.3l0,0c0.2,0.1,0.4,0.1,0.6,0.2c0.2,0.1,0.4,0.3,0.6,0.4l1.2,0.9l0,0l0,0l-1.3-0.9
	c-0.2-0.1-0.4-0.3-0.6-0.4c-0.2-0.1-0.4-0.2-0.6-0.2c-0.2,0-0.4-0.1-0.5-0.3s-0.2-0.3-0.3-0.4c0,0-0.1,0-0.2-0.2
	c-0.3-0.3-0.5-0.5-0.8-0.7c-0.3-0.2-0.5-0.4-0.7-0.6c0,0,0-0.1,0-0.1c-0.3-0.1-0.3-0.3-0.4-0.6c0-0.4,0-0.7,0-1.1l0,0l0,0l0,0
	c0.1,0.3,0.3,0.5,0.5,0.8h0.2c0,0-0.1,0.1,0,0.1s0,0.1,0.1,0.1c0.2,0.2,0.4,0.3,0.6,0.4c0.2,0.2,0.4,0.4,0.6,0.5
	c0.3,0.3,0.6,0.6,1,0.9c0.1,0.1,0.3,0.3,0.5,0.4c0.2,0,0.3,0.1,0.5,0.2h0.1c0.2,0,0.3,0.1,0.3,0.3s-0.1,0.1-0.3,0
	c0.3,0.2,0.5,0.5,0.8,0.5c0,0.1,0,0.1,0,0.2c1.3,0.8,1.4,1.1,1.5,1.3C19,45.1,18.5,44.7,18.1,44.4L18.1,44.4z M19.2,37.5L19.2,37.5
	l0.3-0.6l0.3-0.4c0.3-0.3,0.5-0.6,0.8-0.9c0,0.1,0,0.1,0,0.2c-0.2,0.2-0.4,0.5-0.6,0.8c-0.1,0.2-0.2,0.3-0.3,0.4
	c-0.2,0.3-0.2,0.3-0.4,0.6C19.3,37.7,19.1,37.8,19.2,37.5L19.2,37.5z M19.5,36.3L19.5,36.3c0.2-0.5,0.5-0.9,0.9-1.3
	c0-0.3,0.1-0.7,0.3-1c0.1-0.2,0.3-0.4,0.4-0.6c0.1-0.1,0.2-0.3,0.4-0.4c0.1-0.3,0.1-0.2,0.1,0c-0.2,0.3-0.3,0.7-0.3,1.1
	c0,0.4-0.2,0.7-0.5,0.9c-0.2,0.2-0.5,0.5-0.7,0.8s-0.3,0.3-0.4,0.5S19.2,36.7,19.5,36.3L19.5,36.3z M7.2,42.9L7.2,42.9L7.2,42.9
	c0.9,0.5,2.1,1,3.3,1.6l0,0l0,0l0.1,0.1l0.2,0.3c0-0.1,0.1-0.2,0.1-0.3c0.1-0.1,0.2-0.1,0.3-0.1c0.1,0,0.2,0.1,0.3,0.2
	c0.5,0.5,1.1,0.9,1.7,1.2c0.9,0.5,2,1,3.3,1.6l0,0l0,0l0.1,0.1l0,0.1c0.1-0.2,0.2-0.3,0.4-0.3c0.1,0,0.1,0,0.2,0.1l0,0
	c0.7,0.5,1.4,1,2.1,1.4l0.1,0.1l0.1,0.1l2.5,1.2c0.1-0.6,0-1.2,0-1.8c0-0.5,0.1-1,0.4-1.4c0.1-0.3,0.1-0.8,0.3-1s0.1-0.7,0.3-1.3
	c0,0,0-0.1,0-0.1c0,0.2,0,0.4,0.1,0.4c0,0.1,0,0.1,0,0.2c0.1-0.2,0.2-0.5,0.3-0.7c0,0.1,0.1,0.2,0,0.4c0.1-0.2,0.2-0.4,0.2-0.5
	c0,0-0.1-0.1-0.1,0c0,0-0.1-0.1-0.1-0.1l0,0c-0.8-1.3-2-2.3-3.3-3c-0.5-0.2-1-0.5-1.5-0.9c-0.1,0.1-0.1,0.2-0.3,0.3l0,0
	c-0.1,0-0.2,0-0.3,0l0,0c0.1-0.1,0.2-0.2,0.3-0.3l0,0l0.2-0.1c0-0.1,0-0.2,0-0.3L18,39.3c0,0.1,0,0.3,0,0.4h-0.3
	c-0.1,0.1-0.2,0.1-0.3,0.2c0.1-0.1,0.1-0.2,0.2-0.3c0-0.1,0-0.2,0-0.4c0,0,0-0.1,0.1-0.1H18l-0.1-0.1c0-0.2,0-0.3-0.1-0.5
	c-0.1-0.1-0.3-0.2-0.4-0.3c-0.1-0.1-0.3-0.1-0.4-0.1c-0.2,0-0.3,0.1-0.4,0.3c0,0-0.1,0-0.1,0c0,0,0,0,0,0c0.1-0.1,0.3-0.2,0.5-0.3
	c0.2,0,0.3,0,0.5,0.1c0.3,0.2,0.6,0.4,0.9,0.6c0.2,0.2,0.5,0.4,0.7,0.6l1.3,0.8c0.4,0.1,0.9,0.3,1.3,0.5c0.4,0.2,0.7,0.4,1,0.7
	c0.2,0.2,0.3,0.3,0.5,0.5c0.1-0.1,0.2-0.1,0.3-0.2l0.1-0.1l0.2-0.3l0,0l0,0c0.1,0,0.2,0.1,0.3,0.2l0,0v-1l0,0l0,0l0,0v-0.7
	c0,0,0-0.1,0-0.2L23.4,40l0.6-0.4v-0.3h0v-0.1l0,0v-0.5l0,0l0,0l0,0c0,0,0-0.1,0-0.2c0-0.1,0-0.1,0-0.2v-0.2c0-0.1,0-0.2,0-0.3l0,0
	v-0.4V37l0,0c0-0.2,0-0.3,0-0.6s0-0.2,0-0.3c-0.1,0.2-0.3,0.5-0.4,0.7c0,0.1,0,0.1,0,0.2c0,0.2,0,0.5,0,0.7c0,0.4,0,0.9-0.1,1.3
	c-0.1,0.4-0.1,1.2-0.2,1.5s-0.1,0.2-0.1-0.2s0-0.3,0-0.7s-0.1-0.3-0.2-0.8c-0.1-0.5-0.1-0.9,0-1.4c0.1-1,0.4-2.1,0.5-2.9
	c0-0.1-0.1-0.2-0.2,0.1s-0.4,0.8-0.6,1.2c-0.1,0.2-0.1,0.4-0.2,0.6s-0.2,0.4-0.3,0.6c-0.1,0.2-0.2,0.4-0.3,0.5
	c-0.1,0.4-0.2,0.4-0.1,0.1c0.2-1.2,0.4-2.1,0.7-3.2c0-0.5,0.1-1,0.3-1.4c0.1-0.2,0-0.3-0.1-0.1c-0.3,0.5-0.6,1-0.9,1.5
	c-0.2,0.2-0.1,0.1,0-0.3c0-0.2,0.1-0.4,0.1-0.6c0-0.1,0-0.3,0.1-0.4c0.1-0.1,0.2-0.2,0.2-0.4c0-0.1,0-0.1,0.1-0.2
	c0-0.2,0.1-0.4,0.2-0.6c0.1-0.1-0.2-0.1-0.3,0.2c-0.1,0.1-0.3,0.3-0.5,0.4c-0.5,0.3-1,0.7-1.4,1.1c-0.7,0.9-1.6,1.7-2.5,2.3
	c0.2-0.4,0.5-0.7,0.8-1.1c0.5-0.5,1-1.1,1.4-1.7c0.7-0.6,1.2-1.1,1.9-1.7c0.1-0.1-0.1-0.1-0.3,0.1c-0.6,0.5-1.3,0.9-1.9,1.2
	c-0.5,0.3-0.9,0.7-1.4,1.1c-1,0.7-2.1,1.3-3.1,2c-0.4,0.2-0.3,0.1-0.1,0c0.4-0.4,0.7-0.6,1.2-1c0.1-0.1,0.2-0.2,0.4-0.3
	c0.5-0.5,1-1,1.5-1.5l1.1-0.9c0.6-0.4,1.2-0.8,1.8-1.2c-0.7,0.3-1.4,0.7-2,1.1c-0.1,0.1-0.2,0-0.3,0.1c-0.4,0.3-1,0.7-1.4,0.9
	c-0.1,0-0.1-0.1-0.1-0.2c-0.7,0.5-1.3,0.8-2,1.3c-0.2,0.1-0.4,0.2-0.5,0.1c0.4-0.3,0.8-0.5,1.3-0.8s1-0.8,1.5-1.2
	c0.3-0.2,0.6-0.4,0.9-0.6C17.4,32,16.7,32.4,16,33c-0.1,0-0.1,0,0-0.2l1.2-0.8c0.4-0.1,0.8-0.4,1.2-0.5s0.7-0.4,1-0.6l0.7-0.3
	c0-0.1,0.2-0.1,0.2-0.2c1-0.5,1.8-0.9,2.7-1.4c0.2-0.1,0.4-0.3,0.6-0.5c0.2-0.2,0.3-0.3,0.5-0.5V28v-0.2H24c-0.5,0.6-1,1-1.7,1.4
	c-1.1,0.5-3.2,1.6-4.4,2.1c-0.6,0.2-3.7,2.1-6.4,3.3c-1.6,0.7-3.3,1.3-4.9,1.8L2.8,18.8l22.1-4.8l22.4,4.6l-4,18.6
	c-2.2-0.5-4.4-1.3-6.5-2.2c-1.5-0.8-3.2-1.5-4-2c-0.9-0.6-1.8-1.1-2.8-1.6c-0.9-0.3-1.6-0.8-2.2-1.5c-0.3-0.3-0.5-0.6-0.7-0.9
	L27,29.2c0.1,0.1,0.1,0.2,0.1,0.4c0.3,0.4,0.6,0.8,1.1,1c0.1,0,0.1,0.1,0.2,0.1c0.1,0.1,0.3,0.3,0.4,0.4c0.2,0.2,0.4,0.4,0.7,0.5
	c0.4,0.1,0.8,0.3,1.1,0.5c0.6,0.4,1.2,0.8,1.8,1.1c0.4,0.2,0.8,0.4,1.1,0.6c0.1,0.1,0.3,0.2,0.5,0.3c0.6,0.4,1.2,0.7,1.9,0.9
	c0.3,0.2,0.5,0.3,0.6,0.4c0,0.2,0.1,0.3,0.3,0.4c-0.4-0.1-0.3-0.1-1-0.3c-0.1-0.1-0.2-0.2-0.3-0.2c-0.3-0.1-0.6-0.2-0.9-0.5
	c-0.2-0.2-0.4-0.3-0.7-0.4c0,0,0,0,0,0.1c0.1,0.3,0.5,0.7,0.8,0.9c-0.2-0.1-0.4-0.2-0.6-0.3c-0.2-0.1-0.5,0-0.8-0.4
	c-0.1,0-0.1-0.1-0.2-0.1c-0.2-0.2-0.2,0-0.2,0.1s0.2,0.3,0.3,0.5c0.3,0,0.7,0.8,0.3,0.6c-0.4-0.1-0.7-0.4-1-0.7
	c-0.4-0.3-0.6-0.5-1-0.8c-0.3-0.2-0.5-0.4-0.7-0.7c-0.2-0.2-0.2,0-0.2,0.2c0.5,0.6,1,1.2,1.5,1.8c0.3,0.3,0.5,0.7,0.8,1l0.5,0.5
	c-0.1,0.1-0.6-0.3-1-0.6c-0.2-0.2-0.4-0.3-0.5-0.3c0.3,0.4,0.4,0.8,0.5,1.3c0.2,0.4,0.6,1,0.3,0.9s-0.2-0.1-0.3-0.3
	c-0.4-0.3-0.9-0.7-1.2-1.1c-0.3-0.2-0.5-0.5-0.8-0.7C30.2,36,30,36,29.7,35.9c0.4,0.4,0.7,0.8,0.9,1.3c0.2,0.3,0.4,0.5,0.6,0.8
	c0,0.2,0,0.2-0.2,0.1c-0.2-0.3-0.5-0.5-0.7-0.7c-0.3-0.5-0.8-1.3-0.7-0.8s0.1,0.5,0.2,0.9c0,0.1,0.1,0.3,0.1,0.4
	c0.2,0.3,0.2,0.3,0,0.3c0,0.3,0,0.5-0.1,0.3c-0.1-0.2-0.1-0.4-0.2-0.5v-0.1c0,0,0,0,0-0.1c-0.1-0.1-0.2-0.2-0.3-0.3l0,0
	c0,0,0,0-0.1-0.1c-0.2-0.2-0.4-0.4-0.4-0.6c-0.1-0.2-0.2-0.4-0.3-0.6c0-0.1-0.1-0.2-0.1-0.3l0,0c-0.2-0.1-0.3-0.3-0.4-0.5
	c-0.1-0.2-0.2-0.3-0.2-0.1c0,0.4,0.1,0.7,0.1,1s0,0.7,0,1.1c0,0.2,0,0.3,0,0.5s-0.1,0.2-0.2,0.1c-0.1-0.3-0.2-0.6-0.3-0.9
	c-0.2-0.3-0.3-0.7-0.3-1c0-0.2-0.1-0.5-0.1-0.7s-0.1-0.2-0.2,0.2c0,0.3,0,0.7,0,1c0,0.3,0,0.6,0,0.9s0,0.4,0,0.7s0,0.5-0.1,0.1
	c-0.1-0.2-0.2-0.5-0.1-0.8c0-0.1,0-0.2-0.1-0.3c0-0.1-0.1-0.2-0.2-0.3c0-0.2-0.1-0.4-0.2-0.5c-0.1-0.2-0.2-0.4-0.3-0.5
	c-0.1-0.3-0.2-0.6-0.1-0.7s-0.1,0-0.1,0v0c0,0.2,0,0.4,0,0.6c0,0.2,0,0.3,0,0.5l0.4,0.3h-0.3c0,0.1,0,0.3,0,0.4l0,0c0,0,0,0.1,0,0.1
	c0,0.1,0.1,0.2,0.1,0.4l0,0l0,0c0,0.1,0,0.2,0,0.3v0.1c0,0,0,0.1,0,0.1l0,0l0,0c0,0,0,0.1,0,0.1c0,0.1,0,0.2-0.1,0.3
	c0,0.1,0,0.2,0.1,0.3l0,0c0,0.2,0,0.5,0,0.7c0,0.1,0,0.1,0,0.2c0,0.1,0,0.2-0.1,0.3v0.9h0.2L26,41.2v0.3v0.1v0h0.1c0,0,0,0,0.1,0
	h0.1h0.1l-0.2,0.2l-0.3,0.3v0.1l0.2-0.2l0,0l0.3-0.3l0.1,0.1l0,0l-0.1,0.9c0.1-0.1,0.2-0.3,0.3-0.4c0.2-0.2,0.4-0.5,0.6-0.7
	c0.3-0.3,0.6-0.5,1-0.7c0.4-0.2,0.8-0.4,1.3-0.5l1.4-0.8c0.2-0.2,0.5-0.4,0.7-0.6c0.3-0.2,0.6-0.4,0.9-0.6c0.1-0.1,0.3-0.1,0.5-0.1
	c0.2,0,0.3,0.1,0.4,0.3l0,0l0,0c-0.1-0.1-0.2-0.2-0.4-0.2c-0.1,0-0.3,0-0.4,0.1l-0.4,0.3c-0.1,0.2-0.2,0.4-0.1,0.5L32,39.3h0.1
	l0.1,0.1c0,0.1,0,0.2,0,0.4c0.1,0.1,0.2,0.2,0.2,0.3L32,39.9h-0.3c0-0.1,0-0.2,0-0.4L31.2,40c0,0.1,0,0.2,0,0.3
	c0.1,0,0.1,0.1,0.2,0.1l0,0c0.1,0.1,0.2,0.2,0.3,0.3l0,0c-0.1,0-0.2,0-0.3,0l0,0c-0.1-0.1-0.2-0.2-0.2-0.3c-0.5,0.4-1,0.6-1.5,0.9
	c-1.4,0.7-2.5,1.7-3.3,3l-0.1-0.2l0,0c0.1,0.5,0.2,1,0.3,1.5c0.2,0.5,0.3,0.8,0.5,1.2c0.3,0.8,0.5,1.7,0.6,2.5
	c0,0.2,0.1,0.5,0.1,0.8l1-0.5h0.1c0.3-0.2,0.6-0.3,1-0.5c0.9-0.5,1.8-1,2.6-1.6c0.1,0,0.1-0.1,0.2-0.1c0.2,0,0.3,0.1,0.4,0.3
	l0.1-0.1l0,0l0.1-0.1c1.3-0.6,2.4-1.2,3.3-1.6c0.6-0.3,1.2-0.7,1.7-1.2c0.1-0.1,0.2-0.2,0.3-0.2c0.2,0,0.4,0.2,0.4,0.4
	c0,0,0,0,0,0.1c0.1-0.2,0.2-0.3,0.3-0.4l0,0l0.1-0.1c1.3-0.6,2.4-1.2,3.3-1.6l0.3-0.2l5.3-24.5l-10.7-2.4c1.1-0.2,2.1-0.5,2.9-0.6
	c-1.4-0.1-2.7-0.8-5-0.6c0-0.6-0.2-1.2-0.4-1.8c0.8-0.5,1.7-0.8,2.5-1.2c-0.9,0.2-1.8,0.3-2.7,0.5c-0.2-0.7-0.5-1.4-0.9-2
	c0.7-0.6,1.4-1.2,2.1-1.8c-0.8,0.4-1.6,0.8-2.4,1.2c-0.4-0.5-0.6-0.8-1-1.2c2.1-1.8,1-2.4,3-3.9c-1.4,0.2-2.5,1.1-3.2,2.3
	c-0.3,0.2-0.5,0.4-0.8,0.6c-0.4-0.4-0.8-0.7-1.3-0.9C30.6,5.6,31,4.8,31.3,4c-0.5,0.7-1,1.4-1.6,2c-0.6-0.3-1.2-0.5-1.9-0.7
	c0.1-0.8,0.2-1.7,0.4-2.6c-0.3,0.8-0.7,1.5-1,2.3c-0.5-0.1-1-0.2-1.5-0.2c0-1-0.2-2.1-0.6-3C24.9,1.2,24.9,0.6,25,0
	c-1.4,2.5-0.5,2.9-0.8,4.8C23.6,4.9,23,5,22.4,5.2c-0.3-0.9-0.6-1.6-0.9-2.5c0,0.9,0.2,1.8,0.2,2.7c-0.7,0.2-1.3,0.4-1.9,0.8
	c-0.6-0.7-1.1-1.5-1.7-2.2c0.3,0.9,0.7,1.8,1,2.7c-0.4,0.3-0.7,0.6-1,1c-1.9-2.4-2.4-1.4-3.8-2.9c0.5,2.5,1.9,2.5,2.8,3.8
	C16.8,9,16.4,9.5,16.1,10c-0.8-0.3-1.7-0.6-2.5-0.9c0.7,0.5,1.4,1,2.1,1.5c-0.3,0.6-0.6,1.2-0.8,1.9l-2.7-0.3l2.6,0.9
	c-0.1,0.5-0.2,1.1-0.2,1.6c-1.9-0.6-3.1,0.6-4.8,0.7c0.9,0.2,1.8,0.2,2.7,0.4c0,0,0,0.1,0,0.1L1.9,18.1L7.2,42.9z M13.1,39.7
	L13.1,39.7c0,0,0,0.1,0,0.1C13.1,39.9,13.1,39.8,13.1,39.7L13.1,39.7z M28.4,20.5L28.4,20.5c0,0-0.1,0-0.2,0
	C28.3,20.5,28.4,20.5,28.4,20.5z M25.1,51.9L25.1,51.9c0.2-0.6,0.2-1.2,0.2-1.8c0-0.4,0.2-0.9,0-1.2c0,0.1,0,0.3-0.1,0.4
	c-0.1-0.2-0.1-0.5-0.1-0.7c0-0.3,0.3-0.7,0.1-1c0,0.1-0.1,0.1-0.1,0.2c0-0.3,0.2-0.9,0-1.1c0,0,0,0.1,0,0.1c0-0.3,0-0.6,0.2-0.9
	c0,0,0.1,0.1,0.1,0.2c0-0.2,0.1-0.1,0.2-0.2c0,0.1,0,0.2,0,0.2c0.2-0.7,0.1-1.4-0.1-2c0.1,0.4,0,0.8-0.1,1.2c0-0.6,0-1.1-0.2-1.6
	c-0.1,0.7-0.2,1.5-0.3,2.2c-0.1-0.2,0.1-0.6,0-0.8c-0.1-0.3-0.1-0.7-0.1-1c0,0.2-0.2,0.4-0.2,0.6s0,0.6,0,0.8c0,0.5-0.3,0.9-0.4,1.3
	c0,0.2,0,0.5-0.1,0.7c-0.1-0.1-0.1-0.2-0.2-0.4c0,0.3,0,0.5,0,0.8c-0.1,0.2-0.1,0.4-0.2,0.6c0,0.3,0.1,0.5,0.2,0.8
	c0.2-0.2,0-0.5,0.2-0.8c0,0.4,0,0.8,0,1.2c0,0.4,0.1,0.8,0.1,1.2c0,0.7,0.1,1.4,0.3,2.1l-0.1-0.2L23.9,52V52c0-0.1-0.1-0.2-0.1-0.2
	l-0.3-0.5l-3.9-1.9l-0.1-0.2c-0.8-0.4-1.5-0.9-2.2-1.4c0,0-0.1,0-0.1,0c0,0,0,0,0,0.1c0.3,0.4,0.6,0.8,0.9,1.3s0.6,0.9,0.9,1.3
	l5.8,2.7l0-0.1h0.1c0.3-0.6-0.2-1.2,0.3-1.8C25.1,51.6,25.1,51.7,25.1,51.9z M10.4,44.9L10.4,44.9L10.4,44.9
	c-1.3-0.6-2.4-1.2-3.3-1.7c-0.7-0.3-1.3-0.7-1.8-1.3c0,0-0.1,0-0.1,0.1c0.1,0.3,0.3,0.5,0.4,0.8C6,43.7,6.5,44.4,7.3,45
	c0.8,0.4,1.5,0.7,2.3,1.1l2.3,1c0,0,0.1,0,0.1,0c0,0,0,0,0-0.1c-0.3-0.3-0.5-0.7-0.8-1.1S10.7,45.2,10.4,44.9L10.4,44.9z M23.4,29.6
	L23.4,29.6l0.1-0.1l0.1,0l0.2-0.3c0-0.1,0.1-0.2,0.2-0.2c0,0,0,0,0,0l0,0l-0.3,0.3l-0.1,0.1l-0.5,0.4c-0.3,0.4-0.3,0.4,0,0.2
	C23.2,29.8,23.3,29.7,23.4,29.6L23.4,29.6z M23.8,23.1L23.8,23.1l-0.1,0c-0.1,0.1-0.3,0.2-0.5,0.4C23.4,23.4,23.6,23.2,23.8,23.1
	L23.8,23.1z M24.6,19L24.6,19c0,0,0,0.1,0,0.1S24.6,19,24.6,19z M23.3,32.2L23.3,32.2l0.2-0.2h0.1c0.1,0,0.2,0,0.3,0l0.1,0.1
	c0-0.1,0-0.1,0-0.2c0-0.1,0-0.2,0-0.3s0,0,0-0.1c0,0-0.1,0.1-0.1,0.1c-0.1,0.1-0.1,0.1-0.2-0.1s0-0.3,0.1-0.5s-0.1-0.2-0.2,0
	c0,0,0,0,0,0c-0.1,0.2-0.2,0.4-0.2,0.6c-0.1,0-0.1,0.1-0.2,0.3S23.1,32.4,23.3,32.2z M23.7,43.1L23.7,43.1c0,0,0.1,0.1,0.1,0.1
	c0.1-0.1,0.2-0.1,0.2-0.2c0.1,0,0.2-0.1,0.3-0.2c0-0.1,0-0.1,0-0.2h0.1c0-0.1,0-0.2-0.1-0.3h0.2h0.1v-0.1h-0.4
	c-0.1,0.1-0.1,0.2-0.1,0.3c-0.1,0-0.1,0.1-0.2,0.1c-0.2-0.2-0.4-0.4-0.5-0.6l0.3,0.8C23.8,42.9,23.8,43,23.7,43.1z M23.2,48.9
	L23.2,48.9c0.1-0.4,0.1-0.8,0-1.2c0,0.2-0.1,0.4-0.1,0.6c0-0.1-0.1-0.2-0.1-0.3h-0.1c0,0.4,0.2,0.8,0.2,1.3c0,0.3,0,0.5,0.1,0.8
	C23.1,49.7,23.2,49.3,23.2,48.9z M23.6,51L23.6,51l0.2,0.2c0-0.2,0-0.4,0-0.6c0-0.3,0.1-0.8-0.1-1.1v-0.1
	C23.7,49.9,23.6,50.4,23.6,51L23.6,51z"/>
<path class="st0" d="M191.9,17.1l-0.4-4.2l-1.9,4.2h-0.3l-2.1-4.2l-0.4,4.2h-0.5l0.6-5.5h0.4l2.2,4.5l2.1-4.5h0.4l0.6,5.5H191.9z"/>
<path class="st0" d="M193.8,17.1v-5.5h0.7v5.5L193.8,17.1z"/>
<path class="st0" d="M200.2,17.1l-3.9-4.3l0,0c0,0.4,0,0.8,0,1.1c0,0.1,0,0.3,0,0.4s0,0.3,0,0.4s0,0.2,0,0.3s0,0.1,0,0.2v1.8h-0.5
	v-5.5h0.3l3.9,4.3l0,0c0-0.4,0-0.7,0-1c0-0.1,0-0.3,0-0.4c0-0.1,0-0.3,0-0.4s0-0.2,0-0.3v-2h0.5v5.5L200.2,17.1z"/>
<path class="st0" d="M201.9,17.1v-5.5h0.7v5.5L201.9,17.1z"/>
<path class="st0" d="M207,15.5c0,0.2,0,0.4-0.1,0.6c-0.1,0.2-0.2,0.4-0.4,0.5c-0.2,0.2-0.4,0.3-0.6,0.4c-0.3,0.1-0.5,0.1-0.8,0.1
	c-0.3,0-0.6,0-0.8-0.1c-0.2-0.1-0.5-0.2-0.7-0.3l0.3-0.6l0.3,0.2l0.4,0.2l0.4,0.1c0.1,0,0.3,0,0.4,0c0.1,0,0.3,0,0.4,0
	c0.1,0,0.2-0.1,0.3-0.1l0.1-0.1c0,0,0.1-0.1,0.1-0.1c0-0.1,0.1-0.2,0.1-0.2c0-0.1,0-0.2,0-0.3c0-0.2,0-0.3-0.1-0.4
	c-0.1-0.1-0.1-0.2-0.2-0.3c-0.1-0.1-0.3-0.2-0.4-0.2l-0.5-0.2l-0.5-0.2c-0.2-0.1-0.3-0.2-0.4-0.3c-0.1-0.1-0.2-0.3-0.3-0.4
	c-0.1-0.2-0.1-0.4-0.1-0.6c0-0.2,0-0.4,0.1-0.5c0.1-0.2,0.2-0.3,0.3-0.5c0.2-0.1,0.3-0.3,0.6-0.3c0.2-0.1,0.5-0.1,0.7-0.1
	c0.2,0,0.4,0,0.6,0l0.6,0.1l-0.2,0.6c-0.2-0.1-0.4-0.1-0.6-0.2c-0.2-0.1-0.4-0.1-0.6-0.1c-0.1,0-0.3,0-0.4,0c-0.1,0-0.2,0-0.3,0.1
	c-0.1,0.1-0.1,0.1-0.2,0.2c-0.1,0.1-0.1,0.3-0.1,0.4c0,0.1,0,0.3,0.1,0.4c0.1,0.1,0.2,0.2,0.3,0.3c0.1,0.1,0.3,0.2,0.4,0.2l0.5,0.2
	c0.2,0.1,0.3,0.1,0.5,0.2c0.2,0.1,0.3,0.2,0.4,0.3c0.1,0.1,0.2,0.3,0.3,0.4C207,15.1,207,15.3,207,15.5z"/>
<path class="st0" d="M209.1,17.1v-5.1h-1.7l0.1-0.4h4.1l-0.1,0.4h-1.6v5.1L209.1,17.1z"/>
<path class="st0" d="M215.3,17.1h-2.9v-5.5h2.8l-0.1,0.4h-2v2h1.9l-0.1,0.4h-1.8v2.4h2.2L215.3,17.1z"/>
<path class="st0" d="M217.8,14.8H217v2.3h-0.7v-5.5h0.7h0.8c0.3,0,0.6,0,0.8,0.1c0.2,0.1,0.4,0.2,0.6,0.3c0.2,0.1,0.3,0.3,0.3,0.5
	c0.1,0.2,0.1,0.4,0.1,0.6c0,0.2,0,0.4-0.1,0.6c-0.1,0.2-0.1,0.3-0.3,0.5c-0.1,0.1-0.2,0.2-0.4,0.3c-0.1,0.1-0.3,0.2-0.4,0.2l0.5,0.8
	c0.1,0.2,0.3,0.5,0.5,0.7c0.1,0.2,0.3,0.3,0.5,0.5c0.1,0.1,0.3,0.2,0.5,0.2h0.1v0.2c-0.1,0-0.2,0.1-0.3,0.1h-0.4
	c-0.2,0-0.3,0-0.4-0.1c-0.1-0.1-0.3-0.2-0.4-0.3c-0.1-0.2-0.3-0.4-0.4-0.5c-0.1-0.2-0.3-0.5-0.5-0.9L217.8,14.8z M217.3,14.4
	c0.3,0,0.5,0,0.8-0.1c0.2,0,0.3-0.1,0.5-0.2c0.1,0,0.1-0.1,0.1-0.1c0-0.1,0.1-0.1,0.1-0.2c0-0.1,0.1-0.2,0.1-0.3c0-0.1,0-0.3,0-0.4
	c0-0.2,0-0.4-0.1-0.5c-0.1-0.1-0.1-0.3-0.3-0.4c-0.1-0.1-0.3-0.2-0.4-0.2c-0.2,0-0.4-0.1-0.6-0.1h-0.3l-0.3,0v2.4H217.3z"/>
<path class="st0" d="M221.2,17.1v-5.5h0.7v5.5L221.2,17.1z"/>
<path class="st0" d="M228.3,14.4c0,0.4-0.1,0.8-0.2,1.2c-0.1,0.3-0.3,0.6-0.5,0.9c-0.2,0.3-0.5,0.4-0.8,0.6
	c-0.4,0.1-0.8,0.2-1.2,0.2c-0.4,0-0.8-0.1-1.2-0.2c-0.3-0.1-0.6-0.3-0.8-0.6c-0.2-0.3-0.4-0.6-0.5-0.9c-0.1-0.4-0.2-0.8-0.1-1.2
	c0-0.4,0-0.8,0.1-1.2c0.1-0.3,0.3-0.6,0.5-0.9c0.2-0.2,0.5-0.4,0.8-0.6c0.4-0.1,0.8-0.2,1.2-0.2c0.4,0,0.8,0.1,1.2,0.2
	c0.3,0.1,0.6,0.3,0.8,0.6c0.2,0.3,0.4,0.5,0.5,0.9C228.3,13.6,228.3,14,228.3,14.4z M227.5,14.4c0-0.3,0-0.7-0.1-1
	c-0.1-0.3-0.2-0.5-0.3-0.7c-0.2-0.2-0.4-0.4-0.6-0.5c-0.3-0.1-0.6-0.2-0.8-0.2c-0.3,0-0.5,0-0.8,0.1c-0.2,0-0.4,0.1-0.6,0.3
	c-0.1,0.1-0.2,0.2-0.2,0.3c-0.1,0.1-0.1,0.3-0.1,0.5c0,0.2-0.1,0.4-0.1,0.6c0,0.2,0,0.4,0,0.6c0,0.3,0,0.7,0.1,1
	c0,0.3,0.1,0.5,0.3,0.8c0.1,0.2,0.3,0.4,0.5,0.5c0.3,0.1,0.6,0.2,0.9,0.2c0.3,0,0.6,0,0.8-0.1c0.2-0.1,0.4-0.2,0.6-0.3
	c0.1-0.1,0.2-0.2,0.2-0.3c0.1-0.2,0.1-0.3,0.1-0.5c0-0.2,0.1-0.4,0.1-0.6C227.5,14.8,227.5,14.6,227.5,14.4L227.5,14.4z"/>
<path class="st0" d="M231.2,11.7h0.4h0.5h0.5h0.5c0.4,0,0.8,0,1.1,0.2c0.3,0.1,0.6,0.3,0.9,0.5c0.2,0.2,0.4,0.5,0.6,0.8
	c0.1,0.4,0.2,0.8,0.2,1.1c0,0.4-0.1,0.8-0.2,1.2c-0.1,0.4-0.3,0.7-0.6,1c-0.3,0.3-0.6,0.5-0.9,0.6c-0.4,0.2-0.8,0.2-1.3,0.2H232
	l-0.8-0.1L231.2,11.7z M231.9,16.7h0.4h0.5c0.3,0,0.6,0,0.9-0.1c0.2,0,0.5-0.1,0.7-0.3c0.1-0.1,0.2-0.2,0.3-0.3
	c0.1-0.1,0.2-0.3,0.2-0.4c0.1-0.2,0.1-0.4,0.2-0.6c0-0.3,0.1-0.6,0.1-0.9c0-0.4-0.1-0.7-0.2-1.1c-0.1-0.3-0.3-0.5-0.5-0.7
	c-0.2-0.2-0.5-0.3-0.7-0.4c-0.3-0.1-0.6-0.1-0.8-0.1h-0.5h-0.2h-0.2L231.9,16.7z"/>
<path class="st0" d="M240,17.1h-3v-5.5h2.8l-0.1,0.4h-2v2h1.9l-0.1,0.4h-1.8v2.4h2.2V17.1z"/>
<path class="st0" d="M189.5,23.5c0,0.2,0,0.4-0.1,0.6c-0.1,0.2-0.2,0.4-0.4,0.5c-0.2,0.2-0.4,0.3-0.6,0.4c-0.3,0.1-0.5,0.1-0.8,0.1
	c-0.3,0-0.6,0-0.8-0.1c-0.2-0.1-0.5-0.2-0.7-0.3l0.3-0.6l0.3,0.2l0.4,0.2l0.4,0.1c0.1,0,0.3,0,0.4,0c0.1,0,0.3,0,0.4,0
	c0.1,0,0.2-0.1,0.3-0.1l0.1-0.1c0,0,0.1-0.1,0.1-0.1c0-0.1,0.1-0.2,0.1-0.2c0-0.1,0-0.2,0-0.3c0-0.2,0-0.3-0.1-0.4
	c-0.1-0.1-0.2-0.2-0.3-0.3c-0.1-0.1-0.3-0.2-0.4-0.2l-0.5-0.2l-0.5-0.2c-0.2-0.1-0.3-0.2-0.4-0.3c-0.1-0.1-0.2-0.3-0.3-0.4
	c-0.1-0.2-0.1-0.4-0.1-0.6c0-0.2,0-0.4,0.1-0.5c0.1-0.2,0.2-0.3,0.3-0.5c0.2-0.1,0.3-0.3,0.6-0.3c0.2-0.1,0.5-0.1,0.7-0.1
	c0.2,0,0.4,0,0.6,0l0.6,0.1l-0.2,0.6c-0.2-0.1-0.4-0.1-0.6-0.2c-0.2-0.1-0.4-0.1-0.6-0.1c-0.1,0-0.3,0-0.4,0c-0.1,0-0.2,0-0.3,0.1
	c-0.1,0.1-0.1,0.1-0.2,0.2c-0.1,0.1-0.1,0.3-0.1,0.4c0,0.1,0,0.3,0.1,0.4c0.1,0.1,0.2,0.2,0.3,0.3c0.1,0.1,0.3,0.2,0.4,0.2l0.5,0.2
	c0.2,0.1,0.3,0.1,0.5,0.2c0.2,0.1,0.3,0.2,0.4,0.3c0.1,0.1,0.2,0.3,0.3,0.4C189.4,23.1,189.5,23.3,189.5,23.5z"/>
<path class="st0" d="M193.9,25.1l-0.7-2h-2.1l-0.7,2h-0.6l2.1-5.4l0.6-0.2l2,5.6L193.9,25.1z M193.1,22.8l-0.9-2.6l-1,2.6H193.1z"/>
<path class="st0" d="M195.4,25.1v-5.5h0.7v5.1h2.1l-0.1,0.4H195.4z"/>
<path class="st0" d="M203.4,24c-0.1,0.2-0.2,0.5-0.4,0.6c-0.2,0.2-0.4,0.3-0.7,0.4c-0.3,0.1-0.7,0.2-1,0.2c-0.3,0-0.6,0-0.8-0.1
	c-0.2-0.1-0.4-0.2-0.6-0.3c-0.2-0.2-0.3-0.4-0.4-0.6c-0.1-0.3-0.1-0.6-0.1-0.9v-3.6h0.8v3.7c0,0.2,0,0.5,0.1,0.7
	c0,0.2,0.1,0.3,0.3,0.4c0.1,0.1,0.3,0.2,0.4,0.2c0.2,0,0.4,0.1,0.6,0.1c0.2,0,0.5,0,0.7-0.1c0.2,0,0.3-0.1,0.5-0.3
	c0.1-0.1,0.2-0.3,0.2-0.4c0-0.2,0.1-0.4,0.1-0.6v-3.7h0.7v3.5C203.5,23.5,203.5,23.7,203.4,24z"/>
<path class="st0" d="M204.9,19.7h0.4h0.5h0.5h0.5c0.4,0,0.8,0,1.1,0.2c0.3,0.1,0.6,0.3,0.9,0.5c0.2,0.2,0.4,0.5,0.6,0.8
	c0.1,0.4,0.2,0.8,0.2,1.1c0,0.4-0.1,0.8-0.2,1.2c-0.1,0.4-0.3,0.7-0.6,1c-0.3,0.3-0.6,0.5-0.9,0.6c-0.4,0.2-0.8,0.2-1.3,0.2h-0.9
	l-0.8-0.1L204.9,19.7z M205.6,24.7h0.4h0.5c0.3,0,0.6,0,0.9-0.1c0.2,0,0.5-0.1,0.7-0.3c0.1-0.1,0.2-0.2,0.3-0.3
	c0.1-0.1,0.2-0.3,0.2-0.4c0.1-0.2,0.1-0.4,0.2-0.6c0-0.3,0.1-0.6,0.1-0.9c0-0.4-0.1-0.7-0.2-1.1c-0.1-0.3-0.3-0.5-0.5-0.7
	c-0.2-0.2-0.5-0.3-0.7-0.4c-0.3-0.1-0.6-0.1-0.8-0.1H206h-0.2h-0.2L205.6,24.7z"/>
<path class="st0" d="M214.3,25.1h-0.7V23l-1.9-3.4h0.8l1.5,2.9l1.4-2.9h0.5l-1.7,3.4V25.1z"/>
<path class="st0" d="M218.5,19.7h0.4h0.5h0.5h0.5c0.4,0,0.8,0,1.1,0.2c0.3,0.1,0.6,0.3,0.9,0.5c0.2,0.2,0.4,0.5,0.6,0.8
	c0.1,0.4,0.2,0.8,0.2,1.1c0,0.4-0.1,0.8-0.2,1.2c-0.1,0.4-0.3,0.7-0.6,1c-0.3,0.3-0.6,0.5-0.9,0.6c-0.4,0.2-0.8,0.2-1.3,0.2h-0.9
	l-0.8-0.1L218.5,19.7z M219.2,24.7h0.4h0.5c0.3,0,0.6,0,0.9-0.1c0.2,0,0.5-0.1,0.7-0.3c0.1-0.1,0.2-0.2,0.3-0.3
	c0.1-0.1,0.2-0.3,0.2-0.4c0.1-0.2,0.1-0.4,0.2-0.6c0-0.3,0.1-0.6,0.1-0.9c0-0.4-0.1-0.7-0.2-1.1c-0.1-0.3-0.3-0.5-0.5-0.7
	c-0.2-0.2-0.5-0.3-0.7-0.4c-0.3-0.1-0.6-0.1-0.8-0.1h-0.5h-0.2h-0.2L219.2,24.7z"/>
<path class="st0" d="M227.2,25.1h-2.9v-5.5h2.8l-0.1,0.4h-2v2h1.9l-0.1,0.4h-1.8v2.4h2.2L227.2,25.1z"/>
<path class="st0" d="M231.3,23.5c0,0.2,0,0.4-0.1,0.6c-0.1,0.2-0.2,0.4-0.4,0.5c-0.2,0.2-0.4,0.3-0.6,0.4c-0.3,0.1-0.5,0.1-0.8,0.1
	c-0.3,0-0.6,0-0.8-0.1c-0.2-0.1-0.5-0.2-0.7-0.3l0.3-0.6l0.3,0.2l0.4,0.2l0.4,0.1c0.1,0,0.3,0,0.4,0c0.1,0,0.3,0,0.4,0
	c0.1,0,0.2-0.1,0.3-0.1l0.1-0.1c0,0,0.1-0.1,0.1-0.1c0-0.1,0.1-0.2,0.1-0.2c0-0.1,0-0.2,0-0.3c0-0.2,0-0.3-0.1-0.4
	c-0.1-0.1-0.2-0.2-0.3-0.3c-0.1-0.1-0.3-0.2-0.4-0.2l-0.5-0.2l-0.5-0.2c-0.2-0.1-0.3-0.2-0.4-0.3c-0.1-0.1-0.2-0.3-0.3-0.4
	c-0.1-0.2-0.1-0.4-0.1-0.6c0-0.2,0-0.4,0.1-0.5c0.1-0.2,0.2-0.3,0.3-0.5c0.2-0.1,0.3-0.3,0.6-0.3c0.2-0.1,0.5-0.1,0.7-0.1
	c0.2,0,0.4,0,0.6,0l0.6,0.1l-0.2,0.6c-0.2-0.1-0.4-0.1-0.6-0.2c-0.2-0.1-0.4-0.1-0.6-0.1c-0.1,0-0.3,0-0.4,0c-0.1,0-0.2,0-0.3,0.1
	c-0.1,0.1-0.1,0.1-0.2,0.2c-0.1,0.1-0.1,0.3-0.1,0.4c0,0.1,0,0.3,0.1,0.4c0.1,0.1,0.2,0.2,0.3,0.3c0.1,0.1,0.3,0.2,0.4,0.2l0.5,0.2
	c0.2,0.1,0.3,0.1,0.5,0.2c0.2,0.1,0.3,0.2,0.4,0.3c0.1,0.1,0.2,0.3,0.3,0.4C231.2,23.1,231.3,23.3,231.3,23.5z"/>
<path class="st0" d="M235.8,25.1l-0.7-2H233l-0.7,2h-0.6l2.2-5.4l0.6-0.2l2,5.6L235.8,25.1z M234.9,22.8l-0.9-2.6l-1,2.6H234.9z"/>
<path class="st0" d="M238.8,22.8H238v2.3h-0.7v-5.5h0.7h0.8c0.3,0,0.6,0,0.8,0.1c0.2,0.1,0.4,0.2,0.6,0.3c0.2,0.1,0.3,0.3,0.3,0.5
	c0.1,0.2,0.1,0.4,0.1,0.6c0,0.2,0,0.4-0.1,0.6c-0.1,0.2-0.1,0.3-0.3,0.5c-0.1,0.1-0.2,0.2-0.4,0.3c-0.1,0.1-0.3,0.2-0.4,0.2l0.5,0.8
	c0.1,0.2,0.3,0.5,0.5,0.7c0.1,0.2,0.3,0.3,0.5,0.5c0.1,0.1,0.3,0.2,0.5,0.2h0.1v0.2c-0.1,0-0.2,0.1-0.3,0.1h-0.4
	c-0.2,0-0.3,0-0.4-0.1c-0.1-0.1-0.3-0.2-0.4-0.3c-0.1-0.2-0.3-0.4-0.4-0.5c-0.1-0.2-0.3-0.5-0.5-0.9L238.8,22.8z M238.2,22.4
	c0.3,0,0.5,0,0.8-0.1c0.2,0,0.3-0.1,0.5-0.2c0.1,0,0.1-0.1,0.1-0.1c0-0.1,0.1-0.1,0.1-0.2c0-0.1,0.1-0.2,0.1-0.3c0-0.1,0-0.3,0-0.4
	c0-0.2,0-0.4-0.1-0.5c-0.1-0.1-0.1-0.3-0.3-0.4c-0.1-0.1-0.3-0.2-0.4-0.2c-0.2,0-0.4-0.1-0.6-0.1h-0.3l-0.3,0v2.4L238.2,22.4z"/>
<path class="st0" d="M243.6,22.8h-0.8v2.3h-0.7v-5.5h0.7h0.8c0.3,0,0.6,0,0.8,0.1c0.2,0.1,0.4,0.2,0.6,0.3c0.2,0.1,0.3,0.3,0.3,0.5
	c0.1,0.2,0.1,0.4,0.1,0.6c0,0.2,0,0.4-0.1,0.6c-0.1,0.2-0.1,0.3-0.3,0.5c-0.1,0.1-0.2,0.2-0.4,0.3c-0.1,0.1-0.3,0.2-0.4,0.2l0.5,0.8
	c0.1,0.2,0.3,0.5,0.5,0.7c0.1,0.2,0.3,0.3,0.5,0.5c0.1,0.1,0.3,0.2,0.5,0.2h0.1v0.2c-0.1,0-0.2,0.1-0.3,0.1h-0.4
	c-0.2,0-0.3,0-0.4-0.1c-0.1-0.1-0.3-0.2-0.4-0.3c-0.1-0.2-0.3-0.4-0.4-0.5c-0.1-0.2-0.3-0.5-0.5-0.9L243.6,22.8z M243.1,22.4
	c0.3,0,0.5,0,0.8-0.1c0.2,0,0.3-0.1,0.5-0.2c0.1,0,0.1-0.1,0.1-0.1c0-0.1,0.1-0.1,0.1-0.2c0-0.1,0.1-0.2,0.1-0.3c0-0.1,0-0.3,0-0.4
	c0-0.2,0-0.4-0.1-0.5c-0.1-0.1-0.1-0.3-0.3-0.4c-0.1-0.1-0.2-0.2-0.4-0.2c-0.2,0-0.4-0.1-0.6-0.1h-0.3h-0.3v2.4L243.1,22.4z"/>
<path class="st0" d="M252.1,22.4c0,0.4-0.1,0.8-0.2,1.2c-0.1,0.3-0.3,0.6-0.5,0.9c-0.2,0.3-0.5,0.4-0.8,0.6
	c-0.4,0.1-0.8,0.2-1.2,0.2c-0.4,0-0.8-0.1-1.2-0.2c-0.3-0.1-0.6-0.3-0.8-0.6c-0.2-0.3-0.4-0.6-0.5-0.9c-0.1-0.4-0.2-0.8-0.1-1.2
	c0-0.4,0-0.8,0.1-1.2c0.1-0.3,0.3-0.6,0.5-0.9c0.2-0.2,0.5-0.4,0.8-0.5c0.4-0.1,0.8-0.2,1.2-0.2c0.4,0,0.8,0.1,1.2,0.2
	c0.3,0.1,0.6,0.3,0.8,0.5c0.2,0.3,0.4,0.5,0.5,0.9C252,21.6,252.1,22,252.1,22.4z M251.3,22.4c0-0.3,0-0.7-0.1-1
	c-0.1-0.3-0.2-0.5-0.3-0.7c-0.2-0.2-0.4-0.4-0.6-0.5c-0.3-0.1-0.6-0.2-0.8-0.2c-0.3,0-0.5,0-0.8,0.1c-0.2,0-0.4,0.1-0.6,0.3
	c-0.1,0.1-0.2,0.2-0.2,0.3c-0.1,0.1-0.1,0.3-0.1,0.5c0,0.2-0.1,0.4-0.1,0.6c0,0.2,0,0.4,0,0.6c0,0.3,0,0.7,0.1,1
	c0,0.3,0.1,0.5,0.3,0.8c0.1,0.2,0.3,0.4,0.5,0.5c0.3,0.1,0.6,0.2,0.9,0.2c0.3,0,0.6,0,0.8-0.1c0.2-0.1,0.4-0.2,0.6-0.3
	c0.1-0.1,0.2-0.2,0.2-0.3c0.1-0.2,0.1-0.3,0.1-0.5c0-0.2,0.1-0.4,0.1-0.6C251.3,22.8,251.3,22.6,251.3,22.4z"/>
<path class="st0" d="M253.3,25.1v-5.5h0.7v5.1h2.1l0,0.4H253.3z"/>
<path class="st0" d="M257.1,25.1v-5.5h0.7v5.1h2.1l0,0.4H257.1z"/>
<path class="st0" d="M266,22.4c0,0.4-0.1,0.8-0.2,1.2c-0.1,0.3-0.3,0.6-0.5,0.9c-0.2,0.3-0.5,0.4-0.8,0.6c-0.4,0.1-0.8,0.2-1.2,0.2
	c-0.4,0-0.8-0.1-1.2-0.2c-0.3-0.1-0.6-0.3-0.8-0.6c-0.2-0.3-0.4-0.6-0.5-0.9c-0.1-0.4-0.2-0.8-0.1-1.2c0-0.4,0-0.8,0.1-1.2
	c0.1-0.3,0.3-0.6,0.5-0.9c0.2-0.2,0.5-0.4,0.8-0.5c0.4-0.1,0.8-0.2,1.2-0.2c0.4,0,0.8,0.1,1.2,0.2c0.3,0.1,0.6,0.3,0.8,0.5
	c0.2,0.3,0.4,0.5,0.5,0.9C266,21.6,266,22,266,22.4z M265.2,22.4c0-0.3,0-0.7-0.1-1c-0.1-0.3-0.2-0.5-0.3-0.7
	c-0.2-0.2-0.4-0.4-0.6-0.5c-0.3-0.1-0.6-0.2-0.8-0.2c-0.3,0-0.5,0-0.8,0.1c-0.2,0-0.4,0.1-0.6,0.3c-0.1,0.1-0.2,0.2-0.2,0.3
	c-0.1,0.1-0.1,0.3-0.1,0.5c0,0.2-0.1,0.4-0.1,0.6c0,0.2,0,0.4,0,0.6c0,0.3,0,0.7,0.1,1c0,0.3,0.1,0.5,0.3,0.8
	c0.1,0.2,0.3,0.4,0.5,0.5c0.3,0.1,0.6,0.2,0.9,0.2c0.3,0,0.6,0,0.8-0.1c0.2-0.1,0.4-0.2,0.6-0.3c0.1-0.1,0.2-0.2,0.2-0.3
	c0.1-0.2,0.1-0.3,0.1-0.5c0-0.2,0.1-0.4,0.1-0.6C265.2,22.8,265.2,22.6,265.2,22.4L265.2,22.4z"/>
<path class="st0" d="M189.5,31.5c0,0.2,0,0.4-0.1,0.6c-0.1,0.2-0.2,0.4-0.4,0.5c-0.2,0.2-0.4,0.3-0.6,0.4c-0.3,0.1-0.5,0.1-0.8,0.1
	c-0.3,0-0.6,0-0.8-0.1c-0.2-0.1-0.5-0.2-0.7-0.3l0.3-0.6l0.3,0.2l0.4,0.2l0.4,0.1c0.1,0,0.3,0,0.4,0c0.1,0,0.3,0,0.4,0
	c0.1,0,0.2-0.1,0.3-0.1l0.1-0.1c0,0,0.1-0.1,0.1-0.1c0-0.1,0.1-0.2,0.1-0.2c0-0.1,0-0.2,0-0.3c0-0.2,0-0.3-0.1-0.4
	c-0.1-0.1-0.2-0.2-0.3-0.3c-0.1-0.1-0.3-0.2-0.4-0.2l-0.5-0.2l-0.5-0.2c-0.2-0.1-0.3-0.2-0.4-0.3c-0.1-0.1-0.2-0.3-0.3-0.4
	c-0.1-0.2-0.1-0.4-0.1-0.6c0-0.2,0-0.4,0.1-0.5c0.1-0.2,0.2-0.3,0.3-0.5c0.2-0.1,0.3-0.3,0.6-0.3c0.2-0.1,0.5-0.1,0.7-0.1
	c0.2,0,0.4,0,0.6,0l0.6,0.1l-0.2,0.6c-0.2-0.1-0.4-0.1-0.6-0.2c-0.2-0.1-0.4-0.1-0.6-0.1c-0.1,0-0.3,0-0.4,0c-0.1,0-0.2,0-0.3,0.1
	c-0.1,0.1-0.1,0.1-0.2,0.2c-0.1,0.1-0.1,0.3-0.1,0.4c0,0.1,0,0.3,0.1,0.4c0.1,0.1,0.2,0.2,0.3,0.3c0.1,0.1,0.3,0.2,0.4,0.2l0.5,0.2
	c0.2,0.1,0.3,0.1,0.5,0.2c0.2,0.1,0.3,0.2,0.4,0.3c0.1,0.1,0.2,0.3,0.3,0.4C189.4,31.1,189.5,31.3,189.5,31.5z"/>
<path class="st0" d="M195.6,30.4c0,0.4-0.1,0.8-0.2,1.2c-0.1,0.3-0.3,0.6-0.5,0.9c-0.2,0.3-0.5,0.4-0.8,0.6
	c-0.4,0.1-0.8,0.2-1.2,0.2c-0.4,0-0.8-0.1-1.2-0.2c-0.3-0.1-0.6-0.3-0.8-0.6c-0.2-0.3-0.4-0.6-0.5-0.9c-0.1-0.4-0.2-0.8-0.1-1.2
	c0-0.4,0-0.8,0.1-1.1c0.1-0.3,0.3-0.6,0.5-0.9c0.2-0.2,0.5-0.4,0.8-0.5c0.4-0.1,0.8-0.2,1.2-0.2c0.4,0,0.8,0.1,1.2,0.2
	c0.3,0.1,0.6,0.3,0.8,0.5c0.2,0.3,0.4,0.5,0.5,0.9C195.5,29.6,195.6,30,195.6,30.4z M194.8,30.4c0-0.3,0-0.7-0.1-1
	c-0.1-0.3-0.2-0.5-0.3-0.7c-0.2-0.2-0.4-0.4-0.6-0.5c-0.3-0.1-0.6-0.2-0.8-0.2c-0.3,0-0.5,0-0.8,0.1c-0.2,0-0.4,0.1-0.6,0.3
	c-0.1,0.1-0.2,0.2-0.2,0.3c-0.1,0.1-0.1,0.3-0.1,0.5c0,0.2-0.1,0.4-0.1,0.6c0,0.2,0,0.4,0,0.6c0,0.3,0,0.7,0.1,1
	c0,0.3,0.1,0.5,0.3,0.8c0.1,0.2,0.3,0.4,0.5,0.5c0.3,0.1,0.6,0.2,0.9,0.2c0.3,0,0.6,0,0.8-0.1c0.2-0.1,0.4-0.2,0.6-0.3
	c0.1-0.1,0.2-0.2,0.2-0.3c0.1-0.2,0.1-0.3,0.1-0.5c0-0.2,0.1-0.4,0.1-0.6C194.8,30.8,194.8,30.6,194.8,30.4z"/>
<path class="st0" d="M198.8,33.2c-0.3,0-0.7-0.1-1-0.2c-0.3-0.1-0.5-0.3-0.7-0.6c-0.2-0.3-0.3-0.6-0.4-0.9c-0.1-0.4-0.1-0.8-0.1-1.2
	c0-0.4,0.1-0.9,0.2-1.3c0.1-0.3,0.3-0.6,0.6-0.9c0.2-0.2,0.5-0.4,0.8-0.5c0.3-0.1,0.6-0.1,0.9-0.1h0.4h0.4h0.4h0.3l-0.2,0.6
	l-0.3-0.1l-0.4-0.1l-0.4-0.1h-0.4c-0.2,0-0.4,0-0.6,0c-0.2,0-0.3,0.1-0.4,0.2c-0.2,0.2-0.3,0.4-0.3,0.7c-0.1,0.4-0.1,0.9-0.1,1.3
	c0,0.6,0.1,1.2,0.3,1.8c0.2,0.4,0.7,0.6,1.1,0.6h0.4h0.5l0.4-0.1l0.4-0.1v0.3c-0.1,0.1-0.3,0.1-0.4,0.2l-0.5,0.1l-0.5,0.1
	L198.8,33.2z"/>
<path class="st0" d="M201.6,33.1v-5.5h0.7v5.5H201.6z"/>
<path class="st0" d="M207.1,33.1l-0.7-2h-2.1l-0.7,2H203l2.2-5.4l0.6-0.2l2,5.6H207.1z M206.3,30.8l-0.9-2.6l-1,2.6H206.3z"/>
<path class="st0" d="M208.6,33.1v-5.5h0.7v5.1h2.1l-0.1,0.4L208.6,33.1z"/>
<path class="st0" d="M186.3,45.2l0.6-0.1c0,0.2,0.1,0.4,0.2,0.6c0.1,0.2,0.3,0.3,0.5,0.4c0.2,0.1,0.5,0.2,0.8,0.2
	c0.2,0,0.5,0,0.7-0.1c0.2-0.1,0.3-0.2,0.4-0.3c0.1-0.1,0.1-0.3,0.1-0.4c0-0.2,0-0.3-0.1-0.4c-0.1-0.1-0.3-0.2-0.5-0.3
	c-0.3-0.1-0.6-0.2-0.9-0.3c-0.3-0.1-0.7-0.2-1-0.3c-0.2-0.1-0.4-0.3-0.5-0.5c-0.1-0.2-0.2-0.4-0.2-0.6c0-0.3,0.1-0.5,0.2-0.7
	c0.2-0.2,0.4-0.4,0.6-0.5c0.3-0.1,0.6-0.2,0.9-0.2c0.3,0,0.7,0.1,1,0.2c0.3,0.1,0.5,0.3,0.7,0.5c0.2,0.2,0.2,0.5,0.3,0.8h-0.6
	c0-0.3-0.1-0.5-0.4-0.7c-0.3-0.2-0.6-0.3-0.9-0.3c-0.3,0-0.6,0.1-0.9,0.2c-0.2,0.1-0.3,0.3-0.3,0.5c0,0.2,0.1,0.3,0.2,0.5
	c0.3,0.2,0.6,0.3,1,0.4c0.4,0.1,0.8,0.2,1.1,0.3c0.3,0.1,0.5,0.3,0.6,0.5c0.1,0.2,0.2,0.5,0.2,0.7c0,0.3-0.1,0.5-0.2,0.8
	c-0.2,0.2-0.4,0.4-0.7,0.6c-0.3,0.1-0.7,0.2-1,0.2c-0.4,0-0.8-0.1-1.1-0.2c-0.3-0.1-0.6-0.3-0.7-0.6
	C186.4,45.8,186.3,45.5,186.3,45.2z"/>
<path class="st0" d="M194.6,41.8h0.7v2.9c0,0.4,0,0.8-0.2,1.2c-0.1,0.3-0.3,0.6-0.6,0.7c-0.4,0.2-0.8,0.3-1.2,0.3
	c-0.4,0-0.8-0.1-1.2-0.2c-0.3-0.2-0.5-0.4-0.6-0.7c-0.1-0.4-0.2-0.8-0.2-1.3v-2.9h0.7v2.9c0,0.3,0,0.7,0.1,1
	c0.1,0.2,0.2,0.4,0.4,0.5c0.2,0.1,0.5,0.2,0.7,0.2c0.4,0,0.8-0.1,1.1-0.3c0.3-0.4,0.4-0.8,0.3-1.3L194.6,41.8z"/>
<path class="st0" d="M196.4,46.8v-5.1h1.9c0.3,0,0.6,0,0.9,0.2c0.2,0.1,0.4,0.3,0.6,0.5c0.1,0.2,0.2,0.4,0.2,0.7
	c0,0.2-0.1,0.4-0.2,0.6c-0.1,0.2-0.3,0.4-0.5,0.5c0.3,0.1,0.5,0.2,0.7,0.5c0.2,0.2,0.3,0.5,0.3,0.8c0,0.2-0.1,0.4-0.2,0.6
	c-0.1,0.2-0.2,0.3-0.4,0.5c-0.2,0.1-0.4,0.2-0.6,0.3c-0.3,0.1-0.5,0.1-0.8,0.1L196.4,46.8z M197,43.9h1.1c0.2,0,0.4,0,0.6-0.1
	c0.2,0,0.3-0.1,0.4-0.3c0.1-0.1,0.1-0.3,0.1-0.4c0-0.2,0-0.3-0.1-0.4c-0.1-0.1-0.2-0.2-0.4-0.3c-0.3-0.1-0.5-0.1-0.8-0.1h-1V43.9z
	 M197,46.2h1.3c0.2,0,0.3,0,0.5,0c0.1,0,0.3-0.1,0.4-0.1c0.1-0.1,0.2-0.2,0.3-0.3c0.1-0.1,0.1-0.3,0.1-0.4c0-0.2-0.1-0.3-0.1-0.5
	c-0.1-0.1-0.2-0.2-0.4-0.3c-0.2-0.1-0.5-0.1-0.7-0.1H197L197,46.2z"/>
<path class="st0" d="M200.9,45.2l0.6-0.1c0,0.2,0.1,0.4,0.2,0.6c0.1,0.2,0.3,0.3,0.5,0.4c0.2,0.1,0.5,0.2,0.8,0.2
	c0.2,0,0.5,0,0.7-0.1c0.2-0.1,0.3-0.2,0.4-0.3c0.1-0.1,0.1-0.3,0.1-0.4c0-0.2,0-0.3-0.1-0.4c-0.1-0.1-0.3-0.2-0.5-0.3
	c-0.3-0.1-0.6-0.2-0.9-0.3c-0.3-0.1-0.7-0.2-1-0.3c-0.2-0.1-0.4-0.3-0.5-0.5c-0.1-0.2-0.2-0.4-0.2-0.6c0-0.3,0.1-0.5,0.2-0.7
	c0.2-0.2,0.4-0.4,0.6-0.5c0.3-0.1,0.6-0.2,0.9-0.2c0.3,0,0.7,0.1,1,0.2c0.3,0.1,0.5,0.3,0.7,0.5c0.2,0.2,0.2,0.5,0.3,0.8h-0.6
	c0-0.3-0.1-0.5-0.4-0.7c-0.3-0.2-0.6-0.3-0.9-0.3c-0.3,0-0.6,0.1-0.9,0.2c-0.2,0.1-0.3,0.3-0.3,0.5c0,0.2,0.1,0.3,0.2,0.5
	c0.3,0.2,0.6,0.3,1,0.4c0.4,0.1,0.8,0.2,1.1,0.3c0.3,0.1,0.5,0.3,0.6,0.5c0.1,0.2,0.2,0.5,0.2,0.7c0,0.3-0.1,0.5-0.2,0.8
	c-0.2,0.2-0.4,0.4-0.7,0.6c-0.3,0.1-0.7,0.2-1,0.2c-0.4,0-0.8-0.1-1.1-0.2c-0.3-0.1-0.6-0.3-0.7-0.6C201,45.8,200.9,45.5,200.9,45.2
	z"/>
<path class="st0" d="M205.8,46.8v-5.1h3.7v0.6h-3v1.5h2.8v0.6h-2.8v1.7h3.1v0.6L205.8,46.8z"/>
<path class="st0" d="M214.2,45.1l0.7,0.2c-0.1,0.5-0.4,0.9-0.8,1.3c-0.4,0.3-0.9,0.4-1.3,0.4c-0.5,0-0.9-0.1-1.3-0.3
	c-0.4-0.2-0.6-0.6-0.8-1c-0.2-0.4-0.3-0.9-0.3-1.4c0-0.5,0.1-1,0.3-1.4c0.2-0.4,0.5-0.7,0.9-0.9c0.4-0.2,0.8-0.3,1.2-0.3
	c0.5,0,0.9,0.1,1.3,0.4c0.4,0.3,0.6,0.7,0.7,1.1l-0.7,0.2c-0.1-0.3-0.3-0.6-0.5-0.8c-0.2-0.2-0.5-0.3-0.8-0.3c-0.4,0-0.7,0.1-1,0.3
	c-0.3,0.2-0.5,0.4-0.6,0.8c-0.1,0.3-0.2,0.7-0.2,1c0,0.4,0.1,0.8,0.2,1.1c0.1,0.3,0.3,0.6,0.6,0.7c0.3,0.2,0.6,0.2,0.9,0.2
	c0.4,0,0.7-0.1,1-0.3C213.9,45.8,214.1,45.4,214.2,45.1z"/>
<path class="st0" d="M215.7,46.8v-5.1h2.3c0.3,0,0.7,0,1,0.1c0.2,0.1,0.4,0.3,0.6,0.5c0.1,0.2,0.2,0.5,0.2,0.8
	c0,0.3-0.1,0.7-0.4,0.9c-0.3,0.3-0.7,0.4-1.1,0.5c0.1,0.1,0.3,0.1,0.4,0.3c0.2,0.2,0.4,0.4,0.6,0.7l0.9,1.4h-0.8l-0.7-1
	c-0.2-0.3-0.4-0.5-0.5-0.7c-0.1-0.1-0.2-0.2-0.3-0.3c-0.1-0.1-0.2-0.1-0.3-0.1c-0.1,0-0.2,0-0.4,0h-0.8v2.3L215.7,46.8z M216.3,44
	h1.4c0.2,0,0.5,0,0.7-0.1c0.2-0.1,0.3-0.2,0.4-0.3c0.1-0.1,0.1-0.3,0.1-0.5c0-0.2-0.1-0.4-0.3-0.6c-0.2-0.2-0.5-0.3-0.8-0.2h-1.6V44
	z"/>
<path class="st0" d="M220.8,46.8v-5.1h3.7v0.6h-3v1.5h2.8v0.6h-2.8v1.7h3.1v0.6L220.8,46.8z"/>
<path class="st0" d="M226.8,46.8v-4.5h-1.7v-0.6h4v0.6h-1.7v4.5L226.8,46.8z"/>
<path class="st0" d="M228.7,46.8l1.9-5.1h0.7l2.1,5.1h-0.8l-0.6-1.5H230l-0.6,1.5H228.7z M230.2,44.8h1.7l-0.5-1.4
	c-0.2-0.4-0.3-0.8-0.4-1c-0.1,0.3-0.2,0.7-0.3,1L230.2,44.8z"/>
<path class="st0" d="M234,46.8v-5.1h2.3c0.3,0,0.7,0,1,0.1c0.2,0.1,0.4,0.3,0.6,0.5c0.1,0.2,0.2,0.5,0.2,0.8c0,0.3-0.1,0.7-0.4,0.9
	c-0.3,0.3-0.7,0.4-1.1,0.5c0.1,0.1,0.3,0.1,0.4,0.3c0.2,0.2,0.4,0.4,0.6,0.7l0.9,1.4h-0.8l-0.6-1c-0.2-0.3-0.4-0.5-0.5-0.7
	c-0.1-0.1-0.2-0.2-0.3-0.3c-0.1-0.1-0.2-0.1-0.3-0.1c-0.1,0-0.2,0-0.4,0h-0.8v2.3L234,46.8z M234.7,44h1.4c0.2,0,0.5,0,0.7-0.1
	c0.2-0.1,0.3-0.2,0.4-0.3c0.1-0.1,0.1-0.3,0.1-0.5c0-0.2-0.1-0.4-0.3-0.6c-0.2-0.2-0.5-0.3-0.8-0.2h-1.6V44z"/>
<path class="st0" d="M239.2,41.5l0.5-1h0.8l-0.8,1H239.2z M239.2,46.8v-4.9h0.6v4.9L239.2,46.8z"/>
<path class="st0" d="M240.5,46.8l1.9-5.1h0.7l2.1,5.1h-0.8l-0.6-1.5h-2.1l-0.6,1.5H240.5z M242,44.8h1.7l-0.5-1.4
	c-0.2-0.4-0.3-0.8-0.4-1c-0.1,0.3-0.2,0.7-0.3,1L242,44.8z"/>
<path class="st0" d="M186.6,54.8v-5.1h1.7c0.3,0,0.6,0,0.9,0.1c0.3,0.1,0.5,0.2,0.7,0.4c0.3,0.2,0.5,0.5,0.6,0.9
	c0.1,0.4,0.2,0.8,0.2,1.2c0,0.3,0,0.7-0.1,1c-0.1,0.3-0.2,0.5-0.4,0.7c-0.1,0.2-0.3,0.3-0.5,0.5c-0.2,0.1-0.4,0.2-0.6,0.3
	c-0.3,0.1-0.5,0.1-0.8,0.1L186.6,54.8z M187.2,54.2h1.1c0.3,0,0.5,0,0.8-0.1c0.2-0.1,0.3-0.1,0.4-0.3c0.2-0.2,0.3-0.4,0.4-0.6
	c0.1-0.3,0.1-0.7,0.1-1c0-0.4-0.1-0.8-0.3-1.2c-0.1-0.3-0.4-0.5-0.6-0.6c-0.3-0.1-0.6-0.1-0.9-0.1h-1.1V54.2z"/>
<path class="st0" d="M191.7,54.8v-5.1h3.7v0.6h-3v1.5h2.8v0.6h-2.8v1.7h3.1v0.6L191.7,54.8z"/>
<path class="st0" d="M198.1,53.2l0.6-0.1c0,0.2,0.1,0.4,0.2,0.6c0.1,0.2,0.3,0.3,0.5,0.4c0.2,0.1,0.5,0.2,0.8,0.2
	c0.2,0,0.5,0,0.7-0.1c0.2-0.1,0.3-0.2,0.4-0.3c0.1-0.1,0.1-0.3,0.1-0.4c0-0.2,0-0.3-0.1-0.4c-0.1-0.1-0.3-0.2-0.5-0.3
	c-0.3-0.1-0.6-0.2-0.9-0.3c-0.3-0.1-0.7-0.2-1-0.3c-0.2-0.1-0.4-0.3-0.5-0.5c-0.1-0.2-0.2-0.4-0.2-0.6c0-0.3,0.1-0.5,0.2-0.7
	c0.2-0.2,0.4-0.4,0.6-0.5c0.3-0.1,0.6-0.2,0.9-0.2c0.3,0,0.7,0.1,1,0.2c0.3,0.1,0.5,0.3,0.7,0.5c0.2,0.2,0.2,0.5,0.3,0.8h-0.6
	c0-0.3-0.1-0.5-0.4-0.7c-0.3-0.2-0.6-0.3-0.9-0.3c-0.3,0-0.6,0.1-0.9,0.2c-0.2,0.1-0.3,0.4-0.2,0.6c0,0.2,0.1,0.3,0.2,0.5
	c0.3,0.2,0.6,0.3,1,0.4c0.4,0.1,0.8,0.2,1.1,0.3c0.3,0.1,0.5,0.3,0.6,0.5c0.1,0.2,0.2,0.5,0.2,0.7c0,0.3-0.1,0.5-0.2,0.8
	c-0.2,0.2-0.4,0.4-0.7,0.6c-0.3,0.1-0.7,0.2-1,0.2c-0.4,0-0.8-0.1-1.1-0.2c-0.3-0.1-0.6-0.3-0.7-0.6
	C198.2,53.8,198.1,53.5,198.1,53.2z"/>
<path class="st0" d="M202.5,54.8l1.9-5.1h0.7l2.1,5.1h-0.8l-0.6-1.5h-2.1l-0.6,1.5H202.5z M204,52.8h1.7l-0.5-1.4
	c-0.2-0.4-0.3-0.8-0.4-1c-0.1,0.3-0.2,0.7-0.3,1L204,52.8z"/>
<path class="st0" d="M207.8,54.8v-5.1h0.7v4.5h2.5v0.6L207.8,54.8z"/>
<path class="st0" d="M215,49.8h0.7v2.9c0,0.4,0,0.8-0.2,1.2c-0.1,0.3-0.3,0.6-0.6,0.7c-0.4,0.2-0.8,0.3-1.2,0.3
	c-0.4,0-0.8-0.1-1.2-0.2c-0.3-0.2-0.5-0.4-0.6-0.7c-0.1-0.4-0.2-0.8-0.2-1.3v-2.9h0.7v2.9c0,0.3,0,0.7,0.1,1
	c0.1,0.2,0.2,0.4,0.4,0.5c0.2,0.1,0.5,0.2,0.7,0.2c0.4,0,0.8-0.1,1.1-0.3c0.3-0.4,0.4-0.9,0.3-1.3V49.8z"/>
<path class="st0" d="M216.8,54.8v-5.1h1.7c0.3,0,0.6,0,0.9,0.1c0.3,0.1,0.5,0.2,0.7,0.4c0.3,0.2,0.5,0.5,0.6,0.9
	c0.1,0.4,0.2,0.8,0.2,1.2c0,0.3,0,0.7-0.1,1c-0.1,0.3-0.2,0.5-0.4,0.7c-0.1,0.2-0.3,0.3-0.5,0.5c-0.2,0.1-0.4,0.2-0.6,0.3
	c-0.3,0.1-0.5,0.1-0.8,0.1L216.8,54.8z M217.5,54.2h1.1c0.3,0,0.5,0,0.8-0.1c0.2-0.1,0.3-0.1,0.4-0.3c0.2-0.2,0.3-0.4,0.4-0.6
	c0.1-0.3,0.1-0.7,0.1-1c0-0.4-0.1-0.8-0.3-1.2c-0.1-0.3-0.4-0.5-0.6-0.6c-0.3-0.1-0.6-0.1-0.9-0.1h-1.1V54.2z"/>
<rect x="171.4" y="9" class="st0" width="1.3" height="45.3"/>
<path class="st0" d="M66.5,21v2.9c-0.9,0.6-2,1-3.1,1c-2.1,0.1-3.9-1.5-3.9-3.6c0-0.1,0-0.1,0-0.2c0-2.1,1.8-3.8,3.9-3.8
	c0.1,0,0.1,0,0.2,0c1.1,0,2.2,0.4,3,1.1l-1.1,1.3c-0.5-0.5-1.3-0.8-2-0.8c-1.2,0-2.2,1-2.2,2.2s1,2.2,2.2,2.2l0,0
	c0.5,0,0.9-0.1,1.3-0.4v-2H66.5z"/>
<path class="st0" d="M69.8,21.1c0,1.2,0.9,2.2,2.1,2.2c0,0,0,0,0,0c1.2,0.1,2.2-0.9,2.3-2.1c0.1-1.2-0.9-2.2-2.1-2.3
	C70.8,18.8,69.8,19.8,69.8,21.1C69.8,21,69.8,21.1,69.8,21.1z M75.8,21.1c0,2.2-1.8,4-4,4s-4-1.8-4-4s1.8-4,4-4S75.8,18.9,75.8,21.1
	z"/>
<path class="st0" d="M79.2,23.3h1.5c0.7,0,1.1-0.3,1.1-0.8s-0.4-0.8-1.1-0.8h-1.5V23.3z M79.2,20.3h1.5c0.6,0,0.9-0.3,0.9-0.8
	s-0.3-0.8-0.9-0.8h-1.5V20.3z M80.8,17.3c1.7,0,2.7,0.7,2.7,1.9c0,0.8-0.5,1.4-1.3,1.6c0.9,0.2,1.6,1,1.5,1.9c0,1.3-1.1,2-2.8,2
	h-3.6v-7.3L80.8,17.3z"/>
<rect x="85.4" y="17.4" class="st0" width="1.9" height="7.4"/>
<polygon class="st0" points="91.2,18.9 91.2,20.3 94.7,20.3 94.7,21.8 91.2,21.8 91.2,23.3 95.2,23.3 95.2,24.8 89.3,24.8 
	89.3,17.4 95.1,17.4 95.1,18.9 "/>
<path class="st0" d="M100.3,21.2c0.8,0,1.3-0.4,1.3-1.2s-0.5-1.2-1.3-1.2h-1.4v2.4L100.3,21.2z M100.3,22.7h-1.5v2.1H97v-7.4h3.3
	c2,0,3.1,0.9,3.1,2.6c0.1,1-0.5,1.9-1.4,2.4l1.6,2.4h-2.1L100.3,22.7z"/>
<polygon class="st0" points="110.3,24.8 106.9,20.2 106.9,24.8 105.2,24.8 105.2,17.4 106.8,17.4 110.2,21.9 110.2,17.4 112,17.4 
	112,24.8 "/>
<path class="st0" d="M115.4,21.1c0,1.2,0.9,2.2,2.1,2.2c0,0,0,0,0,0c1.2,0.1,2.2-0.9,2.3-2.1c0.1-1.2-0.9-2.2-2.1-2.3
	C116.5,18.8,115.5,19.8,115.4,21.1C115.4,21,115.4,21,115.4,21.1z M121.5,21.1c0.1,2.2-1.5,4.1-3.7,4.2s-4.1-1.5-4.2-3.7
	s1.5-4.1,3.7-4.2c0.1,0,0.2,0,0.2,0c2.1-0.1,3.9,1.5,4,3.6C121.5,21,121.5,21,121.5,21.1z"/>
<path class="st0" d="M61.8,33.9h1.3c1.1,0,2-0.9,2-2c0-0.1,0-0.1,0-0.2c0.1-1.1-0.7-2.1-1.8-2.2c-0.1,0-0.2,0-0.3,0h-1.3V33.9
	L61.8,33.9z M63.1,28c2-0.1,3.7,1.4,3.9,3.4c0,0.1,0,0.2,0,0.3c0,2-1.6,3.7-3.6,3.7c-0.1,0-0.2,0-0.4,0h-3.1V28H63.1z"/>
<polygon class="st0" points="70.4,29.4 70.4,30.9 74,30.9 74,32.4 70.4,32.4 70.4,33.9 74.5,33.9 74.5,35.4 68.6,35.4 68.6,28 
	74.3,28 74.3,29.4 "/>
<polygon class="st0" points="84.2,33.8 84.2,35.4 79.2,35.4 79.2,28 81.1,28 81.1,33.8 "/>
<path class="st0" d="M89,29.8l-1.1,2.7H90L89,29.8z M87.3,34l-0.5,1.4h-1.9l3.2-7.4H90l3.1,7.4h-2L90.6,34H87.3z"/>
<path class="st0" d="M99.2,31.8h1.2c0.8,0,1.3-0.4,1.3-1.2s-0.5-1.2-1.3-1.2h-1.2V31.8z M100.5,28c1.9,0,3,0.9,3,2.6
	c0,1.6-1.1,2.7-3,2.7h-1.3v2.1h-1.9V28H100.5z"/>
<path class="st0" d="M108.3,31.8c0.8,0,1.3-0.4,1.3-1.2s-0.5-1.2-1.3-1.2h-1.4v2.4H108.3z M108.4,33.3h-1.5v2.1H105V28h3.3
	c2,0,3.1,0.9,3.1,2.6c0.1,1-0.5,1.9-1.3,2.4l1.6,2.4h-2.1L108.4,33.3z"/>
<path class="st0" d="M114.7,31.7c0,1.2,0.9,2.2,2.1,2.2c1.2,0.1,2.3-0.9,2.3-2.1c0.1-1.2-0.9-2.3-2.1-2.3c-1.2-0.1-2.3,0.9-2.3,2.1
	C114.7,31.6,114.7,31.6,114.7,31.7z M120.7,31.7c0.1,2.2-1.5,4.1-3.7,4.2c-2.2,0.1-4.1-1.5-4.2-3.7s1.5-4.1,3.7-4.2
	c0.1,0,0.2,0,0.2,0c2.1-0.1,3.9,1.5,4,3.6C120.7,31.6,120.7,31.6,120.7,31.7L120.7,31.7z"/>
<polygon class="st0" points="124.3,35.3 121.4,28 123.4,28 125.3,33.4 127.2,28 129.1,28 126.2,35.3 "/>
<rect x="130.4" y="28" class="st0" width="1.9" height="7.4"/>
<polygon class="st0" points="139.4,35.3 136,30.8 136,35.3 134.3,35.3 134.3,28 135.9,28 139.3,32.5 139.3,28 141.1,28 141.1,35.3 
	"/>
<path class="st0" d="M149.5,29.1l-1.1,1.3c-0.4-0.6-1.1-1-1.9-1c-1.2,0-2.2,1-2.2,2.2c0,1.2,1,2.2,2.2,2.2c0.7,0,1.4-0.4,1.9-0.9
	l1.1,1.2c-0.8,0.8-1.9,1.3-3,1.3c-2.1,0.1-3.8-1.5-3.9-3.6c-0.1-2.1,1.5-3.8,3.6-3.9c0.1,0,0.3,0,0.4,0
	C147.7,27.9,148.8,28.4,149.5,29.1z"/>
<rect x="150.9" y="28" class="st0" width="1.9" height="7.4"/>
<path class="st0" d="M158.1,29.8l-1.1,2.7h2.1C159.2,32.6,158.1,29.8,158.1,29.8z M156.5,34l-0.5,1.3h-2l3.2-7.3h1.9l3.1,7.4h-2
	l-0.5-1.4H156.5z"/>
<path class="st0" d="M61.8,44.4h1.3c1.1,0,2-0.9,2-2c0-0.1,0-0.1,0-0.2c0.1-1.1-0.7-2.1-1.8-2.2c-0.1,0-0.2,0-0.3,0h-1.3V44.4
	L61.8,44.4z M63.1,38.5c2-0.1,3.7,1.4,3.9,3.4c0,0.1,0,0.2,0,0.3c0,2-1.6,3.7-3.6,3.7c-0.1,0-0.2,0-0.4,0h-3.1v-7.4L63.1,38.5z"/>
<polygon class="st0" points="70.4,40 70.4,41.5 74,41.5 74,43 70.4,43 70.4,44.4 74.5,44.4 74.5,45.9 68.6,45.9 68.6,38.5 
	74.3,38.5 74.3,40 "/>
<polygon class="st0" points="81.2,44.4 81.2,45.9 76.2,45.9 76.2,38.5 78.1,38.5 78.1,44.4 "/>
<polygon class="st0" points="90.8,45.9 87.4,41.4 87.4,45.9 85.6,45.9 85.6,38.5 87.3,38.5 90.7,43.1 90.7,38.5 92.5,38.5 
	92.5,45.9 "/>
<polygon class="st0" points="96.4,40 96.4,41.5 99.9,41.5 99.9,43 96.4,43 96.4,44.4 100.4,44.4 100.4,45.9 94.5,45.9 94.5,38.5 
	100.3,38.5 100.3,40 "/>
<path class="st0" d="M108.8,42.8c-0.1,1.9-1.7,3.3-3.6,3.2c-1.7-0.1-3.1-1.5-3.2-3.2v-4.3h1.9v4.3c-0.1,0.8,0.5,1.5,1.3,1.6
	c0.1,0,0.1,0,0.2,0c0.8,0,1.5-0.6,1.5-1.4c0-0.1,0-0.1,0-0.2v-4.3h1.9L108.8,42.8z"/>
<path class="st0" d="M114.2,44.4c1.2,0.1,2.2-0.9,2.3-2.1c0.1-1.2-0.9-2.2-2.1-2.3c-1.2-0.1-2.2,0.9-2.3,2.1c0,0,0,0.1,0,0.1
	C112.1,43.4,113,44.4,114.2,44.4z M118.5,46.8c-0.6,0.5-1.4,0.8-2.1,0.8c-1.1,0-2-0.7-2.4-1.7c-2.1-0.2-3.6-2-3.4-4.1s2-3.6,4.1-3.4
	c1.9,0.2,3.4,1.8,3.4,3.7c0,1.6-1,3-2.4,3.5c0.2,0.3,0.5,0.5,0.9,0.5c0.5-0.1,0.9-0.3,1.3-0.6L118.5,46.8z"/>
<path class="st0" d="M126.4,42.8c0,1.9-1.5,3.4-3.4,3.4c-1.9,0-3.4-1.5-3.4-3.4v-4.3h1.9v4.3c-0.1,0.8,0.5,1.5,1.3,1.6
	c0.1,0,0.1,0,0.2,0c0.8,0,1.5-0.6,1.5-1.4c0-0.1,0-0.1,0-0.2v-4.3h1.9V42.8z"/>
<path class="st0" d="M131.7,37.9h-1.4l1.1-1.8l1.6,0.6L131.7,37.9L131.7,37.9z M130.2,40v1.5h3.5V43h-3.5v1.5h4V46h-5.9v-7.4h5.8V40
	H130.2z"/>
<polygon class="st0" points="141.1,45.9 137.7,41.4 137.7,45.9 136,45.9 136,38.5 137.6,38.5 141,43.1 141,38.5 142.8,38.5 
	142.8,45.9 "/>
</svg>
