<svg id="texto" xmlns="http://www.w3.org/2000/svg" viewBox="0 0 270.25 315.71"><defs><style>.cls-1,.cls-2,.cls-3,.cls-4{fill:none;stroke-miterlimit:10;}.cls-1,.cls-2,.cls-3{stroke:#fff;}.cls-1{stroke-width:5px;}.cls-2{stroke-width:4px;}.cls-3,.cls-4{stroke-width:2px;}.cls-4{stroke:#f5aa3b;}</style></defs><title>objetivos</title><path class="cls-1" d="M144.65,313.21l-1.07-69.93h1a3,3,0,0,0,2.35-1,3.11,3.11,0,0,0,.81-2.41l-.6-9.52-.57-9.07a12.44,12.44,0,0,0,10-14l-4.89-33.87a15.33,15.33,0,0,0-15.15-13.18H110.14A15.37,15.37,0,0,0,95,173.62L90.39,205.9s-2,12.85,9.95,16.38c-.56,4.1-1,17.71-1,17.71a3,3,0,0,0,.77,2.34,3.08,3.08,0,0,0,2.33,1h1.07l-.71,69.93m18.15,0h5.31l-.58-69.93h-4.22ZM99.29,240"/><path class="cls-2" d="M140,136.57a16.44,16.44,0,1,1-16.45-16.45A16.44,16.44,0,0,1,140,136.57Zm0,0"/><path class="cls-3" d="M45.88,134.07a6.26,6.26,0,0,0-4.59-1.91H7.5a6.26,6.26,0,0,0-4.59,1.91A6.26,6.26,0,0,0,1,138.66v44.19a6.26,6.26,0,0,0,1.91,4.59,6.25,6.25,0,0,0,4.59,1.91H41.29a6.52,6.52,0,0,0,6.5-6.5V138.66a6.27,6.27,0,0,0-1.91-4.59ZM26.23,186a2.55,2.55,0,1,1,.77-1.83,2.5,2.5,0,0,1-.77,1.83Zm16.37-8.33a1.31,1.31,0,0,1-1.3,1.3H7.5a1.31,1.31,0,0,1-1.3-1.3v-39a1.31,1.31,0,0,1,1.3-1.3H41.29a1.31,1.31,0,0,1,1.3,1.3Zm0,0"/><path class="cls-3" d="M69.51,1H39.16a5.32,5.32,0,0,0-5.31,5.31V68a5.32,5.32,0,0,0,5.31,5.31H69.51A5.31,5.31,0,0,0,74.82,68V6.31A5.31,5.31,0,0,0,69.51,1Z"/><polyline class="cls-3" points="71.69 9.07 71.69 55.35 36.99 55.35 36.99 12.04"/><path class="cls-3" d="M37,9.07V7.22a2.78,2.78,0,0,1,2.78-2.78H68.91a2.79,2.79,0,0,1,2.79,2.78V9.07"/><path class="cls-3" d="M68.91,69.23H39.77A2.78,2.78,0,0,1,37,66.45V57.66H71.69v8.79a2.79,2.79,0,0,1-2.79,2.78Z"/><path class="cls-3" d="M54.34,65.76a2.31,2.31,0,1,1,2.31-2.32,2.32,2.32,0,0,1-2.31,2.32Zm0,0"/><path class="cls-3" d="M262.3,54.38H189.09a7,7,0,0,0-7,7v55.6a7,7,0,0,0,7,7H216v10.19h-9.73a1.39,1.39,0,0,0,0,2.78h38.92a1.39,1.39,0,0,0,0-2.78h-9.73V123.88H262.3a7,7,0,0,0,7-7V61.33a7,7,0,0,0-7-7Zm4.17,55.6H184.92V61.33a4.17,4.17,0,0,1,4.17-4.17H262.3a4.17,4.17,0,0,1,4.17,4.17Zm0,0"/><path class="cls-3" d="M222.72,118.94h7.07a1.63,1.63,0,1,0,0-3.24h-7.07a1.63,1.63,0,1,0,0,3.24Zm0,0"/><path class="cls-4" d="M123.84,72.52a5.77,5.77,0,1,0-5.77-5.77,5.78,5.78,0,0,0,5.77,5.77Zm0-9.89"/><path class="cls-4" d="M139.73,81.58h-5.9L136.34,78c4.74-6.32,4.06-16.72-1.47-22.24a15.81,15.81,0,0,0-22.35,0C107,61.24,106.3,71.63,111,77.93l2.53,3.65h-6.19l-9,19h50.42Zm-31.32,1.65h6.29l9,13,9-13h6l7.46,15.66H100.95Zm0,0"/></svg>