<svg xmlns="http://www.w3.org/2000/svg" viewBox="0 0 655.55 447.37"><defs><style>.cls-1{opacity:0.35;}.cls-2,.cls-3{fill:none;stroke:#51c7f1;stroke-miterlimit:10;stroke-width:8px;}.cls-3{opacity:0.7;}</style></defs><title>pacientes_1</title><g id="img"><g class="cls-1"><path class="cls-2" d="M210.55,408.19l-35.81-69.53a19.73,19.73,0,0,0-15.4-10.57L128,324.68a84.72,84.72,0,0,1,22.21,52.46l25.3,49.12a19.72,19.72,0,0,0,35.07-18.07Zm0,0"/><path class="cls-2" d="M85.84,220.86A29.83,29.83,0,1,0,56.5,190.53a29.84,29.84,0,0,0,29.34,30.33Zm0,0"/><path class="cls-2" d="M107.75,361.75a29.88,29.88,0,0,1-41.26-9.16L48,323.62a61.13,61.13,0,1,0,78.48,58.5,60.65,60.65,0,0,0-8.8-31.16,29.62,29.62,0,0,1-10,10.8Zm-42.49,40a19.61,19.61,0,1,1,19.61-19.61,19.61,19.61,0,0,1-19.61,19.61Zm0,0"/><path class="cls-2" d="M78.08,345.2a16.13,16.13,0,1,0,27.22-17.33L80.54,289,98.12,267l-4.33,17.15,21.54,29.19,1-58.64a25.62,25.62,0,0,0-25.25-26.12l-11-.17A25.68,25.68,0,0,0,54,253.69l-.06,3.37,25.83-19.32L48.1,278a16.12,16.12,0,0,0-.93,18.63Zm0,0"/></g><path class="cls-3" d="M635.89,300.63V436.42a6.53,6.53,0,0,1-13.06,0V300.63a10.18,10.18,0,0,0-20.36,0,6.55,6.55,0,0,1-6.59,6.47,6.45,6.45,0,0,1-6.47-6.47,23.07,23.07,0,0,1,13.89-21.18c-16.52-24.56-25.63-51.63-30.66-74.13l-29.71,84.18a.12.12,0,0,1-.12.12c1.1,3.59,19.41,68.37-2.39,141.67a16.87,16.87,0,0,1-16.16,12.08,17.22,17.22,0,0,1-4.78-.7A17,17,0,0,1,508,421.58c17.35-58.31,5.15-111.84,2.76-121.06-18.46-35.81-22-68.86-10.67-98.32,18.21-46.93,68-65.64,70.17-66.34a16.89,16.89,0,0,1,21.68,10.05c1.07,3.13.71,10.42.71,11s.74,64.78,34.86,112A13.18,13.18,0,0,1,628,283.5a22.67,22.67,0,0,1,7.91,17.14Zm15.67-186.46A33.17,33.17,0,1,1,618.38,81a33.15,33.15,0,0,1,33.17,33.17Zm0,0"/><path class="cls-2" d="M340.79,70.61c11-4.09,8.51-30.41,8.51-30.41a36.27,36.27,0,1,1,36.34,36.34c-6.81,0-12.74-2.39-18.1-5.5-15,1.12-33.52,2.1-26.75-.44ZM315.78,243s19.08-108.74,28.13-127.27v-.14h0C353,97,354.22,85.88,387.6,85.88c24.61,0,39.6,21.76,48.79,51a58.49,58.49,0,0,1,13.86,110.59h0c.25,26.57-1,45.79-1,45.79H403.16L395.81,434a8.71,8.71,0,1,1-17.41,0l-7.49-140.7H351.83l12.31-152.83L338.4,248.2M468.61,187"/><path class="cls-2" d="M299.22,218.51a28,28,0,1,1-28-28,28,28,0,0,1,28,28Zm0,0"/><path class="cls-2" d="M322.54,206.32l-8.15,40.09-24.8,11.31H246.26a7.8,7.8,0,0,0-1.9.25,11.79,11.79,0,0,0-6.45,3.54l-43.12,47.65a11.91,11.91,0,0,0,17.42,16.25l26.09-29.14v34.11L234.83,429a13.91,13.91,0,0,0,13.42,14.39,4.86,4.86,0,0,0,.49,0A13.89,13.89,0,0,0,262.62,430l2.6-73.9h10.87l9.76,75.21a13.9,13.9,0,1,0,27.56-3.59l-13.78-104.9-.36-42.66,30.52-13.93a12.19,12.19,0,0,0,6.75-8l10.37-45.57M194.79,309.16"/></g></svg>