<svg xmlns="http://www.w3.org/2000/svg" viewBox="0 0 79.3 74.55"><defs><style>.cls-1{fill:none;stroke:#fff;stroke-miterlimit:10;stroke-width:2px;}</style></defs><title>pacientes</title><g id="texto"><path class="cls-1" d="M27.3,46.14V72.35a1.21,1.21,0,0,1-2.41,0V46.14a1.88,1.88,0,0,0-3.76,0,1.21,1.21,0,0,1-1.22,1.2,1.19,1.19,0,0,1-1.2-1.2,4.26,4.26,0,0,1,2.57-3.92,40.5,40.5,0,0,1-5.67-13.7L10.12,44.09a0,0,0,0,1,0,0,50.1,50.1,0,0,1-.44,26.19,3.12,3.12,0,0,1-3,2.23,3.18,3.18,0,0,1-.88-.13,3.14,3.14,0,0,1-2.12-3.9,44.74,44.74,0,0,0,.51-22.38C.76,39.5.1,33.39,2.2,27.95c3.37-8.68,12.57-12.13,13-12.26a3.12,3.12,0,0,1,4,1.86,8.07,8.07,0,0,1,.13,2c0,.11.14,12,6.44,20.69a2.44,2.44,0,0,1,.09,2.7,4.19,4.19,0,0,1,1.46,3.17Zm2.9-34.46a6.13,6.13,0,1,1-6.13-6.13,6.13,6.13,0,0,1,6.13,6.13Zm0,0"/><path class="cls-1" d="M54.62,12c1.82-.68,1.4-5,1.4-5a6,6,0,1,1,6,6,5.9,5.9,0,0,1-3-.91c-2.48.19-5.53.35-4.42-.07ZM50.49,40.46s3.15-18,4.64-21v0h0c1.49-3.06,1.7-4.9,7.21-4.9,4.06,0,6.54,3.59,8.06,8.43A9.66,9.66,0,0,1,72.7,41.21h0c0,4.39-.17,7.56-.17,7.56H64.92L63.71,72a1.44,1.44,0,1,1-2.87,0L59.59,48.77H56.44l2-25.23L54.23,41.32m21.5-10.11"/><path class="cls-1" d="M47.76,36.42a4.63,4.63,0,1,1-4.63-4.63,4.63,4.63,0,0,1,4.63,4.63Zm0,0"/><path class="cls-1" d="M51.61,34.41,50.26,41l-4.09,1.87H39a1.29,1.29,0,0,0-.31,0,2,2,0,0,0-1.07.58l-7.12,7.87a2,2,0,0,0,2.88,2.68l4.31-4.81v5.63l-.57,16.28a2.3,2.3,0,0,0,2.22,2.38h.08a2.29,2.29,0,0,0,2.29-2.22l.43-12.2h1.79l1.61,12.42a2.3,2.3,0,0,0,2.27,2l.3,0a2.29,2.29,0,0,0,2-2.57L47.83,53.63l-.06-7,5-2.3A2,2,0,0,0,53.92,43l1.71-7.52M30.51,51.39"/></g></svg>