<?xml version="1.0" encoding="utf-8"?>
<!-- Generator: Adobe Illustrator 21.0.0, SVG Export Plug-In . SVG Version: 6.00 Build 0)  -->
<svg version="1.1" id="Capa_1" xmlns="http://www.w3.org/2000/svg" xmlns:xlink="http://www.w3.org/1999/xlink" x="0px" y="0px"
	 viewBox="0 0 79.3 74.6" style="enable-background:new 0 0 79.3 74.6;" xml:space="preserve">
<style type="text/css">
	.st0{fill:none;stroke:#FFFFFF;stroke-width:2;stroke-miterlimit:10;}
</style>
<title>pacientes</title>
<g id="texto">
	<path class="st0" d="M27.3,46.1v26.2c-0.1,0.7-0.6,1.2-1.3,1.1c-0.6-0.1-1-0.5-1.1-1.1V46.1c0-1-0.8-1.9-1.9-1.9
		c-1,0-1.9,0.8-1.9,1.9l0,0c0,0.7-0.6,1.2-1.2,1.2c0,0,0,0,0,0c-0.7,0-1.2-0.5-1.2-1.2c0,0,0,0,0,0c0-1.7,1-3.2,2.6-3.9
		c-2.7-4.2-4.6-8.8-5.7-13.7l-5.5,15.6l0,0c2.2,8.6,2,17.7-0.4,26.2c-0.4,1.3-1.6,2.2-3,2.2c-0.3,0-0.6,0-0.9-0.1
		c-1.7-0.5-2.6-2.2-2.1-3.9c2.1-7.3,2.2-15,0.5-22.4c-3.4-6.6-4.1-12.7-2-18.2c3.4-8.7,12.6-12.1,13-12.3c1.6-0.6,3.4,0.2,4,1.9
		c0.1,0.7,0.2,1.3,0.1,2c0,0.1,0.1,12,6.4,20.7c0.6,0.8,0.6,1.9,0.1,2.7C26.8,43.7,27.3,44.9,27.3,46.1L27.3,46.1z M30.2,11.7
		c0,3.4-2.7,6.1-6.1,6.1s-6.1-2.7-6.1-6.1s2.7-6.1,6.1-6.1l0,0C27.5,5.6,30.2,8.3,30.2,11.7C30.2,11.7,30.2,11.7,30.2,11.7z"/>
	<path class="st0" d="M54.6,12c1.8-0.7,1.4-5,1.4-5c0-3.3,2.7-6,6-6s6,2.7,6,6s-2.7,6-6,6c-1.1,0-2.1-0.3-3-0.9
		C56.5,12.3,53.5,12.4,54.6,12L54.6,12z M50.5,40.5c0,0,3.2-18,4.6-21l0,0l0,0c1.5-3.1,1.7-4.9,7.2-4.9c4.1,0,6.5,3.6,8.1,8.4
		c5.2,1,8.7,6.1,7.7,11.3c-0.6,3-2.6,5.6-5.4,6.9l0,0c0,4.4-0.2,7.6-0.2,7.6h-7.6L63.7,72c0.1,0.8-0.5,1.5-1.3,1.6
		c-0.8,0.1-1.5-0.5-1.6-1.3c0-0.1,0-0.2,0-0.2l-1.3-23.2h-3.2l2-25.2l-4.2,17.8"/>
	<path class="st0" d="M47.8,36.4c0,2.6-2.1,4.6-4.6,4.6c-2.6,0-4.6-2.1-4.6-4.6c0-2.6,2.1-4.6,4.6-4.6S47.8,33.9,47.8,36.4
		L47.8,36.4z"/>
	<path class="st0" d="M51.6,34.4L50.3,41l-4.1,1.9H39c-0.1,0-0.2,0-0.3,0c-0.4,0.1-0.8,0.3-1.1,0.6l-7.1,7.9
		c-0.6,0.9-0.3,2.2,0.6,2.8c0.7,0.4,1.6,0.4,2.3-0.1l4.3-4.8v5.6l-0.6,16.3c0,1.3,0.9,2.3,2.2,2.4c0,0,0,0,0,0h0.1
		c1.2,0,2.3-1,2.3-2.2l0.4-12.2h1.8l1.6,12.4c0.2,1.1,1.1,2,2.3,2h0.3c1.3-0.1,2.2-1.3,2-2.5c0,0,0,0,0,0l-2.3-17.3l-0.1-7l5-2.3
		c0.6-0.2,1-0.7,1.1-1.3l1.7-7.5"/>
</g>
</svg>
