<svg id="texto" xmlns="http://www.w3.org/2000/svg" viewBox="0 0 97.26 66.72"><defs><style>.cls-1{fill:none;stroke:#fff;stroke-miterlimit:10;stroke-width:2px;}</style></defs><title>profesionales</title><path class="cls-1" d="M32.24,10.42a9.42,9.42,0,1,1,9.42,9.43,9.42,9.42,0,0,1-9.42-9.43Zm0,0"/><path class="cls-1" d="M27.92,45.64a1.63,1.63,0,1,1,0-3.26H30.4V39.89a1.63,1.63,0,1,1,3.26,0v2.49h2.45a1.63,1.63,0,1,1,0,3.26H33.66v2.45a1.63,1.63,0,1,1-3.26,0V45.64Zm0,0"/><path class="cls-1" d="M39.44,27.47a1.65,1.65,0,0,1,1.22,2.13l-1.11,3.29L41.66,37l2.11-4.13L42.66,29.6a1.65,1.65,0,0,1,1.23-2.13l3.61-.73L47.78,23H35.54l.29,3.74,3.61.73Zm0,0"/><path class="cls-1" d="M65.37,10.46a9.46,9.46,0,1,1,9.46,9.47,9.46,9.46,0,0,1-9.46-9.47Zm0,0"/><path class="cls-1" d="M96.26,66.72V35A11.86,11.86,0,0,0,84.4,23.1H65.26A11.84,11.84,0,0,0,53.43,34.92v31.8"/><path class="cls-1" d="M20.36,51.36V34.77A11.78,11.78,0,0,1,32.14,23h.12l.4,5.22A1.64,1.64,0,0,0,34,29.7l3,.61-.74,2.18a1.63,1.63,0,0,0,.1,1.27l3.88,7.61a1.77,1.77,0,0,0,1.43.75,1.51,1.51,0,0,0,1.49-.75L47,33.76a1.63,1.63,0,0,0,.09-1.27l-.73-2.17,3-.61a1.63,1.63,0,0,0,1.31-1.48L51.07,23h.12a11.75,11.75,0,0,1,7.1,2.37"/><line class="cls-1" x1="53.43" y1="52.52" y2="52.52"/><line class="cls-1" x1="53.43" y1="52.52" y2="52.52"/></svg>