<svg xmlns="http://www.w3.org/2000/svg" viewBox="0 0 232.05 237.31"><defs><style>.cls-1{font-size:22.46px;fill:#2ca2da;font-family:SourceSansPro-Regular, Source Sans Pro;}.cls-2{letter-spacing:-0.02em;}.cls-3{letter-spacing:-0.01em;}.cls-4{font-family:SourceSansPro-Bold, Source Sans Pro;font-weight:700;}.cls-5{letter-spacing:0em;}.cls-6{letter-spacing:-0.01em;}.cls-7,.cls-8{fill:none;stroke:#2fbcea;stroke-miterlimit:10;}.cls-7{stroke-width:3px;}</style></defs><title>punto</title><g id="texto"><text class="cls-1" transform="translate(55.17 204.75)">A<tspan class="cls-2" x="12.08" y="0">c</tspan><tspan x="21.85" y="0">e</tspan><tspan class="cls-3" x="32.99" y="0">rc</tspan><tspan x="50.58" y="0">a</tspan><tspan class="cls-3" x="62.08" y="0">t</tspan><tspan x="69.45" y="0">e a un</tspan><tspan class="cls-4"><tspan x="-45.86" y="26.95">pun</tspan><tspan class="cls-3" x="-7.39" y="26.95">t</tspan><tspan x="0.99" y="26.95">o de ac</tspan><tspan class="cls-3" x="69.78" y="26.95">r</tspan><tspan class="cls-5" x="78.5" y="26.95">edi</tspan><tspan class="cls-6" x="109.2" y="26.95">t</tspan><tspan x="117.53" y="26.95">ación</tspan></tspan></text><path class="cls-7" d="M212.67,153H128.43l-.52-34.17h.49a1.49,1.49,0,0,0,1.15-.47,1.52,1.52,0,0,0,.4-1.18l-.29-4.65-.28-4.43a6.08,6.08,0,0,0,4.88-6.84L131.85,84.7a7.49,7.49,0,0,0-7.4-6.44H111.56a7.51,7.51,0,0,0-7.42,6.53l-2.23,15.77s-1,6.28,4.86,8c-.27,2-.51,8.66-.51,8.66a1.47,1.47,0,0,0,.38,1.14,1.51,1.51,0,0,0,1.14.46h.53L108,153H23.67m93.15,0h2.59l-.29-34.17h-2.06Zm-10.56-35.78"/><path class="cls-7" d="M126.13,66.68a8,8,0,1,1-8-8,8,8,0,0,1,8,8Zm0,0"/><circle class="cls-8" cx="117.12" cy="13" r="12"/><polygon class="cls-8" points="125.06 10.53 119.59 10.53 119.59 5.06 114.9 5.06 114.9 10.53 109.42 10.53 109.42 15.22 114.9 15.22 114.9 20.7 119.59 20.7 119.59 15.22 125.06 15.22 125.06 10.53"/><polyline class="cls-7" points="76.5 147.05 76.5 37.6 157.74 37.6 157.74 147.05"/></g></svg>